<svg xmlns="http://www.w3.org/2000/svg" viewBox="0 0 38 37.5"><defs><style>.cls-1,.cls-2{fill:none;stroke:#393839;stroke-miterlimit:10;}.cls-1{stroke-width:2px;}.cls-3{fill:#393839;}.cls-4{fill:#cd9834;}.cls-5{fill:#d6d6d6;}</style></defs><g id="Layer_2" data-name="Layer 2"><g id="Layer_2-2" data-name="Layer 2"><path class="cls-1" d="M5.72,12.07A13.5,13.5,0,0,1,32.27,12"/><path class="cls-2" d="M30.5,26v7a2,2,0,0,1-2,2h-5"/><rect class="cls-3" x="16" y="32.5" width="8" height="5" rx="2.5"/><polygon class="cls-4" points="16.39 17.82 15.5 19.6 18.17 19.6 18.17 20.49 20.83 20.49 20.83 19.6 22.61 19.6 23.5 17.82 20.83 17.82 20.83 16.93 18.17 16.93 18.17 17.82 16.39 17.82"/><path class="cls-5" d="M5.31,28A4.82,4.82,0,0,1,.5,23.19V16.81A4.82,4.82,0,0,1,5.31,12h.38A1.81,1.81,0,0,1,7.5,13.81V26.19A1.81,1.81,0,0,1,5.69,28Z"/><path class="cls-3" d="M5.69,12.5A1.31,1.31,0,0,1,7,13.81V26.19A1.31,1.31,0,0,1,5.69,27.5H5.31A4.31,4.31,0,0,1,1,23.19V16.81A4.31,4.31,0,0,1,5.31,12.5h.38m0-1H5.31A5.33,5.33,0,0,0,0,16.81v6.38A5.33,5.33,0,0,0,5.31,28.5h.38A2.32,2.32,0,0,0,8,26.19V13.81A2.32,2.32,0,0,0,5.69,11.5Z"/><path class="cls-5" d="M32.31,28a1.81,1.81,0,0,1-1.81-1.81V13.81A1.81,1.81,0,0,1,32.31,12h.38a4.82,4.82,0,0,1,4.81,4.81v6.38A4.82,4.82,0,0,1,32.69,28Z"/><path class="cls-3" d="M32.69,12.5A4.31,4.31,0,0,1,37,16.81v6.38a4.31,4.31,0,0,1-4.31,4.31h-.38A1.31,1.31,0,0,1,31,26.19V13.81a1.31,1.31,0,0,1,1.31-1.31h.38m0-1h-.38A2.32,2.32,0,0,0,30,13.81V26.19a2.32,2.32,0,0,0,2.31,2.31h.38A5.33,5.33,0,0,0,38,23.19V16.81a5.33,5.33,0,0,0-5.31-5.31Z"/></g></g></svg>