<svg xmlns="http://www.w3.org/2000/svg" viewBox="0 0 32.65 32.09"><defs><style>.cls-1{fill:#d6d6d6;}.cls-2{fill:#393839;}.cls-3{fill:#cd9834;}</style></defs><g id="Layer_2" data-name="Layer 2"><g id="Layer_2-2" data-name="Layer 2"><path class="cls-1" d="M9.61,4.67,6.1,1.15A6.59,6.59,0,0,1,7.5,1a6.43,6.43,0,0,1,4.59,1.9A6.5,6.5,0,0,1,13.7,9.41l-.18.58.43.42,11.4,11.41.33.33.47,0a3.17,3.17,0,0,1,.43,0,4.47,4.47,0,0,1,3.19,1.31,4.51,4.51,0,0,1-3.19,7.69,4.47,4.47,0,0,1-3.18-1.32,4.52,4.52,0,0,1-1.3-3.61l0-.47-.33-.34L10.41,14,10,13.52l-.58.18A6.57,6.57,0,0,1,7.49,14a6.41,6.41,0,0,1-4.59-1.9,6.49,6.49,0,0,1-1.75-6L4.66,9.62l.71.7.71-.7L9.61,6.08l.71-.71Z"/><path class="cls-2" d="M7.5,0a7.5,7.5,0,0,1,7.16,9.71l11.4,11.4a4.52,4.52,0,0,1,.52,0,5.5,5.5,0,1,1-5.47,5L9.71,14.66A7.65,7.65,0,0,1,7.49,15,7.49,7.49,0,0,1,.73,4.27L5.37,8.91,8.91,5.37,4.26.73A7.51,7.51,0,0,1,7.5,0ZM9.61,6.08,6.08,9.62l-.71.7-.71-.7L1.15,6.1a6.49,6.49,0,0,0,1.75,6A6.41,6.41,0,0,0,7.49,14a6.57,6.57,0,0,0,1.92-.29l.58-.18.42.43,11.41,11.4.33.34,0,.47a4.52,4.52,0,0,0,1.3,3.61,4.5,4.5,0,0,0,6.37,0,4.52,4.52,0,0,0,0-6.37,4.47,4.47,0,0,0-3.19-1.31,3.17,3.17,0,0,0-.43,0l-.47,0-.33-.33L14,10.41,13.52,10l.18-.58A6.5,6.5,0,0,0,12.09,2.9,6.43,6.43,0,0,0,7.5,1a6.59,6.59,0,0,0-1.4.15L9.61,4.67l.71.7Z"/><path class="cls-1" d="M4.61,24.86,11,18.45a33,33,0,0,1,2.62,2.33A31.33,31.33,0,0,1,16,23.4L9.56,29.81a3.47,3.47,0,0,1-2.47,1A3.45,3.45,0,0,1,3.6,27.33,3.47,3.47,0,0,1,4.61,24.86Z"/><path class="cls-2" d="M3.6,27.33a3.45,3.45,0,0,0,3.49,3.49,3.47,3.47,0,0,0,2.47-1L16,23.4a31.33,31.33,0,0,0-2.33-2.62A33,33,0,0,0,11,18.45L4.61,24.86A3.47,3.47,0,0,0,3.6,27.33Zm6.67,3.18a4.51,4.51,0,0,1-6.36,0,4.51,4.51,0,0,1,0-6.36l7-7s.42.3,1.05.81a31.49,31.49,0,0,1,2.37,2.13,30.32,30.32,0,0,1,2.94,3.42Z"/><polygon class="cls-1" points="26.8 9.27 26.67 9.4 21.6 14.46 20.19 13.05 25.26 7.98 25.38 7.85 25.46 7.69 27.3 3.67 29.72 3.1 31.55 4.93 30.98 7.35 26.96 9.19 26.8 9.27"/><path class="cls-2" d="M27,9.19l4-1.84.57-2.42L29.72,3.1l-2.42.57-1.84,4-.08.16L25.26,8l-5.07,5.07,1.41,1.41L26.67,9.4l.13-.13ZM19,12.82l5.54-5.55L26.6,2.81,30,2l2.62,2.62-.81,3.43-4.46,2-5.55,5.55-.73-.74-1.4-1.39Z"/><polygon class="cls-3" points="15.32 17.2 14.6 18.64 16.77 18.64 16.77 19.36 18.93 19.36 18.93 18.64 20.38 18.64 21.1 17.2 18.93 17.2 18.93 16.47 16.77 16.47 16.77 17.2 15.32 17.2"/></g></g></svg>