<svg xmlns="http://www.w3.org/2000/svg" viewBox="0 0 36 36"><defs><style>.cls-1{fill:#d6d6d6;}.cls-2,.cls-3,.cls-4{fill:none;}.cls-2,.cls-3{stroke:#393839;}.cls-2{stroke-miterlimit:10;}.cls-3{stroke-linecap:round;stroke-linejoin:round;stroke-width:0.5px;}.cls-5{fill:#393839;}.cls-6{fill:#cd9834;}</style></defs><g id="Layer_2" data-name="Layer 2"><g id="Layer_2-2" data-name="Layer 2"><path class="cls-1" d="M34.09,13.31a22.21,22.21,0,0,1,1,5.94c-3-.53-20.1-2.94-11.69,14.84-4.14,1.62-8.94.9-10.93.48l.05-.23C20.87,17,5.19,18.56,1.33,19.19a17.32,17.32,0,0,1,.22-6h0S18.12,16.13,34.09,13.31Z"/><path class="cls-2" d="M1.57,13.25s16.55,2.88,32.52.06l.34-.06"/><path class="cls-2" d="M.5,19.34s.31-.07.83-.15C5.19,18.56,20.87,17,12.5,34.34"/><path class="cls-2" d="M23.5,34.34l-.12-.25C15,16.31,32.1,18.72,35.07,19.25l.43.09"/><path class="cls-3" d="M1.5,20.34s-.09-.44-.17-1.15a17.32,17.32,0,0,1,.22-6A8.46,8.46,0,0,1,2,11.84"/><path class="cls-3" d="M33.5,11.34s.27.82.59,2a22.21,22.21,0,0,1,1,5.94,3.53,3.53,0,0,1-.07.59"/><path class="cls-3" d="M11.5,34.34s.35.1.95.23c2,.42,6.79,1.14,10.93-.48.21-.07.41-.16.62-.25"/><circle class="cls-4" cx="18" cy="18" r="18"/><path class="cls-5" d="M18,2A16,16,0,1,1,2,18,16,16,0,0,1,18,2m0-2A18,18,0,1,0,36,18,18,18,0,0,0,18,0Z"/><polygon class="cls-6" points="14.89 17.11 14 18.89 16.67 18.89 16.67 19.78 19.33 19.78 19.33 18.89 21.11 18.89 22 17.11 19.33 17.11 19.33 16.22 16.67 16.22 16.67 17.11 14.89 17.11"/></g></g></svg>