<svg xmlns="http://www.w3.org/2000/svg" viewBox="0 0 40 36"><defs><style>.cls-1{fill:#d6d6d6;}.cls-2{fill:#393839;}.cls-3{fill:#a5a5a5;}.cls-4{fill:#cd9834;}</style></defs><g id="Layer_2" data-name="Layer 2"><g id="Layer_6" data-name="Layer 6"><polygon class="cls-1" points="34.34 25.38 38.48 35 1.52 35 5.66 25.38 16 25.38 16.1 25.38 20 27 23.9 25.38 24 25.38 34.34 25.38"/><path class="cls-2" d="M34.34,25.38H23.9L20,27l-3.9-1.62H5.66L1.52,35h37Zm-10.44-1H35L40,36H0L5,24.38H16.1L20,26Z"/><path class="cls-2" d="M20,0a9,9,0,0,1,9,9c0,8-9,18-9,18S11,17,11,9A9,9,0,0,1,20,0Zm8,9A8,8,0,0,0,12,9c0,6.21,5.89,13.9,8,16.46C22.11,22.9,28,15.2,28,9Z"/><path class="cls-3" d="M20,1a8,8,0,0,1,8,8c0,6.2-5.89,13.9-8,16.46C17.89,22.9,12,15.21,12,9A8,8,0,0,1,20,1Zm6,9a6,6,0,1,0-6,6A6,6,0,0,0,26,10Z"/><path class="cls-2" d="M20,4a6,6,0,1,1-6,6A6,6,0,0,1,20,4Zm5,6a5,5,0,1,0-5,5A5,5,0,0,0,25,10Z"/><polygon class="cls-4" points="16.89 8.89 16 10.67 18.67 10.67 18.67 11.56 21.33 11.56 21.33 10.67 23.11 10.67 24 8.89 21.33 8.89 21.33 8 18.67 8 18.67 8.89 16.89 8.89"/></g></g></svg>