<svg xmlns="http://www.w3.org/2000/svg" viewBox="0 0 204.79 203"><defs><style>.cls-1{fill:#fff;}.cls-2{fill:none;}</style></defs><g id="Layer_2" data-name="Layer 2"><g id="Layer_1-2" data-name="Layer 1"><path class="cls-1" d="M22.7,154.31v-9.79h3.62v9.2c0,.37.28.57.85.61h6.06c.46,0,.69.2.69.59a1.14,1.14,0,0,1-1.3,1.29H25.76C23.72,156.21,22.7,155.58,22.7,154.31Z"/><path class="cls-1" d="M48.28,146.06a4,4,0,0,1,1.43,2,8.14,8.14,0,0,1,.32,2.3,7.62,7.62,0,0,1-.32,2.21,4.38,4.38,0,0,1-1.38,2.1A7.08,7.08,0,0,1,45.89,156a10.61,10.61,0,0,1-3.17.43,11.1,11.1,0,0,1-3.24-.4,6.31,6.31,0,0,1-2.42-1.31,4.11,4.11,0,0,1-1.33-2,7.33,7.33,0,0,1-.37-2.33,7.86,7.86,0,0,1,.32-2.2,4.27,4.27,0,0,1,1.46-2.1,5.33,5.33,0,0,1,1.06-.75,7.81,7.81,0,0,1,1.28-.54,11.2,11.2,0,0,1,3.24-.43A8.37,8.37,0,0,1,48.28,146.06Zm-1.89,4.2a4.6,4.6,0,0,0-.88-3,3.43,3.43,0,0,0-2.81-1.07,3.57,3.57,0,0,0-2.8,1,4.51,4.51,0,0,0-.87,3.06,6.22,6.22,0,0,0,0,.88,6.45,6.45,0,0,0,.16.81,3.31,3.31,0,0,0,.64,1.27,2.45,2.45,0,0,0,1.12.83,4.65,4.65,0,0,0,1.7.28,3.45,3.45,0,0,0,2.84-1.09A4.75,4.75,0,0,0,46.39,150.26Z"/><path class="cls-1" d="M51.15,144.52H63.62q.69,0,.69.6a1.14,1.14,0,0,1-1.3,1.29H59.55v7.79a1.9,1.9,0,0,1-2.12,2.18h-.51c-.66,0-1-.21-1-.61v-9.36H51.15Z"/><path class="cls-1" d="M64.9,144.52H77.37q.69,0,.69.6a1.15,1.15,0,0,1-1.31,1.29H73.3v7.79a1.91,1.91,0,0,1-2.13,2.18h-.5c-.66,0-1-.21-1-.61v-9.36H64.9Z"/><path class="cls-1" d="M79.79,144.52H90.31q.69,0,.69.6a1.14,1.14,0,0,1-1.3,1.29H83.4v2.92h6.3c.46,0,.69.21.69.61,0,.81-.43,1.21-1.3,1.21H83.4v2.57c0,.4.32.61,1,.61h6c.46,0,.69.2.69.59a1.14,1.14,0,0,1-1.3,1.29H82.84c-2,0-3-.63-3-1.9Z"/><path class="cls-1" d="M118.68,144.5h3.56l-4.65,11.7H116a2.08,2.08,0,0,1-2.08-1.31l-2.84-6.35c-.82,2-1.49,3.56-2,4.83s-.94,2.21-1.19,2.83h-2a1.84,1.84,0,0,1-1.81-1.28L99.94,144.5h3.93l2.58,8.41q1.38-3.18,2.21-5.27c.55-1.4.92-2.44,1.11-3.14h3l3.38,8.44Z"/><path class="cls-1" d="M136.23,146.06a4,4,0,0,1,1.43,2,8.14,8.14,0,0,1,.32,2.3,7.62,7.62,0,0,1-.32,2.21,4.38,4.38,0,0,1-1.38,2.1,7,7,0,0,1-2.45,1.28,10.5,10.5,0,0,1-3.16.43,11,11,0,0,1-3.24-.4,6.31,6.31,0,0,1-2.42-1.31,4,4,0,0,1-1.33-2,7.33,7.33,0,0,1-.37-2.33,7.86,7.86,0,0,1,.32-2.2,4.21,4.21,0,0,1,1.46-2.1,5.33,5.33,0,0,1,1.06-.75,7.46,7.46,0,0,1,1.28-.54,11.1,11.1,0,0,1,3.24-.43A8.37,8.37,0,0,1,136.23,146.06Zm-1.89,4.2a4.6,4.6,0,0,0-.88-3,3.44,3.44,0,0,0-2.82-1.07,3.56,3.56,0,0,0-2.79,1,4.51,4.51,0,0,0-.88,3.06,6.19,6.19,0,0,0,.06.88,5,5,0,0,0,.16.81,3.31,3.31,0,0,0,.64,1.27,2.42,2.42,0,0,0,1.11.83,4.69,4.69,0,0,0,1.7.28,3.47,3.47,0,0,0,2.85-1.09A4.82,4.82,0,0,0,134.34,150.26Z"/><path class="cls-1" d="M143.64,150.62V154a1.9,1.9,0,0,1-2.12,2.18H141c-.6,0-.9-.2-.9-.61V144.44h6.22l1.34,0,1.26.06a8.08,8.08,0,0,1,1.16.17,5.59,5.59,0,0,1,1,.36,3.27,3.27,0,0,1,1.44,1.12,3.17,3.17,0,0,1,.53,1.86,2.74,2.74,0,0,1-1.09,2.25,7.68,7.68,0,0,1-3.83,1.15l5,3.71c.69.66.43,1-.77,1h-2.45Zm0-.51H146a4.82,4.82,0,0,0,2.66-.55,1.77,1.77,0,0,0,.8-1.55,3.42,3.42,0,0,0,0-.45c0-.14-.06-.28-.1-.41a1.67,1.67,0,0,0-.45-.74,1.64,1.64,0,0,0-.85-.32l-.69-.05h-3.7Z"/><path class="cls-1" d="M155.29,154.31v-9.79h3.61v9.2c0,.37.29.57.85.61h6.07c.46,0,.69.2.69.59a1.15,1.15,0,0,1-1.3,1.29h-6.86C156.31,156.21,155.29,155.58,155.29,154.31Z"/><path class="cls-1" d="M168.79,144.52H175a15.43,15.43,0,0,1,3.46.35,6.29,6.29,0,0,1,2.44,1.12,5,5,0,0,1,.81.85,4.15,4.15,0,0,1,.58,1,6.55,6.55,0,0,1,.45,2.45,6.35,6.35,0,0,1-.4,2.3,4.27,4.27,0,0,1-1.25,1.89,6.54,6.54,0,0,1-2.39,1.3,12.25,12.25,0,0,1-3.46.43h-3.38c-2,0-3-.63-3-1.9Zm4.5,9.69h2.26a6.14,6.14,0,0,0,1.78-.21,2,2,0,0,0,1.06-.7A3.62,3.62,0,0,0,179,152a6.83,6.83,0,0,0,.11-.79c0-.27,0-.55,0-.83a4.78,4.78,0,0,0,0-.64q0-.35-.09-.72a5.06,5.06,0,0,0-.17-.75,3.55,3.55,0,0,0-.31-.69,2.76,2.76,0,0,0-1.11-.93,5.38,5.38,0,0,0-2.13-.34h-2.9v7.29C172.33,154,172.65,154.21,173.29,154.21Z"/><path class="cls-1" d="M109.87,118.77a14.61,14.61,0,0,1,7.85-.85c5.93.8,12.44,9.13,12.44,9.13l3.39-2.31S123.34,112,109.87,118.77Z"/><path class="cls-1" d="M109.87,118.77a6.46,6.46,0,0,0-1.17.63Q109.29,119.06,109.87,118.77Z"/><path class="cls-1" d="M106.3,72h-4.16s.91,3.76-3.1,10.2-13,5.94-13,5.94C103.1,90.54,106.3,72,106.3,72Z"/><path class="cls-1" d="M104.43,90.21c13.92-2.7,23.35-14.49,27.54-23.4s6.64-35.11-9.6-46.28c0,0,12,11.26,11.61,27.33s-5.41,29-23.23,37.72S90,88.79,79.58,89.86A59.17,59.17,0,0,0,104.43,90.21Z"/><path class="cls-1" d="M87.93,96.32a40.91,40.91,0,0,0,11-.26c12.49-2.18,19.07-6.69,27.28-15.13S137.48,57.35,137.48,54s.87-8.79-3.24-19.88c-2.66-7.21-6.2-11.26-8.35-13.21A11.26,11.26,0,0,0,124,19.45c9.2,7.74,12.46,25.61,12.61,28.76h0c0,.71,0,1.43,0,2.17a50.73,50.73,0,0,1-3.76,17.07,71.58,71.58,0,0,1-4.43,8.19,41.21,41.21,0,0,1-5.46,6.41c-1.2,1-2.55,2.13-4,3.37C101.57,98.22,78.78,92.1,78.32,92l0,0-.44-.18a58.89,58.89,0,0,0-13.36-3.93c3.29,2.9,9.83,5.82,17.15,7.44A21,21,0,0,0,87.93,96.32Z"/><path class="cls-1" d="M86,101.39c18.69.79,29.95-6,32.75-8.56s14.93-11,18.76-27.16,1.06-29.51-3.22-36.85-9.08-9.95-9.08-9.95c6.81,5.32,10.22,15.28,10.22,15.28,8.55,21.13-1.66,39.56-7.13,47.36S107.7,100.43,88.14,99,63,87.94,60.28,87.07s-3.49,1.31-3.49,1.31A43.22,43.22,0,0,0,86,101.39Z"/><path class="cls-1" d="M55.56,95.25C60.1,98.51,72.21,106.54,84.67,107h.08c1.55.18,32.09,3.35,48.89-24.77h0c7.11-11.65,8.62-26,7.4-32.63,0,0,1,25.26-14,38.89S95.62,106,82,103.28,56.84,90.94,55.1,90,51,92,55.56,95.25Z"/><path class="cls-1" d="M119,102.58c10-7.56,21.77-22.47,23.64-34.11s.36-14.2,2.21-27.13,12.81-23.4,12.81-23.4c-10.48,8.73-15,21.89-14.67,35.43s-3.61,20.86-6.58,27.32-14.67,20.79-28.3,25.07-22.88,5.15-37.72,0-19-12-19-12c-.58,4.49,0,4.25,0,4.25A52.9,52.9,0,0,0,79.58,111.2C96.61,113.3,109,110.15,119,102.58Z"/><path class="cls-1" d="M128.92,99c15.83-17.69,14.78-26,16.41-35.62s-.58-17.12,2.57-26.09,10.36-17.81,10.36-17.81a49.67,49.67,0,0,0-12.11,20.72,41.34,41.34,0,0,0-1.05,11.24c.12,7.34-1.68,20-3.69,25.85s-9.23,17.87-23.79,28.35-30.33,8.73-38,7.92-20.8-5.18-26.66-11.44c0,0,5.09,9.58,20.23,13.53S113.08,116.67,128.92,99Z"/><path class="cls-1" d="M148,41.75c-2.79,16.33.53,23.4-3.75,34.32S130.78,104.91,111.22,114s-39.33,3.56-39.33,3.56,13.89,5.67,26.73,3,18.51-6.35,27.68-13.56,13.27-17.35,16.5-23.38,4.89-14,5.15-21.57S146.47,30.39,159.83,21C159.83,21,150.84,25.42,148,41.75Z"/><path class="cls-1" d="M31.76,161.4h4.15l7.91,14c.72,1.33.45,2-.79,2H39.91l-1.83-3.59H29.41L28.13,176a2.8,2.8,0,0,1-2.77,1.35H22.74Zm2.07,3.09-3.35,7h6.67Z"/><path class="cls-1" d="M63.9,169.41a8,8,0,0,1-.1,1.31,9.83,9.83,0,0,1-.28,1.22,11,11,0,0,1-.46,1.1,5.77,5.77,0,0,1-.64,1,12.66,12.66,0,0,1-1.32,1.54,8.66,8.66,0,0,1-.69.57,4.61,4.61,0,0,1-.72.46l4.14,2v.94a26.46,26.46,0,0,1-3.7.21,5.69,5.69,0,0,1-1.86-.37,2.43,2.43,0,0,1-1.11-.81,3.45,3.45,0,0,1-.62-1.13l-.55,0-.56,0-.53,0h-.54a12.45,12.45,0,0,1-6.77-1.85q-2.7-1.69-2.7-6.36a7.54,7.54,0,0,1,2.39-5.76,10,10,0,0,1,7.08-2.43,15,15,0,0,1,4.22.54,7.66,7.66,0,0,1,2.94,1.62,6.71,6.71,0,0,1,1.8,2.57A10,10,0,0,1,63.9,169.41Zm-4.77-.16a5.79,5.79,0,0,0-1.34-4,4.37,4.37,0,0,0-3.39-1.46c-1.85,0-3.06.52-3.63,1.58a7.39,7.39,0,0,0-1.14,3.92A5.72,5.72,0,0,0,51,173.36a4.59,4.59,0,0,0,3.53,1.46,4.36,4.36,0,0,0,3.11-1.13,4.53,4.53,0,0,0,1.07-1.78A8.8,8.8,0,0,0,59.13,169.25Z"/><path class="cls-1" d="M75.31,174.55a7.1,7.1,0,0,0,2.9-.47,1.56,1.56,0,0,0,1-1.47V161.38h4.22v11.28A4.29,4.29,0,0,1,83,174.8a4.59,4.59,0,0,1-1.56,1.47,8.67,8.67,0,0,1-2.59.88,18.93,18.93,0,0,1-3.52.29c-.67,0-1.3,0-1.89-.07a14.23,14.23,0,0,1-1.68-.22,9.14,9.14,0,0,1-2.76-.88,5,5,0,0,1-1.69-1.47,3.92,3.92,0,0,1-.59-2.14V161.38h4.7v11.25a1.54,1.54,0,0,0,1,1.45A7.38,7.38,0,0,0,75.31,174.55Z"/><path class="cls-1" d="M94.25,161.4H98.4l7.91,14c.72,1.33.45,2-.79,2h-3.11l-1.83-3.59H91.9L90.62,176a2.8,2.8,0,0,1-2.76,1.35H85.23Zm2.07,3.09-3.35,7h6.67Z"/><path class="cls-1" d="M113.05,169.72v4.65c0,2-.92,3-2.76,3h-.66q-1.17,0-1.17-.84V161.29h8.08c.6,0,1.19,0,1.75,0l1.64.08a10.13,10.13,0,0,1,1.51.24,6,6,0,0,1,1.33.48,4.18,4.18,0,0,1,1.86,1.54,4.37,4.37,0,0,1,.69,2.52,3.79,3.79,0,0,1-1.41,3.07q-1.38,1.17-5,1.58l6.43,5c.9.91.56,1.36-1,1.36h-3.18Zm0-.7h3.08a6.09,6.09,0,0,0,3.46-.74,2.45,2.45,0,0,0,1-2.12,3.08,3.08,0,0,0-.05-.61,5.05,5.05,0,0,0-.12-.56,2.33,2.33,0,0,0-.59-1,2.13,2.13,0,0,0-1.1-.43q-.39,0-.9-.06c-.35,0-.74,0-1.18,0h-3.63Z"/><path class="cls-1" d="M133.31,161.42v13.2c0,2-.92,3-2.77,3h-.65c-.83,0-1.25-.28-1.25-.84V161.42Z"/><path class="cls-1" d="M145.75,174.55a7.15,7.15,0,0,0,2.91-.47,1.55,1.55,0,0,0,1-1.47V161.38h4.22v11.28a4.19,4.19,0,0,1-.52,2.14,4.65,4.65,0,0,1-1.55,1.47,8.74,8.74,0,0,1-2.6.88,18.86,18.86,0,0,1-3.52.29c-.67,0-1.3,0-1.89-.07a14.33,14.33,0,0,1-1.67-.22,9.12,9.12,0,0,1-2.77-.88,5.13,5.13,0,0,1-1.69-1.47,4,4,0,0,1-.59-2.14V161.38h4.7v11.25a1.55,1.55,0,0,0,1,1.45A7.41,7.41,0,0,0,145.75,174.55Z"/><path class="cls-1" d="M174.37,161.4h4.7l2.7,15q.21,1-1.14,1h-3.42l-1.59-10.51-5.4,10.51h-2.93l-5.4-10.63c-.23,1.18-.46,2.51-.7,4s-.52,3.14-.82,5c-.14,1.11-1,1.67-2.59,1.67H156l2.83-15.95h4.77l5.22,10.94Z"/><rect class="cls-2" width="204.79" height="203" rx="49.36"/></g></g></svg>