<svg xmlns="http://www.w3.org/2000/svg" viewBox="0 0 56.9 56.9"><defs><style>.cls-1{fill:#f6fcfc;}.cls-2{fill:#fff;}</style></defs><g id="Layer_2" data-name="Layer 2"><g id="Layer_1-2" data-name="Layer 1"><path class="cls-1" d="M22.65,15.41l-.09,4.25,12,.24.09-4.25,4.63.1-.19,9.44q-.14,6.54-3.48,6.47l-14-.29c-2.6-.05-3.88-1.35-3.82-3.91L18,15.31ZM42.79,36.79a2.49,2.49,0,0,1,.09,1.85,2.06,2.06,0,0,1-1.4,1.23,13,13,0,0,1-2,.63c-.89.23-1.92.43-3.08.62s-2.48.33-3.86.44a42.25,42.25,0,0,1-4.23.12,40.26,40.26,0,0,1-4.25-.29c-1.41-.17-2.71-.37-3.89-.6S17.9,40.3,17,40a13.62,13.62,0,0,1-2.1-.72,2,2,0,0,1-1.31-1.25,2.18,2.18,0,0,1,.26-1.88,1.28,1.28,0,0,1,.75-.57,2.79,2.79,0,0,1,.9-.12,5.94,5.94,0,0,1,.92.17l.92.25c.26.1.7.23,1.35.41s1.45.35,2.39.54,2,.34,3.27.48l1.6.18.1-4.88,4.59.1-.1,4.87c.72,0,1.39,0,2-.1,1.19-.11,2.2-.25,3-.41s1.51-.31,2-.46l1.26-.36,1-.2A7.37,7.37,0,0,1,41,36a2.66,2.66,0,0,1,1.06.17A1.4,1.4,0,0,1,42.79,36.79Zm-19.18-9.2,9.79.2q1,0,1.05-2l0-2-12-.25-.06,2.86A1.08,1.08,0,0,0,23.61,27.59Z"/><path class="cls-2" d="M28.45,56.9A28.45,28.45,0,1,1,56.9,28.45,28.48,28.48,0,0,1,28.45,56.9Zm0-55.35a26.9,26.9,0,1,0,26.9,26.9A26.93,26.93,0,0,0,28.45,1.55Z"/><path class="cls-2" d="M18.6,12.81C17.37,15.87,14,18.53,11,18.75s-4.35-2.06-3.11-5.12,4.64-5.71,7.6-5.93S19.84,9.76,18.6,12.81Z"/><path class="cls-2" d="M8.24,20.07A3.25,3.25,0,0,1,5.78,22c-1,.07-1.41-.67-1-1.66a3.23,3.23,0,0,1,2.46-1.92C8.19,18.34,8.64,19.08,8.24,20.07Z"/><path class="cls-2" d="M8.61,23.4a1.71,1.71,0,0,1-1.29,1c-.5,0-.74-.35-.53-.87a1.68,1.68,0,0,1,1.29-1C8.58,22.5,8.82,22.89,8.61,23.4Z"/><path class="cls-2" d="M34.08,52.7a28.47,28.47,0,0,0,7.31-3.19,26.73,26.73,0,0,0,6.17-4.7,18.17,18.17,0,0,0,4.61-14.68,22.81,22.81,0,0,1-7.12,14.31,28.66,28.66,0,0,1-14.44,7.17,23,23,0,0,1-7,.33c.85.1,1.66.72,2.5.89s1.53.25,2.27.33A16,16,0,0,0,34.08,52.7Z"/></g></g></svg>