<svg xmlns="http://www.w3.org/2000/svg" viewBox="0 0 56.9 56.91"><defs><style>.cls-1{fill:#f6fcfc;}.cls-2{fill:#fff;}</style></defs><g id="Layer_2" data-name="Layer 2"><g id="Layer_1-2" data-name="Layer 1"><path class="cls-1" d="M14.88,26l27.64-.17c.56,0,.84.39.85,1.17,0,1.6-.52,2.4-1.6,2.4l-26.87.17ZM24.4,41.08,39.18,41c.56,0,.85.34.85,1,0,1.61-.52,2.43-1.6,2.43l-15.55.1c-2.52,0-3.78-1.21-3.8-3.68l0-4.54,15.15-.1c.43,0,.64-.35.64-1.05v-.47L19,34.82l0-3.47,18.38-.11a1.65,1.65,0,0,1,1.9,1.84v.7q0,5.67-2.86,5.68l-12.9.08v.71A.73.73,0,0,0,24.4,41.08ZM33.8,25a24.16,24.16,0,0,0,1.27-6.58l-16.16.1,0-3.7,18.76-.12a1.65,1.65,0,0,1,1.89,1.84v1.42a15.17,15.17,0,0,1-1.44,5.86A1.72,1.72,0,0,1,36.39,25Z"/><path class="cls-2" d="M33.28,56.49A28.45,28.45,0,1,1,56.49,23.63,28.48,28.48,0,0,1,33.28,56.49ZM23.88,1.94A26.9,26.9,0,1,0,55,23.89,26.93,26.93,0,0,0,23.88,1.94Z"/><path class="cls-2" d="M16.09,14.72c-.7,3.22-3.6,6.41-6.48,7.14S5,20.56,5.68,17.34s3.6-6.41,6.47-7.14S16.79,11.5,16.09,14.72Z"/><path class="cls-2" d="M7.11,23.62A3.22,3.22,0,0,1,5,25.93c-.93.24-1.5-.42-1.27-1.46a3.23,3.23,0,0,1,2.1-2.31C6.77,21.93,7.34,22.58,7.11,23.62Z"/><path class="cls-2" d="M8,26.85a1.69,1.69,0,0,1-1.1,1.2c-.48.13-.78-.21-.66-.76a1.73,1.73,0,0,1,1.09-1.21C7.86,26,8.16,26.3,8,26.85Z"/><path class="cls-2" d="M38.12,51.39A28.21,28.21,0,0,0,44.78,47a26.59,26.59,0,0,0,5.28-5.68,18.16,18.16,0,0,0,2-15.25A22.81,22.81,0,0,1,47.53,41.4a28.66,28.66,0,0,1-13,9.51,22.8,22.8,0,0,1-6.86,1.51c.85,0,1.76.43,2.62.46s1.55,0,2.29-.06A16,16,0,0,0,38.12,51.39Z"/></g></g></svg>