<svg xmlns="http://www.w3.org/2000/svg" viewBox="0 0 592.62 151.46"><defs><style>.cls-1{fill:#da291c;}</style></defs><g id="Layer_2" data-name="Layer 2"><g id="Layer_1-2" data-name="Layer 1"><path class="cls-1" d="M0,48.08V.88H13.57V45.21c0,1.8,1.07,2.79,3.2,2.95H39.52c1.73,0,2.6,1,2.6,2.87,0,4.14-1.64,6.22-4.9,6.22H11.48Q0,57.25,0,48.08Z"/><path class="cls-1" d="M96,8.29a19.91,19.91,0,0,1,5.38,9.65A51.1,51.1,0,0,1,102.59,29a48.67,48.67,0,0,1-1.2,10.69,22.69,22.69,0,0,1-5.18,10.12A25.48,25.48,0,0,1,87,56,31.34,31.34,0,0,1,75.15,58,33.55,33.55,0,0,1,63,56.13a23,23,0,0,1-9.08-6.3,21,21,0,0,1-5-9.57A44.9,44.9,0,0,1,47.5,29a49.73,49.73,0,0,1,1.2-10.6A21.57,21.57,0,0,1,54.19,8.29a21.47,21.47,0,0,1,4-3.59A28.57,28.57,0,0,1,63,2.07,33.74,33.74,0,0,1,75.15,0Q88.32,0,96,8.29ZM88.92,28.54q0-9.09-3.29-14.35T75.05,9q-7.18,0-10.48,4.78T61.28,28.54a41.75,41.75,0,0,0,.2,4.27,34.5,34.5,0,0,0,.59,3.87,18.62,18.62,0,0,0,2.4,6.14,9.62,9.62,0,0,0,4.19,4,13.6,13.6,0,0,0,6.39,1.36q7.38,0,10.68-5.26T88.92,28.54Z"/><path class="cls-1" d="M106.78.88h46.81c1.73,0,2.59,1,2.59,2.87,0,4.14-1.63,6.22-4.89,6.22h-13V47.52q0,10.53-8,10.52h-1.9q-3.69,0-3.69-2.95V10h-18Z"/><path class="cls-1" d="M158.38.88h46.81c1.72,0,2.59,1,2.59,2.87,0,4.14-1.63,6.22-4.89,6.22h-13V47.52q0,10.53-8,10.52H180q-3.71,0-3.7-2.95V10h-18Z"/><path class="cls-1" d="M214.27.88h39.52c1.73,0,2.59,1,2.59,2.87,0,4.14-1.63,6.22-4.89,6.22H227.84V24.08h23.65c1.73,0,2.6,1,2.6,3q0,5.82-4.89,5.82H227.84V45.21c0,2,1.2,2.95,3.59,2.95h22.36c1.73,0,2.59,1,2.59,2.87,0,4.14-1.63,6.22-4.89,6.22H225.74q-11.48,0-11.47-9.17Z"/><path class="cls-1" d="M290,.88h46.81c1.73,0,2.59,1,2.59,2.87,0,4.14-1.63,6.22-4.89,6.22h-13V47.52q0,10.53-8,10.52h-1.9Q308,58,308,55.09V10H290Z"/><path class="cls-1" d="M390.81,8.29a20,20,0,0,1,5.39,9.65A51.1,51.1,0,0,1,397.4,29a48.67,48.67,0,0,1-1.2,10.69A22.81,22.81,0,0,1,391,49.83,25.52,25.52,0,0,1,381.83,56,31.43,31.43,0,0,1,370,58a33.49,33.49,0,0,1-12.17-1.91,23.06,23.06,0,0,1-9.09-6.3,21.09,21.09,0,0,1-5-9.57A44.89,44.89,0,0,1,342.31,29a50.35,50.35,0,0,1,1.19-10.6A21.57,21.57,0,0,1,349,8.29a21.22,21.22,0,0,1,4-3.59,28.57,28.57,0,0,1,4.79-2.63A33.73,33.73,0,0,1,370,0Q383.12,0,390.81,8.29Zm-7.09,20.25q0-9.09-3.29-14.35T369.85,9q-7.19,0-10.48,4.78t-3.29,14.75c0,1.49.07,2.91.2,4.27a32.32,32.32,0,0,0,.6,3.87,18.62,18.62,0,0,0,2.39,6.14,9.62,9.62,0,0,0,4.19,4,13.6,13.6,0,0,0,6.39,1.36c4.92,0,8.49-1.76,10.68-5.26S383.72,34.55,383.72,28.54Z"/><path class="cls-1" d="M471.85.8h13.37L467.75,57.17h-6.08q-5.7,0-7.79-6.3L443.2,20.25q-4.59,14.12-7.63,23.28t-4.44,13.64h-7.39Q419,57.17,417,51L401.49.8h14.77l9.68,40.5q5.19-15.31,8.28-25.39T438.41.8h11.08l12.68,40.66Z"/><path class="cls-1" d="M492.8.88h39.52c1.73,0,2.6,1,2.6,2.87,0,4.14-1.63,6.22-4.89,6.22H506.37V24.08H530c1.73,0,2.59,1,2.59,3q0,5.82-4.89,5.82H506.37V45.21c0,2,1.2,2.95,3.6,2.95h22.35c1.73,0,2.6,1,2.6,2.87,0,4.14-1.63,6.22-4.89,6.22H504.28q-11.47,0-11.48-9.17Z"/><path class="cls-1" d="M555.68,30.3V46.72q0,10.53-8,10.53H545.8c-2.27,0-3.4-1-3.4-3V.48h23.36c1.72,0,3.4,0,5,.12s3.21.17,4.74.28a25.4,25.4,0,0,1,4.35.83,15.41,15.41,0,0,1,3.84,1.72,13.21,13.21,0,0,1,5.39,5.42,18.18,18.18,0,0,1,2,8.93A14.74,14.74,0,0,1,587,28.62q-4,4.15-14.37,5.58L591.2,52.06q3.9,4.78-2.89,4.79h-9.18Zm0-2.47h8.88q7,0,10-2.63a9.49,9.49,0,0,0,3-7.5,15,15,0,0,0-.15-2.15c-.1-.69-.21-1.36-.35-2A8.66,8.66,0,0,0,575.34,10a5.5,5.5,0,0,0-3.2-1.52c-.73-.1-1.59-.18-2.59-.24s-2.13-.08-3.4-.08H555.68Z"/><path class="cls-1" d="M90.42,86.43h12l22.86,49.35q3.09,7-2.3,7h-9l-5.29-12.68H83.63L79.94,138q-2,4.78-8,4.79H64.37Zm6,10.92-9.68,24.88H106Z"/><path class="cls-1" d="M183.23,114.73a34.75,34.75,0,0,1-.3,4.63,40.44,40.44,0,0,1-.8,4.3,38.89,38.89,0,0,1-1.34,3.91,21,21,0,0,1-1.85,3.51,42,42,0,0,1-3.79,5.42c-.67.74-1.33,1.42-2,2a16.2,16.2,0,0,1-2.09,1.64l12,7.17v3.35a59.87,59.87,0,0,1-10.68.72,14,14,0,0,1-5.39-1.28,7.32,7.32,0,0,1-3.19-2.87,13,13,0,0,1-1.8-4q-.79.08-1.59.12c-.54,0-1.07.06-1.6.11s-1.05.1-1.55.12-1,0-1.54,0a31.12,31.12,0,0,1-19.56-6.53q-7.78-6-7.79-22.49,0-12.44,6.89-20.33,7.58-8.61,20.46-8.61a35.82,35.82,0,0,1,12.17,1.91,21.4,21.4,0,0,1,8.48,5.74,23.63,23.63,0,0,1,5.19,9.09A41.81,41.81,0,0,1,183.23,114.73Zm-13.77-.56q0-9.09-3.89-14.27a11.63,11.63,0,0,0-9.78-5.18q-8,0-10.48,5.58a30.7,30.7,0,0,0-3.3,13.87q0,9.42,4,14.52a12.14,12.14,0,0,0,10.18,5.18,11.4,11.4,0,0,0,9-4,16.72,16.72,0,0,0,3.09-6.3A37.89,37.89,0,0,0,169.46,114.17Z"/><path class="cls-1" d="M216.16,132.91q5.49,0,8.39-1.67a5.56,5.56,0,0,0,3-5.19V86.35h12.18v39.86a17.67,17.67,0,0,1-1.5,7.58,14.85,14.85,0,0,1-4.49,5.18,21.69,21.69,0,0,1-7.49,3.11,43.81,43.81,0,0,1-10.18,1q-2.9,0-5.43-.24a33.94,33.94,0,0,1-4.84-.8,22.78,22.78,0,0,1-8-3.11,16,16,0,0,1-4.89-5.18,16.55,16.55,0,0,1-1.7-7.58V86.35h13.58v39.78a5.52,5.52,0,0,0,2.89,5.11C209.68,132.35,212.5,132.91,216.16,132.91Z"/><path class="cls-1" d="M270.85,86.43h12l22.85,49.35q3.09,7-2.29,7h-9l-5.29-12.68H264.07l-3.7,7.89q-2,4.78-8,4.79h-7.58Zm6,10.92-9.68,24.88h19.26Z"/><path class="cls-1" d="M325.14,115.85v16.42q0,10.53-8,10.53h-1.9c-2.26,0-3.39-1-3.39-3V86h23.35q2.59,0,5,.12c1.63.08,3.21.17,4.74.28a24.64,24.64,0,0,1,4.35.84A15.38,15.38,0,0,1,353.19,89a13.21,13.21,0,0,1,5.39,5.42,18.18,18.18,0,0,1,2,8.93,14.74,14.74,0,0,1-4.09,10.84q-4,4.15-14.37,5.58l18.56,17.87q3.9,4.77-2.89,4.78H348.6Zm0-2.47H334q7,0,10-2.63a9.49,9.49,0,0,0,3-7.5,15,15,0,0,0-.15-2.15c-.1-.69-.22-1.36-.35-2a8.66,8.66,0,0,0-1.7-3.59A5.44,5.44,0,0,0,341.61,94c-.73-.1-1.6-.18-2.59-.24s-2.13-.08-3.4-.08H325.14Z"/><path class="cls-1" d="M383.62,86.51v46.64q0,10.53-8,10.52h-1.9q-3.58,0-3.59-2.95V86.51Z"/><path class="cls-1" d="M419.55,132.91q5.49,0,8.39-1.67a5.56,5.56,0,0,0,3-5.19V86.35H443.1v39.86a17.82,17.82,0,0,1-1.49,7.58,14.85,14.85,0,0,1-4.49,5.18,21.69,21.69,0,0,1-7.49,3.11,43.81,43.81,0,0,1-10.18,1c-1.93,0-3.74-.08-5.44-.24a34.42,34.42,0,0,1-4.84-.8,22.65,22.65,0,0,1-8-3.11,15.86,15.86,0,0,1-4.89-5.18,16.55,16.55,0,0,1-1.7-7.58V86.35h13.58v39.78a5.52,5.52,0,0,0,2.89,5.11C413.07,132.35,415.89,132.91,419.55,132.91Z"/><path class="cls-1" d="M502.19,86.43h13.57l7.78,52.86q.6,3.51-3.29,3.51h-9.88l-4.59-37.16L490.21,142.8h-8.48l-15.57-37.56q-1,6.23-2.05,14.12t-2.34,17.54q-.6,5.9-7.49,5.9h-5.09l8.18-56.37h13.78l15.07,38.67Z"/></g></g></svg>