<svg xmlns="http://www.w3.org/2000/svg" viewBox="0 0 409.21 43.2"><defs><style>.cls-1{fill:#f6fcfc;}</style></defs><g id="Layer_2" data-name="Layer 2"><g id="Layer_1-2" data-name="Layer 1"><path class="cls-1" d="M4.32,10.61H0V6.24L2.64,2.4H5.28l-1,3.84Zm6.72,0H6.72V6.24L9.36,2.4H12L11,6.24Z"/><path class="cls-1" d="M17.09,30.48V2.06h6.53V28.75a1.56,1.56,0,0,0,1.53,1.78h11c.83,0,1.24.57,1.24,1.73Q37.34,36,35,36H22.61Q17.09,36,17.09,30.48Z"/><path class="cls-1" d="M39.6,2.06H62.11c.83,0,1.25.58,1.25,1.73,0,2.5-.79,3.75-2.35,3.75H54.77v22.6q0,6.34-3.84,6.34H50a1.57,1.57,0,0,1-1.77-1.78V7.54H39.6Z"/><path class="cls-1" d="M76.51,2.06h5.76l11,29.72c1,2.81.63,4.22-1.1,4.22H87.84l-2.55-7.63h-12l-1.78,4.75A3.76,3.76,0,0,1,67.63,36H64Zm2.88,6.58-4.65,15H84Z"/><path class="cls-1" d="M97.39,2.4h4.32V6.77l-2.64,3.84H96.43l1-3.84Zm6.72,0h4.32V6.77l-2.64,3.84h-2.64l1-3.84Z"/><path class="cls-1" d="M152.16,31.06a3.48,3.48,0,0,1,.17,2.54,2.86,2.86,0,0,1-1.9,1.73,17.26,17.26,0,0,1-2.74.93c-1.21.34-2.62.65-4.22.94s-3.4.53-5.3.72-3.85.29-5.84.29-3.9-.1-5.85-.29-3.75-.43-5.38-.72-3.14-.6-4.44-.94a18.84,18.84,0,0,1-2.9-.93,2.68,2.68,0,0,1-1.85-1.68,3,3,0,0,1,.31-2.59,1.79,1.79,0,0,1,1-.82,4.17,4.17,0,0,1,1.25-.19,7.31,7.31,0,0,1,1.27.21c.43.12.86.22,1.27.32s1,.3,1.87.52,2,.45,3.32.68,2.81.41,4.51.57l2.21.19v-6h6.33v6c1,0,1.91-.09,2.74-.19,1.63-.19,3-.41,4.15-.65s2.07-.47,2.81-.69l1.73-.53c.38-.1.83-.2,1.34-.31a10.19,10.19,0,0,1,1.58-.22,3.79,3.79,0,0,1,1.47.19A2,2,0,0,1,152.16,31.06ZM117.89,10.51H139c.6,0,.91-.53.91-1.58V6.48h-22V1.2h25.72a2.35,2.35,0,0,1,2.69,2.64V7.78q0,8-4.13,8h-17.9v2.93a1.06,1.06,0,0,0,1.2,1.2h20.59c.8,0,1.2.54,1.2,1.63,0,2.43-.77,3.65-2.3,3.65h-21.7q-5.37,0-5.37-5.28Z"/><path class="cls-1" d="M175,.48h6.38V7.2a1.48,1.48,0,0,0,1.68,1.68h21.31q1.2,0,1.2,1.68,0,3.6-2.25,3.6H192.86v3.12H208.8c.8,0,1.2.53,1.2,1.58q0,3.51-2.31,3.51h-38.3V17.28h17.14V14.16h-6.15q-5.37,0-5.37-5.28Zm.24,31h21.6c.6,0,.91-.5.91-1.49v-.43H175.25V24.58h26.2a2.35,2.35,0,0,1,2.69,2.64v1c0,5.22-1.37,7.83-4.13,7.83H181.63v.77a1.06,1.06,0,0,0,1.2,1.2H203.9c.8,0,1.2.49,1.2,1.48,0,2.31-.77,3.46-2.3,3.46H180.62q-5.37,0-5.37-5.28Z"/><path class="cls-1" d="M216.24,14.11H228c.61,0,.92-.53.92-1.58V7.44H216.24V2.16h16.41a2.36,2.36,0,0,1,2.69,2.64v6.58q0,8-4.13,8h-8.59V25a1.06,1.06,0,0,0,1.2,1.2H239c.83,0,1.25.55,1.25,1.63,0,2.43-.77,3.65-2.31,3.65H221.61q-5.37,0-5.37-5.28Zm21.07-2h5.86V0h6.38V36.67c0,4.35-1.27,6.53-3.79,6.53h-.87a1.5,1.5,0,0,1-1.72-1.68V17.66h-5.86Z"/><path class="cls-1" d="M296.16,30.1a3.48,3.48,0,0,1,.17,2.54,2.86,2.86,0,0,1-1.9,1.73,17.26,17.26,0,0,1-2.74.93c-1.21.34-2.62.65-4.22.94s-3.4.53-5.3.72-3.85.29-5.84.29-3.9-.1-5.85-.29-3.75-.43-5.38-.72-3.14-.6-4.44-.94a18.84,18.84,0,0,1-2.9-.93,2.68,2.68,0,0,1-1.85-1.68,3,3,0,0,1,.31-2.59,1.79,1.79,0,0,1,1-.82,4.12,4.12,0,0,1,1.25-.19,7.31,7.31,0,0,1,1.27.21c.43.12.85.22,1.27.32s1,.3,1.87.52,2,.45,3.32.68,2.81.41,4.51.57l2.2.19V23.66h6.34v7.92c1,0,1.91-.09,2.74-.19,1.63-.19,3-.41,4.15-.65s2.07-.47,2.81-.69l1.73-.53c.38-.1.83-.2,1.34-.31a10.19,10.19,0,0,1,1.58-.22,3.79,3.79,0,0,1,1.47.19A2,2,0,0,1,296.16,30.1ZM276.09,1a20.19,20.19,0,0,1,6.05.86,16.31,16.31,0,0,1,4.66,2.26,9.14,9.14,0,0,1,2.81,3.34,9.48,9.48,0,0,1,.93,4.15A9,9,0,0,1,286.8,19a15.37,15.37,0,0,1-4.66,2.3,19.87,19.87,0,0,1-6.05.87,19.77,19.77,0,0,1-6-.87,15.31,15.31,0,0,1-4.65-2.3,9,9,0,0,1-2.86-3.31,9.24,9.24,0,0,1-.93-4.08,9.48,9.48,0,0,1,.93-4.15,8.91,8.91,0,0,1,2.86-3.34,16.24,16.24,0,0,1,4.65-2.26A20.09,20.09,0,0,1,276.09,1Zm0,16a10.71,10.71,0,0,0,3.15-.45,9.8,9.8,0,0,0,2.52-1.18,6.31,6.31,0,0,0,1.65-1.73,3.75,3.75,0,0,0,0-4.22,6.31,6.31,0,0,0-1.65-1.73,10.88,10.88,0,0,0-2.52-1.13,10.71,10.71,0,0,0-3.15-.45,10.83,10.83,0,0,0-3.19.45,11.71,11.71,0,0,0-2.57,1.13,4.84,4.84,0,0,0-1.65,1.73,4.32,4.32,0,0,0,0,4.22,4.84,4.84,0,0,0,1.65,1.73,10.5,10.5,0,0,0,2.57,1.18A10.83,10.83,0,0,0,276.09,17Z"/><path class="cls-1" d="M304.08,29.9q-1.5,1.16-3.22-1-1.64-1.86-.1-3.26a18.43,18.43,0,0,0,4.8-8.38,43.08,43.08,0,0,0,1.2-10.68V1.68h6.58V6.62a43.08,43.08,0,0,0,1.2,10.68,19.38,19.38,0,0,0,5.38,8.86q1.44,1.39-.15,3.26-1.77,2.11-3.26,1a22.45,22.45,0,0,1-6.43-7.77A20.75,20.75,0,0,1,304.08,29.9ZM317.13,12h5V0h6.24V36.19c0,4.35-1.24,6.53-3.74,6.53h-.82A1.48,1.48,0,0,1,322.12,41V17.47h-5ZM337.2,36.67q0,6.53-3.8,6.53h-.76a1.5,1.5,0,0,1-1.73-1.68V0h6.29Z"/><path class="cls-1" d="M382.56,30.1a3.42,3.42,0,0,1,.16,2.54,2.82,2.82,0,0,1-1.89,1.73,17.26,17.26,0,0,1-2.74.93c-1.21.34-2.62.65-4.22.94s-3.4.53-5.31.72-3.84.29-5.83.29-3.9-.1-5.85-.29-3.75-.43-5.38-.72-3.14-.6-4.44-.94a18.48,18.48,0,0,1-2.9-.93,2.68,2.68,0,0,1-1.85-1.68,3,3,0,0,1,.31-2.59,1.79,1.79,0,0,1,1-.82,4.12,4.12,0,0,1,1.25-.19,7.31,7.31,0,0,1,1.27.21c.43.12.85.22,1.27.32s1,.3,1.87.52c.74.2,1.63.39,2.69.58V22.94h6.34v8.6q2.06.09,4.41.09c1.44,0,2.75,0,3.94-.09v-8.6H373v7.73c.93-.22,1.72-.43,2.36-.62l1.72-.53c.39-.1.84-.2,1.35-.31A10.19,10.19,0,0,1,380,29a3.82,3.82,0,0,1,1.47.19A2,2,0,0,1,382.56,30.1ZM362.49,1a20.19,20.19,0,0,1,6.05.86,16.31,16.31,0,0,1,4.66,2.26A9,9,0,0,1,376,7.42a9.35,9.35,0,0,1,.94,4.15A9,9,0,0,1,373.2,19a15.37,15.37,0,0,1-4.66,2.3,19.87,19.87,0,0,1-6.05.87,19.77,19.77,0,0,1-6-.87,15.31,15.31,0,0,1-4.65-2.3A8.89,8.89,0,0,1,349,15.65a9.25,9.25,0,0,1-.94-4.08A9.49,9.49,0,0,1,349,7.42a8.82,8.82,0,0,1,2.86-3.34,16.24,16.24,0,0,1,4.65-2.26A20.09,20.09,0,0,1,362.49,1Zm0,16a10.71,10.71,0,0,0,3.15-.45,9.8,9.8,0,0,0,2.52-1.18,6.31,6.31,0,0,0,1.65-1.73,3.75,3.75,0,0,0,0-4.22,6.31,6.31,0,0,0-1.65-1.73,10.88,10.88,0,0,0-2.52-1.13,10.71,10.71,0,0,0-3.15-.45,10.83,10.83,0,0,0-3.19.45,11.71,11.71,0,0,0-2.57,1.13,4.84,4.84,0,0,0-1.65,1.73,4.26,4.26,0,0,0,0,4.22,4.84,4.84,0,0,0,1.65,1.73,10.5,10.5,0,0,0,2.57,1.18A10.83,10.83,0,0,0,362.49,17Z"/><path class="cls-1" d="M409.15,14.11a19.05,19.05,0,0,1,0,3.53,11,11,0,0,1-.91,3.43,7,7,0,0,1-2.11,2.59,5.28,5.28,0,0,1-3.51.92c-2.3-.07-4.13-1.43-5.47-4.08A12.35,12.35,0,0,0,395,18.31a4.52,4.52,0,0,0-2.9-.93,4.74,4.74,0,0,0-2.14.38,2.76,2.76,0,0,0-1.12,1,4.41,4.41,0,0,0-.53,1.53c-.1.58-.19,1.19-.29,1.83h-3.07a18.73,18.73,0,0,1,.14-4,7.83,7.83,0,0,1,1.44-3.6,6.9,6.9,0,0,1,2.35-2.16,6.28,6.28,0,0,1,3.12-.77,5.11,5.11,0,0,1,3.12,1,11.1,11.1,0,0,1,2.55,2.64c.29.45.6.88.93,1.32a6.13,6.13,0,0,0,1.08,1.08,4.87,4.87,0,0,0,1.28.76,3.42,3.42,0,0,0,1.6.24,4.23,4.23,0,0,0,2-.38,3.13,3.13,0,0,0,1.17-1,4.67,4.67,0,0,0,.58-1.44c.13-.54.24-1.1.34-1.68Z"/></g></g></svg>