<svg xmlns="http://www.w3.org/2000/svg" viewBox="0 0 128.63 179.46"><defs><style>.cls-1{fill:#a6d8d2;}.cls-2{fill:#a5ce50;}.cls-3{fill:#ebfafa;}.cls-4{fill:#11476a;}.cls-5{fill:#6abcc5;}.cls-6{fill:#f18683;}</style></defs><g id="Layer_2" data-name="Layer 2"><g id="Layer_1-2" data-name="Layer 1"><path class="cls-1" d="M39.87,56.41l3,1.77c0,.35,0,.71,0,1.06h0c-3.18,4-2.45,18.47,1.15,21.91a2.27,2.27,0,0,0,1.67.64c.94-.18,1.12-1.12,1.12-2,0-6-1.35-18.65-5.39-24l4,1c3.48-.46,2.52,7.68,3.18,10,1.92,6.7,2.69,13.35-2,19.41l-3.58-1c-5.69-7.47-4.26-16.07-3.82-24.5C39.32,59.3,39.65,57.85,39.87,56.41Z"/><path class="cls-1" d="M78.9,46.22l3.88.05c-5.08,9.4-3,18.66.58,27.86.79,2,2,4.44,4.22,4.46,2,0,2.88-2.49,3.62-4.3,2.17-5.26,2.57-10.6.22-16-.76-1.75-1.48-3.53-2.42-5.8,3.31.49,4.47,2.92,5,4.76,2.16,7.43,3.39,15-1.65,21.93-2.12,2.9-2,5.27-.63,8.59,3.45,8.24,4.89,16.8.85,25.4-2.23-1-3.7-.27-4.56,1.94-7.76-7-9.6-17.56-4.79-29.25.78-1.92,1-3.36-.07-5-6.72-10.18-8.39-21-4.38-32.67A7.6,7.6,0,0,0,78.9,46.22Zm7.76,40.22c-2.51,7.77-2.93,14.07.26,20.29.47.91,1,2.35,2.53,1.83,1-.35,1.25-1.47,1.31-2.49C91.12,99.73,90.6,93.57,86.66,86.44Z"/><path class="cls-2" d="M70.94,56.05c-1.63-2.19-3.22-4.4-4.89-6.56-1.46-1.89-2.36-.87-3.21.66-1.61,2.9-3.74,5.28-7,6.39l-.83.71a1.85,1.85,0,0,0-.28.75l-1.81.17H42.86l-3-1.77c-1.18-.92-2.83-1.6-3.44-2.8-3.22-6.26-5.33-3.54-8.52.29-4.29,5.13-13,5.72-20.35,2.28-5-2.32-8.13-8.55-7.47-15C1.57,26.48,10.81,17.32,22.66,10.43,41.3-.42,61.43-1.8,82.29,1.74c12.15,2.06,22.53,7.83,32.55,14.54,0,1.65-1.72,1.78-2.56,2.7A6,6,0,0,0,111,24.92a4,4,0,0,0,4.75,3.22c3.43,1.11,4.35-1.7,5.79-3.7,3.81,5.13,6.6,10.72,7,17.2.49,7.26-3.56,13.16-10.73,16-5.46,2.15-14.8.12-18.21-4.57-2.37-3.26-4-3.6-6.14-.16-2,3.17-5.54,4-8.7,5.36a1.67,1.67,0,0,0-.94,0l-1.09,0-3.88-.05c-2.61.24-4.65-1.56-7.08-1.95A2.43,2.43,0,0,0,70.94,56.05ZM47.46,26.24c4.14,1.25,5.8-.6,5.71-4.6.19-3.09-.43-5.61-4.17-5.88-3-.23-5.24,1.11-5.86,4C42.41,23.12,44.05,25.39,47.46,26.24Zm29.85,5.43a16.65,16.65,0,0,0,3,.47c2-.09,4.34,1,6-1a1.4,1.4,0,0,0-.49-2.13c-2.5-.81-5.11-1.45-7.27.9C78.24,30.29,78,30.71,77.31,31.67Z"/><path class="cls-1" d="M70.94,56.05a2.43,2.43,0,0,1,.88.22c3,9,2.23,17.45-1.72,26.32a24.59,24.59,0,0,0,.35,19.84c4.57,10.38,6.35,20.54.62,31.25-2.86,5.35-2.51,11.56-2.15,17.55h0c-6.05.33-3.49-4.34-4.15-7.14.52-2.93-.81-6.14,1.29-8.84,1.23-4.38,3.57-8.23,4.14-13.06.72-6-.78-11.11-2.9-16.27-3.48-8.45-4.08-17.15.09-25.12,3.13-6,3.59-11.94,3.47-18.27C70.83,60.38,70.91,58.21,70.94,56.05Z"/><path class="cls-1" d="M45.73,133.3a10.48,10.48,0,0,0-3.14-8.05c-2.4,2.19,2,7.53-3.74,8l-1-1c-.15-6.91-.29-13.67-2.37-20.51-2.53-8.32.67-19.1,7.42-23.5-.33,3.83,1.29,3.58,3.67,1.75.72,7.94.74,15.73-3.16,23.09a5.69,5.69,0,0,0,.87,6.93c4.61,4.49,6.2,10,5.61,16.2h0l-2.83-.12C46.6,135.15,46.17,134.22,45.73,133.3Zm-6.09-22.92a22.69,22.69,0,0,0,3.82-16.94C38.59,100,38.13,101.91,39.64,110.38Z"/><path class="cls-1" d="M52.92,58.17,54.73,58c.35,6.51,2.27,12.69,4.53,18.7,3.88,10.26,2.53,20-1,30.08a33.91,33.91,0,0,0,.21,22.85c.06.15.19.31.18.46-.21,2.21,3.1,5.43-.5,6.39-2.69.72-2.72-3-3.41-5.12a43.12,43.12,0,0,1,1.58-31.81,28.8,28.8,0,0,0,.08-22C53.9,71.26,52.36,65,52.92,58.17Z"/><path class="cls-1" d="M101.81,138.15c-.44,2.37,1,4.08,2,5.94a53.08,53.08,0,0,1-8,34.16,10.66,10.66,0,0,1-.82,1.17c-.07.08-.32,0-1.71,0,10.26-18.42,12-36.16-4.26-52.25-.25,1.82-.6,3.81-.79,5.81-.08.81.26,1.77-1,1.83-1.06.06-1.41-.81-1.43-1.66-.06-3,0-6,0-9,2.49-1.36,1.81-3.84,2.1-6l4-.07c-.11,1.11-.23,2.23.8,3C93.11,128.28,99,132.4,101.81,138.15Z"/><path class="cls-1" d="M42.57,170c1.32-8.53,2.51-16-.1-23.22a93.84,93.84,0,0,1-4.3-14.25c-.18-1-.56-2.15.57-2.63s1.93.58,2.16,1.48c2.81,10.77,8.55,21.09,5,32.83A11.4,11.4,0,0,1,42.57,170Z"/><path class="cls-1" d="M65.28,149.5l1.66-1.45c3,.23,1.62,2.4,1.48,3.75-1.49,15.1-1.51,15.09,2.9,26.81-3.17-2-5-5.23-5.9-9.8C64.11,162.36,64.51,156,65.28,149.5Z"/><path class="cls-1" d="M85.31,133.7l1.56-1.56c3,0,1.78,2.27,1.74,3.63-.44,15.17-.47,15.16,4.74,26.55-3.29-1.75-5.32-4.88-6.56-9.37C85,146.61,85,140.18,85.31,133.7Z"/><path class="cls-1" d="M60.44,170.66c-1.16-3.4.36-5.88.55-8.47.48-6.35-1.33-12.09-3.55-17.83-.41-1.05-1-2.33.63-2.88a1.84,1.84,0,0,1,2.33,1.33C63.73,151.87,64.2,160.92,60.44,170.66Z"/><path class="cls-1" d="M51.44,173.66c-1.16-3.4.36-5.88.55-8.47.48-6.35-1.33-12.09-3.55-17.83-.41-1.05-1-2.33.63-2.88a1.84,1.84,0,0,1,2.33,1.33C54.73,154.87,55.2,163.92,51.44,173.66Z"/><path class="cls-3" d="M115.76,28.14A4,4,0,0,1,111,24.92,6,6,0,0,1,112.28,19c.84-.92,2.51-1.05,2.56-2.7,6.49.61,7.43,1.66,6.77,7.57-1.11-1.8-2.16-3.77-4.77-3.33A3.68,3.68,0,0,0,114,22.88C113.08,25.12,115.21,26.37,115.76,28.14Z"/><path class="cls-1" d="M89.83,128.15l-2,.18c-2.09-5.31,3.63-8.05,4.18-12.5a2.51,2.51,0,0,1,1.77-.19c1.12.44,1,1.6,1,2.57C94.89,122.39,92.2,125.19,89.83,128.15Z"/><path class="cls-1" d="M86.05,128l-.45-1.71c.25-3,.37-6.12.78-9.15.37-2.77,1.91-3.58,4.39-2,.06.29.11.58.16.87-1.68,2.67-1.11,5.66-1.07,8.53S88.74,128.48,86.05,128Z"/><path class="cls-4" d="M115.76,28.14c-.55-1.77-2.68-3-1.8-5.26a3.68,3.68,0,0,1,2.88-2.36c2.61-.44,3.66,1.53,4.77,3.33q-.26.48-.06.6C120.11,26.44,119.19,29.25,115.76,28.14Z"/><path class="cls-1" d="M46.42,134.07l-.21.9c2.06,3.77,2,8,1.62,12.21h0l2.56.24c.08-.28.15-.55.24-.83-.09-3.58,1.08-7.18-.22-10.77C49.55,133.43,48.39,132.86,46.42,134.07Z"/><path class="cls-1" d="M59.79,143.07l-.93,1.1c-.65.07-1.66.44-1.89.17-2.29-2.8-.63-6.14-1-9.21-.29-2.06.85-3,2.9-2.93.39,1,.77,1.91,1.16,2.86C59.92,137.73,59.85,140.4,59.79,143.07Z"/><path class="cls-5" d="M88,115.16c.86-2.21,2.33-3,4.56-1.94.38,2.89.18,5.34-3.75,5l-.84-1Z"/><path class="cls-5" d="M43.06,85.25l3.58,1c0,1.26,0,2.51-.07,3.76-2.39,1.83-4,2.08-3.68-1.75C43,87.23,43,86.24,43.06,85.25Z"/><path class="cls-1" d="M88,117.16l.84,1c-.39.5-.92.94-1.42.33S87.45,117.47,88,117.16Z"/><path class="cls-1" d="M55,57.25l.83-.71Z"/><path class="cls-3" d="M47.46,26.24c-3.41-.85-5.05-3.12-4.32-6.49.62-2.88,2.85-4.22,5.86-4,3.74.27,4.36,2.79,4.17,5.89-1.57-2-3.51-3.46-5.8-1.37C45.46,22,45.18,24.29,47.46,26.24Z"/><path class="cls-4" d="M47.46,26.24c-2.28-1.95-2-4.2-.09-6,2.29-2.09,4.23-.63,5.8,1.37C53.26,25.64,51.6,27.49,47.46,26.24Z"/><path class="cls-6" d="M77.31,31.67c.69-1,.93-1.38,1.25-1.72,2.16-2.35,4.77-1.71,7.27-.9a1.4,1.4,0,0,1,.49,2.13c-1.68,1.91-4,.87-6,1A16.65,16.65,0,0,1,77.31,31.67Z"/></g></g></svg>