<svg xmlns="http://www.w3.org/2000/svg" viewBox="0 0 223.5 191.21"><defs><style>.cls-1{fill:#01406d;}.cls-2{fill:#fcfcfd;}.cls-3{fill:#ed8683;}.cls-4{fill:#0c4570;}.cls-5{fill:#d87d7f;}.cls-6{fill:#50829c;}.cls-7{fill:#d4f2ed;}.cls-8{fill:#174d76;}.cls-9{fill:#134973;}.cls-10{fill:#d3f1ec;}.cls-11{fill:#0f4671;}.cls-12{fill:#d1f0ec;}.cls-13{fill:#4ea4b7;}.cls-14{fill:#d2f1eb;}.cls-15{fill:#66d0d6;}.cls-16{fill:#1d547b;}.cls-17{fill:#d1f0eb;}.cls-18{fill:#174e75;}.cls-19{fill:#d4f1ed;}.cls-20{fill:#22577d;}.cls-21{fill:#6693a9;}.cls-22{fill:#114873;}.cls-23{fill:#205a7f;}.cls-24{fill:#f2837f;}.cls-25{fill:#577c9b;}.cls-26{fill:#dce5ea;}.cls-27{fill:#e0e8ec;}.cls-28{fill:#3f698d;}.cls-29{fill:#7fad55;}.cls-30{fill:#59bcc9;}.cls-31{fill:#d4cdca;}.cls-32{fill:#cfd8d5;}.cls-33{fill:#5ebbc8;}</style></defs><g id="Layer_2" data-name="Layer 2"><g id="Layer_1-2" data-name="Layer 1"><path class="cls-1" d="M59.7,78q-2.55-8.66-5.11-17.29c-1.78-1.75-1.8-3.48.06-5.19,6.8-20.51,23.7-33.74,43.51-34,12.67-3.43,25.21-4.71,37.2,2.41,33,5.07,47.29,33.22,25.52,63.9-3.66,4.92-9.06,3.41-13.92,3.62-3.74.17-7.21,1.47-10.83,2.11-21.94.93-43.55-1.65-64.94-6.4C65.81,86.06,62.1,82.85,59.7,78Z"/><path class="cls-1" d="M187.31,143c-16.18-2.24-28.25-11.81-39.78-23-.32,19.57,17.61,38.91,38.18,41.84-3.45,5.55-8.25,2.08-12.56,1.88-24-4.6-34.46-23-43.86-44.43-4,10.14,0,18.57.56,27,.44,5.84-2.39,8.63-8.12,8.72-4.36-7.92-6.88-16.54-9.51-26.44l-8.08,15.86c-.89.54-1.86,1-.88,2.3l-3.43,6.51c-.91.28-2.06.35-1.68,1.82-3.86,6-7.12,12.47-14.27,15.37-3.27-1.56-4.17-3.94-2.54-7.22,6.38-10.72,9-22.82,13-34.47-.19-2.38,3.45-5.81-1.85-6.81-3,6.11-5.75,12.34-9,18.32C75,155.92,61.38,164.39,44.33,168a10,10,0,0,1-11.27,0l-5.59-.48c-.59-1.92.57-2.82,2.05-3.53,4.06-.69,8.17-.21,12.26-.45,21.87-6.69,31.14-23.06,34.86-46.83-12.7,11.61-24.53,20.69-40.18,22.14a51,51,0,0,1-20-.19c-3,.3-5.83.07-8-2.4.14-4.3,3-2.46,5.09-2.23,20.74,1.23,35.19-9,46-26.65l-14.12,3.75c-3.1,2-6.18,2.18-9.24-.1-10.63-3.17-21.39-6.18-25.87-18.12-1-2.24-1.84-4.42,2-4.45C21.5,105.41,47,106.27,58.2,90c1.29-5.72,5.22-6,9.87-4.81,15.63,4.07,28.31,14,42.07,21.69,7.25,4,12.9,4.47,19.75-.44,7.54-5.41,15.33-10.54,23.38-15.24a15.26,15.26,0,0,1,7.25-.72c5.31,12.29,14.62,19.83,27.49,23.13a14,14,0,0,0,10.38.14c6.1.18,10.45-6.26,17-4.49l-.21-.15c-4.67,6-10.61,9.88-18.27,10.85a16.84,16.84,0,0,1-15.76,0l-12.94-2.17c7.85,11.11,17.61,15.58,28.19,18.88,6.25-.19,12.49-.23,18.74,0,1.92-.61,3.87-1.83,6,.61-4.37,2.42-8.21,5.62-13.48,5.7A59.62,59.62,0,0,1,187.31,143Z"/><path class="cls-2" d="M135.36,23.9c-12.44-.21-24.9-.18-37.2-2.41C93.64,11,103.34,7.64,108.58,3.27c5.44-4.54,12.81-4.38,19.1.67,4.93,4,6.79,11.46,14.57,12.29,1.54.16,1.91,2.77,1.22,4.5C141.94,24.6,138,22.56,135.36,23.9Z"/><path class="cls-1" d="M134.33,159.11c8,7.42,14,17.79,26.57,18.85a21.74,21.74,0,0,1,12.38-.09c3.33.48,5.36,1.54.64,3.24-10.7,3.84-21.06,2.63-30.71-3.28-6.1-3.73-12.28-7.52-15.66-14.29C128.79,160.5,130,157.49,134.33,159.11Z"/><path class="cls-3" d="M69,85.63A16.86,16.86,0,0,0,58.2,90c-3.75-.65-6.84,3.58-11.12,1.4-.87-3.86,4.49-7.22.18-12.09-3.09-3.5,1.65-3.51,4.34-3.51,2.93,0,4.4,5.16,8.1,2.23,5.56-1.16,6.93,3.44,9.25,6.73Z"/><path class="cls-4" d="M81.34,163.22l2.54,7.22c-2.39,8.53-9.58,11.34-16.8,14.11-2.26,1.09-4.33,1.81-4.33-2C70.34,177.45,76.11,170.6,81.34,163.22Z"/><path class="cls-1" d="M134.33,159.11l-6.78,4.43L121.73,155l8.12-8.72C132.65,150.11,133.78,154.51,134.33,159.11Z"/><path class="cls-5" d="M160.52,90.44,154.83,93c-6.83.71-13.94,3.33-19.73-2.94l25.78-2.26Z"/><path class="cls-1" d="M173.15,163.7c4.12-1.09,8.78,1.42,12.56-1.88h10.91C188,167,180.65,166.48,173.15,163.7Z"/><path class="cls-6" d="M61,186.93a5.93,5.93,0,0,0-.79,1.44c-4,2.12-8,1.88-12,.16l-5.32-3.79H54.53C56.36,186.47,59.54,184.2,61,186.93Z"/><path class="cls-7" d="M10.46,78c5.22-.1,5.61,1.51,2,8.32C7.09,84.68,9.6,81.13,10.46,78Z"/><path class="cls-8" d="M215.11,136.69a20.45,20.45,0,0,1-18.74,0l2.14-.57a30.48,30.48,0,0,1,14.46,0Z"/><path class="cls-9" d="M16.46,138.61l20,.19A26.34,26.34,0,0,1,16.46,138.61Z"/><path class="cls-8" d="M187.31,143l20.33,0A27.27,27.27,0,0,1,187.31,143Z"/><path class="cls-10" d="M43.22,169.46a3,3,0,0,1,1,.33,11.62,11.62,0,0,1,1.21,1.32,23.52,23.52,0,0,1-13.43,0s0-.71.23-.82a15.52,15.52,0,0,1,1.87-.81A13.71,13.71,0,0,1,43.22,169.46Z"/><path class="cls-11" d="M10.46,78c1.36,2.6-.58,6,2,8.32-.05.7-.09,1.41-.13,2.11-.67,1.49-1.35,3-2,4.45C7.5,87.88,6.23,82.91,10.46,78Z"/><path class="cls-12" d="M48.22,188.53l12-.16C56.28,191.65,52.28,192.56,48.22,188.53Z"/><path class="cls-13" d="M103.26,146.74c-2.35,0-5,.27-5.87-2.58A3.64,3.64,0,0,1,99,141c3.21-1.44,3.53,2.1,5.16,3.43C104.6,145.5,104.45,146.32,103.26,146.74Z"/><path class="cls-9" d="M13.56,134l-5.09,2.23c-2.9-.93-6.07-1.37-8.47-5.56C5.4,130.37,9.42,132.51,13.56,134Z"/><path class="cls-14" d="M213,136.11a27.09,27.09,0,0,1-14.46,0A13.85,13.85,0,0,1,213,136.11Z"/><path class="cls-15" d="M98.15,155.07c-1.69.11-3.62.66-4.65-1.16a2.65,2.65,0,0,1,.81-2.49c2.29-1.18,3.55,1.54,5.53,1.82Z"/><path class="cls-16" d="M61,186.93c-2.22-.56-4.89.19-6.5-2.19l8.22-2.18,4.33,2Z"/><path class="cls-17" d="M154.91,185.34c5.79-.85,8.74-1.32,12.05.07C163.51,187.21,160.41,186.73,154.91,185.34Z"/><path class="cls-18" d="M221.67,101c-.44,4.1-1.28,7.87-6.52,8.11l.21.15c-1.35-4.14,2.66-5.59,4.15-8.31C220.25,100.09,221,100.07,221.67,101Z"/><path class="cls-19" d="M173.28,177.87a19.09,19.09,0,0,1-12.38.09C165,175.18,169.14,175.26,173.28,177.87Z"/><path class="cls-20" d="M43.22,169.46l-9.16,0c-.31-.53-.64-1.05-1-1.55l11.27,0A14.64,14.64,0,0,0,43.22,169.46Z"/><path class="cls-21" d="M23,163.08l6.39,2.32-2,2.07C25.27,166.74,21.55,167.55,23,163.08Z"/><path class="cls-22" d="M198.39,113.71c-3.49,2.59-7,2.63-10.38-.14Z"/><path class="cls-23" d="M221.67,101l-2.16,0c.82-2.46,1.63-4.92,2.81-8.48C224.15,96.26,223.78,98.68,221.67,101Z"/><path class="cls-24" d="M135.1,90.06c6.52,1.35,13.59-.92,19.73,2.94a8.52,8.52,0,0,1-1.4,1.47c-11,7.09-21.46,18.63-33.08,19.92-11.26,1.25-22-11-33-17.33C81.06,93.49,75.07,89.46,69,85.63l0-.9C91,86.81,112.88,90.47,135.1,90.06Z"/><path class="cls-25" d="M116.3,59c1.48-.8,3.3-2.13,4.39,0s1.44,4.64-1.13,6.36c-4,2.2-6.52.07-7.4-3.43C111.48,59.22,113.21,57.6,116.3,59Z"/><path class="cls-26" d="M116.3,59c-3.86,3.81-3.62,4.28,3.26,6.34-3.35,4-6.42,2.69-9.18-.64-1.7-2-2-4.48,0-6.4S114.73,55.44,116.3,59Z"/><path class="cls-27" d="M156.84,59.18c-5.05,1.78-4.8-2-4.25-4.68.88-4.17,4-5,7.83-3.53C162.2,55,158.21,56.53,156.84,59.18Z"/><path class="cls-28" d="M156.84,59.18c-1.61-4,1.22-6,3.58-8.21C166.88,57.05,159.72,57.18,156.84,59.18Z"/><path class="cls-29" d="M134.2,69.05c3.31-1.85,6.12-1.66,9.38-.64C140.65,72.51,137.87,72.8,134.2,69.05Z"/><path class="cls-30" d="M124.43,141.39a2.47,2.47,0,1,1-4.89-.69c.08-1.69,1.36-2.22,2.74-2.1C123.83,138.73,124.42,139.91,124.43,141.39Z"/><path class="cls-31" d="M121.8,102.21c1.5,0,2.65.56,2.79,2.11a2.21,2.21,0,0,1-2.34,2.56,3.05,3.05,0,0,1-2.16-1.64C119.46,103.76,120.37,102.75,121.8,102.21Z"/><path class="cls-32" d="M102.8,92.34c1,.79,2.21,1.24,2.42,2,.52,1.83-1,2.48-2.37,2.31a2.66,2.66,0,0,1-1.8-1.88C101,94,102.05,93.29,102.8,92.34Z"/><path class="cls-33" d="M45.39,110.21c.28-.59,1.24-1.26-.2-1.64-.86-3,.68-4.31,3.43-4.71,2.1,1.22,1.85,3.31,2,5.27A6.85,6.85,0,0,1,45.39,110.21Z"/><path class="cls-33" d="M201.12,118.63c-1.08-.77-3.06-.87-2.32-3a1.72,1.72,0,0,1,1.82-1.3c2.31.2,1.77,2.36,2.44,3.68Z"/><path class="cls-33" d="M83.81,132.57c-1.17,1-2,2.69-4.07,1.53s-1.45-3-1.52-4.75C81.09,128.68,83.65,128.54,83.81,132.57Z"/><path class="cls-33" d="M65.7,120.9c-.32,2.27-1.29,3.95-3.91,3.29a2.39,2.39,0,0,1-1.55-3.62c1.49-2.73,3.47-1.9,5.32-.19A.59.59,0,0,0,65.7,120.9Z"/><path class="cls-33" d="M163.1,122.1l5.12.18c-.5,5.59-2.83,5.84-6,3.61A5.45,5.45,0,0,1,163.1,122.1Z"/><path class="cls-33" d="M124.65,148.21c2-.38,3.78-.16,3.9,2.43a2,2,0,0,1-1.82,2.1c-2.57.31-3-1.42-3-3.48Z"/><path class="cls-33" d="M90.35,158c.31.06.61.11.92.15,1.87,1.07,1.26,2.73,1,4.31l0,0c-1.45,0-3.22.54-3.85-1.33C87.93,159.56,89.11,158.67,90.35,158Z"/><path class="cls-33" d="M132.55,159.23c-.29,1.65-1.1,2.31-2.5,2.2a1.94,1.94,0,0,1-1.94-1.92,2,2,0,0,1,2.16-2.24C131.7,157.22,132.23,158.27,132.55,159.23Z"/><path class="cls-33" d="M38.6,104.49a3.29,3.29,0,0,1,.66,4.08c-1.92.58-4,.74-4.22-1.77C34.83,104.59,36.83,104.39,38.6,104.49Z"/><path class="cls-33" d="M78.66,140.8a2.39,2.39,0,0,1-2.09,2.4A2.08,2.08,0,0,1,73.94,141c0-1.43.87-2.11,2.21-2.15A2.3,2.3,0,0,1,78.66,140.8Z"/><path class="cls-33" d="M53.68,129.53a2.27,2.27,0,0,1-2-2.45c.06-1.57.89-2.44,2.52-2.21a2.12,2.12,0,0,1,2.08,2.29A2.58,2.58,0,0,1,53.68,129.53Z"/><path class="cls-33" d="M47.15,131.07c0,1.46-1,2-2.25,2a1.81,1.81,0,0,1-2.12-1.58,2.14,2.14,0,0,1,2-2.36C46.18,128.93,46.89,129.76,47.15,131.07Z"/><path class="cls-33" d="M172.33,134a2.3,2.3,0,0,1-2-2.8,2.13,2.13,0,0,1,2.5-1.88,2.21,2.21,0,0,1,2.13,2.76A2.31,2.31,0,0,1,172.33,134Z"/><path class="cls-33" d="M182.85,137.78c-.39,1.18-1.06,2.13-2.44,1.94a2.06,2.06,0,0,1-1.93-2.41c.17-1.21.92-2.23,2.34-1.94A2.24,2.24,0,0,1,182.85,137.78Z"/><path class="cls-33" d="M147.76,140.51a2,2,0,0,0,.85-.29c2.26.64,3.72,2.09,2.18,4.24-1.73,2.42-3.31.76-4.56-1a.4.4,0,0,0-.16-.51Z"/><path class="cls-33" d="M157.3,150.41a1.84,1.84,0,0,1-1.67,2.15,1.93,1.93,0,0,1-2.47-1.8,1.84,1.84,0,0,1,1.67-2.1A2,2,0,0,1,157.3,150.41Z"/><path class="cls-33" d="M182.57,118.36a2.45,2.45,0,0,1-3-2.06,2.18,2.18,0,0,1,1.62-2.74,2.37,2.37,0,0,1,3.13,1.75A2.34,2.34,0,0,1,182.57,118.36Z"/><path class="cls-33" d="M170,116.22c-1.38-2.8-1.43-5,2.36-5.69,1.11,1.3,2.88,2.41,1.82,4.5C173.25,116.83,171.64,116.77,170,116.22Z"/><path class="cls-33" d="M190.64,114.67c1.52-.32,2.57,0,3.1,1.23a1.93,1.93,0,0,1-1.25,2.75,2.06,2.06,0,0,1-2.84-1.17C189.09,116.17,190,115.39,190.64,114.67Z"/><path class="cls-33" d="M140.46,135.14,141.6,132c1.83-.59,3.3-.21,4,1.72.8,2.27-.84,2.85-2.5,3.35l-2.17-1A7.69,7.69,0,0,0,140.46,135.14Z"/></g></g></svg>