<svg xmlns="http://www.w3.org/2000/svg" viewBox="0 0 97.43 41.84"><defs><style>.cls-1{fill:#f18f26;}.cls-1,.cls-2,.cls-3,.cls-4,.cls-5,.cls-6{fill-rule:evenodd;}.cls-2{fill:#ee780f;}.cls-3{fill:#db640e;}.cls-4{fill:#f5a851;}.cls-5{fill:#fff;}.cls-6{fill:#1c1e1f;}</style></defs><g id="Layer_2" data-name="Layer 2"><g id="Layer_1-2" data-name="Layer 1"><path class="cls-1" d="M21,25.76c-1.86-3.57-1.3-7.25.29-9C18.43,16.36,10.88,15,0,9.61.12,14.32,6.5,20,10.16,20.94,6.5,21.89.12,27.56,0,32.27,5.71,28.07,15.83,26.62,21,25.76Z"/><path class="cls-2" d="M37.75,30.68c-1.38,1-2.79,2-4.24,3.1-3.09-.62-8.39-3.92-11.7-6.68l1.41-1C28.09,27.21,32.58,29,37.75,30.68Z"/><path class="cls-2" d="M71.73,8C68.58,4.75,65.2,2.8,61.6,0c-3.09.63-8.39,3.93-11.7,6.69.63.43,1.22.85,1.79,1.28,1.84-.26,3.78-.47,5.85-.61A62,62,0,0,1,71.73,8Z"/><path class="cls-3" d="M70.53,9c-1.18-1.35-8.42-7.12-9.26-6.95S69.57,9.73,70.53,9Z"/><path class="cls-3" d="M67.62,10.22c-1.17-1.34-8.41-7.12-9.25-7S66.67,11,67.62,10.22Z"/><path class="cls-3" d="M65.17,11.21c-1.18-1.34-8.41-7.12-9.25-7S64.22,11.94,65.17,11.21Z"/><path class="cls-3" d="M62.83,12.92c-1.18-1.35-8.41-7.12-9.25-7S61.88,13.65,62.83,12.92Z"/><path class="cls-2" d="M55.54,33.36C53.43,34.8,45,42.07,48,41.84c3.84-.28,13.58-5.78,14.94-7.71C63.79,33,56.55,32.67,55.54,33.36Z"/><path class="cls-4" d="M97.43,20.94C93,15.27,78.48,5.59,56.7,7.08c-6,.41-42.23,8.2-42.66,14.72-.33,5,38.11,12.68,42.66,13C78.48,36.29,93,26.6,97.43,20.94Z"/><path class="cls-5" d="M97.43,20.94C93,15.27,78.48,5.59,56.7,7.08c-6,.41-42.23,8.2-42.66,14.72C35.12,20,68.58,15.92,97.43,20.94Z"/><path class="cls-1" d="M97.43,20.94C93,15.27,78.48,5.59,56.7,7.08c-6,.41-42.23,8.2-42.66,14.72C37.15,16.14,70.86,11.55,97.43,20.94Z"/><path class="cls-1" d="M97.43,20.94c-2.74-3.48-9.27-8.48-18.94-11.47A23.67,23.67,0,0,0,79.64,32C88.68,29,94.8,24.28,97.43,20.94Z"/><path class="cls-3" d="M74.91,27.12A14,14,0,0,1,74.8,11.9C70.53,16.75,70.3,22.53,74.91,27.12Z"/><path class="cls-6" d="M87,17.12a1.82,1.82,0,1,0,1.66,2A1.82,1.82,0,0,0,87,17.12Z"/><path class="cls-2" d="M73.17,27.89c-1.71.17-9.06,1.75-7.17,2.6,2.36,1.07,9.91,1,11.34.26C78.18,30.33,74,27.8,73.17,27.89Z"/></g></g></svg>