<svg xmlns="http://www.w3.org/2000/svg" viewBox="0 0 35.67 59.23"><defs><style>.cls-1{fill:#ef8885;}.cls-2{fill:#e19797;}.cls-3{fill:#a99ead;}.cls-4{fill:#c9e7e5;}.cls-5{fill:#11476a;}</style></defs><g id="Layer_2" data-name="Layer 2"><g id="Layer_1-2" data-name="Layer 1"><path class="cls-1" d="M7.73,15.37l.21-4.06c2.69-1,4.26-2.76,3.85-5.82l.07-.14c4.26,0,8.79-2.19,12.38,2.41,2.4,3.08,1,6.33,1.42,9.48l0,.11c-2.74,4.13-2.48,7.88,1.07,11.54,1.53,1.58,3.09,2.83,1.08,6.14a8.83,8.83,0,0,0,1.87,10.28c.29,3.28.13,6.46-2.2,9.11l-2.08-.1c1.25-5.1-.07-8.63-5.13-11.27C9.06,37.22,8.3,24.84,15.57,18.27c2-.23,2.55-1.51,1.75-3.13-.59-1.16-1.25-2,.42-2.65,1.31-.48,2-1.1,1.16-2.54A2.84,2.84,0,0,0,16.05,8.4c-1.33.09-2.23.73-2.23,2.12C13.81,14.71,11.4,15.81,7.73,15.37Z"/><path class="cls-2" d="M29.65,45.31A8.83,8.83,0,0,1,27.78,35c2-3.31.45-4.56-1.08-6.14-3.55-3.66-3.81-7.41-1.07-11.54.19,2.72-.52,5.54.68,8.36,2.2-.23,2.11-4.15,4.57-2.81,1.74,1,2.47,2.84,2.92,4.91.55,2.52,2.21,4.74,1.81,7.55-.21,1.45-.69,3.12-2.24,2.38-6.11-2.92-3.54,1.92-3.8,4.12A23.45,23.45,0,0,0,29.65,45.31Z"/><path class="cls-2" d="M7.73,15.37c3.67.44,6.08-.66,6.09-4.85,0-1.39.9-2,2.23-2.12A2.84,2.84,0,0,1,18.9,10c.83,1.44.15,2.06-1.16,2.54-1.67.61-1,1.49-.42,2.65.8,1.62.29,2.9-1.75,3.13C15.41,15.73,14,16.44,12.5,17a22.64,22.64,0,0,0-7.8,5.19c-1.07,1-2.57,2.92-4.1,1-1.67-2.07.52-3.44,1.94-4.2A44.75,44.75,0,0,0,7.73,15.37Z"/><path class="cls-2" d="M25.66,17.24c-.42-3.15,1-6.4-1.42-9.48-3.59-4.6-8.12-2.39-12.38-2.41-1-3.7-1-3.94,2.13-3.51C15.46,2,15.48,1,16.21.56a5.29,5.29,0,0,1,7.42,3.2c.51,2.12,2.62,3,3.26,4.85C27.94,11.62,28.55,14.72,25.66,17.24Z"/><path class="cls-2" d="M11.79,5.49c.41,3.06-1.16,4.81-3.85,5.82C7.74,8.39,9.87,7,11.79,5.49Z"/><path class="cls-3" d="M25.37,54.35l2.08.1c-1.89,5-6.05,5.09-10.33,4.55-3.9-.49-5.46-3.56-6.14-6.83s1.29-5.65,4.46-6.44c2.17-.54,5.25-1.84,5.17,2.58-1.59,1-3.19-1-4.77,0-1.06.3-1.22,1.1-1.13,2l0,0c-3.2.82-1.41,3-.73,4.13a6,6,0,0,0,6.81,2.62C22.45,56.68,23.86,55.3,25.37,54.35Z"/><path class="cls-2" d="M15.84,48.33c1.58-1,3.18,1,4.77,0,1.18,2,3.43,4.4-.13,5.88-3.18,1.33-5.29-.39-5.75-3.86l0,0Z"/><path class="cls-1" d="M7.73,15.4l.21-4.05c2.69-1,4.26-2.77,3.85-5.83l.07-.13c4.26,0,8.79-2.2,12.38,2.4,2.4,3.08,1,6.33,1.42,9.48l0,.11c-2.74,4.13-2.48,7.88,1.07,11.54,1.53,1.58,3.09,2.83,1.08,6.15a8.82,8.82,0,0,0,1.87,10.27c.29,3.29.13,6.46-2.2,9.11l-2.08-.1c1.25-5.1-.07-8.63-5.13-11.27C9.06,37.25,8.3,24.87,15.57,18.3c2-.23,2.55-1.51,1.75-3.12-.59-1.17-1.25-2,.42-2.66,1.31-.48,2-1.1,1.16-2.54a2.82,2.82,0,0,0-2.85-1.54c-1.33.08-2.23.72-2.23,2.11C13.81,14.74,11.4,15.84,7.73,15.4Z"/><path class="cls-2" d="M29.65,45.34a8.82,8.82,0,0,1-1.87-10.27c2-3.32.45-4.57-1.08-6.15-3.55-3.66-3.81-7.41-1.07-11.54.19,2.72-.52,5.55.68,8.36,2.2-.23,2.11-4.14,4.57-2.8,1.74.94,2.47,2.84,2.92,4.91.55,2.51,2.21,4.74,1.81,7.54-.21,1.46-.69,3.12-2.24,2.38-6.11-2.91-3.54,1.92-3.8,4.12A23.45,23.45,0,0,0,29.65,45.34Z"/><path class="cls-2" d="M7.73,15.4c3.67.44,6.08-.66,6.09-4.85,0-1.39.9-2,2.23-2.11A2.82,2.82,0,0,1,18.9,10c.83,1.44.15,2.06-1.16,2.54-1.67.61-1,1.49-.42,2.66.8,1.61.29,2.89-1.75,3.12C15.41,15.76,14,16.47,12.5,17a22.48,22.48,0,0,0-7.8,5.18c-1.07,1-2.57,2.93-4.1,1-1.67-2.07.52-3.44,1.94-4.19A44.82,44.82,0,0,0,7.73,15.4Z"/><path class="cls-2" d="M25.66,17.27c-.42-3.15,1-6.4-1.42-9.48-3.59-4.6-8.12-2.39-12.38-2.4-1-3.7-1-3.95,2.13-3.52,1.47.2,1.49-.88,2.22-1.27a5.28,5.28,0,0,1,7.42,3.2c.51,2.11,2.62,3,3.26,4.84C27.94,11.65,28.55,14.76,25.66,17.27Z"/><path class="cls-2" d="M11.79,5.52c.41,3.06-1.16,4.81-3.85,5.83C7.74,8.42,9.87,7,11.79,5.52Z"/><path class="cls-4" d="M15.84,48.33l-1.13,2C14.62,49.43,14.78,48.63,15.84,48.33Z"/><path class="cls-5" d="M15.13,12.85a1.59,1.59,0,0,1,0-2.64c1-.93,1.87-.28,2.57.6C17.7,12.58,17,13.4,15.13,12.85Z"/></g></g></svg>