<svg xmlns="http://www.w3.org/2000/svg" viewBox="0 0 33.46 63.45"><defs><style>.cls-1{fill:#ef8885;}.cls-2{fill:#e19797;}.cls-3{fill:#11476a;}</style></defs><g id="Layer_2" data-name="Layer 2"><g id="Layer_1-2" data-name="Layer 1"><path class="cls-1" d="M17.82,16c-.56-2.71-1.11-5.42-1.83-9,4.27,1.38,4.62,4.87,5.22,7.46C21.7,16.5,19,15.51,17.8,16Z"/><path class="cls-1" d="M9.93,49.88a2.54,2.54,0,0,1-.07-1c-.22-3.06,1.13-6.55-.93-9.09s-1.63-4.3-.58-6.69c1.58-3.64-1-11-4.47-13.2-3.13-2.46-1.83-5.88-1.94-9C3.64,9.48,5,7.65,7.59,7.46c1.48-.11,2.7.22,1.82,1.63-3.4,5.42,1,6.27,4.31,7.84,3.47,3.29,7.83,5.27,10.15,10.24,3.57,7.62,0,12.95-3.76,18.62-.87,1.31-2.84,2-2.3,4.1l0,0-1.91.08c-3.35.28-1,4.16-3.08,5.34C10.94,53.78,13,50.48,9.93,49.88Z"/><path class="cls-2" d="M13.72,16.93C10.42,15.36,6,14.51,9.41,9.09c.88-1.41-.34-1.74-1.82-1.63-2.56.19-3.95,2-5.65,3.46C3.18,7.8,1.82,4,5.86,1.5,9-.48,10-.16,11.21,3.37c1-1.44.76-3.77,3.34-3.31,2.17.38,1,2.42,1.65,2.81C21.84,6.45,22.34,15.78,30.91,16c1.38,0,2.83.41,2.5,2.27S31.52,20.44,30,20c-4.07-1.28-8.1-2.65-12.15-4,1.23-.45,3.9.54,3.41-1.52C20.61,11.85,20.26,8.36,16,7c.72,3.57,1.27,6.28,1.83,9C16.46,16.32,14.84,15.59,13.72,16.93Z"/><path class="cls-2" d="M9.93,49.88c3.07.6,1,3.9,2.92,5.4,2.06-1.18-.27-5.06,3.08-5.34-.65,4.3-.71,8.57,3.86,10.78,3.27,1.58,6-.18,8.23-2.68,2.53-3.49,2.53-3.54-.58-5.87V57.6c-.68-.39-2-.88-2-1.16.5-3.08-1-4.23-3.8-4.68-3.3-.53-.37,3.62-2.95,3.57-1.84-1.53-.36-3.69-.89-5.47l0,0c3.36-1.78,6.65-3.67,10.6-1.42,3.79,2.16,4.28,5.48,2.76,9a9.83,9.83,0,0,1-15.78,3.39C12.1,58,8.88,55,9.93,49.88Z"/><path class="cls-2" d="M3.88,19.91c3.5,2.21,6.05,9.56,4.47,13.2C7.3,35.5,7,37.4,8.93,39.8s.71,6,.93,9.09a17.42,17.42,0,0,1-1.41-3.68c-.54-3.78-2-3.56-4.26-1.24-.79.84-1.52,1.93-2.9,1.39s-1.11-1.9-1.16-3C0,40,0,37.7,0,35.38c.1-7.05.43-7.3,6.59-5.26C7.67,26.18,3.91,23.53,3.88,19.91Z"/><path class="cls-3" d="M13.16,11.36a1.6,1.6,0,0,1,0-2.64c1-.93,1.87-.28,2.57.6C15.73,11.09,15,11.91,13.16,11.36Z"/></g></g></svg>