<svg xmlns="http://www.w3.org/2000/svg" viewBox="0 0 119.17 40.25"><defs><style>.cls-1{fill:#f8b62d;}.cls-1,.cls-2,.cls-3,.cls-4,.cls-5{fill-rule:evenodd;}.cls-2{fill:#eba228;}.cls-3{fill:#e6bd76;}.cls-4{fill:#fff;}.cls-5{fill:#1c1e1f;}</style></defs><g id="Layer_2" data-name="Layer 2"><g id="Layer_1-2" data-name="Layer 1"><path class="cls-1" d="M25.66,29c-2.28-4.37-1.59-8.87.35-11-3.46-.46-12.7-2.15-26-8.72C.16,15,8,21.93,12.43,23.1,8,24.26.15,31.19,0,37,7,31.82,19.36,30.05,25.66,29Z"/><path class="cls-2" d="M86.26,8.51C84.82,6.86,76-.2,75,0S85.1,9.4,86.26,8.51Z"/><path class="cls-2" d="M82.71,10C81.27,8.36,72.43,1.29,71.4,1.5S81.55,10.89,82.71,10Z"/><path class="cls-2" d="M79.71,11.21C78.27,9.57,69.43,2.5,68.4,2.71S78.55,12.1,79.71,11.21Z"/><path class="cls-2" d="M76.85,13.3c-1.44-1.65-10.28-8.71-11.31-8.51S75.69,14.19,76.85,13.3Z"/><path class="cls-3" d="M119.17,23.12C113.71,16.19,96,4.34,69.35,6.16c-7.31.5-51.64,10-52.18,18-.4,6.07,46.61,15.53,52.17,15.91C96,41.89,113.71,30,119.17,23.12Z"/><path class="cls-4" d="M119.17,23.12C113.71,16.19,96,4.34,69.35,6.16c-7.31.5-51.64,10-52.18,18C43,21.93,83.88,17,119.17,23.12Z"/><path class="cls-1" d="M119.17,23.12C113.71,16.19,96,4.34,69.35,6.16c-7.31.5-51.64,10-52.18,18C45.44,17.23,86.68,11.63,119.17,23.12Z"/><path class="cls-1" d="M119.17,23.12c-3.36-4.26-11.34-10.37-23.17-14a29,29,0,0,0,1.41,27.6C108.47,33,116,27.2,119.17,23.12Z"/><path class="cls-2" d="M91.62,30.68a17.18,17.18,0,0,1-.13-18.62C86.26,18,86,25.06,91.62,30.68Z"/><path class="cls-5" d="M106.35,18.44a2.23,2.23,0,1,0,2,2.41A2.23,2.23,0,0,0,106.35,18.44Z"/><path class="cls-2" d="M89.5,31.61c-2.1.21-11.09,2.14-8.78,3.19,2.89,1.31,12.12,1.16,13.87.31C95.62,34.6,90.5,31.51,89.5,31.61Z"/></g></g></svg>