<svg xmlns="http://www.w3.org/2000/svg" viewBox="0 0 173 56.98"><defs><style>.cls-1{fill:#0d446a;}.cls-2{fill:#11476a;}.cls-3{fill:#02406c;}</style></defs><g id="Layer_2" data-name="Layer 2"><g id="Layer_1-2" data-name="Layer 1"><path class="cls-1" d="M148.63,45.52C143.69,48.89,139,49.66,133,47c-9-4.1-18.61-5.14-27.93-.11-1.45.79-3.39,1.5-3.46,3.26s2.05,1.92,3.29,2.65c8.49,5,17.45,5.72,26.18,1.31,6.49-3.28,12-2.73,17.53,1.46Z"/><path class="cls-1" d="M173,23.52c-4.94,3.37-9.65,4.14-15.62,1.43-9-4.1-18.6-5.14-27.92-.11-1.45.79-3.4,1.5-3.46,3.26s2,1.92,3.28,2.65c8.5,5,17.46,5.72,26.19,1.31,6.48-3.28,12-2.73,17.53,1.46Z"/><path class="cls-1" d="M49.48,26.42c-8.09,7.8-16,3.27-23.89.81A27.87,27.87,0,0,0,3,29.48c-4.1,2.27-3.91,3,.13,5.4,9,5.39,18.34,5.42,27.61,1.07,5.1-2.41,9.67-3,14.34.66,2.91,2.25,3.89,1,4-2.24A55.19,55.19,0,0,1,50,28C49.81,27.49,49.65,27,49.48,26.42Z"/><path class="cls-1" d="M72.45,4.71c-.24,0-.45-.17-.55-.11C63.4,10,55.32,6.22,47.07,3.66,39.55,1.32,32.3,2.56,25.48,6.45c-3,1.71-3.33,3,0,5,9.39,5.6,18.94,5.66,28.56,1.09,4.76-2.27,9.05-2.8,13.44.61,2.65,2.07,4.42,1.76,4.63-2.11C72.23,8.93,72.93,6.84,72.45,4.71Z"/><path class="cls-1" d="M109.22,22.47c-7.23,6-14.28,4.06-21.85,1.06-7.76-3.07-15.92-3-23.57,1.21-1.42.79-3.49,1.39-3.62,3.11-.14,1.91,2.08,2.28,3.45,3.07,8.94,5.13,18.11,4.75,27.19.65,4.86-2.2,9.26-3.05,13.78.59,3,2.39,4.17,1.1,4.34-2.33A52.13,52.13,0,0,1,110,23.57Z"/><path class="cls-1" d="M72.72,47.54c-9.8-4.44-19.68-6-29.57-.43-4.49,2.51-4.43,3.07.08,5.54C49,55.81,55,58.08,61.76,56.33c1.18-2,3-2.58,5.26-3C70.08,52.83,73.25,51.84,72.72,47.54Z"/><path class="cls-2" d="M92.71,2.71c-2.38-1.12-3.56,1.19-5.26,1.93-2.46,1.07-2.09,2.92-.13,4,6,3.27,12.21,5.87,19.25,4.69a22.05,22.05,0,0,0,6.65-1.91c6.8-3.61,13.36-4.56,20.09,1.85.78-4.39,1.38-7.73,2-11-.7-.2-1.11-.46-1.29-.34-6.77,4.13-13.48,4-20.63.58A25.25,25.25,0,0,0,98.26.35c-1.73.28-3.66.3-4.73,2.14C101.2-.24,107.79,4,114.75,5.83a2,2,0,0,1,1.6,2.22c-.15,1.25-1.22,1.36-2.23,1.47-2.77.3-5.72-.69-8.31.71a9.25,9.25,0,0,1-10.21-.3c-1.68-1.07-4.41-1-5.53-2.33C87.68,4.69,93.78,5.48,92.71,2.71Z"/><path class="cls-3" d="M92.71,2.71c1.07,2.77-5,2-2.64,4.89C91.19,9,93.92,8.86,95.6,9.93a9.25,9.25,0,0,0,10.21.3c2.59-1.4,5.54-.41,8.31-.71,1-.11,2.08-.22,2.23-1.47a2,2,0,0,0-1.6-2.22C107.79,4,101.2-.24,93.53,2.49A1.6,1.6,0,0,0,92.71,2.71Z"/><path class="cls-2" d="M72.72,47.54c.53,4.3-2.64,5.29-5.7,5.82-2.25.39-4.08.94-5.26,3a24.15,24.15,0,0,0,10.36-3.06c4.7-2.55,8.48-1.84,12.42.94,2.75,1.94,4.37,1.87,4.5-2.09a55.22,55.22,0,0,1,1.19-7C84.05,46,78.89,51.65,72.72,47.54Z"/></g></g></svg>