<svg xmlns="http://www.w3.org/2000/svg" viewBox="0 0 87.83 170.36"><defs><style>.cls-1{fill:#0d446a;}.cls-2{fill:#a99ead;}.cls-3{fill:#6abcc5;}.cls-4{fill:#fff;}.cls-4,.cls-5,.cls-6{fill-rule:evenodd;}.cls-5{fill:#9dc0dc;}.cls-6{fill:#d4e7f1;}</style></defs><g id="Layer_2" data-name="Layer 2"><g id="Layer_1-2" data-name="Layer 1"><path class="cls-1" d="M0,96c9.07-.73,19.44-9,22.35-17.55,1-2.85-1.39-2.7-2.59-3.12-3.18-1.12-3.22-2.5-.76-4.39,2.89-2.21,5.61-4.62,8.85-6.41,2.47-1.37,3.69-.77,4.59,1.47,1.67,4.15,3.29,8.33,4.83,12.53,1.06,2.88,0,3.9-2.72,2.47-3-1.59-4-.48-5.27,2.45-4.73,11-13.89,17-24.94,20.42-1.43.44-2.89.75-4.34,1.12Z"/><path class="cls-2" d="M32.7,143.88c5.38,1.4,8.17-1.48,10.28-5.78.77-1.55,1.52-3.88,3.58-3.69,2.36.22,2.74,2.81,3.07,4.63,1,5.45,3,9.44,9.48,9.39A3,3,0,0,1,62.39,151c.15,1.58-1.17,2.48-2.38,2.84-6.35,1.9-7.87,6.39-7.17,12.39.15,1.32.82,3.38-.88,4s-2.91-1-4-2.29c-4.64-5.5-5.58-5.63-12.84-2.79-1.75.68-3.88,2.53-5.49,1s-.42-4,.54-6c1.5-3.12,2.32-6.21-.58-9.15-1.6-1.62-4.1-3.54-3.16-5.77C27.53,142.62,30.67,144.73,32.7,143.88Z"/><path class="cls-3" d="M63.43,107.93a7.73,7.73,0,0,1,2.21.34c4.12,1.78,7.44.71,10.15-2.68.77-1,1.59-1.77,2.92-1.28a2,2,0,0,1,1.15,2.49c-.87,5.27,1.41,8.57,6.22,10.45.9.36,1.86,1,1.74,2.19-.15,1.39-1.42,1.87-2.52,2.07-5.53,1-7.93,4.25-7.59,9.79.08,1.32-.16,2.76-1.77,3.2s-2-1-2.58-1.87c-2.72-4-6.11-6-11-4.17a2.26,2.26,0,0,1-2.7-.7c-.74-1,.09-1.89.52-2.73a10.15,10.15,0,0,1,1.46-2c2.68-3,3.13-6,.15-9.26-1.08-1.17-2-2.72-1.48-4.53C60.73,107.78,62.05,108,63.43,107.93Z"/><path class="cls-4" d="M66.24,27.62c5.17-6.33,8.8-12.47,9.08-15.37.12-1.17-2.08-2.77-2.74-3.8-.37-.58.16-1.91-.29-2.44s-1.89-.29-2.42-.77c-.71-.65-.71-2.31-1.55-2.84s-2.49.06-3.44-.33S63.1.3,62,.06s-2.65.63-3.88.6S55.63-.15,54.54,0s-2,1.3-3,1.65-2.43-.22-3.32.28S47,4,46.23,4.66c-.58.47-1.77.18-2.27.72s-.32,1.92-.74,2.52a13.78,13.78,0,0,0-2.54,4.32c-.59,2.23,4.19,10.26,7.51,16,1.6,2.73-.26.9-2.29,4.42-.77,1.34-.34,1.72,2.58,1.23,6.8-1.13,11.25-1.35,18.25.44,2.9.75,2.71,0,2.18-1.3C67.47,29.47,64.79,29.4,66.24,27.62Z"/><path class="cls-5" d="M43.48,7.11a1.94,1.94,0,0,1-.26.79,3.05,3.05,0,0,1-1,.78c2.61,5.76,9.57,21.13,8.87,19-.74-2.29-5.18-15.6-7.45-20.18C43.59,7.36,43.53,7.23,43.48,7.11Z"/><path class="cls-5" d="M47.15,3.3a4.7,4.7,0,0,1-.92,1.36,1.29,1.29,0,0,1-.53.24c1.93,6.37,7.53,24.33,7.14,22.13-.42-2.36-3.61-17.26-5.22-22.09C47.46,4.34,47.31,3.79,47.15,3.3Z"/><path class="cls-5" d="M53,.79a5.91,5.91,0,0,1-1.45.89,2.21,2.21,0,0,1-.59.11c.95,6.78,4,27,3.95,24.79S53.82,6.68,53,.79Z"/><path class="cls-5" d="M73.47,9.15a2.45,2.45,0,0,1-.89-.7,2.48,2.48,0,0,1-.11-1.31L72,8.07c-2.5,4.48-7.61,17.6-8.47,19.85S70.64,14.65,73.47,9.15Z"/><path class="cls-5" d="M70.1,5.38a.88.88,0,0,1-.23-.14,6.63,6.63,0,0,1-.94-2c-.25.6-.5,1.32-.75,2.14-1.86,4.76-5.8,19.52-6.34,21.85S67.85,11.66,70.1,5.38Z"/><path class="cls-5" d="M65,2.11l-.12,0A8.52,8.52,0,0,1,63.09.66C62,6.12,60,24.35,59.81,26.68S63.7,8.88,65,2.11Z"/><path class="cls-5" d="M59.08.54a4.38,4.38,0,0,1-1,.12,5,5,0,0,1-1.17-.2c-.23,5.78.61,23.68.81,26S58.91,6.3,59.08.54Z"/><path class="cls-6" d="M48.42,28.58c.84,1.54.16,1.22-1,2.16,2.16,1.92,5.49,2.11,10,2.2a13,13,0,0,0,9.21-3.12c-.6-.59-1-1-.78-1.6C64.08,30.79,62,33,57.45,32.94c-4.75-.1-7.54-1.26-9-4.29Z"/></g></g></svg>