<svg xmlns="http://www.w3.org/2000/svg" viewBox="0 0 209.26 69.72"><defs><style>.cls-1{fill:#f6fcfc;}</style></defs><g id="Layer_2" data-name="Layer 2"><g id="Layer_1-2" data-name="Layer 1"><path class="cls-1" d="M115,43.57c-6,.94-11.51-2.57-17.12-4.77-5.36-2.1-10-3-15.26,0-1.69,1-4.56,3-6.23.4s.26-5.55,1.32-8,3.79-1.84,5.41-.6c6.56,5,12.56,1.87,18.59-.93,10.39-4.82,20.24-3.94,30.07,1.84,5.44,3.2,4.16,5.89,0,8.33C126.87,42.79,121.28,43.73,115,43.57Z"/><path class="cls-1" d="M162.55,66.81c-7.12-.82-14.24-2-20.73-5.06-5.77-2.68-10.8-1.56-16.06.8-1.35.61-3.29,1.72-4.19.2-1.52-2.58.41-5.37.57-8.1.09-1.58,1.93-3.45,3.1-2.51,10.68,8.54,20.64,0,30.65-1.49,9.17-1.42,16.41,1.81,23.92,5.53,2.8,1.39,2.19,3.25,0,4.56C174.45,63.86,169,66.55,162.55,66.81Z"/><path class="cls-1" d="M65.29,15.79A27.27,27.27,0,0,1,49.71,13C43.07,9.77,36.68,9,30.1,13c-1.25.76-3.44,1.9-4.09.38-1.31-3.09,0-6.45.69-9.6.37-1.81,2.54-2,3.82-1C39.09,9.17,46.85,4.33,55,1.6,65.11-1.76,74.69.4,83.58,6c3.78,2.38,1.6,4.32-.59,5.78C77.68,15.31,71.7,16.41,65.29,15.79Z"/><path class="cls-1" d="M87.22,69.72c-7.7-.79-14.85-2.13-21.32-5.1-5.52-2.54-10.18-2.58-15.19.59-1.39.88-4.21,2.4-4.64.5a19.7,19.7,0,0,1,.82-9.62c.68-2.22,3-1.36,4.51-.2,6,4.65,11.72,3.22,18,.23,11-5.23,21.88-4.22,32.41,1.66,3.26,1.82,4.06,3.89.57,6.32A30.52,30.52,0,0,1,87.22,69.72Z"/><path class="cls-1" d="M188.73,37.28c-6.35,1.7-12.18-1.22-17.64-3.51-6.08-2.55-11.23-2.33-16.78.49-1.53.77-3.8,2.39-4.83.7-1.64-2.69.09-5.86.69-8.74a2.61,2.61,0,0,1,4.25-1.63c8.56,6.67,16.71,1.09,24.61-1.11,9.85-2.73,18.63-1.6,27.13,3.66,1.28.78,3,1.27,3.09,3.09.15,2.32-1.8,2.93-3.41,3.57C200.39,36,195,38.62,188.73,37.28Z"/><path class="cls-1" d="M141,15.82c-6.62.69-13-1.12-18.74-3.63s-10.58-2.82-15.86.42c-1.62,1-4.54,2.71-5.25.19-.76-2.68.11-6.08,1.06-8.89.86-2.52,3.16-1.09,4.52-.21,6.11,4,11.92,3,18.2.08,10-4.65,20.34-5,30.32.47,1.7.94,4.19,1.71,4.31,4,.13,2.7-2.4,3.75-4.43,4.75A25.4,25.4,0,0,1,141,15.82Z"/><path class="cls-1" d="M39.52,47.15c-6.39-1.67-12.81-3.22-19.16-5-1.94-.57-4-2-4.24-4.07-.24-2.53,2.41-3.13,4.21-3.78,12-4.36,24.1-6.67,36.15.17,1.65.94,3.22,1.72,3.29,3.78a3.51,3.51,0,0,1-2.57,3.48C51.44,43.65,46.12,47.22,39.52,47.15Z"/><path class="cls-1" d="M0,38.74C0,35.34.26,32.49,4.3,32.91c3,.31,7.07,1,7.11,4.3C11.46,42,6.5,42.42,3,43.06S.19,40.46,0,38.74Z"/></g></g></svg>