<svg xmlns="http://www.w3.org/2000/svg" viewBox="0 0 296.04 12.38"><defs><style>.cls-1{fill:#6abcc5;}</style></defs><g id="Layer_2" data-name="Layer 2"><g id="Layer_1-2" data-name="Layer 1"><path class="cls-1" d="M31.3,11.63C21.43,12.79,12.42,9.3,3.16,7.34,1.67,7-.3,6.91,0,4.84c.29-1.75,2.16-2.17,3.72-2,5.09.51,10.58.15,15.17,2C29.36,9,39.3,7.06,49,3.52c10.2-3.73,19.45-5.62,29.79.39,9.66,5.6,20.51,4,30.64.12,11.46-4.39,22.42-5.76,33.9.45,7.48,4.06,15.9,3.43,24,1a60.9,60.9,0,0,0,7.39-2.14c10.34-4.48,20.06-4.8,30.47.92,9.86,5.42,21.06,3.9,30.5-1,10.37-5.39,19.54-3.36,29.18.42,8.32,3.26,16.77,4.57,25.62,2.43,2.09-.51,5.14-1.67,5.53,1.83.34,3.06-2.6,3.48-4.92,3.57-10,.4-20,.94-29.77-2.28a34.29,34.29,0,0,0-22.67-.09c-13.09,4.58-26.25,4-39.26,0a36.21,36.21,0,0,0-22.64,0c-15.77,5.12-31.49,2.48-47.1-1a29.62,29.62,0,0,0-15.17.7,70.69,70.69,0,0,1-43.88-.69c-5.86-2-11.73-1-17.43.66C46,11,38.7,12.31,31.3,11.63Z"/></g></g></svg>