<svg xmlns="http://www.w3.org/2000/svg" viewBox="0 0 42.21 42.22"><defs><style>.cls-1{fill:#fff;}</style></defs><g id="Layer_2" data-name="Layer 2"><g id="Layer_1-2" data-name="Layer 1"><path class="cls-1" d="M21.11,42.22a21.11,21.11,0,1,1,21.1-21.11A21.13,21.13,0,0,1,21.11,42.22Zm0-41.07a20,20,0,1,0,20,20A20,20,0,0,0,21.11,1.15Z"/><path class="cls-1" d="M13.8,9.51a7.46,7.46,0,0,1-5.64,4.4c-2.19.17-3.23-1.53-2.31-3.79a7.45,7.45,0,0,1,5.64-4.41C13.68,5.54,14.72,7.24,13.8,9.51Z"/><path class="cls-1" d="M6.11,14.89a2.4,2.4,0,0,1-1.82,1.42c-.71.06-1-.49-.75-1.23a2.4,2.4,0,0,1,1.82-1.42C6.07,13.6,6.41,14.16,6.11,14.89Z"/><path class="cls-1" d="M6.39,17.36a1.27,1.27,0,0,1-1,.75c-.37,0-.55-.26-.39-.64a1.26,1.26,0,0,1,1-.75C6.37,16.69,6.54,17,6.39,17.36Z"/><path class="cls-1" d="M25.29,39.1a21.23,21.23,0,0,0,5.42-2.36,20.31,20.31,0,0,0,4.58-3.5,13.49,13.49,0,0,0,3.42-10.89A17,17,0,0,1,33.42,33a21.17,21.17,0,0,1-10.71,5.32,16.88,16.88,0,0,1-5.21.24c.63.08,1.23.54,1.86.67s1.13.18,1.68.24A11.94,11.94,0,0,0,25.29,39.1Z"/></g></g></svg>