<svg xmlns="http://www.w3.org/2000/svg" viewBox="0 0 136.78 169.41"><defs><style>.cls-1{fill:#f2837f;}.cls-2{fill:#a99ead;}.cls-3{fill:#fff;}.cls-3,.cls-4,.cls-5{fill-rule:evenodd;}.cls-4{fill:#9dc0dc;}.cls-5{fill:#d4e7f1;}</style></defs><g id="Layer_2" data-name="Layer 2"><g id="Layer_1-2" data-name="Layer 1"><path class="cls-1" d="M46.41,47.76c-.93-3.41-3.7-5.35-6-7.65-5-4.89-9.88-9.84-12.9-16.26a17.41,17.41,0,0,1-1.58-5.19,3.47,3.47,0,0,1,1.51-3.49c1.3-.73,2.5-.07,3.66.77A30.69,30.69,0,0,1,40.72,27a132,132,0,0,0,9,15.17C48.17,32.75,48.42,23.39,48.3,14c-.06-4.12,1.28-7.83,2.18-11.69C50.76,1.11,51.35.15,52.7,0a2.6,2.6,0,0,1,2.67,1.86,23.59,23.59,0,0,1,2,9.66c0,5.06,0,10.13,0,16.41,4.17-5.53,5.65-11.16,9.61-15.17,1.83-1.85,4-5,6.44-3.21,2.27,1.69,1.18,5.26-.41,7.75a89.49,89.49,0,0,1-14.3,16.54c-.94.9-2.29,1.49-2.28,3.07s-.77,3.71.45,4.81c1.66,1.49,2.91-.76,4.2-1.47,4.47-2.49,8.57-5.81,14.13-5.49,1.51.08,3.13,0,3.76,1.77s-.61,2.89-1.76,3.78c-4.5,3.49-10,4.31-15.34,5.38-2.27.45-4.6.5-6.5,2.06Z"/><path class="cls-1" d="M114.37,154.22c3.37-.91,4.72-3.12,6.34-4.82a26.54,26.54,0,0,1,10.06-7.07c1.09-.4,2.11-1.38,3.07-.14.72.92,0,1.83-.54,2.71-1.89,3.3-4.66,5.89-7.58,8.89,2.8,1.07,4.89-.83,7.13-.45,1.57.26,3.83-.32,3.92,2s-1.91,2.93-3.86,3c-3.16.09-6.32,0-9.48.06a18.39,18.39,0,0,0-3.91.52,2.34,2.34,0,0,0-1.45,1.19c-.39,1,.69,1.3,1.31,1.78,1.86,1.45,4.56,1,6.27,2.84.92,1,2.09,1.93,1.34,3.42-.89,1.74-2.64,1.46-3.92.81a20.41,20.41,0,0,1-4.36-3.24c-2.75-2.51-5.46-4.4-8.92-1.12-.44.42-1.18.66-2.06-.24,4.45-5.71,2.09-12.81,3.5-19.29a23.14,23.14,0,0,1,2.11-6.55c.68-1.24,1.57-2.31,3.14-1.78,1.75.6,1.92,2.09,1.66,3.69A56,56,0,0,1,114.37,154.22Z"/><path class="cls-2" d="M29,87c-6-1.08-10.55.66-15.13,1.73-3.65.85-7.25.63-10.88.45a3.09,3.09,0,0,1-3-2.3c-.38-1.77,1.39-2.06,2.51-2.55,4-1.75,8.13-1,12.24-.67,1.23.11,2.42,1.17,3.92-.13-4-2.36-8-4.53-11.78-7A39.31,39.31,0,0,1,1.71,72C1,71.32.34,70.43.86,69.36c.66-1.34,2.05-1.23,3.05-.87a48.89,48.89,0,0,1,5.84,2.69c1,.52,1.95,1.59,3.07.49.89-.87.2-1.8-.26-2.7-1.23-2.38-2.53-5.93.21-6.78,2.23-.69,3.93,3.23,4.46,5.72.72,3.39.92,6.9,2.63,10,.53,1,1.28,2.18,2.67,1.72,1.18-.39.8-1.66.89-2.6.23-2.28-.58-4.72.82-6.8.67-1,1.07-2.77,2.82-2.23,1.3.4,1.42,1.77,1.35,2.94-.09,1.48.06,3.18-.62,4.37C25.61,79.16,24.42,82.82,29,87Z"/><path class="cls-3" d="M84.85,128.93c4.83-6.34,8.22-12.48,8.48-15.37.11-1.18-1.94-2.78-2.55-3.8-.34-.59.15-1.91-.27-2.45s-1.76-.28-2.25-.77c-.66-.64-.67-2.3-1.45-2.83s-2.32.06-3.2-.33-1.66-1.77-2.71-2-2.48.63-3.62.61-2.29-.81-3.31-.63-1.86,1.31-2.79,1.65-2.27-.21-3.1.28-1.14,2.07-1.86,2.71c-.54.47-1.65.18-2.12.72s-.29,1.92-.69,2.52A14.3,14.3,0,0,0,61,113.56c-.54,2.23,3.9,10.24,7,15.94,1.49,2.73-.24.9-2.14,4.41-.72,1.35-.32,1.73,2.41,1.24,6.33-1.14,10.48-1.36,17,.42,2.7.74,2.53,0,2-1.3C86,130.77,83.5,130.71,84.85,128.93Z"/><path class="cls-4" d="M63.66,108.44a2.1,2.1,0,0,1-.25.79,2.87,2.87,0,0,1-.93.79c2.43,5.75,8.9,21.11,8.26,19s-4.82-15.59-6.93-20.17Z"/><path class="cls-4" d="M67.09,104.63a4.83,4.83,0,0,1-.87,1.36,1.24,1.24,0,0,1-.49.23c1.79,6.37,7,24.33,6.63,22.13C72,126,69,111.09,67.52,106.27,67.38,105.66,67.23,105.12,67.09,104.63Z"/><path class="cls-4" d="M72.53,102.12a5.56,5.56,0,0,1-1.35.88,1.69,1.69,0,0,1-.56.11c.88,6.78,3.7,27,3.66,24.79S73.3,108,72.53,102.12Z"/><path class="cls-4" d="M91.6,110.45a2.22,2.22,0,0,1-.82-.69,2.63,2.63,0,0,1-.1-1.32q-.21.44-.42.93c-2.34,4.49-7.11,17.61-7.91,19.86S89,116,91.6,110.45Z"/><path class="cls-4" d="M88.47,106.69a.8.8,0,0,1-.21-.15,6.38,6.38,0,0,1-.88-2c-.23.61-.47,1.32-.7,2.15-1.74,4.76-5.43,19.52-5.93,21.85S86.37,113,88.47,106.69Z"/><path class="cls-4" d="M83.72,103.43l-.11-.05A7.68,7.68,0,0,1,81.94,102c-1,5.47-2.93,23.69-3.08,26S82.51,110.19,83.72,103.43Z"/><path class="cls-4" d="M78.21,101.85a3.93,3.93,0,0,1-.93.13,4.83,4.83,0,0,1-1.09-.2c-.21,5.78.55,23.67.73,26S78,107.62,78.21,101.85Z"/><path class="cls-5" d="M68.24,129.91c.78,1.54.15,1.21-.94,2.16,2,1.91,5.11,2.1,9.35,2.19a11.71,11.71,0,0,0,8.59-3.13c-.55-.59-.92-1-.72-1.6-1.69,2.57-3.62,4.82-7.87,4.73-4.42-.09-7-1.26-8.35-4.28Z"/></g></g></svg>