<svg xmlns="http://www.w3.org/2000/svg" viewBox="0 0 87.83 246.55"><defs><style>.cls-1{fill:#0d446a;}.cls-2{fill:#a2ce56;}.cls-3{fill:#a99ead;}.cls-4{fill:#6abcc5;}.cls-5{fill:#a6d8d2;}.cls-6{fill:#a8b8b7;}.cls-7{fill:#c9e7e5;}.cls-8{fill:#11476a;}</style></defs><g id="Layer_2" data-name="Layer 2"><g id="Layer_1-2" data-name="Layer 1"><path class="cls-1" d="M0,172.15c9.07-.73,19.44-9,22.35-17.54,1-2.86-1.39-2.7-2.59-3.12-3.18-1.12-3.22-2.5-.76-4.39a73.15,73.15,0,0,1,8.85-6.42c2.47-1.36,3.69-.76,4.59,1.48,1.67,4.15,3.29,8.33,4.83,12.53,1.06,2.88,0,3.9-2.72,2.46-3-1.59-4-.47-5.27,2.46-4.73,11-13.89,17-24.94,20.41-1.43.45-2.89.76-4.34,1.13Z"/><path class="cls-2" d="M44.9,4c4.61.06,7.61,3.76,11.64,5.16,1,.34,2.75,11.68,2.11,12.81-1.72,3-3.41,6.07-5.36,8.93-1.61,2.35-4,4.08-1.8,7.58,1.15,1.84-.31,3.43-2.73,3.41-5,0-10,0-14.95-.12-1.49,0-3.7-.53-3.35-2.18,1.23-5.92-3.23-9.32-5.89-13.12C19.46,19.21,23.38,11,28.87,7a41.81,41.81,0,0,1,5.19-2.82ZM46,31.24a4.26,4.26,0,0,0,1-3c3.61-2.77,4.88-6.83,6-10.95l.63-1.22-.37-.13L53,17.31a20.59,20.59,0,0,0-6,11c-1,.78-.74,2-1,3ZM28,16.3l-.46-.94c0,.11-.11.26-.07.32a7.8,7.8,0,0,0,.57.58c.7,5.72,4.41,9.84,7.48,14.3A39.46,39.46,0,0,0,28,16.3ZM43.17,28.68c2.3-5.14,3-10.57,3-17.57C44,17.72,43.71,23.21,43.17,28.68Zm-3.05-.94c2.58-5.4.17-10.52,0-15.71Zm-3.93-5.35c-.73-3.57-.26-7.52-3.24-11.79C33.69,15.41,33.74,19.16,36.19,22.39Z"/><path class="cls-3" d="M32.7,220.07c5.38,1.4,8.17-1.49,10.28-5.78.77-1.56,1.52-3.89,3.58-3.7,2.36.22,2.74,2.82,3.07,4.64,1,5.45,3,9.43,9.48,9.39a3,3,0,0,1,3.28,2.53c.15,1.58-1.17,2.47-2.38,2.84-6.35,1.89-7.87,6.39-7.17,12.38.15,1.33.82,3.38-.88,4s-2.91-1-4-2.29c-4.64-5.5-5.58-5.63-12.84-2.79-1.75.68-3.88,2.53-5.49,1s-.42-4,.54-6c1.5-3.12,2.32-6.21-.58-9.16-1.6-1.62-4.1-3.53-3.16-5.77C27.53,218.8,30.67,220.91,32.7,220.07Z"/><path class="cls-4" d="M63.43,184.12a7.73,7.73,0,0,1,2.21.34c4.12,1.78,7.44.7,10.15-2.69.77-1,1.59-1.76,2.92-1.28a2.06,2.06,0,0,1,1.15,2.5c-.87,5.26,1.41,8.56,6.22,10.45.9.35,1.86,1,1.74,2.19-.15,1.39-1.42,1.87-2.52,2.06-5.53,1-7.93,4.26-7.59,9.79.08,1.33-.16,2.76-1.77,3.2s-2-1-2.58-1.86c-2.72-4-6.11-6-11-4.17a2.25,2.25,0,0,1-2.7-.71c-.74-1,.09-1.89.52-2.72a10.15,10.15,0,0,1,1.46-2c2.68-3.06,3.13-6,.15-9.26-1.08-1.17-2-2.73-1.48-4.54C60.73,184,62.05,184.18,63.43,184.12Z"/><path class="cls-2" d="M36.11,92.06c-5.59,1.09-9.5-1.51-12.83-5.66-.81-1-1.31-1.93-.78-3.11,3-6.6,13.51-9,19.14-4.06,3.65,3.2,6.8,4.59,10.44.36.72-.82,1.67-1.41,2.44-.25,1.94,2.91,1.79,6.42,1.62,9.59-.1,1.79-2.79,1.09-3.58,0-2.87-3.86-5.72-2.68-8.75-.44l-3.36.34h0c-.64-1.33-1.27-3-3.11-2.32-2,.75-1.21,2.22-.37,3.53C37.58,91.09,36.45,91.43,36.11,92.06Z"/><path class="cls-3" d="M64.09,116.23c-1.85-.31-3.52-.91-4.49-2.7,3.94-3.82,2.34-7.67.08-11.52,8.11-6.18,18.39-4.53,23.91,3.78a3.86,3.86,0,0,1,.17,4.59c-3.38,5.67-12,8.8-18.14,6.52A93.16,93.16,0,0,0,65.71,101l-1.62.07Zm7.13-1V101l-1.28.08C70.09,105.83,69.32,110.61,71.22,115.27Z"/><path class="cls-3" d="M57.91,112.5c-5.49-4.37-10.1-1.88-14.57,1.83a8,8,0,0,1-1.73.67c.14-4.55,1.22-8.62,2.16-12.72.45-2,1.76-2.23,2.66-.71,3,5.15,7,4.29,11.3,2.17Z"/><path class="cls-4" d="M57.91,112.5l-.18-8.76a2.72,2.72,0,0,1,2-1.73c2.25,3.85,3.85,7.7-.09,11.52Z"/><path class="cls-5" d="M44.9,4l-10.84.18C37.62-1.33,42-1.4,44.9,4Z"/><path class="cls-4" d="M64.09,116.23V101l1.62-.07a93.16,93.16,0,0,1-.09,15.93Z"/><path class="cls-6" d="M36.11,92.06c.34-.63,1.47-1,.83-2-.84-1.31-1.67-2.78.37-3.53,1.84-.69,2.47,1,3.11,2.31h0l3.36-.34C41.63,90.53,39.31,92.25,36.11,92.06Z"/><path class="cls-7" d="M28,16.3a39.46,39.46,0,0,1,7.52,14.26C32.4,26.1,28.69,22,28,16.26Z"/><path class="cls-7" d="M43.17,28.68c.54-5.47.82-11,3-17.57C46.15,18.11,45.47,23.54,43.17,28.68Z"/><path class="cls-7" d="M40.12,27.74V12C40.29,17.22,42.7,22.34,40.12,27.74Z"/><path class="cls-6" d="M36.19,22.39c-2.45-3.23-2.5-7-3.24-11.79C35.93,14.87,35.46,18.82,36.19,22.39Z"/><path class="cls-7" d="M47,28.26a20.59,20.59,0,0,1,6-11l0,0c-1.14,4.12-2.41,8.18-6,11Z"/><path class="cls-7" d="M46.91,28.23a4.26,4.26,0,0,1-1,3l0,0c.24-1,0-2.22,1-3Z"/><path class="cls-7" d="M53,17.31l.21-1.38.37.13-.63,1.22Z"/><path class="cls-7" d="M28,16.26a7.8,7.8,0,0,1-.57-.58c0-.06,0-.21.07-.32.15.31.3.63.46.94Z"/><path class="cls-7" d="M46,31.24l0,0Z"/><path class="cls-7" d="M40.45,88.86h0Z"/><path class="cls-4" d="M71.22,115.27c-1.9-4.66-1.13-9.44-1.28-14.2l1.28-.08Z"/><path class="cls-8" d="M77.63,109.92a1.67,1.67,0,0,0,0-2.75c-1-1-1.94-.29-2.67.63C75,109.64,75.72,110.49,77.63,109.92Z"/><path class="cls-8" d="M28.56,85.06a1.67,1.67,0,0,0,0-2.75c-1.05-1-2-.29-2.67.63C25.89,84.78,26.65,85.63,28.56,85.06Z"/></g></g></svg>