<svg xmlns="http://www.w3.org/2000/svg" viewBox="0 0 76.91 145.37"><defs><style>.cls-1{fill:#a2ce56;}.cls-2{fill:#a99ead;}.cls-3{fill:#6abcc5;}.cls-4{fill:#a6d8d2;}.cls-5{fill:#a8b8b7;}.cls-6{fill:#c9e7e5;}.cls-7{fill:#11476a;}</style></defs><g id="Layer_2" data-name="Layer 2"><g id="Layer_1-2" data-name="Layer 1"><path class="cls-1" d="M28.06,5c5.69.07,9.4,4.64,14.38,6.37,1.2.43,3.4,14.43,2.6,15.83-2.11,3.73-4.2,7.5-6.62,11-2,2.9-4.94,5-2.22,9.36,1.42,2.27-.39,4.23-3.37,4.21-6.16-.05-12.32,0-18.47-.15-1.85,0-4.58-.65-4.15-2.69,1.52-7.31-4-11.52-7.28-16.21-6.3-9-1.46-19.15,5.32-24.06a53.55,53.55,0,0,1,6.42-3.49ZM29.35,38.6a5.29,5.29,0,0,0,1.19-3.72c4.46-3.43,6-8.44,7.44-13.53l.78-1.5-.46-.17L38,21.39a25.48,25.48,0,0,0-7.45,13.53c-1.23,1-.91,2.44-1.21,3.71ZM7.11,20.14,6.54,19c0,.14-.13.33-.08.4a6.88,6.88,0,0,0,.7.73c.87,7,5.45,12.15,9.25,17.66A48.85,48.85,0,0,0,7.11,20.14Zm18.81,15.3c2.84-6.35,3.68-13.06,3.74-21.71C26.93,21.89,26.59,28.68,25.92,35.44Zm-3.77-1.17c3.19-6.67.21-13,0-19.4Zm-4.86-6.6c-.9-4.41-.32-9.3-4-14.57C14.2,19,14.26,23.67,17.29,27.67Z"/><path class="cls-1" d="M17.19,113.75c-6.9,1.35-11.74-1.87-15.84-7-1-1.27-1.63-2.38-1-3.84C4,94.76,17.07,91.79,24,97.9c4.5,4,8.4,5.67,12.9.45.88-1,2.06-1.75,3-.32,2.4,3.6,2.22,7.93,2,11.86-.12,2.21-3.44,1.35-4.42,0-3.54-4.76-7.07-3.31-10.81-.55l-4.15.43h0c-.79-1.64-1.57-3.71-3.84-2.87-2.52.94-1.5,2.75-.46,4.37C19,112.56,17.61,113,17.19,113.75Z"/><path class="cls-2" d="M51.77,143.62c-2.28-.38-4.36-1.12-5.54-3.34,4.86-4.71,2.89-9.47.09-14.23,10-7.64,22.73-5.6,29.54,4.66a4.77,4.77,0,0,1,.21,5.68c-4.17,7-14.78,10.87-22.42,8.05a113.51,113.51,0,0,0,.12-19.68l-2,.09Zm8.81-1.18V124.79l-1.58.1C59.19,130.77,58.23,136.68,60.58,142.44Z"/><path class="cls-2" d="M44.13,139c-6.78-5.4-12.47-2.32-18,2.26a8.94,8.94,0,0,1-2.13.82c.18-5.61,1.5-10.65,2.67-15.71.55-2.43,2.18-2.76,3.29-.87,3.75,6.36,8.65,5.29,14,2.67Q44,133.59,44.13,139Z"/><path class="cls-3" d="M44.13,139q-.1-5.41-.22-10.83a3.36,3.36,0,0,1,2.42-2.13c2.79,4.76,4.76,9.52-.1,14.23Z"/><path class="cls-4" d="M28.06,5l-13.39.21C19.06-1.65,24.51-1.73,28.06,5Z"/><path class="cls-3" d="M51.77,143.62V124.85l2-.09a113.51,113.51,0,0,1-.12,19.68Z"/><path class="cls-5" d="M17.19,113.75c.42-.78,1.82-1.19,1-2.44-1-1.62-2.06-3.43.46-4.37,2.27-.84,3.05,1.23,3.83,2.86h0l4.15-.43C24,111.86,21.15,114,17.19,113.75Z"/><path class="cls-6" d="M7.11,20.14a48.85,48.85,0,0,1,9.3,17.62C12.61,32.25,8,27.15,7.16,20.1Z"/><path class="cls-6" d="M25.92,35.44c.67-6.76,1-13.55,3.74-21.71C29.6,22.38,28.76,29.09,25.92,35.44Z"/><path class="cls-6" d="M22.15,34.27V14.87C22.36,21.28,25.34,27.6,22.15,34.27Z"/><path class="cls-5" d="M17.29,27.67c-3-4-3.09-8.63-4-14.57C17,18.37,16.39,23.26,17.29,27.67Z"/><path class="cls-6" d="M30.59,34.92A25.48,25.48,0,0,1,38,21.39l-.06,0c-1.41,5.09-3,10.1-7.44,13.53Z"/><path class="cls-6" d="M30.54,34.88a5.29,5.29,0,0,1-1.19,3.72l0,0c.3-1.27,0-2.74,1.21-3.71Z"/><path class="cls-6" d="M38,21.39l.26-1.71.46.17L38,21.35Z"/><path class="cls-6" d="M7.16,20.1a6.88,6.88,0,0,1-.7-.73c0-.07,0-.26.08-.4l.57,1.17Z"/><path class="cls-6" d="M29.35,38.6l0,0Z"/><path class="cls-6" d="M22.56,109.8h0Z"/><path class="cls-3" d="M60.58,142.44c-2.35-5.76-1.39-11.67-1.58-17.55l1.58-.1Z"/><path class="cls-7" d="M69.75,134.37a2.24,2.24,0,0,0,0-3.71c-1.42-1.31-2.63-.4-3.61.84C66.14,134,67.17,135.14,69.75,134.37Z"/><path class="cls-7" d="M11.54,104.6a2.25,2.25,0,0,0,.06-3.71c-1.43-1.31-2.63-.4-3.62.84C7.93,104.22,9,105.37,11.54,104.6Z"/></g></g></svg>