<svg xmlns="http://www.w3.org/2000/svg" viewBox="0 0 277.19 246.01"><defs><style>.cls-1{fill:#ff405e;}</style></defs><g id="Layer_2" data-name="Layer 2"><g id="Layer_1-2" data-name="Layer 1"><path class="cls-1" d="M276.9,135.72c-.75-1.35-3.27-1.82-5.65-1a7.94,7.94,0,0,0-1.3.58q-2.42,1.26-4.82,2.56c-5,2.72-9.87,5.59-15.19,7.61-.9.34-1.89.94-2.88.19-.33-1.06.2-1.88.57-2.75,1.07-2.54,2.61-4.88,3.29-7.59a4.29,4.29,0,0,0,1.34-2.63,28.43,28.43,0,0,0,3.38-7,8.19,8.19,0,0,0,1.93-4.32h0c1.83-2.39,2.23-5.25,2.67-8.09.27-1.22.36-2.43-1-3.11s-2.48.07-3.35,1a48.92,48.92,0,0,0-8.84,13.38c-4.1,9.4-8,18.88-11.44,28.54-2.53,7.1-6.58,12.92-13.54,16.15-2.63,1.22-5.1,3.26-8.35,2.77-2.33-.36-3.15-1.49-2.64-3.77a8,8,0,0,1,.53-1.81c3.67-7.94,7.22-15.95,12.46-23,2-2.72,4.36-5.2,5.87-8.28a48.68,48.68,0,0,0,6.81-10.76,1.62,1.62,0,0,0-.12-2,1.84,1.84,0,0,0-2-.35,7.79,7.79,0,0,0-2.12,1,30.85,30.85,0,0,0-6.44,6.81c-3.19,2.15-5.38,5.3-7.88,8.11a39,39,0,0,0-7.34,11,.14.14,0,0,0-.05.22,6.12,6.12,0,0,0-1.86,3.58.17.17,0,0,0,0,.24,6.9,6.9,0,0,0-1.66,3.57c-2.15,4.76-4,9.67-6.53,14.23a15.76,15.76,0,0,1-8.18,7.48c-2.51.93-5.1,1.68-7.64,2.55-3.85,1.32-5,.38-4.49-3.72a15.49,15.49,0,0,1,1.55-4.72c1.7-3.52,3.39-7.06,5.18-10.53A141.93,141.93,0,0,1,199,143.18a11.32,11.32,0,0,0,4.31-4.76h0a11.3,11.3,0,0,0,3.75-4.79h0a15.74,15.74,0,0,0,3.25-4.55c.76-2,1.29-4-.42-5.89-1.05-.93-2-.63-2.89.25l-.66.61a.16.16,0,0,0-.23.09,67.37,67.37,0,0,0-11.49,12.25,1,1,0,0,0-1,1c-.67.06-1,.59-1.34,1-.87.35-1.31,1.42-2.38,1.43h0a9.29,9.29,0,0,1,.57-5.11c.8-2.22,1.58-4.44,2.37-6.67v0a5.25,5.25,0,0,0,1.84-2.91c1.21-1.42,1.43-3.43,2.81-4.74a13.85,13.85,0,0,0,3.45-3.79.48.48,0,0,0,.36-.12l6.67-3.72h0a16.84,16.84,0,0,0,6.69-1.87v0c1.19-.09,2.43,0,3.37-1a53.73,53.73,0,0,0,20.67-10.45c2.13-1.79,4-3.77,4.6-6.67.77-2.25.45-4.3-1.58-5.66-1.54-1-3-.36-4.19.9a10.17,10.17,0,0,0-3,2.71c-1.18,1.35-2.1,3.07-3.51,4.08a45.56,45.56,0,0,1-9.8,5.73,9.58,9.58,0,0,0-4.28,1.71c-1.54.09-2.81,1-4.23,1.45-4.47,1.44-6.19,0-5.26-4.67a9.09,9.09,0,0,1,1.11-3.1,56.44,56.44,0,0,0,3.06-5.33A62.12,62.12,0,0,1,227,69.77c1.89-1.28,4.12-2,5.79-3.64h0c.76-.06,1.54-.1,1.89-1a47.84,47.84,0,0,0,14.37-9.11,5.56,5.56,0,0,0,.85-1.37h0c1.74-1.81,1.74-3.74,0-5.76h0c-1.48-2-3-.74-4.49,0a.23.23,0,0,0-.3,0,4.46,4.46,0,0,0-3.44,1.87.42.42,0,0,0-.37.16,22.35,22.35,0,0,0-5.76,3.64h0a13.85,13.85,0,0,0-5.71,3.82h0c-2,.79-3.36,2.36-4.83,3.8a6.14,6.14,0,0,0-.88.33c-1.3.69-2.57,1.78-4.08.51s-.52-2.61-.15-3.91a37.44,37.44,0,0,0,1.69-8.29c.08-1.48.46-3.18-1.25-4.18-2.57-1.44-3.08-1.3-4.43,1.42a7.6,7.6,0,0,0-1.17,2.78,4.8,4.8,0,0,0-1,2.1q-2.08,7.43-4.2,14.84c-1.7,5.92-2.91,12-5.42,17.66-4.45,10-8.19,20.23-12.34,30.31a4.54,4.54,0,0,0-1.91,2.52,1.07,1.07,0,0,0-.93,1,1,1,0,0,0-.95.95c-1.36.23-1.87,2-3.51,1.92-1.33-1.7-.73-4.15-2.07-5.87-.19-2.78-1.15-5.4-1.69-8.12-.76-3.84-1.08-7.66.1-11.49.81-2.65,1.57-5.32,2.21-8,1-4,2.64-7.79,3.19-11.89A1.82,1.82,0,0,0,187,75.6c1.27-4.89,2.7-9.75,3.78-14.68,1-4.32,2.6-8.46,3.06-12.89v0a40.09,40.09,0,0,0,2.82-9.52.31.31,0,0,0,.07-.33,13.66,13.66,0,0,0,1.83-6.33c.76-1.9.44-3.9.47-5.86,0-.91.23-2-.84-2.54s-2.11.1-3,.87l-.43.41v0c-1.13.37-1.58,1.37-2.14,2.27a.27.27,0,0,0-.26.17.92.92,0,0,0-.56.83,11.72,11.72,0,0,0-3.17,7c-.55,5.48-2.39,10.64-3.6,16-.93,4.06-2.17,8.09-2.16,12.32-1.83,1.82-1.66,4.34-2.29,6.58-.6,1.31-.82,2.85-2.56,4.25-.12-2.31-.29-4.14-.3-6-.07-11.57,0-23.13-.21-34.7a34.66,34.66,0,0,0-1.72-11,2.7,2.7,0,0,0-3-2c-1.52.07-2,1-2.25,2.28-.19,1.09-.36,2.18-.49,3.28-1,8.29-.45,16.62-.53,24.93-.14,15.6.06,31.19,3.47,46.54.42,3.92.93,7.83,1.23,11.75.44,5.82,2.39,11.38,2.75,17.22.21,3.58,1,7.13,1.57,10.7-.06,5.74.63,11.49-.44,17.2-.93,5-2.87,9.64-4.26,14.47a15,15,0,0,0-1.79,4.76c0,.15-.08.31-.11.47a.46.46,0,0,0-.08.42h0a3.36,3.36,0,0,0-1,2.4h0a10.22,10.22,0,0,0-1.76,4.3,143,143,0,0,1-7.73,15.71c-.6,1-.92,2.44-2.93,2.29a305.76,305.76,0,0,1,5.84-30.3c1.27-1.72,1.53-3.76,1.88-5.77,1.92-5.78,3.25-11.71,4.7-17.61a7.57,7.57,0,0,0-.3-4.45c-1-2.53-2.43-2.86-4.15-.79a25.68,25.68,0,0,0-3.78,7.08c-7.51,18.83-11.8,38.27-11.29,58.66a19.64,19.64,0,0,1-5.94,14.76,66.77,66.77,0,0,0-6.9,8.27c-.14.21-.29.42-.43.64l-.05,0c-1.06,0-1.64.8-2.31,1.41a2.85,2.85,0,0,1-3.78.5c-.2-.84-.48-1.67-.6-2.52-1.34-10,.58-19.76,3-29.41.59-2.35,1.57-4.6,2.37-6.9a12.22,12.22,0,0,0,1.77-3.93c2.63-5.22,5.57-10.33,6.68-16.14A75.16,75.16,0,0,1,150.48,156c2.67-6,6-11.67,7.63-18.06h0c3-9.18,6.07-18.36,9-27.55.45-1.41,1.1-2.81.86-4.37l0-1a1.69,1.69,0,0,0-1.7-2.07,2.54,2.54,0,0,0-2.93,2.08c-3.34,4.27-4.49,9.55-6.65,14.37-1.4,1.61-1.61,3.72-2.44,5.57a25.38,25.38,0,0,0-2.42,7.88,4.56,4.56,0,0,1,0,2.17,4.56,4.56,0,0,0,0-2.17c-.89,2.36-1.79,4.73-2.8,7.38-1.6-5.73-1.52-5.72-1.08-9,.71-5.39,1.29-10.78,1.93-16.18.12-1.25.32-2.51.36-3.77.12-4.17,1.12-8.32.2-12.52-.27-1.24-.37-2.68-1.83-3a3.81,3.81,0,0,0-4,1.48,21.16,21.16,0,0,0-2.3,3.86c-2.72,5.75-2.71,11.94-2.82,18.11a77.78,77.78,0,0,0-.85,13.46l0,1c0,.64,0,1.27,0,1.91l-.06,1.41a.64.64,0,0,1,.22.13.64.64,0,0,0-.22-.13v.51a26.59,26.59,0,0,0,.35,7.08c2.67,10.42-.1,19.81-5.29,28.76-.66,1.13-1.4,2.27-2.78,2.54-1-.62-.54-1.53-.76-2.25,0-.32,0-.64,0-1l0-.94a21,21,0,0,0-1.86-9.08.57.57,0,0,0-.07-.44,10.6,10.6,0,0,0-1.91-5.16c-.79-1-1.8-1.9-2.88-.2l0,0c-1.58,1.06-1.55,2.75-1.69,4.37a40.29,40.29,0,0,0-.56,8.7c.29,8.1,1.7,16.09,2.48,24.14a237.55,237.55,0,0,1,0,28.49c-.2,1.81-.37,3.62-.64,5.41-.13.92-.28,2-1.44,2.21s-1.42-.8-1.92-1.5c-3.91-5.36-7.39-11-11-16.58A90.91,90.91,0,0,1,101,198.32c-2.85-6.78-2.28-13.64.15-20.38,2.61-7.23,7.6-13.1,11.59-19.52,3.42-5.5,7.12-10.82,10.69-16.22a18.36,18.36,0,0,0,2.72-3.83l.23-.43-.13-.07.13.07c3-3.95,2.46-8.9,3.75-13.33a79.09,79.09,0,0,0,2.07-25.37c-.59-6.55-1.29-13.1,1.8-19.3a1.51,1.51,0,0,0,.89-1.46c1.87-1.11,2.8-3,3.71-4.81l0,0a2.11,2.11,0,0,0,1.05-1.78h0a18,18,0,0,0,3.72-5.77h0a10,10,0,0,0,2.48-4.2h0a4,4,0,0,0,1.3-2.44.32.32,0,0,0,.12-.32,2,2,0,0,0,.83-1.58.43.43,0,0,0,.11-.36c2-3.07,2.85-6.59,3.66-10.11,1.93-4.38,2.15-9.25,3.95-13.67,1.71-3.32,1.91-6.94,2-10.56,0-.82,0-1.95-1-2.46h0c-1-2-1.43-2.12-2.84-.89a1.11,1.11,0,0,1,.4,0,1.11,1.11,0,0,0-.4,0c-.64,1.4-1.26,2.79-1.9,4.18-2.13,4.61-3,9.62-4.79,14.36-2.71,7.31-5.44,14.62-8.68,21.72a5.06,5.06,0,0,0-1.95,2.92,7,7,0,0,0-2.75,2.47,2.56,2.56,0,0,0-1.54.91h-.72c-1.66-1.68-1.88-4-2.51-6.07a38.07,38.07,0,0,1,.78-8.23c1-4.06,1.84-8.16,2.77-12.24,1.61-7.12,2.1-14.17-.54-21.23A44.22,44.22,0,0,1,129,6.15c0-1.6.52-3.3-.85-4.65l-.41-.23C127,.15,125.8.36,124.79,0a1.47,1.47,0,0,0-1.61.61,5.3,5.3,0,0,0-1,4.25c.76,6.12,1.46,12.25,2.45,18.33,1.36,8.29-1.87,15.72-4,23.37a2.08,2.08,0,0,1-1.44,1.24c-.62-.56-1.22-1.19-1.9-1.71-2.81-2.15-4.94-5.13-8.24-6.68-1.53-.72-2.74-.1-3.8,1-1.79,1.8-1.76,3.91,0,7.12,1.69,4.19,3.33,8.34,6,12.12,3,4.26,6.71,8.29,8.16,13.46a114.38,114.38,0,0,1,3.75,21.69c.78,9.67,1.45,19.43-.9,29-1.32,2.15-1.72,4.64-2.64,6.94l-.21.68-1.76,1.62c-2.06-.72-1.78-2.65-1.83-4.11-.23-6.47-.23-13-.34-19.44a13.08,13.08,0,0,0-.66-4.2c-.73-2-1.82-2.31-3.16-.64a24.24,24.24,0,0,0-3.63,6.62c-1.58,4.23-1,8.61-.84,12.93.14,5.34.61,10.69,2.73,15.72a.24.24,0,0,0,0,.31l0,2.86a.23.23,0,0,0-.05.3l-1.48,2.51h0c-5.12,5.68-8.84,12.3-12.68,18.84-.86,1.46-1.56,3.09-3.47,4-2-2.81-2.41-6-2.83-9.2-.71-5.3.3-10.58.36-15.87.17-12.83.61-25.66,1.65-38.45.55-6.66,2.78-12.66,8.51-16.8a24.43,24.43,0,0,0,8-9.15c1.35-2.78,2.69-5.57,3-8.71a2.17,2.17,0,0,0-1-2.26,1.55,1.55,0,0,0-2,.36c-3.56,3.31-7.37,6.37-9.95,10.59l-1.09,1c-.12.15-.23.31-.34.46a5.08,5.08,0,0,0-2,2.84h0c-.81.17-1.13.83-1.48,1.46-1,.39-1.4,2.06-2.89,1.41-.82-.35-.71-1.12-.8-1.82-1.37-10.26-.14-20.39,1.81-30.43s4.42-20.07,6.49-30.14c.89-4.33,1.58-8.74-.1-13.1-.48-1.27-1.1-2.29-2.57-2.45a3.22,3.22,0,0,0-3.28,1.88,20.44,20.44,0,0,0-2.75,7.53c-1.35,9.31-2.53,18.65-3.84,28A10.82,10.82,0,0,1,83.81,51c-.91-.31-.9-1-1-1.59-.71-7.66-1.38-15.31-2.12-23-.37-3.75-.6-7.56-2.93-10.78a2.35,2.35,0,0,0-2.72-2.27,2.24,2.24,0,0,0-2.17,2.07A3.76,3.76,0,0,0,73,18c0,8.44-.33,16.91,1,25.3a125.22,125.22,0,0,0,2.75,17.54c.1,1,.16,2.05.32,3.06,1.24,8,3.4,15.93,4.11,24.05.55,6.3.56,12.67,1.48,18.91a49.87,49.87,0,0,1-.74,18.11l-.43.61-.92-.06a.86.86,0,0,1-.19.25.86.86,0,0,0,.19-.25c-.23-.93-.52-1.85-1.59-2.14s-1.25-1.17-1.57-2.2c-1-3.19-2.32-6.28-3.51-9.41h0c-.64-4.1-1.2-8.21-2.81-12.08a.17.17,0,0,0,0-.27c-.35-1.69-.65-3.4-1.07-5.08-1.2-4.85-1.3-9.83-1.87-14.76a29.9,29.9,0,0,0-.08-3.79c-1.12-7.81-.88-15.62-.45-23.46.22-4,.08-8.08.18-12.11a11.17,11.17,0,0,0-.74-4c-.57-1.61-1.72-2.09-3.4-1.43-2.33.92-2.32,3-2.57,4.91-.38,2.84,0,5.77-1.14,8.54-1.13-.42-1.39-1.39-1.9-2.17-1-1.55-2.33-2.78-4.32-2.06s-2,2.7-1.53,4.26c2,7.3,3.34,14.8,5.9,22a37.58,37.58,0,0,1,1.57,6.44c1.31,7.76,1.72,15.66,4,23.26a8.28,8.28,0,0,1,.07,3.9c-.94,0-1-.66-1.27-1.1-3.06-5.45-6-10.94-9.18-16.35C50.9,82.29,48.75,78,45.33,74.65a2.74,2.74,0,0,0-1.83-2,6,6,0,0,0-2.88-2.82h0a1.18,1.18,0,0,0-.93-1h0a10.82,10.82,0,0,0-3.8-4.33c-.77-1.61-2.18-2.69-3.38-3.92-2.58-2.64-4.67-5.78-8-7.64-1.82-1-3.32-1.17-5,.22a4.22,4.22,0,0,0-1.33,5.08,15,15,0,0,0,6.17,7.81,10,10,0,0,0,3.91,3.73,9.57,9.57,0,0,0,.92,1.07c6.7,5.63,13,11.5,16.9,19.65,1.28,2.69,2,5.5,3.09,8.24a1.11,1.11,0,0,1-.57,1.5c-2.81-.78-5.25-2.57-7.94-3.81a65.08,65.08,0,0,0-6.71-4.7l0,0c-2-1.84-4-3.78-6.58-4.83a10,10,0,0,0-5.57-3.24,2.34,2.34,0,0,0-3,1.39h0a5.19,5.19,0,0,0,.18,5,27.28,27.28,0,0,0,8.7,9.87c6.14,4.93,13.34,7,21,8l6.28,2.67a.42.42,0,0,0,.39.19,1.55,1.55,0,0,0,1.5.93q2.84,2.86,5.68,5.71c.3,1.69,1.6,2.56,2.83,3.48a3.39,3.39,0,0,0,2.19,2.29A7.87,7.87,0,0,0,70,126l0,0,7.6,10a9.59,9.59,0,0,0,.41,1.1,27.62,27.62,0,0,1,3.21,16.5,41.06,41.06,0,0,0,.7,12.05A104.53,104.53,0,0,0,88,186c.73,2.06.82,4.33,2,6.25a54.79,54.79,0,0,1,4.44,16.21c-1.14.43-1.75-.23-2.42-.56-6.52-3.18-12.87-6.7-19.11-10.41-4.71-2.8-9.81-5.27-12.44-10.57a28.47,28.47,0,0,1-1.44-11.8c.16-2.41.33-4.83.49-7.25,0-.16.05-.32.08-.48a6.91,6.91,0,0,0,.9-3.32.39.39,0,0,0,.1-.37,10.08,10.08,0,0,0,1.89-4.36h0a8.76,8.76,0,0,0,1.89-6.58c-.1-1.33-.33-2.57-1.86-2.89a3,3,0,0,0-3.37,1.57c-.63,1-.86,2.39-2.19,2.9l-.42-.44c-.79-1.9-.29-3.87-.38-5.81-.16-3.43.48-6.88-.32-10.29.1-3.2-1.4-5.79-3.22-8.23-.55-.73-1.32-1.55-2.35-1.31s-1.35,1.32-1.52,2.24c-1.05,5.35-2.14,10.72-1.37,16.22a93,93,0,0,1,.31,20.83,6.28,6.28,0,0,1-1,3.37c-1.68-.49-2.34-1.91-3.16-3.1-1.42-2.09-2.55-4.41-4.16-6.33-4.75-5.65-6.57-12.41-7.27-19.44s-1.77-14.14-5-20.62c-1.87-3.8-3.45-7.82-6.54-10.91-.74-.74-1.52-1.36-2.72-.75s-1,1.63-1,2.66a36.8,36.8,0,0,0,5.55,18.37c.17,1.28,1.26,2.34.91,3.75a.45.45,0,0,0-.28,0l-3.37-3.47a1.88,1.88,0,0,0-1.15-1.2c-.43-1.33-1.74-1.51-2.73-2s-2.28-1.39-3.24-.23a2.74,2.74,0,0,0,.33,3.84c1.51,5.37,4.49,10,7.56,14.51,1.57,2.34,3.36,4.56,4.17,7.36.52,1.81,0,2.35-1.83,2a51.45,51.45,0,0,1-9.93-3.08,16.5,16.5,0,0,0-10.23-.51,3.29,3.29,0,0,0-2.63,2.15c-.34,1.32.77,2.1,1.88,2.66a1.6,1.6,0,0,0,1.55.9h0a5.21,5.21,0,0,0,3.82,1.91l.13.08.15,0c1.58,1.29,3.5,1.48,5.42,1.7a62,62,0,0,0,10.35,1.14c3.6.08,6.76,1.24,9,4.29a15.55,15.55,0,0,0,3.43,4.27h0a2.14,2.14,0,0,0,1,1.79A38.29,38.29,0,0,0,46.34,185c2.43,3.17,5.66,5.62,7.92,8.94,1.91,2.79,4.25,5.37,4.92,8.94-2,.61-3.54-.85-5.26-.7a.6.6,0,0,0-.45-.09,43.83,43.83,0,0,0-7.62-2.74,27.79,27.79,0,0,1-7.29-5.49c-2.32-2.32-4.12-5.17-7-7,0-1.63-1.51-2-2.43-2.79-3.28-4.2-6.74-8.2-11.73-10.49-3.21-1.48-5.22-1.37-6.24.28-1.2,1.93-.32,4.51,2.25,6.57.12.1.27.16.39.26,5.56,4.54,11.56,8.58,15.87,14.49.84,1.16,1.88,2.24,1.9,3.94-3.08.18-5.15-1.65-7.38-3.07-4.19-2.67-8.44-5.09-13.71-4.41A2.81,2.81,0,0,0,8,193.45c-.47,1.26.49,1.89,1.27,2.55a48.92,48.92,0,0,0,12.87,8,73.73,73.73,0,0,0,25.81,5.64c2.71.09,5.28,1.17,8,.89,3.94-.39,7.88-.76,11.84-.8a32.12,32.12,0,0,0,6.17.9l.1,0,.07.13.1-.07,1.19.31,7.06,2.53h0a1,1,0,0,0,1,.51h0l.47.32c1.29.72,2.71,1.28,3.89,2,4.89,3.17,10.32,5.35,15.18,8.53,4.35,2.85,6.55,7.15,8.08,12a7.49,7.49,0,0,1-4,.15c-3.09-.37-5.82-1.91-8.78-2.68a3,3,0,0,0-2.38-.93c-.39-.85-1.18-.81-1.93-.85a1.31,1.31,0,0,0,.2.53,1.31,1.31,0,0,1-.2-.53l-.47-.12a.59.59,0,0,0-.41-.06h0a18.42,18.42,0,0,0-5.78-2.66,10.25,10.25,0,0,1-3.86-2.07c-6.71-4.62-13.39-9.28-20.08-13.92a8.2,8.2,0,0,0-3.75-1.4,3.33,3.33,0,0,0-3.37,1.27c-.76,1.09-.07,2.09.54,3.06a15.79,15.79,0,0,0,2.65,3c2.51,2.36,5.47,4.26,7.42,7.12a1.2,1.2,0,0,1-1.63.7,34.68,34.68,0,0,1-10.25-4.65c-3.08-2-6.34-2.85-9.93-1.72-1.14.37-2.26.87-2.45,2.28a3.36,3.36,0,0,0,1.4,3.57,11.81,11.81,0,0,1,2.92,2.7,11.94,11.94,0,0,0,4.66,3c7.37,3,15.1,3.92,23,4.11a40.35,40.35,0,0,1,18.88,4.95c8.39,4.69,17.09,5.18,26.19,3.06a5.4,5.4,0,0,0,3.81-1.78c1.72-1.67,3.68-1.65,5.95-1.3,7.12,1.1,14.3,2,21.5.73,4.44-.76,8.76-2.31,13.31-2.3a83.81,83.81,0,0,0,15.33-1.55c7.61-1.4,15.36-2.39,22.25-6.36,1.14-.66,2.32-1.28,2.13-2.8s-1.62-1.57-2.74-1.81A34.3,34.3,0,0,0,181,229.13a5.42,5.42,0,0,1-3.75.55c1.9-3,5.13-4.39,7-7.15a2.4,2.4,0,0,0,1.25-2.93c-.24-.95-1-.75-1.67-.34a7.93,7.93,0,0,1-1.71.73c-6.23,1-10.73,4.55-14.24,9.63a9.45,9.45,0,0,1-5.66,4,64.93,64.93,0,0,1-13.34,1.66c-2.5,0-3-1-2.61-3.11.71-.41,1.57-.63,1.88-1.53a12.57,12.57,0,0,0,3.29-2.23,15.75,15.75,0,0,1,8.54-4.32c2.17-.33,4.4-.65,6.25-2l.9-.17c1.55.07,2.66-.83,3.75-1.76,5.08-1.87,10-4.21,15.48-4.87,7.73-.94,15.56-.83,23.1-3.59,6.22-2.27,12.81-3.49,19.22-5.22a9.33,9.33,0,0,0,5-3c1.4-1.71,1.17-2.66-.81-3.71a7.94,7.94,0,0,0-4.88-.45A52.52,52.52,0,0,0,213.15,203a.34.34,0,0,0-.35,0,18.28,18.28,0,0,0-6.35,1.84.26.26,0,0,0-.31.05,9,9,0,0,0-4.17,1l-.1,0c-1.9-.1-3.82.35-5.71-.16.54-.55,1-1.3,1.62-1.64,5.27-2.76,10.4-5.82,16-8,1.05-.4,2.21-.59,2.9-1.63h0c2.53-1.09,3.82-2.91,3.73-5.17,0-1.31-.65-2.22-1.92-2.29-2.1-.12-4.28-.52-6.24.69a61.52,61.52,0,0,0-13.24,5c-4.32,2.1-7.41,5.86-11,8.88a63.53,63.53,0,0,1-19.29,11.23c-1,.37-2.29.66-3.09-.35s-.3-1.93.15-2.91c1.39-3,2.73-6.05,4.1-9.07,2.11-4.65,5.53-8,10.48-9.25,7.84-2,15.26-5.2,23-7.44a15.63,15.63,0,0,0,5.42-1.64c6.55-.89,12.47-3.68,18.5-6.14,1.68-.69,3.37-1.39,5.09-2,10-3.26,20.47-4,30.63-6.3,3.2-.73,6.66-.72,9.45-2.79,1.27-.94,2.56-2.17,2.05-3.9s-2.17-1.8-3.75-1.8a86.52,86.52,0,0,0-18.15,1.76c-2.5.52-5.07,1-7.68.42a2.61,2.61,0,0,1,1.51-2.58c2.67-1.83,5.39-3.59,8.07-5.41,6.53-4.44,13.9-7.51,20.21-12.31C276.74,139.6,277.72,137.19,276.9,135.72Zm-125.82,2.05a7.71,7.71,0,0,0-.25,1.08A7.71,7.71,0,0,1,151.08,137.77Zm.71-2.28h0Zm-.52,1.67v0Zm-41.46,8.48a.71.71,0,0,0,.19-.31.71.71,0,0,1-.19.31.81.81,0,0,1-.35.22A.81.81,0,0,0,109.81,145.64Zm-.92.31a1.58,1.58,0,0,0,.32,0A1.58,1.58,0,0,1,108.89,146ZM94.28,233.34a.79.79,0,0,0,.37.14A.79.79,0,0,1,94.28,233.34Z"/></g></g></svg>