<svg xmlns="http://www.w3.org/2000/svg" viewBox="0 0 333.39 223.29"><defs><style>.cls-1{fill:#c3c600;}</style></defs><g id="Layer_2" data-name="Layer 2"><g id="Layer_1-2" data-name="Layer 1"><path class="cls-1" d="M329.67,91.12l-5.39-1.41c-.13-.38-1.14-.57-.2-1.18.7-.46,1.54-.82,1.74-1.78.74-.87,1.95-1.27,2.42-2.41,1.6-1.09,2.19-3,3.38-4.36.93-2.73,3.18-5.39.49-8.33a3.1,3.1,0,0,0-1.95,0c-1.85,0-2.52,1.73-3.76,2.64-1.1,1.6-2.92,2.7-3.41,4.71h-.07a7.92,7.92,0,0,0-3.05,1.32c-4.54,2.65-9.14,5.21-13.51,8.14a5.67,5.67,0,0,1-4.15,1.35c-1.74,0-3.47,0-5.2,0-1.67-.08-3.35-.38-4.92.5a1.77,1.77,0,0,0,0,.32l-.14-.06c-.74-1.8-3-.83-4.09-2.15a12.26,12.26,0,0,1,2.62-1.68c1.2-.7,2.64-1.09,3.21-2.56,1.3-.13,2.31-1.12,3.59-1.26a23.55,23.55,0,0,1,5.3-2c4.06-.63,7.55-2.64,11.05-4.61,1-.54,2-1,2.43-2.23a1.27,1.27,0,0,1,.3-.78l.25.17c1.87.24,2.59-1.4,3.77-2.31a26.5,26.5,0,0,0,5-7.65c1.69-1.32,3.84-1.55,5.75-2.34.75-.66,2-1.09,1.63-2.4s-1.78-1.48-3-1.53c-1,0-1.94,0-2.9,0-2.72.63-5.76.91-7.44,3.4a31.65,31.65,0,0,1-9.16,8.63l-3.34,1.4a2.09,2.09,0,0,0-1.74.16c-2.82,1.19-5.7,2.23-8.61,3.18-2.87,1.16-5.75,2.3-8.61,3.49-.62.44-1.51.63-1.78,1.41-1.61.13-2.78,1.22-4.12,1.93a34.58,34.58,0,0,1-3.48,2c-2.61,1-5.39,1-8.27,1.57A25.43,25.43,0,0,1,274.27,81a14.23,14.23,0,0,1,3.32-1.52,49.08,49.08,0,0,0,10-5.34,36.59,36.59,0,0,0,2.74-2.55c.58-.68,1.32-1.27,1.29-2.29.78-.27,1-1.15,1.66-1.56,1-.47,1.58-1.1,1.14-2.19.16.14.26.08.28-.21l1.15-2.67s0,0,0-.07a1.14,1.14,0,0,0,.45,0c1.45-1.52,1.45-3.28.84-5.15a1.09,1.09,0,0,0-.6-.47,1.19,1.19,0,0,0-.72.1c0,.1-.06.2-.09.29s0,0,0,0c-1-.45-1.82.42-2.76.45-.67.08-1.07.36-1.09,1a1.65,1.65,0,0,0-.44.1A3.55,3.55,0,0,0,290.1,60a1.72,1.72,0,0,0-.32,1.26l-.33.36a2.13,2.13,0,0,0-.44.07,17.79,17.79,0,0,1-3.35,3.42,2.63,2.63,0,0,1-.06.39h0l-.69.42-.1-.07a1.52,1.52,0,0,0-1.34.22c-.47.35-.94.69-.84,1.38v0l-1.24.75a.91.91,0,0,0-.25-.11,1.83,1.83,0,0,0-1.9.62.78.78,0,0,0,0,.65l-.16.07,0,0a.38.38,0,0,0-.56,0l-.7.6a1.11,1.11,0,0,0-.26-.07c-1.36,0-2.41.85-3.61,1.29a17.06,17.06,0,0,0-5.57,3.43,24.48,24.48,0,0,0-5.51,6.73,6.63,6.63,0,0,0-1,3.78.33.33,0,0,1,0,.06,4.94,4.94,0,0,0-2.39.93.85.85,0,0,0-.06.52c-3.8-1.45-7.39-.09-11,.81-1.39,0-2.5,1.27-3.91,1.18a15.91,15.91,0,0,0,3.92-6.28,4.8,4.8,0,0,1,1.46-1.82l6.48-7.19.15.07A1.36,1.36,0,0,0,258,72.19a3.58,3.58,0,0,1,1.5-1.41c1.94-.72,3.26-2.3,4.72-3.62s3-2.24,3.51-4.14l2-2.08a9.05,9.05,0,0,0,4.59-4.37.25.25,0,0,0,0-.07c1.36-.67,1.87-2.52,3.61-2.67a2.58,2.58,0,0,0,1.43,0c4.06-1.29,8.2-2.25,12.37-3.13.79-.17,1.72-.33,2.12-1.24a1.07,1.07,0,0,0,.91.27,1.87,1.87,0,0,0,.89-.54,3.21,3.21,0,0,1,.21-.3l.87-.09c.89.32,1.45-.21,2-.76l1-.73.33,0a2.18,2.18,0,0,0,.67-.06,2.32,2.32,0,0,0,1.58-1.28,1.51,1.51,0,0,0,0-.52l.76-.53h0l.35,0,1-1.4,1.13-1.27h0l.47-.18a1,1,0,0,0,.6-1l.67-.83a1,1,0,0,0,.45.08,2,2,0,0,0,1.06-.77,4.22,4.22,0,0,0,.94-2.32c.33-.5.66-1,1-1.48l0-.48.56-1h0l.35-.12.46-1.35a21.18,21.18,0,0,0,.84-2,2.61,2.61,0,0,0-.83-3.21c-1.07-.76-2.14-.36-3.1.31-.71.5-1.37,1.07-2,1.61-1.51.21-1.84,1.79-2.9,2.52-1.75,2.56-4.44,4.32-6,7a2.58,2.58,0,0,0-2.15.51,7.64,7.64,0,0,0,.47-.69c1.32-2.26,3.19-4.29,3.2-7.14a34.6,34.6,0,0,1,4.94-9.12c.27-.57.52-1.16.82-1.73a2.9,2.9,0,0,0-.4-3.37c-.85-1-1.94-.26-2.87.09-1.92.73-3.27,2.29-4.87,3.48a3.57,3.57,0,0,0-1.93,1.37c-2.47,3.05-3.91,6.67-5.74,10.09a26.09,26.09,0,0,1-2,3.51,1.71,1.71,0,0,0-.13,1.52c-2.37.46-3.09,2.42-3.75,3.6.93-4.37,0-9.49.28-14.59a9.37,9.37,0,0,0-.81-3.49c-.7-1-1.53-1.56-2.7-.66a6.36,6.36,0,0,0-1.34,4.39,5.44,5.44,0,0,1-.26,2.53,4.47,4.47,0,0,0-.15,1.09,7.19,7.19,0,0,1-.4,2.56c-.33,2.9-1,5.73-1.55,8.59a7.36,7.36,0,0,1-1.45,3.22c-.06-3.07-.16-5.71,0-8.34a12.32,12.32,0,0,0-.2-2.57,15.93,15.93,0,0,1-.53-2.54c0-.18-.1-.33-.15-.5a4.86,4.86,0,0,0,.48-2.62c.09-2-.11-3.95.17-5.91a7.29,7.29,0,0,0,.23-1.91c0-2.52-.87-3.91-2.72-4.15s-3.31,1.13-3.82,3.46l-1.08,3.67-.2-.09a1.16,1.16,0,0,0-.6.49,9.11,9.11,0,0,0-.81,4.08c0,5.38-.37,10.75,0,16.13a10.06,10.06,0,0,1-.3,3.82q-.32,1.88-.51,3.75a2.1,2.1,0,0,0,.25,1.14c-1.4,3.54-4.38,5.7-7.13,8.05a5.32,5.32,0,0,0-.47.48,27.62,27.62,0,0,1-2.78,2.6,18.18,18.18,0,0,1,1.25-3.26,15.79,15.79,0,0,0,1.44-7.19v0c.48-.48.41-1.24.48-1.92a39.19,39.19,0,0,1,.07-6.23c.86-5,.53-10,.44-15.06a18.39,18.39,0,0,1,.32-5.73,6.29,6.29,0,0,0,.14-1.73,5,5,0,0,0-.86-3.57c-1.7-1.47-3.23-.95-4.65.42a11.24,11.24,0,0,0-1.9,2.75,27.22,27.22,0,0,0-2,7.78c-.06.42.48,1.94-1.09,1.25-2.69-2.39-5.48-4.61-9.09-5.46-2.83.62-3.49,1.93-2.2,4.4a14.25,14.25,0,0,0,1.07,1.59c2.58,3.56,6.23,6.26,8.22,10.29.7,1.19,1.11,2.53,1.91,3.67a1.2,1.2,0,0,0,.23.11,3.66,3.66,0,0,0-.1,2.33c.62,2.06.05,4-.45,5.91-.5-1.25-1.59-1.48-3.14-.54-2.23,1.35-3.29,3.69-4.49,5.83-.75,1.34-1.92,2.54-2.11,4.14-.73-.84-1.43-1.7-2.11-2.59a3.08,3.08,0,0,0-.92-.59c.63-1.47-.07-3-.2-4.42-.09-.23-.15-.47-.23-.7.67-1.24,1.35-2.47,2-3.7A3.84,3.84,0,0,0,238.65,49c.23-1.48.16-3,.45-4.48,0-.4,0-.79,0-1.19l-.45-1.57c-1.08-2.22-2.28-2.66-4.08-1.51-.6-2.34-.28-4.81-1.1-7.11a24.8,24.8,0,0,0-4.64-9.1c-1.81-2.07-3.46-2.4-5.89-1.23a4.49,4.49,0,0,0-.46,4.1c.48,1.85,1.18,3.63,1.59,5.5a12.47,12.47,0,0,1,.74,4.8,1.92,1.92,0,0,0-2.14.08,5.14,5.14,0,0,0-.74-.38,2.74,2.74,0,0,0-2.54.72,5.62,5.62,0,0,0-1.24,4.61,58.87,58.87,0,0,0,1.1,6.16c.18.63.35,1.26.53,1.89l0,1.62a40.78,40.78,0,0,1,.54,5.52c-.68-.32-1.36-.64-2-1-2.14-1.13-4.56-1.92-5.75-4.32-.21-.32-.39-.66-.61-1a3,3,0,0,0,.49-1.88,15.41,15.41,0,0,0-1-6.95,3.57,3.57,0,0,0-1-1.39c-2.31-1-2.75-.74-4.22,2.08-1.08,2.75-1.42,5.7-2.43,8.47-.62,2.36-2.16,4.14-3.7,5.93-.8,1.16-1.5,1.73-2.08-.18-.38-1.29-.73-2.58-1-3.89-.34-2-.34-4-1.14-5.88-1.06-2.51-2.32-3.19-5.09-2.74-2.88,1.66-2.86,4.72-3.58,7.42-.27,3.31-.41,6.6.91,9.76.58,1.84,1.49,3.55,2.1,5.37a14.66,14.66,0,0,1,.52,7.74,15.22,15.22,0,0,0,0,6.16c.16.2.34.39.51.59a12.29,12.29,0,0,0,0,2.5c-.06.2-.11.43-.16.69a6.77,6.77,0,0,0,0,1.19c-.18,1.54.45,3,.54,4.5a68.71,68.71,0,0,0,3,9.81c1.23,3,2.11,6.06,1.34,9.36a7.82,7.82,0,0,0-.32,2.89,2.36,2.36,0,0,0,.24.43c-.47.87-.94,1.73-1.4,2.6l-1.13,1a2.67,2.67,0,0,0-.48.47c-.91,1.38-1.7,2.84-2.61,4.22a50,50,0,0,1-4.74,7.29c-.54,1.24-2.05,1.94-1.88,3.55a.76.76,0,0,0,0,.11l-.71.38c-.65.68-2.15.84-1.44,2.35v.18c-1.47-.52-1.84,1-2.69,1.69a9.41,9.41,0,0,0-.63.76,7.9,7.9,0,0,0-1.32,2.19,1.7,1.7,0,0,1-.24.09c-1.92,1.27-3.2,3.15-4.61,4.9a11.44,11.44,0,0,1-1.51,2.07c-.51.57-1.07,1.1-1.53,1.72-.53,1-1.48,1.68-1.46,2.89-.61.2-.86.64-.64,1.41l.06.09-.12-.1c-2.37,1.23-3.28,3.31-3.42,5.84a.87.87,0,0,0,.09.11,3.1,3.1,0,0,0-.9,1.72h-.06a1.43,1.43,0,0,0-1.22,1.1,1.45,1.45,0,0,0,.16,1l0,0-.16.31a.44.44,0,0,0-.3.05,2.89,2.89,0,0,0-1.52,2.13c-.45-.74-1.33-.81-2.11-1L155,162.64a1,1,0,0,0-.64-.11c-.39-.28-.89-.11-1.33-.22-.54-.3-.78,0-1,.46s-.6.77-.51,1.28l-.12.08a1.14,1.14,0,0,0,0,1l.29.62-.24.45c.45,3,2.59,4.75,4.62,6.62l.09.06c-1.67,1.67-2.15,3.86-2.48,6.12a50.6,50.6,0,0,0-2.1-9,8.14,8.14,0,0,0-.74-1.19l-.42-3.5c-.3-.53.08-1.16-.26-1.68l-.14-.12c0-.4,0-.81,0-1.21a3.79,3.79,0,0,0,0-4.84l-.39-1.49-.13-.94c0-.64.07-1.29.11-1.93-1.51-3.85.56-6.88,2.23-10,2.19-.47,1.93-2.76,3-4.09a14.54,14.54,0,0,1,6.22-5.37c3.46-1.33,7.12-2,10.66-3.06a3.28,3.28,0,0,0,.67-.22,8.06,8.06,0,0,1,2.6-.91,15.93,15.93,0,0,0,6.52-3.48,21,21,0,0,0,6.82-6.24l.41-1.11c.53-1.44,1.18-3-.22-4.19s-3.11-.76-4.63.16c-.94.57-1.9,1.11-2.86,1.66a2.63,2.63,0,0,0-2.29.45,37.5,37.5,0,0,1-6.31,2.46,6.46,6.46,0,0,1-2.54.56,11.29,11.29,0,0,1,1.85-2.13c1-1.43,2.33-2.64,2.49-4.49,1.55-.23,2-1.72,2.88-2.7,1.36-2.19,2.85-4.3,4.38-6.37.79-1.24,1.63-2.45,2.48-3.64a40.08,40.08,0,0,0,4.9-10c.09-1.37.9-2.75-.05-4.1V80h0a8.68,8.68,0,0,0-.39-3.79c-.37-1.11-.83-2.29-2.16-2.27s-1.65,1.09-1.88,2.17a19.59,19.59,0,0,0-1.93,5.42c-1,3.31-1.6,6.76-3.86,9.54-2.66,1.64-3.51,4.81-5.89,7,1.28-2.25,1.44-4.11.63-6-.13-3.87.77-7.79-.57-11.6a2.4,2.4,0,0,0-1.7-2c-2.67-.6-4.39.63-5.62,2.86a42.35,42.35,0,0,0-2.08,9.09c-1.21,4.74-.28,9.56-.49,14.33a6,6,0,0,0,.13,2,4.66,4.66,0,0,1-.8,5,2.7,2.7,0,0,0-.76,1.69,1.24,1.24,0,0,0,.1.29c-1.05-.2-1.46.67-2,1.29-1.21,1.38-2.25,2.91-3.55,4.23-1.5,1.94-2.88,4-4.43,5.86-1.44,2.39-3.64,4.28-4.55,7.05-.39-.57.18-1,.19-1.58.91-3.63,3.36-6.51,4.78-9.89a8.44,8.44,0,0,0,.76-2.44,2.32,2.32,0,0,0,.09-.68c.92,0,1.06-1,1.34-1.6a60.48,60.48,0,0,0,2.35-6c1.32-3.71,2.15-7.56,3.33-11.31a28.21,28.21,0,0,0,1-4.4c.1-1.2,1-2.46-.08-3.64v0l.13.05c1.19-.48,1.21-1.63,1.43-2.61.53-2.36,1.07-4.71,1.8-7,.93-3.39,1.62-6.85,3.3-10,1-2.45,3.25-4.32,3.42-7.17l1.48-3.39,0-.76a1.76,1.76,0,0,1,.41-.1,3.17,3.17,0,0,0,.86-3.32,3.53,3.53,0,0,1-.28-.25c.41-.73.25-1.69,1-2.29a4.13,4.13,0,0,0,1.84-1.49h0l.64-.92a.53.53,0,0,1,.38.12l1.37-1.06.09.08A2.25,2.25,0,0,0,181,48.87l.32-.4h.16c3.18-1,4.81-3.85,7.16-5.83,1-1,1.69-2.13,2.6-3.14a40.35,40.35,0,0,0,3.91-7c.27-.94.77-1.88,0-2.8v-.05c1.23.05,1.16-1.11,1.38-1.86a14.56,14.56,0,0,1,1.35-3.83,63.58,63.58,0,0,1,8.65-10.57c1.2-1,2.66-1.88,3.15-3.56,1.42-1.68,2-3.56.64-5.46S206.85,3.1,205,3.71a24.94,24.94,0,0,0-4.27,2.19C199,6.87,197.34,9.64,196,9s-1.74-3.54-2.54-5.45c-.08-2.12-1.52-3-3.29-3.56-2.53.21-3.41,1-3.53,3.46-.07,1.43,0,2.86,0,4.28A4.23,4.23,0,0,0,186.78,9a9.27,9.27,0,0,1,.35,3.55c-.18,3.5-.07,7-.46,10.51a10,10,0,0,0,.07,1.09,3.52,3.52,0,0,0-.86,3.85h-.09C184.26,29.11,184,31,183,32.42a4,4,0,0,0-.45,1.69,1.33,1.33,0,0,0,0,.21,6.58,6.58,0,0,0-1,1.63l-.64.44c-.22.32-.44.63-.65,1a1.84,1.84,0,0,0-.25.09,1.25,1.25,0,0,0-.61.65c-.05.05,0,.17,0,.28l-.32.32-.1,0a1.65,1.65,0,0,0-1.15.38,2.32,2.32,0,0,0-.94,1.65.06.06,0,0,0,0,.06l0,0a1.37,1.37,0,0,0,0-.19,5.11,5.11,0,0,0-.48-3.48,3.72,3.72,0,0,0-.08-.57c0-.53,0-1,0-1.58l-.45-.5a1.5,1.5,0,0,0-.18-.43,15.62,15.62,0,0,0-.41-2.08c-.28-.85-.76-1.76-1.72-1.76s-1.05,1.07-1.28,1.79c-.67,2.11-1.27,4.24-1.9,6.37a.71.71,0,0,0-.06.65l0,0a.29.29,0,0,0,0,.16c-.63.6,0,1.62-.75,2.19-.19,1.07-.37,2.14-.56,3.21a.33.33,0,0,0-.1,0,.77.77,0,0,0-.76.59,1.28,1.28,0,0,0,.16,1c.07,0,.12.1.18.14a.57.57,0,0,0,0,.18l0,0a.91.91,0,0,0-.82.51,9.77,9.77,0,0,0-.51,2,3.17,3.17,0,0,0,0,1c0,.07,0,.13,0,.2-.54.42-.16,1.29-.57,1.78h0l-.06.95-.39.3c-.65.52-.71,1.34-1.06,2a29,29,0,0,1-1.51,3.59,5.2,5.2,0,0,0-1.1-3.15l-.24-.18,0-.14-.15-1.87a.69.69,0,0,0-.33-.21c-.07-.27-.13-.55-.2-.82a2,2,0,0,1-.27-.23c.21,0,.44,0,.72,0a1.9,1.9,0,0,0,.29-.67,24.13,24.13,0,0,0,.09-3.18,5,5,0,0,0-.53-2.32,1.13,1.13,0,0,1,.1-.13,5.49,5.49,0,0,0,.63-1.23c.18-.65.5-1.3.07-2a27.9,27.9,0,0,1,2.46-6.5,57.5,57.5,0,0,0,4-10.82,13.61,13.61,0,0,0-.33-8.3A2.81,2.81,0,0,0,166.17,15a2.71,2.71,0,0,0-2.66,2c-.63,1.64-1.16,3.31-1.74,5a.28.28,0,0,1-.08.36c-.89,1.9-2.09,1.72-3.44.52a44.56,44.56,0,0,0-5.78-5.29c-2.82-.92-4.56-.41-5.46,1.53-.6,1.3.06,2.47.24,3.7.05,2.77,2.17,4.53,3.41,6.7,2.22,3.87,3.92,7.69,1.62,12.12a32.78,32.78,0,0,0-.06,11.77,6.63,6.63,0,0,0,.95,1.52,4.84,4.84,0,0,0,.77,2.78h0c.18.65.35,1.29.52,1.94.1,1.28-.05,2.66,1.37,3.42l.54.46a3.82,3.82,0,0,0,.89,1.88l0,0a1.32,1.32,0,0,0,1,1.64h.1c.07.43.14.85.22,1.28h0l-.08.3a1,1,0,0,0-.41.14,2.23,2.23,0,0,0-.89,2.52,1.48,1.48,0,0,0-.71.48c-1.54,2.86-2.07,6.06-3.07,9.09a54.51,54.51,0,0,1-1.82,6.77,15.48,15.48,0,0,0-.53,2.61,1.83,1.83,0,0,0,.45,1.33c-1.19.22-1.2,1.3-1.42,2.13-.58,2.24-1.24,4.45-1.8,6.68-.27.93-.56,1.86-.84,2.79-.4,1.37-1,1.48-2,.46-4.19-4.35-8.77-8.34-12.38-13.23-2-2.38-2-2.36-.42-5.15.61-1.07,1.64-2,1.31-3.47h0L135,80.34c.75-.52,1.09-1.13.77-1.91l.39-.38c.84-1.48.68-3.19,1.06-4.77a14.39,14.39,0,0,1,.24-3.08,2.12,2.12,0,0,0-.06-.44c1.1-.63.93-1.83,1-2.87.14-3.59-.26-7.17-.19-10.76a1.83,1.83,0,0,0-1.12-1.77c.64-.5.73-1.32,1.07-2,1.39-2.33,3.34-4.24,4.74-6.55.76-1.2,1.38-2.49,2-3.74a11.46,11.46,0,0,0,1.34-3.31c.39-2.05,1.54-4.07.42-6.23a.24.24,0,0,1,0-.36c-.46-.8.12-1.77-.43-2.54a3.54,3.54,0,0,0-3.85-2.32c-2.31,1-2.66,3.42-3.85,5.23a3.47,3.47,0,0,0-1.61,2,29.9,29.9,0,0,1-4.05,6.57c-1.55,0-1.14-1.45-1.48-2.28-.85-2-.63-4.47-2.16-6.31a.84.84,0,0,1-.15-.18c-.78-1.49-.7-4.06-2.76-4.06-2.3,0-1.93,2.73-2.76,4.25-.85.71-.78,1.7-.78,2.65,0,2.48,0,5,0,7.44.52,3.27,2,6.23,3,9.32.66,1.13.33,2.82,1.94,3.41a.13.13,0,0,0,0,.06c-.82.89-.5,1.95-.43,3,.24,3.52.62,7,0,10.56a4.48,4.48,0,0,0-.07,1.71,2.17,2.17,0,0,0,.24.63l-.06.12a4.42,4.42,0,0,0-.25,1.12,5.64,5.64,0,0,1-.36,2.41,11.94,11.94,0,0,1-1,2.57c-.55-2.4-1.22-4.6-1.7-6.85a17.56,17.56,0,0,0-.64-2c-1.29-2.51-2.38-5.13-3.91-7.51-1.18-1.52-2.26-3.14-4.31-3.6-2.85.24-3.24.85-3,4.68.12,1,.37,2,.58,3A82.33,82.33,0,0,1,116,81a8,8,0,0,1-2.16-1.78A60.77,60.77,0,0,1,109,74.28c-.47-.57-.9-1.25-1.79-1.11.61-.69.5-1.65.9-2.42.87-3.1,1.8-6.18,2.51-9.33a20,20,0,0,0,.27-9.29,21.42,21.42,0,0,0-2.43-7.52c-1.72-2.78-4.68-2.71-6.33.11a10.83,10.83,0,0,0-1.24,5.1c-.05,1.19.28,2.4-.15,3.58-.34,1.54-.14,3.15-.66,4.76-.63-1.93-1.19-3.75-1.85-5.53-1-2-2-4.08-4.81-3.65-1.51.51-2.05,1.77-2.42,3.16-.31.66.21,1.48-.39,2.12-1.54-2.58-3.07-3.46-5.14-2.95-1.9.46-3,2.31-2.93,5.23a38.59,38.59,0,0,0,.58,5c.22,1,.33,2,.57,3,.59,2.56,1.25,5.13.64,7.82v-.06a11.9,11.9,0,0,0,.12-2.6,4.52,4.52,0,0,0-.17-1,10.06,10.06,0,0,1-.36-2.5c-.2-1.65-.57-3.26-.93-4.88a16.05,16.05,0,0,0-2.8-4.91c-1.67-1.68-3.3-1.52-4.22.31.11,1.94-.32,3.88.1,5.81a9.65,9.65,0,0,0,.4,4,0,0,0,0,1,0,0c0,.26,0,.52.07.78a9.51,9.51,0,0,0,.27,3,2.38,2.38,0,0,0,.15.52.21.21,0,0,0,0,.34l0,3.39-.08,1.44h0a1.85,1.85,0,0,0-.68.52,3.83,3.83,0,0,0-.48,2.54,19.39,19.39,0,0,1-.28,3.57c-.16,1.78-.72,3.64.45,5.32,0,0,0,.06,0,.1-1.44.08-.58,1.89-1.51,2.36-3.32-2-4.62-5.36-5.73-8.84-1-2.45-1.59-5.11-3.16-7.33l0,0c.75-1.17.07-2.34,0-3.52A3.63,3.63,0,0,0,65.4,70a32.44,32.44,0,0,1-1.33-8.54c-.5-2.75.49-5.51,0-8.26-.91-5.45-4.37-9-8.86-11.69-3.85-2-5.9-1-5.89,2.71a9.51,9.51,0,0,0,1,2.41c1,1.89,2.63,3.38,3.41,5.41a13.93,13.93,0,0,1-.27,7.15,84.74,84.74,0,0,0-8.62-4.87,5.08,5.08,0,0,0-2.57-.91.91.91,0,0,0-1.08-.65h0a2.11,2.11,0,0,0,0-.25.6.6,0,0,1-.38-.22l-1.28-.64a1,1,0,0,1,0-.18.41.41,0,0,0-.42-.14,1.21,1.21,0,0,0-.14-.6,1.09,1.09,0,0,0-1.15-.43,1.06,1.06,0,0,0-.82-.65,1.2,1.2,0,0,0-.46-.74,2,2,0,0,0-2.54,0l-1.32.69a6.34,6.34,0,0,0-.6,3.76l.41.61h0l.19.82a8.83,8.83,0,0,0,3.72,5c2.86,2.95,6.66,4.62,9.85,7.11,1,1.64,2.62,2.54,4.19,3.5-.16.31-.33.61-.5.91a2.44,2.44,0,0,0-.62,1.48,1.37,1.37,0,0,0,0,.19c-.53.38-.49,1.13-.55,1.74a28.74,28.74,0,0,0,.15,5,22.91,22.91,0,0,1,.39,4c-.95-2.53-2.38-4.84-3.54-7.28-1.26-1.45-1.51-3.71-3.58-4.52-1.38-1.11-2.85-2-4.58-.81s-1.72,2.79-1.42,4.53a49.2,49.2,0,0,0,5.42,15.1,1.53,1.53,0,0,0,1.17,1.66l.16,0c.63,1.29,1.85,2.12,2.68,3.26.89,1.79.37,3.55-.17,5.29a21.41,21.41,0,0,0-1.17,9.39,3.15,3.15,0,0,0,.3.24l-.32.1c-1.43,1.13-.61,3.24-1.79,4.47-1.16-.46-1.45-2-2.67-2.16-.15-1.27-1.09-2.19-1.52-3.33C36.26,106.26,35.74,102.6,35,99c-.54-2.85-.35-6-2.77-8.26a1.54,1.54,0,0,0-1.71,0A11.36,11.36,0,0,0,29,96.35c-.07,3.41,0,6.83-.05,10.24.2,1.13.39,2.27.59,3.4,1.31,2.81,2.28,5.81,4.36,8.22.2.47.41.93.62,1.39a4.42,4.42,0,0,1,1.35,1.87c1.05,2.77,3.08,5,4.23,7.72a1.86,1.86,0,0,0,.75.95,1.13,1.13,0,0,0,0,.18,1.87,1.87,0,0,0,.71,1.57,1,1,0,0,0,.52,0c-.25,1.24-.69,1.14-1.15.83a13.72,13.72,0,0,1-.93-1.09,2.08,2.08,0,0,0-2.55-.49,2,2,0,0,0-.26-.74,15.49,15.49,0,0,1-3.7-5.28c-.39-.79-.6-1.82-1.59-2.11l0,0A6.53,6.53,0,0,0,31,120c-1.5-3.12-3.3-6.09-4.32-9.43a7.33,7.33,0,0,1-.29-2.51c-.07-.61,0-1.32-.49-1.71,0-.12,0-.24,0-.36a19,19,0,0,0-1.38-5.74,55.61,55.61,0,0,0-4.63-9.14c-1.16-1.25-2.13-2.72-3.85-3.33-.47-.28-.93-.58-1.42-.83-2.7-1.36-3.69-.8-3.87,2.18,0,4.49,3.1,8.11,3.72,12.59A15.68,15.68,0,0,1,8.63,96.9c-.68-.78-1.25-1.68-2.39-1.85C5,94.37,4,93,2.36,93.9A4.54,4.54,0,0,0,0,98.07c0,.56.05,1.11.08,1.67A18.48,18.48,0,0,0,12.91,112a8.49,8.49,0,0,1,4.1,2.8,1,1,0,0,0,.61.4h0a24.6,24.6,0,0,1,1.74,4.48,2.82,2.82,0,0,0,.3,2.09,86.27,86.27,0,0,0,4.07,7.88,1.57,1.57,0,0,0,.95.49l.1-.06c.47,1,.93,2,1.39,3.06.49,1.33.54,3,2.38,3.32l.15,0,.41.58a.47.47,0,0,0,.55.27l.09,0a1.73,1.73,0,0,0,1.16.47c0,.14,0,.27.07.4,1,1.17,2.78.87,3.91,1.86a3.18,3.18,0,0,0,.43-.06h0a2.27,2.27,0,0,0,1.16.52,2,2,0,0,0,.79.51h.49c2.56,1.48,5.73,1.84,7.77,4.26.36,1.3,1.4,2.21,2,3.4,1.2,2.11,1.82,4.63,4.21,5.88h0c0,.52.5.82.83,1.12a54.19,54.19,0,0,1,5.17,5.65c1,1.27,1.79,3,3.7,3.26l2.94,3.59.48.49a12.05,12.05,0,0,0,7.78,5.75l.36-.2,2.14,1.12c1.36,1.65,3.23,2,5.21,2.06l4.33,1.92,4.67,1.9c-.33.36-.85.53-1.16.9a2.78,2.78,0,0,0-.46-.13,19.05,19.05,0,0,0-3.7,0c-3.14-.15-6.3-.11-9.44-.46-2.24.12-4.51-.76-6.72.2,0,0,0,0,0-.08-.44-1.28-1.78-1.3-2.69-1.92a37.79,37.79,0,0,1-4.46-2.33c-1.84-1.1-3.73-2.15-5.5-3.39-1.53-.95-2.94-2.12-4.57-2.92-1-.5-2.07-1.24-3.26-.75l-.15-.15a2.36,2.36,0,0,0-2.48-.05c-1.91,1.67-2.21,2.84-1,5,1.35,2.53,3.49,4.36,5.62,6.19a26,26,0,0,1,3.72,3.23c-2.59,1.29-5.19.66-7.69.85-3.41-.21-7,0-9.55-2.93a1,1,0,0,0-.7-.26,17.07,17.07,0,0,0-2.33-4.17,46.56,46.56,0,0,0-7.17-7.61,9.12,9.12,0,0,0-4.58-1.9c-2.43-.13-3.61,1.17-3.18,3.55a8.16,8.16,0,0,0,3.48,5.77,3.13,3.13,0,0,1,1.22,2.34c-.85-.18-1.62-.37-2.4-.51C15.86,178.76,11.5,178,7,178.29a3.13,3.13,0,0,0-3.19,2.45,3.28,3.28,0,0,0,1.65,3.91A14.21,14.21,0,0,0,8.1,185.9c3.12,1,6.28,2,9.42,2.94,1.26,1.23,2.93,1,4.47,1.29a16.6,16.6,0,0,1,3.66.08,3.37,3.37,0,0,0,.71.09,3.68,3.68,0,0,0,1.92-.59,11.3,11.3,0,0,0,8.33,5.61,16.48,16.48,0,0,0,4.31.6c2.31-.13,4.61.16,6.92-.07a9.77,9.77,0,0,0,1.1-.25,3.23,3.23,0,0,0,2.11.17,22.63,22.63,0,0,0,4.56-1.31c1.15-.42,2.42-.63,3.13-1.82a1.87,1.87,0,0,1,0-.25c.9.55,1.69-.12,2.5-.36,1.19-.34,2.22-1.19,3.55-1.1.31,0,.86,0,.88.25.05.8-.84.76-1.22,1.2-3,2.13-6,4.48-9.5,5.79-1.69.74-3.56,1-5.2,1.86s-3.26,1.47-3.88,3.36a6.46,6.46,0,0,0-1.36,4.86l1,1c1.28,1.11,2.82.86,4.29.7,1.72-.18,3.37-.79,5.1-1a29.64,29.64,0,0,0,6-1.57q2.1-1,4.15-2.07A81.83,81.83,0,0,0,78.82,193a.67.67,0,0,1,.11-.07,9.86,9.86,0,0,0,4.12,0c3.71-.47,7.43-.91,10.93-2.37,3.06-.9,6-2.59,9.38-1.57a7.86,7.86,0,0,0,2.2.47h0c.3.8,1.17,1,1.87,1.28,2.19,1,4.47,1.72,6.68,2.63a60.38,60.38,0,0,0,8.22,2.5,10.65,10.65,0,0,0,1.13,0l.11,0c.41.7,1.33.68,2,.84,1.32.33,2.66.57,4,1a3.78,3.78,0,0,0,2.63,0c3,.47,5.67,2,8.51,3h0l1.66,1.28a14.77,14.77,0,0,0,6.73,4.53,5.26,5.26,0,0,1,2.06,1.74h0l.84,10.28c0,.27.07.55.11.82s.26.58.36.88c.39,1.1.47,2.68,1.95,2.7s1.7-1.56,1.93-2.69c.42-2,.65-4.12.95-6.18,1.78,1.68,3,3.82,4.47,5.73,1.44,1.12,2.67,2.54,4.45,3.19.91.33,1.92.76,2.64-.15s0-1.63-.46-2.38c-.66-1.09-1.27-2.21-1.89-3.31l-1.57-2.69c-1.87-3.26-3.28-6.82-6.14-9.42a4.66,4.66,0,0,1-1.48-2.64,2.67,2.67,0,0,0,.17-.58,8.57,8.57,0,0,0,.14-1.44,18.27,18.27,0,0,0-.11-3.05c-1.09-3.47.25-6.45,1.89-9.37.93-2.22,1.8-4.47,2.81-6.66.29-1.3,1.3-2.41,1.3-3.79a64.57,64.57,0,0,0,7.92,3.31,25.34,25.34,0,0,0,2.58.59,9.81,9.81,0,0,1,8.25,6.82c1.08,2.94,1.84,6,2.91,8.91,0,0,.08.05.12.08-1.85,2.77-2.78,6-4.29,8.92a8.48,8.48,0,0,1-.55,1.33,40.28,40.28,0,0,0-1.76,4.62c-.37,1.31-1.38,2.55-.61,4-.22,1.49-.54,3-.62,4.46-.06,1-.09,2.32,1.13,2.62s1.1-1.1,1.6-1.73c.29-.36.53-.77.79-1.16a12.44,12.44,0,0,1,1.94-3.76,100.85,100.85,0,0,1,5.4-10.62c1.53-.67,1.44-2.31,2.09-3.5a11.33,11.33,0,0,0,1.14-2.25,1,1,0,0,0,.81-.26c2.27-2,5.08-2.3,7.86-2.41a95.27,95.27,0,0,0,9.7-1.08,13.3,13.3,0,0,0,2.63-.72,3.52,3.52,0,0,0,.68-.39l.1,0a4.05,4.05,0,0,0,1.44.2c5-.08,10.1.56,15.14-.2,7,.37,12.84,3.4,18.4,7.28,3.05,1.82,5.95,4,9.57,4.58a.93.93,0,0,0,.63-.29c1.61,0,3.29.5,4.76-.6.71-2.06-.08-3.54-1.79-4.67-1-.65-2-1.33-2.94-2-.76-1.32-2.07-2-3.19-3-1.42-1.14-2.95-2.15-4.56-3.52,2.86.21,5.41,1,8,.89,1.62-.28,3.29-.65,3.6-2.58s-1-2.88-2.49-3.71c-.35-.19-.7-.4-1-.61a4.93,4.93,0,0,0-.75-.31c-4.77-2.47-9.92-2.59-15.12-2.39-1.33.18-2.65.42-4,.61-3,.37-6,.7-9.06.92-1,.36-2.21.22-3.23.74-.13.07-.16.13-.06.23s-.32,0-.08-.12a24.84,24.84,0,0,0,3.32-4.65c.47-1.06,1.3-2,1.46-3.14l.45.24c3.25-.27,6.41-1.27,9.7-1.16a13.63,13.63,0,0,0,7.52-2,66.24,66.24,0,0,0,9.14-6.94,3.68,3.68,0,0,0,.79-1.5c3.24-3.69,3.17-4.51-.54-6.59-1.18-1.14-2.19-.17-3.12.37-2.26,1.31-4.36,2.9-6.57,4.29a18,18,0,0,1-3.52,2c-2.31,1.3-4.86,1.39-7.49,1.68a6,6,0,0,1,1.72-2.79,16.91,16.91,0,0,1,3.63-3.78c1-.77,2.11-1.51,2.33-2.92-.25-2.86-.61-3.14-3.37-2.48-1.14.28-2.26.67-3.38,1a.21.21,0,0,1-.29.11,9.77,9.77,0,0,0-5.06,3,35.71,35.71,0,0,0-4.16,5.27l-.75,1.16c-.63,1-1.27,2-1.8,3-.62,1.23-1.89,2.24-1.59,3.84-1-.08-1.33.73-1.75,1.34a33,33,0,0,1-10.49,9.67,2.94,2.94,0,0,0-1.19.94,3.82,3.82,0,0,0-1,.11c-2.17.74-4.43,1.14-6.6,1.88a10.74,10.74,0,0,0-.94.61,2.54,2.54,0,0,0-.77.13,1.21,1.21,0,0,1-.18-.05l-.15-.08a21.92,21.92,0,0,1,2.07-1.64c2.05-2,4.3-3.83,6.41-5.78,1.29-1.67,2.73-3.22,4-4.89a84.08,84.08,0,0,0,5.36-8.23,2,2,0,0,0,.21-1.38,1.79,1.79,0,0,0,.39-.13c2.5-2.37,3.21-5.86,5.25-8.52.72-1.57,2.12-2.82,2.3-4.65h0c1,.1,1.45-.73,2.06-1.28,2.52-2.38,5.87-2.5,9-3.25,2.83-.49,5.67-.84,8.53-1.13,1.18-.12,2.41-.18,3.19-1.31a.64.64,0,0,1,.28-.26,3.7,3.7,0,0,1,0,.65c2.81.67,5.18-.65,7.62-1.66A7.41,7.41,0,0,1,263,144.6a8.24,8.24,0,0,1,3.24.3,3.9,3.9,0,0,0,1.13.09h0a1.82,1.82,0,0,0,1,.51c3.62.74,7.34.41,11,.94a14.32,14.32,0,0,0,4.71,0,10.73,10.73,0,0,1,3.33-.43,11.65,11.65,0,0,0,6.73-2.28c2-1.43,2.24-2.89.93-5.13-2.28-1.76-4.92-1.35-7.5-1.27-3-.19-6.07,0-9.08-.48-.25,0-.5,0-.76,0-1.21-.13-2.46.35-3.67-.23a15.83,15.83,0,0,1,3.64-2.54c1.3-.78,2.62-1.56,3.91-2.37s2.66-1.25,3.08-2.86c.48-1,1.34-1.91.49-3.06s-2-.9-3.08-.75c-1.41.2-2.78.6-4.18.91-3.08,1.54-6.21,3-9.24,4.63-3.4,1.81-6.71,3.78-10.06,5.68a1.44,1.44,0,0,0-1.53.74,12.53,12.53,0,0,0-3.29,1,21.47,21.47,0,0,1-8,1.19c1.08-1.7,2.47-3.21,3.51-5,.82-1.74,1.81-3.38,2.64-5.11a15.8,15.8,0,0,0,1.09-2.54c1,.37,1.59-.42,2.22-1a20.87,20.87,0,0,1,3.46-2.6,51.54,51.54,0,0,1,4.83-2.91c.57-.36,1.19-.66,1.31-1.42.05.08.11.15.16.24,1.26.37,2.26-.46,3.37-.75a15.77,15.77,0,0,0,5.9-4.34c.89-1.1,1.86-2.24,1.2-3.85-.9-2-2.56-2.12-4.37-1.62a30,30,0,0,0-2.85,1.11,1.73,1.73,0,0,1-1.3.59,21.88,21.88,0,0,1-3,.46c-1.67.27-3.49.36-4.53,2.07.07.11.16.21.23.32a1,1,0,0,0-.23-.07l-.83.08c-.94-.24-2.17,1.07-2.85-.54a11.29,11.29,0,0,1,1.52-7c.71-1.25.73-2.53-.53-3.45s-2.12-.12-3,.62a11.46,11.46,0,0,0-4.37,7.26,43.73,43.73,0,0,1-2.36,9.81c-.75.89-1.62,1.74-1.14,2.95-1.62,2-2.64,4.37-4.12,6.44-1.1,1.83-2.46,3.48-3.62,5.33,0,0,0,0,0,0l.31-.51c.91-1.55,1.06-3.35,1.54-5a12.21,12.21,0,0,0,.5-2.79c0-2.16.75-4.43-.76-6.41-.31-1.13-.63-2.25-.94-3.38a3.83,3.83,0,0,0-1.4-3.4,1.3,1.3,0,0,0,.25-.18c.9-4.18,3.08-8,3.7-12.22,0-2.07,1.22-3.17,3.07-3.78a30.3,30.3,0,0,0,5.51-2.16l3.35-.59a1.4,1.4,0,0,0,.64.56c1.46.31,2.93.64,4.18-.6a7.92,7.92,0,0,0,.81.3,37.13,37.13,0,0,0,9.76-.47c3-.36,6-.76,8.86.42,3.77,1.3,7.26,3.35,11.17,4.25,2.92.83,6.12.59,8.82,2.29,1.09.5,2.17,1.06,3.27,1.54,2.11.92,4,2.49,6.35,2.73,2,.87,3.94,1.8,5.95,2.61,3.71,1.48,7.52,2.39,11.54,1.46,1.18-.27,2.43-.54,2.86-1.9s-.65-2.18-1.56-3c-.53-1.07-1.62-1.25-2.6-1.51a42.5,42.5,0,0,1-10.33-4.43.3.3,0,0,1-.13-.4,1.3,1.3,0,0,0,.51-.58h0a4.07,4.07,0,0,0,2.46.2c3.48-1,7-.11,10.55-.34a9.72,9.72,0,0,0,4.15-1,2.82,2.82,0,0,0,1.7-2.91A2.27,2.27,0,0,0,329.67,91.12ZM33.73,50.27l-.28.16a2.53,2.53,0,0,0,0-.28C33.55,50.2,33.64,50.23,33.73,50.27ZM230.1,118.16c.65,2.31,1.48,4.58.81,7.08-.75-.28-.81-1-1.25-1.45-.87-1.27-1.74-2.55-2.59-3.84-.58-.79-1.09-1.63-1.63-2.45l-.07-.07c1.39-1.81,2-4,3.11-6,.1-.82.27-1.63.41-2.44a13.25,13.25,0,0,0,.13,4.81,1,1,0,0,0,.86.65v.05C228.93,115.79,229.76,117,230.1,118.16ZM237,85.45c-2.15,1.52-2.2,4.16-3.31,6.23a70,70,0,0,0-2,8.69,19.56,19.56,0,0,1-1.33,3.61,19.8,19.8,0,0,0-1.48,4.65,8.44,8.44,0,0,0,.05-2.51c-.47-2.41-2.25-1.82-3.51-1.21a10.78,10.78,0,0,0-5.48,5.77,7.44,7.44,0,0,0-.42-.79c-1-2.12-.86-4.48-1.38-6.7-.36-1.53-.88-2.89-2.54-3.43a4.47,4.47,0,0,0-3.18.21c2.34-1.67,4.35-3.76,6.67-5.47,1.79-1.28,3.57-2.57,5.33-3.89C226,89.32,228,88.67,229,86.75l7.36-6c.74,1.48.22,3.19.76,4.71Zm-28.81,25.44c.48-1.1,1.3-2.22.57-3.54h0c1.52-.9,1.46-2.56,1.83-4,.11-.42.22-.84.35-1.25a6.71,6.71,0,0,0-.18,1.12,51.15,51.15,0,0,0,0,7.73c.06,1.67,1,3,1.56,4.53a3.34,3.34,0,0,0-1.27.22c-2,.69-4,1.52-6.49,2.42C205.93,115.43,207.19,113.21,208.22,110.89ZM230.46,71.4c.46.12.92.25,1.38.4a3,3,0,0,0-1.57,1.75A3.44,3.44,0,0,0,230.46,71.4Zm-27.23-.15a91,91,0,0,1,5.12-8.18c.29-.44.8-.82.91-1.34a3.84,3.84,0,0,0,.54.35c3.08,2,6.41,3.45,9.58,5.24.65.27.73,1,1.2,1.47-.45.37-.41,1-.54,1.55-.89,3.64-2,7.2-4.51,10.1-1.23,1.48-2.67,2.74-4,4.14a9.77,9.77,0,0,0,0-4.53.47.47,0,0,0-.05-.1q.28-4.1.58-8.2c0-2,0-3.94.15-5.9.08-1.56-.43-2.44-2.12-2.31-2.68,1.68-3.33,4.6-4.44,7.24-1.86,2.32-2,5.2-2.49,7.94a2.35,2.35,0,0,0,.37,2,2.4,2.4,0,0,0-.67.84,22.25,22.25,0,0,0-.76,7.17c0,.26,0,.53,0,.8a1.45,1.45,0,0,0,0,.82c0,.18,0,.35,0,.52a.13.13,0,0,1-.06-.12c-.06-.29,0-.7-.13-.95,0-.19.07-.38.1-.55,0-2.1-.41-4.16-.58-6.25A19.34,19.34,0,0,1,203.23,71.25Zm-49.34,108c.31-.11-.08.27-.1,0v0A.14.14,0,0,0,153.89,179.27ZM162.6,66h-.15A.75.75,0,0,1,162.6,66Zm13-27.13,0,0v0Zm-43,74.4c3.13,1.43,5.41,4,8.11,6a2.61,2.61,0,0,0-.24.23,22.24,22.24,0,0,0-4.16,10,6.81,6.81,0,0,0-.05.78c0,1.9,0,3.8,0,5.7a4.12,4.12,0,0,0,.13,1.21c.47,1.29.34,2.69.74,4s.13,2.94,1.57,3.84l.13,0c-1,1.24-.17,2.54-.09,3.82.44,2.07.8,4.15,1,6.24.65,1.66.11,3.43.51,5.1a4.42,4.42,0,0,0,.56,1.13l-.06.95c0,.54.17,1.11-.09,1.58h0a7.33,7.33,0,0,0-1.78-1.25h0v0c-1.2-1.52-3.25-2.26-3.93-4.26-.67-1-1.36-2-2-3-1.69-2.37-3.19-4.89-5.37-6.89a50.88,50.88,0,0,0-4.43-3.16c-1.62-.81-3.11-1.88-4.76-2.63-1-.44-1.86-1.31-3.07-.7l-.07,0c0-1.09-.93-1.5-1.71-1.86a3.79,3.79,0,0,1-2.34-4.47c.6-3.49.22-7,.34-10.49a40.89,40.89,0,0,0-.64-4.28,29.71,29.71,0,0,0-2.22-6.48c-.38-.7-.67-1.54-1.47-1.82a25.81,25.81,0,0,0,.79-2.73,35.83,35.83,0,0,0,.28-4.14c1.35,1.18,3.24,1,4.83,1.53C119.88,108.49,126.53,110,132.66,113.24ZM87.13,125.13c-1,1.06-.7,2.51-1.06,3.76-.14.4.13.91-.33,1.24-.62-.34-.78-1-1.18-1.56a1.9,1.9,0,0,0-1.11-.9A16.91,16.91,0,0,0,81.82,119c.87,1,1.67,2.11,2.47,3.2.54.66.88,1.46,1.48,2.08.4.43.82,1,1.37.75Zm13.54-1.08c-.22,1.87.73,3.84,0,5.75-1-.68-1.14-2.1-2.09-2.75C99.27,126,99.94,125,100.67,124.05Zm-6-52.75c.53,1.45.85,3.08,2.65,3.57h0c.68,2.12,2.41,3.6,3.42,5.53l3.42,3.9c0,1.08.85,1.68,1.56,2.28a51.69,51.69,0,0,0,5.32,4c.77.48,1.49,1,2.26,1.52a15.25,15.25,0,0,0,5.24,2,2.92,2.92,0,0,0,.79-.06,4.13,4.13,0,0,0,1,.32.66.66,0,0,0,0,.14c.49,1,1.56,1.34,2.42,1.9a21.32,21.32,0,0,1,3.63,2.78c-2.11-.75-4-.89-5.84-1.48a56.29,56.29,0,0,0-7-1,30.56,30.56,0,0,0-5.24,0c-1.79.19-3.2.93-3.61,2.88,0,0,0,.06,0,.09a1.06,1.06,0,0,0-1,0,6.53,6.53,0,0,0-1.16.08,4.72,4.72,0,0,0-1.51.69c.93-2.67.27-5.35-.23-8a15.42,15.42,0,0,0-1.64-4.19c-1.4-2-3.2-2.26-5.28-.87-.86.93-1,2.18-1.49,3.29,0,1-.07,2-.11,3h0c-2.43-.62-3.43,0-4.18,2.46-.85,2.81-.42,5.72-.63,8.58-1.16,1.58-.65,3.12-.18,4.66A11,11,0,0,1,84.75,104c-.66-1.59.25-3.63-1.39-4.95V99c1.51-.55,1.12-1.9,1.18-3,.08-1.82,0-3.64,1-5.28.62-1.26,2.19-2.11,1.71-3.83l.08,0c1.05.07,1.5-.74,2-1.4A33.28,33.28,0,0,0,92,81.52a19.11,19.11,0,0,0,2.46-5.23,3.94,3.94,0,0,0,0-1.87c1-.91.7-2-.12-3.08C94.34,71.33,94.47,71,94.65,71.3ZM69.07,158.19c-.38-.37-.73-.81-1.26-.84,0-.14,0-.28-.07-.42-1-2.69-.38-5.52-.67-8.28a39.14,39.14,0,0,1,.69-5.17,3.56,3.56,0,0,0-.11-2.63l.08-.06a2.38,2.38,0,0,0,.65-.92,75.53,75.53,0,0,0,2.46-10.71,83.37,83.37,0,0,0,1-9.34c-.22-3.49-.59-7-2.53-10A5.73,5.73,0,0,0,65.9,107c-2.8.12-3.54.87-3.66,3.62-.08,2,.26,4-.36,6a9.82,9.82,0,0,0-.19,2.48,84.44,84.44,0,0,1-2.22,11.14c-.73,2.84-1.3,5.71-1.88,8.59-.22,1.72-.57,3.42-.71,5.36a108.91,108.91,0,0,1-4.53-10.74c-.36-.92-.43-2.17-1.57-2.57v0a5.09,5.09,0,0,0-.34-2.15,6.06,6.06,0,0,1,.3-7.83,4.81,4.81,0,0,0,.73-1.49c2.2-5.09,3.2-10.5,4.19-15.91a2.35,2.35,0,0,0-.22-1.89l.14-.15a5.57,5.57,0,0,0,.64-1.35c.72-3.13,1.11-6.34,2.36-9.34a15.26,15.26,0,0,0,.46-4.64,34.91,34.91,0,0,0,2,4.58,32.82,32.82,0,0,0,3.58,4.77c1.24,1,2.32,2.35,4.11,2.3.1,1.21,1.26,1.82,1.68,2.85a56.93,56.93,0,0,1,3.7,5.42c1.22,3.09,2.19,6.32,4.32,9-1.82-.61-2.74,0-3.47,2.24-.28.81-.55,1.63-.83,2.44a61.29,61.29,0,0,0,0,9.09l.81,3c0,.8.06,1.56.94,1.86l0,0c.05,2.69,2.12,4,3.75,5.7,1.46.73,2.15,2.42,3.75,3l.2,0c1.28,2.39-.47,4.32-1.28,6.39a12,12,0,0,0-2.48,9.67c.19,2.17-.3,4.4.46,6.52a3.6,3.6,0,0,0-.83,1.55c-1.33-1.54-3.56-1.67-5-3.07A21.87,21.87,0,0,1,69.07,158.19Zm19.64.71a.93.93,0,0,0,.87-.58c1-3.23,2.42-6.28,3.58-9.44,1-2.79,2.27-5.59,1.9-8.67a7.14,7.14,0,0,0,4.12,3.18c-.65,2.05-2,3.78-2.86,5.7s-2,3.95-2.81,6c-1,2.29-.71,4.73-.81,7.12a48.69,48.69,0,0,0,.62,5,19.45,19.45,0,0,1,.54,4.7c-1.3-1.61-2.59-2.81-3.23-4.5-1.49-2.58-.89-5.6-1.69-8.33A1.6,1.6,0,0,0,88.71,158.9Zm57.41,35.68h0c-1.24-1.22-3-1.68-4.32-2.71-3.07-2.65-6.77-3.53-10.68-3.81a.18.18,0,0,0-.16.07c-.47-.83-1.41-.85-2.16-1.21a55.19,55.19,0,0,1-5.63-1.55c-3.52-1-6.86-2.5-10.34-3.61a1.21,1.21,0,0,0-.85.29c-2.26-1.84-5-2.84-7.45-4.36-.31-.15-.6-.33-.91-.48-1.4-.59-1.48-1.69-1.24-3s.85-2.81,0-4.21l0,0a2,2,0,0,0,1-2c-.34-5.47.32-10.72,3.14-15.56.71-1.23,1.33-2.53,1.94-3.82,1.41,1.48,3.51,1.85,5.15,3,5,2.38,9.28,5.45,12.19,10.29a17.35,17.35,0,0,0,6,6.21,9.93,9.93,0,0,0,.9.51,42.9,42.9,0,0,1,5,2.76c.62.41,1.26,1,2.08.68.33,1.23,1.53,1.6,2.35,2.34,1.31,1.15,1.18,2.82,1.61,4.3.81,3,1.75,5.91,2.51,8.9.81,2.53,1.22,5.18,2,7.72A1.87,1.87,0,0,0,146.12,194.58Zm25.43-23.71a22.61,22.61,0,0,1-3.57-1.54,10.75,10.75,0,0,0,.93-1.35c.82-1.47,1.74-2.87,2.54-4.35a5.58,5.58,0,0,0,.34-1A25.56,25.56,0,0,0,173,168c.27,1.19,1,2.28,1.07,3.66A18.12,18.12,0,0,1,171.55,170.87Zm33.16-6.77c.67,2.14.24,4.32.29,6.49a9.67,9.67,0,0,1-3.4,8.15c-1.36,1.13-2.62,2.37-3.95,3.54-.73.64-1.65,1.24-1.61,2.36h-.11c-1.93.6-2.73,2.58-4.29,3.65-.57-.7-.53-1.47-.82-2.13-1-2.9-2.31-5.65-3.44-8.48-1.62-3.23-3.3-6.42-4.84-9.69a17.84,17.84,0,0,1-1.07-2.55,31.41,31.41,0,0,1-2.16-7.11c-.46-1.55-.36-3.36-1.95-4.39,1.7-.51,2.42-2.12,3.52-3.3.64-.76,1.38-1.43,2.05-2.17,1.36-2.07,3.38-3.57,4.86-5.53-.12,2,.84,3.71,1.86,5.4.43.58.8,1.19,1.27,1.73,2.41,2.84,5.81,4.06,9.07,5.49a7.28,7.28,0,0,1,3.72,3.41c.47.84.21,2.12,1.48,2.49h0v0A2.85,2.85,0,0,0,204.71,164.1Zm14.59-11.29c-1.2,1.78-2.23,3.66-3.39,5.46-.66,1.1-1.28,2.23-2.18,3.56-.13-1.77-.56-3.08-.56-4.45q-.58-3.82-1-7.68a25.45,25.45,0,0,1,1.52-11.2c1.14-4.2.38-5.49-3.16-5.34-3.08,1.2-4.59,3.76-5.73,6.63a23.46,23.46,0,0,0-1.2,4.36c-.5,2.45-.51,2.45-2.88,1.6a11,11,0,0,1-5.26-3.6,12.44,12.44,0,0,0-3.94-3.45l-.12,0a15.85,15.85,0,0,0,2.47-3,9.27,9.27,0,0,1,6.29-4.45c1.76-.6,3.54-1.19,5.32-1.75,1.45-.54,2.89-1.11,4.36-1.61,2.2-.78,4.36-1.65,6.5-2.58a4,4,0,0,0,2-1.38,8.47,8.47,0,0,1,1.42,1.51c1,1.41,2.17,2.72,3.07,4.21,1.11,1.2,1.44,3.06,3.15,3.75-.54.86,0,1.63.27,2.41a4.86,4.86,0,0,1,.22,3.08c-1,3.5-3.26,6.38-4.71,9.65a2.59,2.59,0,0,0-.22,1.64C220.13,150.45,220.12,152,219.3,152.81Z"/></g></g></svg>