<svg xmlns="http://www.w3.org/2000/svg" viewBox="0 0 58.37 129.12"><defs><style>.cls-1{fill:#a2ce56;}</style></defs><g id="Layer_2" data-name="Layer 2"><g id="Layer_1-2" data-name="Layer 1"><path class="cls-1" d="M34.89,50.06a24.54,24.54,0,0,1-1.65,2.46c-5.81,6.72-5.46,12.84.49,19.67,4.67,5.36,3.79,8-2.16,15.72-3.71,4.84-3.95,8.72-.46,13.46A21.19,21.19,0,0,1,35,108.71c.22.83.4,1.89,1.34,1.76A2.56,2.56,0,0,0,38,108.88c1.85-6.8,6.13-12.5,8.47-19,1.82-5.1,0-10.22-1.93-14.52-3.57-8.07-3.08-16.23-.9-23.86,2.77-9.7.71-17.8-4-26C35.48,18.16,35,10.07,35,1.86,35-1,36.73.34,37.91.16a5.73,5.73,0,0,0,.84.21c.57,2.65,3,3.91,4.56,5.73,4.17,4.77,5.1,10.24,4.07,16.15-1.84,10.58-.71,20,7,28.52,6.43,7.09,3.88,15.47.49,23.35a10.06,10.06,0,0,0-4,8.09,12.25,12.25,0,0,0-1,9.4c1.5,5.15,2.45,10.46,3.64,15.7L51.92,118l0,0-.84,1c-2.86,3.8-6.47,6.82-10.4,10-2.19-5.58-1.79-11.55-4.15-16.69-1.73.14-1.38,1.55-2,2.22-2.6,2.9-4.14,8.29-8.78,7.24-4.94-1.12-8.18-10-6.64-15.12a4.5,4.5,0,0,1,.79-1.81c7.19-7.79,5.24-15.07-1.12-22.16-2.5-2.78-2.19-5.69-.31-8.67,1.14-1.82,1.85-4.08,3.37-5.47,4.54-4.16,3.46-8.17.79-12.82C16.68,45.51,17,43.46,24.93,34.11l3-.13c2.31,3.79,6.55,6.32,7.27,11.14Z"/><path class="cls-1" d="M10.7,48.93a19.87,19.87,0,0,0-.25,12.22c2.2,8,3.06,15.79.25,23.9-2.08,6-.28,11.79,3.14,17,4.15,6.32,5.63,12.85,2.66,20.17-.89,2.18-1.53,2.49-3.41,1.27-4.38-2.83-7.84-6.1-7.35-12,.38-4.6.31-9.13,1.89-13.68,1.78-5.11-.82-10-3.68-14-5-7.08-5.4-13.78-.31-20.88C7.93,57,9.4,50,7.41,43.14c-2.56-8.84,1.2-15,6.53-21l1.87,1q.07,6,.14,12Z"/></g></g></svg>