<svg xmlns="http://www.w3.org/2000/svg" viewBox="0 0 179.84 19.88"><defs><style>.cls-1{fill:#f6fcfc;}</style></defs><g id="Layer_2" data-name="Layer 2"><g id="Layer_1-2" data-name="Layer 1"><path class="cls-1" d="M4.44,8.52C17.7,16,28.69,10,39,2.16c3.91-3,6.28-2.89,9.86.26,5.49,4.83,10.84,9.75,19.33,9.47C76.93,11.6,82.85,6.15,89.41,2c4.71-3,7.4-2.36,11.15,1.37,11.58,11.49,20.28,12.19,32.9,1.61C140.1-.56,145.23-.53,151.2,5c6.48,6,14.3,7.5,22.82,6.57,2.29-.25,5.69-2,5.82,2.3.1,3.28-2.49,5-5.57,5.3-6.69.56-13.49.78-19.55-2.7-9-5.19-17.5-3.79-26.25.81-7.9,4.15-16.35,2.9-23.74-.82-8.69-4.36-16.64-4.12-25-.06-8.88,4.32-17.38,4.29-26.37-.67-6.88-3.8-14.59-4.48-22,0-8.57,5.21-17.75,3.87-26.92,2C-5.56,12.56,4.44,11.61,4.44,8.52Z"/></g></g></svg>