<svg xmlns="http://www.w3.org/2000/svg" viewBox="0 0 211.94 19.94"><defs><style>.cls-1{fill:#f6fcfc;}</style></defs><g id="Layer_2" data-name="Layer 2"><g id="Layer_1-2" data-name="Layer 1"><path class="cls-1" d="M4,5.68C16.56-.71,27.69.27,39.93,8.47c11.35,7.61,24.3,3.26,36.12-2,3.27-1.46,6.53-3,9.72-4.6C92-1.32,97.11-.4,102.52,4.4c9.78,8.66,27.85,9.91,39.12,3.57,1.79-1,4-1.56,5.39-2.94,9.1-8.89,18.23-3.7,26.69.47,9.72,4.81,19.25,8.17,30.12,5.05a11.12,11.12,0,0,1,3.06-.22c2.35,0,4.93-.18,5,3.19.09,2.84-1.72,3.9-4.28,4.5-9.73,2.31-19.63,2.34-28.75-1.33-12.1-4.87-23.57-5.24-35.65-.33-13.55,5.5-27.2,3.81-40.53-1.25-9.6-3.63-18.84-3.56-28.29.72C62.4,21.3,49.77,21,37.58,16.89c-11.19-3.73-22.07-6.56-33.58-2C-5,9.22,4,8.77,4,5.68Z"/></g></g></svg>