<svg xmlns="http://www.w3.org/2000/svg" viewBox="0 0 95.12 102.24"><defs><style>.cls-1{fill:#a99ead;}.cls-2{fill:#6abcc5;}</style></defs><g id="Layer_2" data-name="Layer 2"><g id="Layer_1-2" data-name="Layer 1"><path class="cls-1" d="M10,61.34c8.31,2.17,12.61-2.29,15.88-8.92,1.18-2.4,2.34-6,5.53-5.71,3.63.34,4.23,4.34,4.74,7.16,1.52,8.41,4.68,14.57,14.64,14.5,2,0,4.79,1,5.06,3.9.24,2.45-1.8,3.83-3.68,4.39C42.35,79.59,40,86.53,41.09,95.79c.24,2,1.27,5.22-1.36,6.21s-4.49-1.55-6.16-3.53C26.41,90,25,89.77,13.73,94.15c-2.69,1.06-6,3.92-8.47,1.48-2.66-2.6-.64-6.15.83-9.21,2.33-4.82,3.58-9.59-.89-14.14-2.47-2.5-6.34-5.45-4.88-8.91C2,59.39,6.85,62.65,10,61.34Z"/><path class="cls-2" d="M57.44,5.82a12.37,12.37,0,0,1,3.42.52C67.22,9.1,72.35,7.43,76.53,2.2,77.72.71,79-.52,81,.22c1.78.65,2,2.38,1.77,3.86C81.48,12.21,85,17.31,92.42,20.22c1.4.54,2.88,1.58,2.69,3.38-.24,2.15-2.19,2.89-3.89,3.19C82.67,28.3,79,33.36,79.49,41.91c.13,2-.24,4.26-2.73,4.94s-3-1.5-4-2.88c-4.21-6.12-9.45-9.26-17-6.44a3.49,3.49,0,0,1-4.17-1.09c-1.15-1.56.14-2.92.8-4.21a15,15,0,0,1,2.26-3.09c4.13-4.71,4.83-9.31.23-14.3-1.68-1.81-3.16-4.2-2.29-7C53.28,5.59,55.31,5.91,57.44,5.82Z"/></g></g></svg>