<svg xmlns="http://www.w3.org/2000/svg" viewBox="0 0 79.85 74.93"><defs><style>.cls-1{fill:#f2837f;}</style></defs><g id="Layer_2" data-name="Layer 2"><g id="Layer_1-2" data-name="Layer 1"><path class="cls-1" d="M68.35,37A57.33,57.33,0,0,1,55.16,56.79c-.87.88-2.63,1.43-1.7,2.86s2.37.15,3.38-.39A80.18,80.18,0,0,1,70,53.82a15.67,15.67,0,0,1,4.24-.9c2.13-.06,4.76-.56,5.53,2.29.71,2.62-1.67,4.25-3.27,5.22-5.54,3.34-11.79,4.72-18.22,5.36-5.39.54-10.79,1.13-15.39,4.44-3.3-.75-.48-2.83-.91-4.2,1.13-3.74-.47-6.52-3.38-8.53-3.34-2.31-4.94-5.78-6.74-9.13-.8-1.48-1.16-3.21.55-4.46s3.13-.39,4.5.67c4.63,3.59,5.61,9.24,8.09,14.5,2.91-2.2,3.75-4.56,2.66-8-1.93-6.24-1.36-12.73-1.21-19.14.05-2.4,1.17-4.9,3.53-4.77s3,2.85,3,5.18c0,3.64,0,7.28,0,12,4.91-3.62,6.78-8.82,11-11.59C66.61,32.94,70.48,31.88,68.35,37Z"/><path class="cls-1" d="M30.73,18.42c-.24,3.8-3.75,5.19-5.72,7.71-.9,1.14-2.38,2.41-1.23,3.77,1.38,1.64,2.44-.39,3.67-.92C30,27.9,32,26,35,25.76c1.76-.11,3.52-.24,4.32,1.49,1,2.17-.76,3.71-2.29,4.43-2.79,1.31-5.83,2.74-8.8,2.84C23,34.7,21.43,37,21.85,41.76c.11,1.17.34,2.64-2.1,4C19.23,34.85,8.13,31.55,4.43,22.85c1.55,1.27,3.2,2.43,4.62,3.83,3,2.91,4,1.52,4.27-1.78,2.2.22,1.59,4,4.37,3.48,5.1.67,4.71-4.1,6.57-6.64C27.24,22.25,28.63,19.63,30.73,18.42ZM22,33.12c-.13-1.23-.33-2.52-1.84-2.19a4.26,4.26,0,0,0-3,2.87,1.89,1.89,0,0,0,1.67,2.37C20.52,36.13,21.53,34.76,22,33.12Z"/><path class="cls-1" d="M24.26,21.74c-1.86,2.54-1.47,7.31-6.57,6.64-1.13-8.11-2.89-16.22.07-24.32,3.58-2.44,3.95.64,4.16,2.75.26,2.66-.28,5.39-.25,8.09,0,2.55-.82,5.53,2.59,6.84Z"/><path class="cls-1" d="M13.32,24.9C13,28.2,12,29.59,9.05,26.68,7.63,25.28,6,24.12,4.43,22.85A13.52,13.52,0,0,1,.2,16.1c-.35-1.55-.43-3.22,1.41-4.27s2.76.26,3.78,1.13C9.17,16.16,12.25,19.88,13.32,24.9Z"/><path class="cls-1" d="M30.73,18.42c-2.1,1.21-3.49,3.83-6.47,3.32h0l1.17-3.83c.34-.56.67-1.13,1-1.7a3.23,3.23,0,0,0,1.3-2.74c.36-.62.58-1.49,1.13-1.82,2.2-1.34,3.52-6.3,6.3-3.84,2.39,2.12.56,6-2.14,8.4l-1,1.12h0l-1.12,1Z"/><path class="cls-1" d="M25.43,17.91l-1.17,3.83c-3.41-1.31-2.57-4.29-2.59-6.84,0-2.7.51-5.43.25-8.09-.21-2.11-.58-5.19-4.16-2.75,0-1.6-.44-3.59,1.82-4,2.07-.39,2.77,1.55,3.58,2.89,1.53,2.5.75,5.38,1,8.09C24.4,13.36,23.69,15.86,25.43,17.91Z"/><path class="cls-1" d="M41.93,66c.43,1.37-2.39,3.45.91,4.2-.77,2-2.74,2.54-4.89,4.7C38.44,70.67,39.29,68,41.93,66Z"/><path class="cls-1" d="M68.35,37c2.13-5.14-1.74-4.08-4.41-4.27,1.41-2.69,4-3,5.69-1.27C71.11,33,71.59,35.82,68.35,37Z"/><path class="cls-1" d="M27.73,13.47a3.23,3.23,0,0,1-1.3,2.74C26.52,15.14,26.41,14,27.73,13.47Z"/><path class="cls-1" d="M30.86,18.32l1.12-1Z"/><path class="cls-1" d="M32,17.33l1-1.12C32.67,16.58,32.33,17,32,17.33Z"/><path class="cls-1" d="M22,33.12c-.42,1.64-1.43,3-3.19,3.05a1.89,1.89,0,0,1-1.67-2.37,4.26,4.26,0,0,1,3-2.87C21.62,30.6,21.82,31.89,22,33.12Z"/></g></g></svg>