<svg xmlns="http://www.w3.org/2000/svg" viewBox="0 0 23.93 23.83"><defs><style>.cls-1{fill:#fff;}.cls-1,.cls-2,.cls-3{fill-rule:evenodd;}.cls-2{fill:#9ec2dd;}.cls-3{fill:#d5e8f1;}</style></defs><g id="Layer_2" data-name="Layer 2"><g id="Layer_1-2" data-name="Layer 1"><path class="cls-1" d="M17.66,19.05c3.57-4.37,6.07-8.6,6.26-10.6C24,7.64,22.48,6.54,22,5.83c-.26-.4.11-1.32-.21-1.69s-1.3-.19-1.66-.53-.5-1.59-1.07-2-1.72.05-2.37-.22S15.5.21,14.71,0,12.89.47,12,.46,10.35-.1,9.59,0,8.21.92,7.53,1.16,5.85,1,5.23,1.35,4.39,2.78,3.86,3.21s-1.22.13-1.57.5S2.07,5,1.78,5.45A9.9,9.9,0,0,0,0,8.43c-.4,1.54,2.89,7.07,5.19,11,1.1,1.88-.18.62-1.58,3-.54.93-.24,1.19,1.78.86,4.68-.79,7.75-.94,12.58.3,2,.51,1.87,0,1.5-.9C18.51,20.32,16.66,20.28,17.66,19.05Z"/><path class="cls-2" d="M2,4.9a1.37,1.37,0,0,1-.19.55A2.16,2.16,0,0,1,1.1,6c1.8,4,6.59,14.57,6.12,13.09S3.64,8.32,2.08,5.16A2,2,0,0,1,2,4.9Z"/><path class="cls-2" d="M4.5,2.28a3,3,0,0,1-.64.93,1,1,0,0,1-.36.17C4.83,7.77,8.69,20.16,8.42,18.64S5.93,6.74,4.82,3.41C4.71,3,4.61,2.61,4.5,2.28Z"/><path class="cls-2" d="M8.53.55a4.48,4.48,0,0,1-1,.61,1.85,1.85,0,0,1-.41.07c.65,4.68,2.75,18.64,2.72,17.1S9.1,4.61,8.53.55Z"/><path class="cls-2" d="M22.65,6.31A1.65,1.65,0,0,1,22,5.83,1.65,1.65,0,0,1,22,4.92l-.31.65C19.92,8.66,16.4,17.7,15.81,19.25S20.7,10.1,22.65,6.31Z"/><path class="cls-2" d="M20.32,3.71a.4.4,0,0,1-.15-.1,4.27,4.27,0,0,1-.65-1.39A15.4,15.4,0,0,0,19,3.7C17.71,7,15,17.16,14.63,18.76S18.77,8,20.32,3.71Z"/><path class="cls-2" d="M16.81,1.46l-.08,0a5.81,5.81,0,0,1-1.24-1c-.77,3.76-2.15,16.33-2.26,17.94S15.91,6.12,16.81,1.46Z"/><path class="cls-2" d="M12.72.37A3.26,3.26,0,0,1,12,.46a4,4,0,0,1-.81-.14c-.15,4,.42,16.33.56,17.91S12.61,4.34,12.72.37Z"/><path class="cls-3" d="M5.37,19.71c.58,1.06.11.84-.69,1.49,1.48,1.32,3.78,1.45,6.92,1.52A9,9,0,0,0,18,20.56c-.41-.41-.68-.69-.54-1.1-1.24,1.77-2.67,3.32-5.81,3.26s-5.2-.87-6.19-3Z"/></g></g></svg>