<svg xmlns="http://www.w3.org/2000/svg" viewBox="0 0 210.01 13.65"><defs><style>.cls-1{fill:#f9f9f9;}</style></defs><g id="Layer_2" data-name="Layer 2"><g id="Layer_1-2" data-name="Layer 1"><path class="cls-1" d="M199.85,13.34c-14.94-7.47-30-.06-44.78-.69-14.32-.61-28.31-3.91-42.66.44-4.51,1.36-9.59.09-14.22-2.07-5.82-2.72-11.92-2.63-18-.36-9.74,3.68-19.4,4.17-29-.49-5.54-2.68-11.11-1.54-16.4.75-11.35,4.9-22,2.06-32.7-2.29C.85,8.12-.31,7.51.07,5.91a2.29,2.29,0,0,1,3.06-1.6c14.63,5.26,28.53,3.87,41.93-4C46.61-.63,48.57.82,50,2c10.38,8.53,21.4,7.44,32.27,1.57C88.29.25,92.7.09,98.73,4.54,106,9.88,115,9,122.9,5s14.16-5.81,22.41.28c6.5,4.81,15.61,4.06,22.55-.72C174.27.09,179.6-.25,186,4c5.48,3.62,11.81,4.55,18.39,3.69,2-.26,5.28-1.91,5.59,1.57.27,3.1-2.75,3.86-5.53,3.91C202.92,13.17,201.39,13.27,199.85,13.34Z"/></g></g></svg>