<svg xmlns="http://www.w3.org/2000/svg" viewBox="0 0 211.5 13.61"><defs><style>.cls-1{fill:#f9f9f9;}</style></defs><g id="Layer_2" data-name="Layer 2"><g id="Layer_1-2" data-name="Layer 1"><path class="cls-1" d="M199.52,13.61c-13.88-7.47-29.43-2.85-45-.63a10.84,10.84,0,0,1-4.54-.66C139.52,9,129.2,8.17,118.47,11.85c-6.14,2.1-12.88.93-18.91-1.08a29.53,29.53,0,0,0-21,.31c-8.25,3.17-16.68,2.36-24.83-.65a23.21,23.21,0,0,0-17.19,0C25.13,14.79,13.87,12.54,2.77,8.68,1.21,8.13-.21,7.4,0,5.54.32,3.2,2.22,2.88,4.09,3.09A13.12,13.12,0,0,1,8.55,4.2C19.8,10,30.41,7.56,40.84,1.91c3-1.62,6.14-3,9.35-.58,11.3,8.71,22.92,7.52,34.52.91,5.13-2.92,9.4-2.56,14,1.12,7.46,6,15.77,5.62,23.9,1.64s15.29-6.25,24.07,0c7.43,5.3,16.43,3.15,23.89-2C175.11-.15,178.9-.53,184,2.13c7.23,3.8,14.87,7.32,23.53,4.57,1.52-.48,3.19-.79,3.81,1.22s-.48,3.45-2.54,3.9C206.27,12.37,203.74,12.8,199.52,13.61Z"/></g></g></svg>