<svg xmlns="http://www.w3.org/2000/svg" viewBox="0 0 296.21 14.11"><defs><style>.cls-1{fill:#f9f9f9;}</style></defs><g id="Layer_2" data-name="Layer 2"><g id="Layer_1-2" data-name="Layer 1"><path class="cls-1" d="M282.66,14.11c-4.12-.57-8.4-.51-12.19-1.83-13.75-4.78-27.26-3.4-40.86.43-10.05,2.84-19.8.57-29.5-2.1a42.76,42.76,0,0,0-24.3.24c-12.67,3.9-25.2,4.06-37.79-.26-7.49-2.58-14.9-2.34-22.63-.28C103,13.61,90.3,15.68,77.6,11c-13.68-5-27,.28-40.21,2.23C25.09,15.07,14.18,9.88,2.53,8.82A2.61,2.61,0,0,1,.07,5.56c.43-2,2.17-1.87,3.7-1.7,3.82.41,7.85.27,11.41,1.49,15.92,5.43,31,2,45.61-4.28C64.9-.67,68-.18,71.59,1.78Q92.07,13,113.81,4.26c8.77-3.5,17-4.95,26.36.16,11.39,6.22,23.91,4.35,35.88.11,9.26-3.29,17.74-5.7,27.73.11C215.1,11.22,227.91,9,239.42,3.57a24.24,24.24,0,0,1,21.36-.42c9.87,4.28,20,6.34,30.76,4,1.82-.39,3.86-.73,4.5,1.55.79,2.79-1.32,3.47-3.51,3.82Z"/></g></g></svg>