<svg xmlns="http://www.w3.org/2000/svg" viewBox="0 0 54.68 59.5"><defs><style>.cls-1{fill:#f6f185;}.cls-1,.cls-2,.cls-3,.cls-4,.cls-5,.cls-6{fill-rule:evenodd;}.cls-2{fill:#f5bb51;}.cls-3{fill:#f6e5d6;}.cls-4{fill:#c8dee0;}.cls-5{fill:#eaf5f7;}.cls-6{fill:#fff;}</style></defs><g id="Layer_2" data-name="Layer 2"><g id="Layer_1-2" data-name="Layer 1"><path class="cls-1" d="M41,42.3C48.85,32.46,54.3,23,54.67,18.51c.15-1.8-3.26-4.22-4.29-5.78-.58-.89.21-2.94-.5-3.75s-2.9-.4-3.72-1.13c-1.11-1-1.15-3.53-2.45-4.33s-3.83.15-5.28-.43S35.66.4,33.91.06s-4.06,1-5.95,1S24.17-.13,22.49.16s-3,2.05-4.56,2.6-3.75-.29-5.1.5-1.84,3.2-3,4.18C9,8.19,7.11,7.76,6.35,8.6s-.45,3-1.08,3.89c-1.14,1.67-3.13,3.93-3.81,6.69C.61,22.62,8.1,34.84,13.33,43.52c2.5,4.16-.38,1.39-3.43,6.83-1.16,2.08-.49,2.66,4,1.85,10.41-1.89,17.24-2.31,28,.3,4.46,1.08,4.16-.06,3.31-2C43,45.11,38.85,45.07,41,42.3Z"/><path class="cls-2" d="M5.66,11.27a3.13,3.13,0,0,1-.39,1.22,4.62,4.62,0,0,1-1.52,1.22c4.13,8.8,15.13,32.25,14,29C16.59,39.19,9.49,18.84,5.91,11.85Z"/><path class="cls-2" d="M11.22,5.34a7,7,0,0,1-1.39,2.1A2,2,0,0,1,9,7.82C12.11,17.57,21.09,45,20.44,41.67,19.76,38.06,14.55,15.24,12,7.86,11.72,6.93,11.47,6.09,11.22,5.34Z"/><path class="cls-2" d="M20.14,1.37a9.41,9.41,0,0,1-2.21,1.39A3.43,3.43,0,0,1,17,3c1.59,10.39,6.68,41.42,6.57,38S21.53,10.39,20.14,1.37Z"/><path class="cls-2" d="M51.76,13.78a3.65,3.65,0,0,1-1.38-1,3.78,3.78,0,0,1-.19-2c-.22.45-.44.93-.67,1.44-3.75,6.94-11.34,27.2-12.6,30.67C35.72,46.12,47.53,22.29,51.76,13.78Z"/><path class="cls-2" d="M46.51,8.07a1.5,1.5,0,0,1-.35-.22c-.74-.66-1-2-1.49-3.09-.37.94-.74,2-1.11,3.32-2.76,7.34-8.51,30.09-9.29,33.68C33.55,45.13,43.19,17.75,46.51,8.07Z"/><path class="cls-2" d="M38.61,3.15l-.18-.06A13.26,13.26,0,0,1,35.64,1c-1.6,8.41-4.3,36.44-4.5,40C31,44.41,36.76,13.57,38.61,3.15Z"/><path class="cls-2" d="M29.48.85A6.32,6.32,0,0,1,28,1.06a7.26,7.26,0,0,1-1.8-.29c-.22,8.89,1.43,36.36,1.78,39.89S29.34,9.71,29.48.85Z"/><path class="cls-3" d="M13.69,44.14C15,46.5,14,46,12.18,47.48c3.36,2.9,8.47,3.13,15.46,3.18,6.62,0,11.16-2.32,14.1-5-.94-.9-1.55-1.52-1.24-2.44-2.71,4-5.86,7.48-12.86,7.43-7.29,0-11.6-1.79-13.86-6.41Z"/><path class="cls-4" d="M27.34,52.13A11.64,11.64,0,1,0,15.7,40.5,11.65,11.65,0,0,0,27.34,52.13Z"/><path class="cls-5" d="M26.84,50.08A10.41,10.41,0,1,0,16.43,39.67,10.43,10.43,0,0,0,26.84,50.08Z"/><path class="cls-1" d="M54.67,43.46H0c3.35,9.25,14.32,16,27.34,16S51.32,52.71,54.67,43.46Z"/><path class="cls-2" d="M49.08,43.46H5.59a22.51,22.51,0,0,0,21.75,16A22.51,22.51,0,0,0,49.08,43.46Z"/><path class="cls-1" d="M45.53,43.46H9.14c2.23,9.25,9.53,16,18.2,16S43.3,52.71,45.53,43.46Z"/><path class="cls-2" d="M41,43.46H13.63c1.68,9.25,7.18,16,13.71,16S39.36,52.71,41,43.46Z"/><path class="cls-1" d="M36.55,43.46H18.12c1.13,9.25,4.83,16,9.22,16S35.42,52.71,36.55,43.46Z"/><path class="cls-2" d="M30.37,43.46H24.3c.37,9.25,1.59,16,3,16S30,52.71,30.37,43.46Z"/><path class="cls-6" d="M24,33.75a1.58,1.58,0,1,0-1.58-1.58A1.58,1.58,0,0,0,24,33.75Z"/><path class="cls-6" d="M20.93,38.93a2.46,2.46,0,1,0-2.45-2.46A2.46,2.46,0,0,0,20.93,38.93Z"/></g></g></svg>