<svg xmlns="http://www.w3.org/2000/svg" viewBox="0 0 1923 150"><defs><style>.cls-1{fill:#4c4c4c;}</style></defs><g id="Layer_2" data-name="Layer 2"><g id="Layer_1-2" data-name="Layer 1"><path class="cls-1" d="M1921.42,9.05c-2.42-2.76-7.92-2.67-12.71-1.73-3.59.71-3.9,2-8.62,1.67-5-.4-4.15-2.21-5.44-3.74-3.51-4.34-12.28-8.45-18.26-1.59-3.61,4.16,7.15,9.15-4.19,12.3-4.62,1.28-19.32,1.91-24.25,1-6.07-1.1-4.37-4-9.42-5.39-4.68-1.31-17.79,1.61-20.52,3.4-4,2.6-3,6-10.51,8.27-13.72,4.22-34-1.49-48.73,1.25-11,2-19,6.24-23.48,10.64-3.21,3.16-5.08,6-12.27,8.16-21.18,6.23-45.75-.37-66.53,3.85a41.62,41.62,0,0,1-19-.43c-5.14-1.17-13.08-4-19.49-3.08-7.2,1.07-5.63,4.29-14.65,4.85-13.46.83-31.65.83-27.38-6.09,1.29-2.09,3.53-3.42-2.73-4.73-6.44-1.35-8.76,1.14-14.43,1.2-4.2.05-4.64-1.7-9.38-1-3.37.51-4.36,2.48-5.71,3.59-2.67,2.17-4,4.75-11.27,4.52-9-.27-15.55-6.8-25.79-4.65-11.58,2.45,13.4,7.73-.3,10.72-9.09,2-19.08-.73-23.23-3.4-6.45-4.16-11.12-10.41-25.08-10.79-12.37-.34-6.11,3.26-11.33,6.19-4.58,2.56-14.39,3.61-19.53,5.84-3.29,1.42-5,3.1-7.17,4.81-2.93,2.23-11.27,6.75-18.12,7.35-7.32.62-10.41-3.65-22.11-2.37-16.25,1.77-21.37,8.31-38.37,3.15s-42-2.47-61.7-.67c.44,3.29-4.46,7.4-8.31,10.27-9.5,7.12-37.16,6.91-54.43,5.12-8.75-.9-20.16-4.36-29.57-3.18s-10.25,4.41-22.68,3.49c-13.56-1-16.64-.64-29.87,2.08-12.89,2.65-24.28.9-36.55-.27a71,71,0,0,0-33.54,4.36c-7.63,2.79-13.59,5.5-24.34,5.24-11-.26-35.1.06-34.92,6.41-7.4.79-5.51-3.76-14.13-2.46-10.92,1.64-18.16,6.06-30.72,7-6.26.46-6.56-.19-11.44-.88-11.23-1.61-18.09-3.16-22.16-7.27a25.48,25.48,0,0,0-6.65-5.47c-9.64-5-30.42-9.51-45.48-6.57-4.78.94-4.8,2.5-11.16,1.5-4.28-.67-4.79-2.93-10.81-2.41,1,2.19-1,3.39-1,5.53-13.09,1.13-9.15-11-17.68-13a20.71,20.71,0,0,0-7.21-.79c-3.74.12-5.26,1.34-7.81,1.53-5.17.38-9.09-1.23-14.1-.59-15.49,2-2.78,10.81-24.79,6-25.26-5.48-57.33,2.48-72.93,10.78-7.17,3.81-12.51,9.16-21.9,12.13-8.39,2.66-22.87,3.64-32.83,5.05-9.33,1.3-18.9.63-28.53.95-33.68,1.11-46-10.65-68.91-18.65l-16.06,3.23c-7.82,1.56-11.22,1.46-21.35,1.7-14.42.35-28.59,1.08-43.37.46-18.13-.76-37.18-4.73-48.8-10.18-4.27-2-10-5.34-17.33-5.5-12.29-.27-2.81,2.62-1.37,5,4.63,7.4-17.83,8.85-27.84,4-6-2.92-1.31-6.15-9-9.15-7.13-2.78-18.15-4.08-26.8-2-.06,7-22.14,9.76-32.23,4.61-2.08-1.07-3.9-2.25-6-3.32-1.94-1-6.19-3.84-9.37-4-2.17-.08-3.1,1.28-4.07,1.29-9.51.19-4.92-1.65-11.12-3.05-8.69-2-4.34,2.23-6,3.1-4.71,2.46-12.68-1-16.5-2.21-3.3-1.07-4.33-1.63-8.66-1.92-8.52-.55-5.87,1.3-12.91,2.15-8.3,1-7-2.4-10.44-4.4-10.56,2.76-18.59,6.07-32.51,6.88-7,.41-18.35.92-24.26-1-3.26-1-4.11-2.93-6.9-4-9.1-3.51-13.93,1.61-23.9-.26-4.82-.91-6.19-2.79-8.31-4.78-3.65-3.43-9.46-9.45-17.2-11.68-6.84-2-11.59.55-17.43-3.14-14.75-9.32-18.28,3.84-35.49.6-2.48-.47-3.82-2.2-5.94-2.5-1.93-.28-3.95.28-5.5.2C44,48,39.86,48.07,36,47.66c-10.64-1.11-6.08-2.89-14.12-5.34-8.27-2.51-9,6.34-21.88,5.38V150H1923Z"/></g></g></svg>