<svg xmlns="http://www.w3.org/2000/svg" viewBox="0 0 184.95 102.54"><defs><style>.cls-1{fill:#f68c38;}.cls-1,.cls-2,.cls-3,.cls-4{fill-rule:evenodd;}.cls-2{fill:#1e1f20;}.cls-3{fill:#f7a25d;}.cls-4{fill:#fff;}</style></defs><g id="Layer_2" data-name="Layer 2"><g id="Layer_1-2" data-name="Layer 1"><path class="cls-1" d="M118.31,66.37c3.6.91,22.76,8.28,11.73,16.78-3.37,2.6-22.15,3.16-29.69-1.18C98.6,81,116.6,65.94,118.31,66.37Z"/><path class="cls-2" d="M124.76,68.91c6.11,3,12.9,8.37,5.28,14.24-2,1.55-9.45,2.37-16.74,1.87,5.53-.26,10.11-1.13,11.75-2.39C131.76,77.45,129.4,72.62,124.76,68.91Z"/><path class="cls-1" d="M31.15,27.22c.58-7.44,2.21-18,9.68-25.59C47-4.62,76.77,8.55,71.3,16.55,64.39,26.66,29.82,44.32,31.15,27.22Z"/><path class="cls-1" d="M62.69,82.07c2.42,2.8,13.86,19.85,0,20.47-4.25.18-19.94-10.16-23.61-18C38.17,82.67,61.53,80.72,62.69,82.07Z"/><path class="cls-2" d="M66.51,87.85c3.25,6,5.74,14.26-3.87,14.69-2.53.11-9.09-3.5-14.77-8.1,4.67,3,8.92,4.88,11,4.79C67.32,98.86,68.18,93.55,66.51,87.85Z"/><path class="cls-1" d="M114.2,44.89c3.59-.92,22.7-8.44,11.61-16.86-3.39-2.57-22.17-3-29.68,1.39C94.39,30.44,112.48,45.34,114.2,44.89Z"/><path class="cls-2" d="M123.46,40.71c5-3.16,8.82-7.77,2.35-12.68-2.45-1.86-12.94-2.6-21.4-1.2,8-.51,16,.37,18.23,2.06C128.38,33.24,127,37.39,123.46,40.71Z"/><path class="cls-3" d="M0,53.87C0,41.94,26.42,20,59.55,18.69c39.71-1.62,77.15,28.86,89,28.65,5.17-.09,10.86-3.76,21-9.85C178.23,32.24,184.74,41,185,53.7c.25,15.84-9.9,21.09-15.41,16.7a30.31,30.31,0,0,0-20-6.34C128.9,65.55,102.8,90.72,59.84,89.57,26.78,88.69,0,65.82,0,53.87Z"/><path class="cls-2" d="M17.69,38.32a2.64,2.64,0,1,0,2.42,2.86A2.66,2.66,0,0,0,17.69,38.32Z"/><path class="cls-4" d="M38.89,22.24A45.3,45.3,0,0,1,49.74,51.41C49.74,64.26,44.15,76,35,84.75A81.25,81.25,0,0,1,17.72,76c7.85-6,12.82-14.76,12.82-24.59a30.25,30.25,0,0,0-9.27-21.53A84.05,84.05,0,0,1,38.89,22.24Z"/><path class="cls-4" d="M102.67,27.35c-5.18,15-7.69,39.15-5.45,56.58a118.43,118.43,0,0,1-18.13,4.4c-3.9-12.67-9.2-24.61-8.29-34.85,1.11-12.43,9.07-17.16,18.88-30.63C94.15,24.16,98.49,25.69,102.67,27.35Z"/><path class="cls-4" d="M134.6,42.41c6.1,3,10.9,5,14,4.93a15.05,15.05,0,0,0,4.67-.93,28.93,28.93,0,0,0,.81,17.74,26.51,26.51,0,0,0-4.53-.09,49.2,49.2,0,0,0-14.27,3.79,43.87,43.87,0,0,1-.66-25.44Z"/><path class="cls-2" d="M38.47,4.37a27.39,27.39,0,0,1,2.36-2.74C47-4.62,76.77,8.55,71.3,16.55A18.83,18.83,0,0,1,69,19.2l.06-.09c5.47-8-24.29-21.17-30.47-14.91Z"/><path class="cls-2" d="M172.42,36.43c7.22-1.93,12.35,6.25,12.53,17.48.22,13.85-7.52,19.6-13.15,17.89,4.69-1.33,9.26-7.19,9.09-17.89C180.75,44.93,177.43,37.9,172.42,36.43Z"/><path class="cls-1" d="M71,74.6c0-11.3-25.7-4.71-25.87,0S71,85.9,71,74.6Z"/><path class="cls-2" d="M71,74.6c0-5.23-5.52-6.63-11.45-6.15,4.17.39,7.39,2.15,7.39,6.15s-3.27,5.76-7.49,6.15C65.4,81.23,71,79.83,71,74.6Z"/></g></g></svg>