<svg xmlns="http://www.w3.org/2000/svg" viewBox="0 0 164.04 136.56"><defs><style>.cls-1{fill:#a8b8b7;}.cls-2{fill:#11476a;}.cls-3{fill:#ef8885;}.cls-4{fill:#e19797;}</style></defs><g id="Layer_2" data-name="Layer 2"><g id="Layer_1-2" data-name="Layer 1"><path class="cls-1" d="M39.29,17.79c5.18-3,9.42-7.22,14.12-10.83,1.32-1,2.62-2,3.92-3.06,1.73-1.34,2.8-1,2.82,1.27,0,2.64.19,5.28-.61,7.91-3,9.89-7.69,18.69-15.69,25.47-5.86,5-13.17,5.84-20.35,7.06-.73.13-1.62-.28-2.46,1.09C32.17,50,37.86,58.26,40.72,69.6c5.31-6.59,10.13-12.74,18-15,4.54,2.43,5.54,2,6.58-2.91L69.84,50c-1.94-3.12-5-4.52-7.55-6.39-1.45-1.06-3-2.4-1.56-4,1.68-1.93,3.28.08,3.92,1.3,4.4,8.35,11.62,9.78,20.08,8.77,1.93-.22,4,.33,5.93.53,1.53,3.76,4,3,6.64,1.36,9.73,2.31,17.52,7.6,24.26,16.64,2.21-12.82,8.57-21.19,20.69-24.74-2.92-1.3-6.05-1-9-1.47-14.35-2.45-22.55-11.75-28-24.3a33.57,33.57,0,0,1-3.25-14.46c.1-3.5,1.24-3.79,3.7-1.75q9.19,7.59,18.38,15.22c1.25,1.83,2.54,3.61,5,4l.67.62c.08-.15.17-.3.26-.45l-.91-.2c-.33-2.44-2.12-3.7-4-4.94q-5.23-6-10.45-12c-.74-.85-2-1.74-1.27-3,.82-1.43,2.13-.34,3.11,0,10.94,3.65,19.84,10,25.54,20.19,4,7.11,7.59,14.44,9.16,22.55,2,10.3-2.41,18.9-12,23.11-4,1.74-8,3.29-12.48,3.11-1.57-.06-3.7-.36-3.55,2.24s1.52,4,4.26,3.65c5.42-.73,10.8-1.67,16.26-2.2a53.88,53.88,0,0,1,11.85.24c5.5.66,8.87,4.82,8.35,10.39-.26,2.78-1.92,3.55-3.39,1.41-5.82-8.48-13-8.91-21.78-5.1-3,1.32-6.87.83-10.33,1.26-1.62.2-4.28-.75-4.09,2.16.18,2.7,2.77,1.66,4.41,1.89,6.89,1,13.85,1.61,20.44,4.19,8.09,3.18,9.7,6.9,6.06,15.46-3.44-2.87-5.3-6.73-7.47-10.31-1.25-2.06-2.24-3-5-2.54a45.58,45.58,0,0,1-17.82-1c-3.33-.79-5.55.15-6.1,3.12-.63,3.42,3,2.42,4.6,2.91,7.17,2.19,14.34,4.31,21,7.92,5.61,3.07,7.11,8.48,4.23,14-1.23,2.35-2.7,2.29-3.16,0-2-10.36-9.05-13.59-18.54-14.38-3.53-.3-7-2.12-10.38-3.37-1.64-.6-3.15-1.08-4.68.15s-3.9,2.27-4,4.2c-.08,2.23,2.75,1.93,4.27,2.62,5,2.28,10.12,4.24,15.19,6.34,4.69,1.94,6.15,5.18,4.75,10.5-1.1,4.19-5.7,7.59-9.59,7.25-2.49-.21-2.24-1.24-1.23-2.89,1.66-2.69,3.23-5.44,4.75-8.2.65-1.16,1.47-2.62-.86-2.88-6.43-.69-11.91-4-17.72-6.37-4.32-1.76-8.18-2.34-12.76.26-7.43,4.22-15.45,6.46-23.55,1.07-1.87-1.25-3.45-.25-5.1.59-7.09,3.65-14,7.62-22.42,7.53-2.55,0-2.69,1.35-1.49,3.26,1.78,2.81,3.52,5.64,5.25,8.48,1.33,2.19.41,3-1.87,3.07-3.54,0-8.35-4.1-9.14-7.89-1.07-5,.46-8.07,5-10l20.64-8.62c-3.17-3.73-6-5.56-10.8-3.12-6.53,3.34-13.49,5.72-21,5.63-2.59,0-3.46,1.54-4.27,3.43-1.3,3.06-2.56,6.14-3.91,9.18-.32.7-.87,1.69-1.46,1.81-1.3.26-1.36-1.12-1.78-2-3.26-6.37-2.23-9.77,4.33-13.4,7-3.89,14.77-6,22.07-9.15,1.4-.62,4.5-.37,3.53-3.08-.91-2.55-3.07-4.42-6.28-3.69C37.34,96.92,32,99.22,26.9,98.41c-8.77-1.38-14,1.88-17.06,9.73a13.91,13.91,0,0,1-2,2.84C3.09,105.36,4.57,99.54,11,96.48c8.15-3.88,17.08-4,25.66-5.77,1.68-.35,4.22.32,4.07-2.41-.14-2.42-1.88-3.73-4.51-3.6a50.72,50.72,0,0,1-21.5-3.42c-1.89-.76-3.27,0-4.54,1.13-1.76,1.53-3.28,3.33-5.09,4.79C3.79,88.26,2.85,90.85.85,89.79-.58,89,.23,86.72.23,85.11.21,81,2.62,78.8,6.3,77.63c7-2.21,13.86-.24,20.77.22a66.29,66.29,0,0,1,8.86,1.25c2.1.43,3.24,0,3.28-2.27,0-2,.33-4.22-2.74-4.21-3.56,0-6.88-1.1-10.22-2.1C11.25,66,9.42,56.79,11.72,44.22c2-11.09,7.64-21,15.1-29.43C32.78,8,41.13,5,50.32,1.62c-3.18,6.57-9.06,10-11.26,15.9l-1.14.59c.09.12.24.35.27.33C38.57,18.24,38.93,18,39.29,17.79Zm-3.16,2.8-.35.47.5-.33.36-.3-.22-.22Zm48,45H67.1l.07,1.48c4.13.76,7.92,2.71,12.4,2.52,3.12-.12,5.47-2.43,8.53-2.08,4.08.16,7.23-3,12.23-2.06C95.32,60.23,89.19,60.71,84.16,65.63Z"/><path class="cls-2" d="M65.34,51.67c-1,4.9-2,5.34-6.58,2.91-.64-2.12-.31-3.9,1.75-5.1C63.14,48,63.65,51.11,65.34,51.67Z"/><path class="cls-2" d="M97.3,51.58c-2.65,1.68-5.11,2.4-6.64-1.36v-.13c1.74-.25,1.88-1.18,1-2.51.88-2.08,2.49-1.91,4.07-1.13C98,47.56,97.68,49.6,97.3,51.58Z"/><path class="cls-1" d="M83.78,46.16c2.88-2.5,5-4.47,7.28-6.28,1-.82,2.42-1.44,3.45.09s.11,2.5-1.27,3.06C90.49,44.16,88.14,46.46,83.78,46.16Z"/><path class="cls-1" d="M91.71,47.58c.83,1.33.69,2.26-1,2.51A1.7,1.7,0,0,1,91.71,47.58Z"/><path class="cls-3" d="M88.1,67.55c-3.06-.35-5.41,2-8.53,2.08-4.48.19-8.27-1.76-12.4-2.52l-.07-1.48H84.16C85.67,65.87,87.65,65.13,88.1,67.55Z"/><path class="cls-4" d="M88.1,67.55c-.45-2.42-2.43-1.68-3.94-1.92,5-4.92,11.16-5.4,16.17-.14C95.33,64.53,92.18,67.71,88.1,67.55Z"/></g></g></svg>