<svg xmlns="http://www.w3.org/2000/svg" viewBox="0 0 57.75 54.94"><defs><style>.cls-1{fill:#f6ed70;}.cls-2,.cls-3,.cls-4,.cls-5{opacity:0.8;}.cls-3{fill:#fff;}.cls-4{fill:#f8b62d;}.cls-5{fill:#141414;}</style></defs><g id="Layer_2" data-name="Layer 2"><g id="Layer_1-2" data-name="Layer 1"><path class="cls-1" d="M2.85,24c.21-.1.37-.24.58-.35a12.47,12.47,0,0,0,1.83-1.15A18.74,18.74,0,0,0,7,21a3.61,3.61,0,0,1,.09-1.7c0-.08.09-.15.13-.24s-.06-.07-.06-.14a4.6,4.6,0,0,1,1.68-2.62c.86-.75,1.54-.93,1.68-.49a2.13,2.13,0,0,0,.27-.07,3.55,3.55,0,0,1,.46,0,.56.56,0,0,1,.26.12c1.15-1.38,2.29-2.77,3.41-4.15a.09.09,0,0,1,.13,0,15.7,15.7,0,0,1,1.29-1.29l.41-.35V36.87L0,25A12.71,12.71,0,0,0,2.85,24Z"/><path class="cls-2" d="M11,19.8a1.05,1.05,0,1,0,1-1A1,1,0,0,0,11,19.8Z"/><path class="cls-1" d="M40.72,33c.28-.49,1.59-1,2.83-1.53,0,.49,0,1,0,1.39a16.12,16.12,0,0,0,.69,4.42A9,9,0,0,0,46.65,41a13.41,13.41,0,0,0,2.28,1.73,15.38,15.38,0,0,0,1.42.82,8.84,8.84,0,0,1,1,.58,5.94,5.94,0,0,1,2,3.61c0,.09-.1.1-.12,0-.08-.25-.14-.52-.23-.78,0,0-.09,0-.1,0a4.83,4.83,0,0,0-3.17-3.26c-1.76-.76-3.58-1.16-5.26-2.09a12.78,12.78,0,0,1-3.82-3.5,8.58,8.58,0,0,1-1.45-4.43A3.19,3.19,0,0,0,40.72,33Z"/><path class="cls-3" d="M45.89,30l0,0a.14.14,0,0,0,0-.06Z"/><path class="cls-4" d="M40.11,30.68c0-.37,2-.79,2-1.21a4.15,4.15,0,0,0,1.33.2,18.52,18.52,0,0,1,2.42.28c-.08.51-1.16,1-2.32,1.5S41,32.49,40.72,33a3.19,3.19,0,0,1-1.48.65c0-.14,0-.29-.05-.43C39.1,32.36,40,31.52,40.11,30.68Z"/><path class="cls-5" d="M19.8,7.88V38.63c-.42-.15-.87-.35-1.21-.47l-1.82-1.29V10.05A25.24,25.24,0,0,1,19.8,7.88Z"/><path class="cls-1" d="M25.89,5a25.7,25.7,0,0,1,5.46-1.44,36.59,36.59,0,0,1,5.92-.3A39.51,39.51,0,0,1,43.52,4,31.09,31.09,0,0,0,50,4.85C52.88,4.84,56.45,4,57.5,1a5.23,5.23,0,0,0-.11-.95c0-.09.11-.1.14,0a5,5,0,0,1,.15.75.11.11,0,0,1,.07.13s0,.08,0,.12a5.06,5.06,0,0,1-1.26,3.73A8.88,8.88,0,0,1,53,7s0,0,0,0A13,13,0,0,1,45.23,9.5C41,9.39,37.19,7.23,33,6.78a19.7,19.7,0,0,0-6.31.34c-.5.1-1,.23-1.55.37l-.43.12a9.54,9.54,0,0,0-1.55.64,6.87,6.87,0,0,0-.81.51,13.47,13.47,0,0,1,8.2-1.34C34,7.79,37.22,9,40.57,9.8a13.46,13.46,0,0,0,1.67-.25c.1,0,.12.13,0,.16a12.17,12.17,0,0,1-4.92.21c-1.72-.27-3.39-.8-5.09-1.18a16.61,16.61,0,0,0-8.43.06,11.24,11.24,0,0,1,1.43,0c.65,0,1.3.11,1.95.18L24.51,40.31l-.18-.05a16.49,16.49,0,0,1-3.78-1.35s-.17-.1-.22-.12l-.53-.16V7.88A34.37,34.37,0,0,1,25.89,5Z"/><path class="cls-5" d="M28.84,9.22s-.06-.05-.09-.05a6.67,6.67,0,0,1,.8.14c.29.06.58.14.87.22L27.63,41.3a27.6,27.6,0,0,0-3.12-1L27.2,9C27.75,9.06,28.3,9.14,28.84,9.22Z"/><path class="cls-1" d="M35.12,11.43c1.22.62,2.68,1.23,3.35,2.5a3.81,3.81,0,0,1,.37,1.6c0,.17,0,.33,0,.51,0,0,0,0,0,.05-.06,1-.34,2.09-.49,3.06s-.21,1.82-.28,2.73a7.1,7.1,0,0,0,.28,2.67,17.5,17.5,0,0,1,2.46-6,12.19,12.19,0,0,1,3.67-3.33,20.18,20.18,0,0,1,4.59-1.86c1.59-.49,3.25-.79,4.81-1.36a4.89,4.89,0,0,0,1.68-.87,4.6,4.6,0,0,0,1.13-1.71c0-.05,0,.18.06.18.05-.21.07-.17.09-.17h.08c.07,5.66-.9,2.65-2.26,3.61a11.15,11.15,0,0,1-2.28.78c-.43.18-.86.33-1.29.48a2.65,2.65,0,0,0-1.23.72s-.07,0-.1,0a7.62,7.62,0,0,0-1,1.25c-.7,1.14-1.4,2.31-2.15,3.42A14.47,14.47,0,0,1,41,25c1.75.85,2.27,2.75,2.45,4.68a4.15,4.15,0,0,1-1.33-.2c0,.42-2,.84-2,1.21-.07.84-1,1.68-.92,2.52,0,.14,0,.29.05.43-1.43.4-3.39.79-3.7,1.17,0,0,0,0,0,0-.26.3-.49.6-.78.89s-.79.56-.79.82v0c0,1-2.52,1.75-3.93,2.14a7.71,7.71,0,0,1,3.72,2.13c1.28,1.12,2.45,2.36,3.72,3.5a15.55,15.55,0,0,0,4.2,2.84,7,7,0,0,0,3.68.67,5.88,5.88,0,0,0,1.87-.44,3.12,3.12,0,0,1-1.1.5,7.46,7.46,0,0,1-5.3-.33l0,0-.17-.07c-.52-.23-1-.47-1.54-.75l-.31-.18c-.51-.3-1-.6-1.46-.92-2.22-1.55-4.28-3.4-6.72-4.62-.75-.24-1.52-.39-2.29-.57-.12,0-.25-.05-.36-.09l.9.42a19.2,19.2,0,0,1,4.92,3.05,16.32,16.32,0,0,1,3,4,25.81,25.81,0,0,0,2.92,4.42,10.25,10.25,0,0,0,3,2.33h0a4.25,4.25,0,0,0,.64.32l-.76-.14a8.38,8.38,0,0,1-2.4-1.07,13,13,0,0,1-2.05-1.94,22.9,22.9,0,0,1-1.82-2.34,22.17,22.17,0,0,0-7-7.27,13,13,0,0,0-1.85-.88L30.42,9.53A24.87,24.87,0,0,1,35.12,11.43Z"/></g></g></svg>