<svg xmlns="http://www.w3.org/2000/svg" viewBox="0 0 54.91 54.94"><defs><style>.cls-1{fill:#f6ed70;}.cls-2,.cls-3,.cls-4,.cls-5{opacity:0.8;}.cls-3{fill:#fff;}.cls-4{fill:#f8b62d;}.cls-5{fill:#141414;}</style></defs><g id="Layer_2" data-name="Layer 2"><g id="Layer_1-2" data-name="Layer 1"><path class="cls-1" d="M52.2,24c-.19-.1-.35-.24-.55-.35a11.64,11.64,0,0,1-1.74-1.15A19.18,19.18,0,0,1,48.23,21a3.61,3.61,0,0,0-.08-1.7c0-.08-.09-.15-.12-.24s.06-.07.06-.14a4.72,4.72,0,0,0-1.6-2.62c-.82-.75-1.47-.93-1.6-.49a1.49,1.49,0,0,1-.25-.07,3.15,3.15,0,0,0-.44,0,.53.53,0,0,0-.25.12c-1.1-1.38-2.18-2.77-3.24-4.15-.05,0-.09,0-.12,0Q40,11,39.36,10.4l-.4-.35V36.87L54.91,25A11.74,11.74,0,0,1,52.2,24Z"/><circle class="cls-2" cx="43.46" cy="19.8" r="1"/><path class="cls-1" d="M16.2,33c-.27-.49-1.52-1-2.69-1.53,0,.49,0,1,0,1.39a16.88,16.88,0,0,1-.66,4.42A9.07,9.07,0,0,1,10.56,41a13,13,0,0,1-2.17,1.73A14.27,14.27,0,0,1,7,43.5a8.18,8.18,0,0,0-.94.58,6.06,6.06,0,0,0-1.95,3.61c0,.09.09.1.12,0,.07-.25.13-.52.22-.78,0,0,.07,0,.09,0a4.71,4.71,0,0,1,3-3.26,52.19,52.19,0,0,0,5-2.09,12.35,12.35,0,0,0,3.63-3.5,8.79,8.79,0,0,0,1.38-4.43A2.93,2.93,0,0,1,16.2,33Z"/><path class="cls-3" d="M11.28,30l0,0a.14.14,0,0,1,0-.06Z"/><path class="cls-4" d="M16.78,30.68c0-.37-1.94-.79-1.92-1.21a3.68,3.68,0,0,1-1.26.2,16.85,16.85,0,0,0-2.3.28c.08.51,1.1,1,2.21,1.5s2.42,1,2.69,1.53a2.93,2.93,0,0,0,1.4.65c0-.14,0-.29,0-.43C17.74,32.36,16.84,31.52,16.78,30.68Z"/><path class="cls-5" d="M36.09,7.88V38.63c.39-.15.82-.35,1.15-.47L39,36.87V10.05A24.27,24.27,0,0,0,36.09,7.88Z"/><path class="cls-1" d="M30.3,5a23.62,23.62,0,0,0-5.2-1.44,33,33,0,0,0-5.62-.3A35.61,35.61,0,0,0,13.54,4a28.32,28.32,0,0,1-6.13.87C4.64,4.84,1.24,4,.24,1A5.23,5.23,0,0,1,.35.08a.07.07,0,0,0-.13,0A4,4,0,0,0,.07.8.09.09,0,0,0,0,.93a.56.56,0,0,0,0,.12A5.22,5.22,0,0,0,1.24,4.78,8.35,8.35,0,0,0,4.52,7s0,0,0,0A12,12,0,0,0,11.9,9.5C16,9.39,19.56,7.23,23.55,6.78a17.8,17.8,0,0,1,6,.34c.48.1,1,.23,1.48.37l.41.12a8.72,8.72,0,0,1,1.47.64,5.71,5.71,0,0,1,.77.51,12.26,12.26,0,0,0-7.8-1.34C22.6,7.79,19.53,9,16.34,9.8a12,12,0,0,1-1.59-.25c-.1,0-.11.13,0,.16a11,11,0,0,0,4.68.21c1.64-.27,3.22-.8,4.83-1.18a15.09,15.09,0,0,1,8,.06,10.34,10.34,0,0,0-1.37,0c-.62,0-1.23.11-1.85.18l2.56,31.31.17-.05a15.42,15.42,0,0,0,3.6-1.35s.16-.1.2-.12.33-.1.51-.16V7.88A32.35,32.35,0,0,0,30.3,5Z"/><path class="cls-5" d="M27.49,9.22s.06-.05.09-.05a6.53,6.53,0,0,0-.77.14c-.27.06-.55.14-.82.22L28.64,41.3a25.22,25.22,0,0,1,3-1L29.05,9C28.53,9.06,28,9.14,27.49,9.22Z"/><path class="cls-1" d="M21.52,11.43c-1.16.62-2.55,1.23-3.18,2.5A3.21,3.21,0,0,0,18,15.09a3.25,3.25,0,0,0,0,.44c0,.17,0,.33,0,.51,0,0,0,0,0,.05.06,1,.33,2.09.46,3.06s.21,1.82.27,2.73a7.52,7.52,0,0,1-.26,2.67,17.88,17.88,0,0,0-2.34-6,11.91,11.91,0,0,0-3.49-3.33A18.66,18.66,0,0,0,8.28,13.4C6.76,12.91,5.19,12.61,3.7,12a4.71,4.71,0,0,1-1.6-.87A4.71,4.71,0,0,1,1,9.46c0-.05,0,.18-.06.18,0-.21-.06-.17-.08-.17H.81c-.06,5.66.86,2.65,2.15,3.61.68.5,1.42.44,2.17.78.41.18.82.33,1.22.48a2.46,2.46,0,0,1,1.17.72s.07,0,.1,0a7.38,7.38,0,0,1,.93,1.25c.67,1.14,1.33,2.31,2,3.42A14.11,14.11,0,0,0,15.93,25c-1.66.85-2.16,2.75-2.33,4.68a3.68,3.68,0,0,0,1.26-.2c0,.42,1.89.84,1.92,1.21.06.84,1,1.68.87,2.52,0,.14,0,.29,0,.43,1.36.4,3.23.79,3.53,1.17,0,0,0,0,0,0,.25.3.47.6.75.89s.75.56.75.82v0c0,1,2.39,1.75,3.73,2.14a7.2,7.2,0,0,0-3.53,2.13c-1.23,1.12-2.34,2.36-3.54,3.5a14.72,14.72,0,0,1-4,2.84,6.35,6.35,0,0,1-3.49.67A5.35,5.35,0,0,1,10,47.37a2.83,2.83,0,0,0,1.05.5,6.78,6.78,0,0,0,5-.33l-.05,0,.15-.07c.5-.23,1-.47,1.47-.75.1-.06.2-.13.3-.18.48-.3.94-.6,1.38-.92,2.12-1.55,4.07-3.4,6.39-4.62.72-.24,1.45-.39,2.18-.57a3.37,3.37,0,0,0,.34-.09l-.85.42a18.22,18.22,0,0,0-4.68,3.05,16.25,16.25,0,0,0-2.89,4,26.28,26.28,0,0,1-2.78,4.42,9.91,9.91,0,0,1-2.86,2.33h0a4,4,0,0,1-.61.32l.73-.14a7.93,7.93,0,0,0,2.28-1.07,12.27,12.27,0,0,0,1.94-1.94,20.78,20.78,0,0,0,1.73-2.34c1.76-2.79,3.83-5.54,6.65-7.27a12.57,12.57,0,0,1,1.76-.88L26,9.53A23.09,23.09,0,0,0,21.52,11.43Z"/></g></g></svg>