<svg xmlns="http://www.w3.org/2000/svg" xmlns:xlink="http://www.w3.org/1999/xlink" viewBox="0 0 163.64 76.14"><defs><style>.cls-1{fill:#fff;}.cls-2{fill:url(#linear-gradient);}.cls-3{fill:#ff9906;}.cls-4{fill:#020100;}.cls-5{fill:url(#linear-gradient-2);}.cls-6{fill:url(#linear-gradient-3);}.cls-7{fill:#fc8f00;}.cls-8{fill:none;stroke:#b25d00;stroke-miterlimit:10;}</style><linearGradient id="linear-gradient" x1="94.58" y1="15.2" x2="94.58" y2="64.56" gradientUnits="userSpaceOnUse"><stop offset="0" stop-color="#ffc56a"/><stop offset="1" stop-color="#fff"/></linearGradient><linearGradient id="linear-gradient-2" x1="77.92" y1="14.75" x2="77.92" y2="15.35" xlink:href="#linear-gradient"/><linearGradient id="linear-gradient-3" x1="120.02" y1="54.77" x2="94.55" y2="54.77" gradientUnits="userSpaceOnUse"><stop offset="0" stop-color="#ffc56a"/><stop offset="0.41" stop-color="#fff"/></linearGradient></defs><g id="Layer_2" data-name="Layer 2"><g id="잉어"><path class="cls-1" d="M1.33,37.15c-.9,1.91-1.83,4.66-1,6.79A19.35,19.35,0,0,0,1.92,48a5.3,5.3,0,0,0,4.87,2.69c4.38-.19,13.84-1.22,20-6.3C24.49,37.15,28.59,29,28.59,29s-9.78-7.94-20.13-8.14c-.23,0-.46,0-.68-.06-.88-.13-3.53-.37-4.86,1.33a8.52,8.52,0,0,1-.77.92c-1,1.06-3.41,4.27-.84,9.62A5.21,5.21,0,0,1,1.33,37.15Z"/><path class="cls-2" d="M77.82,63.29c2.46.28,6.45.68,11.48.95A184.09,184.09,0,0,0,124.86,63,94.17,94.17,0,0,0,160,50.11a6.49,6.49,0,0,0,2.46-8.29c-2.86-6.09-8.89-15.81-19.63-20.23,0,0-1.77,10.35-9.07,7.18s-5.94-.9-8.67.46-5.93-9.06-8.22-7.7c-.56.33-1.17-.1-1.78-1-1.1.66-3,.56-6-2.22,0,0-1.83-3.84-5.7-3a10.16,10.16,0,0,1-2.06,5.31,13.66,13.66,0,0,0-.87,1.51c2.41,0,4.52.61,3.61,2.57,0,0,5.16,3.36,3.2,6,1.4.84,2.43,2,1.36,3.5-2.28,3.17-5.93,2.27-8.67,2.27a6.83,6.83,0,0,1-3.13-1.36c-.43.77-.88,1.42-1.88,1.36-1.8-.11-7.09-1.84-10-.82a5.36,5.36,0,0,1-1,.26c-1.71.26-4.63-2.81-1.79-4.87l.38-.28a5.09,5.09,0,0,0-2.92-1.62,1.65,1.65,0,0,1-1.34-.72,4.65,4.65,0,0,1-.06-5,7.1,7.1,0,0,0-4.83-1.09,2,2,0,0,1-.74,0c-1.2-.26-4.64-1.21-2.35-3.09a27.14,27.14,0,0,1,4.33-2.8c-2.68,1.23-6.87,3.06-11.83,5,0,0,3.83,6.27-3.26,12.78a25.23,25.23,0,0,1,5.72.11,10.1,10.1,0,0,0,1.89.19c2.67,0,9.11.23,6.41,2.77,0,0,4,2.53-3.9,2.16,0,0-.43,1-2.52,1.43a9.94,9.94,0,0,1-6-.68,19.55,19.55,0,0,0-7.34-1.87,6.28,6.28,0,0,1-1.06-.14c-1.42-.33-5-1.28-4.1-2.09a24,24,0,0,0-3.94.39s-8.75.3-9.39-7.1l-.07-.62a44.42,44.42,0,0,1-6.74.25s-4.1,8.15-1.82,15.39c0,0,9.22,5.21,20.2,10.11a130.24,130.24,0,0,0,19,7A37.69,37.69,0,0,0,75.13,63S76.09,63.09,77.82,63.29ZM96.32,62c-4.48-4.62.85-11,1.85-12.85.36-.66,3.82-2.12,4.56-2.26,5-.9,10.32,4.56,15.33,5.64A2.49,2.49,0,0,1,120,55.28l-.11.8a2.48,2.48,0,0,1-1.59,2c-6.82,2.52-16.43,4.15-19.79,4.67A2.52,2.52,0,0,1,96.32,62Z"/><path class="cls-3" d="M35.33,28.75l.07.62c.64,7.4,9.39,7.1,9.39,7.1a24,24,0,0,1,3.94-.39,2.66,2.66,0,0,1,1-.44,62.86,62.86,0,0,1,9.81-1.44c7.09-6.51,3.26-12.78,3.26-12.78-3.38,1.29-7.12,2.6-11,3.76A91.42,91.42,0,0,1,35.33,28.75Z"/><path class="cls-1" d="M46.84,54.77c-11.63.65,0,6.82,0,6.82C49.81,70,66,61.52,66,61.52a130.24,130.24,0,0,1-19-7Z"/><path class="cls-4" d="M48.73,36.08c-.94.81,2.68,1.76,4.1,2.09a6.28,6.28,0,0,0,1.06.14,19.55,19.55,0,0,1,7.34,1.87,9.94,9.94,0,0,0,6,.68c2.09-.48,2.52-1.43,2.52-1.43,7.85.37,3.9-2.16,3.9-2.16,2.7-2.54-3.74-2.78-6.41-2.77a10.1,10.1,0,0,1-1.89-.19,25.23,25.23,0,0,0-5.72-.11c-.28.25-.57.51-.88.76a5.93,5.93,0,0,1-4.23,1.3A55.22,55.22,0,0,0,48.73,36.08Z"/><path class="cls-4" d="M48.73,36.08a55.22,55.22,0,0,1,5.74.18A5.93,5.93,0,0,0,58.7,35c.31-.25.6-.51.88-.76a62.86,62.86,0,0,0-9.81,1.44A2.66,2.66,0,0,0,48.73,36.08Z"/><path class="cls-1" d="M78.45,14.75h0a64,64,0,0,1,16.2-3.55c2.31-.21,4.59-.29,6.82-.28,1,0,2,0,3,.09-.39-1.21-4-11.62-9.77-11A62.48,62.48,0,0,0,77.64,5.69S58.46,11.63,51.85,25.18c3.87-1.16,7.61-2.47,11-3.76,5-1.89,9.15-3.72,11.83-5h0a22.93,22.93,0,0,1,2.37-1.11l.79-.38Z"/><path class="cls-4" d="M70.34,19.27c-2.29,1.88,1.15,2.83,2.35,3.09a2,2,0,0,0,.74,0,7.1,7.1,0,0,1,4.83,1.09,15,15,0,0,1,4.95-5,1.66,1.66,0,0,0-.15-2.83,10.26,10.26,0,0,0-4.3-.86h0a15.33,15.33,0,0,0-1.67.59l-2.37,1.11h0A27.14,27.14,0,0,0,70.34,19.27Z"/><path class="cls-1" d="M77.08,15.35a22.93,22.93,0,0,0-2.37,1.11Z"/><path class="cls-1" d="M77.82,63.29c-16.43,6.74-.41,12.33-.41,12.33C85.85,79,89.28,64.56,89.28,64.56l0-.32C84.27,64,80.28,63.57,77.82,63.29Z"/><path class="cls-5" d="M77.87,15l-.79.38a15.33,15.33,0,0,1,1.67-.59h-.3Z"/><path class="cls-3" d="M78.26,23.45a4.65,4.65,0,0,0,.06,5,1.65,1.65,0,0,0,1.34.72,5.09,5.09,0,0,1,2.92,1.62,18.4,18.4,0,0,1,8.29-3.35c.62-.11,4.44-4.29,5-4.52a14.29,14.29,0,0,1,4.6-.76,13.66,13.66,0,0,1,.87-1.51,10.16,10.16,0,0,0,2.06-5.31s-2.51,2.15-4.34-1c0,0-3,.92-4.43-3.09a64,64,0,0,0-16.2,3.55h.31A5.68,5.68,0,0,1,81,14.48a3.46,3.46,0,0,0,1.32-.08c1.85-.5,6.33-1.33,4.69,2.83,0,0,3,2.94-2.51,3.85a4.27,4.27,0,0,1-1.62,2.53,3.61,3.61,0,0,1-4.17.12A4.55,4.55,0,0,0,78.26,23.45Z"/><path class="cls-4" d="M78.26,23.45a4.55,4.55,0,0,1,.43.28,3.61,3.61,0,0,0,4.17-.12,4.27,4.27,0,0,0,1.62-2.53C90,20.17,87,17.23,87,17.23c1.64-4.16-2.84-3.33-4.69-2.83a3.46,3.46,0,0,1-1.32.08,5.68,5.68,0,0,0-2.22.28,10.26,10.26,0,0,1,4.3.86,1.66,1.66,0,0,1,.15,2.83A15,15,0,0,0,78.26,23.45Z"/><path d="M82.2,31c-2.84,2.06.08,5.13,1.79,4.87a5.36,5.36,0,0,0,1-.26c2.87-1,8.16.71,10,.82,1,.06,1.45-.59,1.88-1.36-2.5-1.59-5.49-3.8-8.27-2.26-2.47,1.35-4.27-.55-6-2.09Z"/><path d="M90.87,27.41a18.4,18.4,0,0,0-8.29,3.35c1.74,1.54,3.54,3.44,6,2.09,2.78-1.54,5.77.67,8.27,2.26a5.15,5.15,0,0,1,1.45-2c1.76-1.22,6.25-.72,6.25-.72a5.5,5.5,0,0,0,2.74-1.69,15.18,15.18,0,0,0-3.66-1.47s-5.81-1.54-3.15-7.1a14.29,14.29,0,0,0-4.6.76C95.31,23.12,91.49,27.3,90.87,27.41Z"/><path class="cls-6" d="M98.17,49.14c-1,1.85-6.33,8.23-1.85,12.85a2.52,2.52,0,0,0,2.19.74c3.36-.52,13-2.15,19.79-4.67a2.48,2.48,0,0,0,1.59-2l.11-.8a2.49,2.49,0,0,0-1.94-2.76c-5-1.08-10.38-6.54-15.33-5.64C102,47,98.53,48.48,98.17,49.14Z"/><path class="cls-4" d="M94.65,11.2c1.44,4,4.43,3.09,4.43,3.09,1.83,3.17,4.34,1,4.34,1a4,4,0,0,0-2-3.67v-.72C99.24,10.91,97,11,94.65,11.2Z"/><path class="cls-3" d="M98.31,33.11a5.15,5.15,0,0,0-1.45,2A6.83,6.83,0,0,0,100,36.47c2.74,0,6.39.9,8.67-2.27,1.07-1.48,0-2.66-1.36-3.5a5.5,5.5,0,0,1-2.74,1.69S100.07,31.89,98.31,33.11Z"/><path d="M100.49,22.13c-2.66,5.56,3.15,7.1,3.15,7.1a15.18,15.18,0,0,1,3.66,1.47c2-2.64-3.2-6-3.2-6C105,22.74,102.9,22.11,100.49,22.13Z"/><path class="cls-4" d="M104.52,11c-1,0-2-.08-3-.09v.72a4,4,0,0,1,2,3.67c3.87-.79,5.7,3,5.7,3,3,2.78,4.87,2.88,6,2.22-1.82-2.58-3.55-8.94-3.55-8.94C109.28,11.34,106.93,11.11,104.52,11Z"/><path class="cls-4" d="M111.54,11.64s1.73,6.36,3.55,8.94a4,4,0,0,0,1.56-2.45c6.16-2.48,1.42-5.35,1.42-5.35C116,12.34,113.81,12,111.54,11.64Z"/><path class="cls-3" d="M115.09,20.58c.61.85,1.22,1.28,1.78,1,2.29-1.36,5.48,9,8.22,7.7s1.37-3.63,8.67-.46,9.07-7.18,9.07-7.18c-.65-.26-1.32-.51-2-.74a89.11,89.11,0,0,0-22.76-8.07s4.74,2.87-1.42,5.35A4,4,0,0,1,115.09,20.58Z"/><ellipse class="cls-1" cx="145.16" cy="32.85" rx="3.42" ry="3.4"/><ellipse cx="145.16" cy="32.85" rx="2.97" ry="2.94"/><ellipse class="cls-1" cx="144.25" cy="31.04" rx="0.91" ry="0.91"/><ellipse class="cls-7" cx="161.93" cy="44.84" rx="1.71" ry="4.07"/><ellipse class="cls-8" cx="162.27" cy="44.84" rx="0.68" ry="2.49"/></g></g></svg>