<svg xmlns="http://www.w3.org/2000/svg" xmlns:xlink="http://www.w3.org/1999/xlink" viewBox="0 0 262.58 123.14"><defs><style>.cls-1{fill:#fff;}.cls-2{fill:url(#linear-gradient);}.cls-3{fill:#ff9906;}.cls-4{fill:#020100;}.cls-5{fill:url(#linear-gradient-2);}.cls-6{fill:url(#linear-gradient-3);}.cls-7{fill:#fc8f00;}.cls-8{fill:none;stroke:#b25d00;stroke-miterlimit:10;}</style><linearGradient id="linear-gradient" x1="110.82" y1="24.59" x2="110.82" y2="104.41" gradientUnits="userSpaceOnUse"><stop offset="0" stop-color="#ffc56a"/><stop offset="1" stop-color="#fff"/></linearGradient><linearGradient id="linear-gradient-2" x1="137.55" y1="23.86" x2="137.55" y2="24.82" xlink:href="#linear-gradient"/><linearGradient id="linear-gradient-3" x1="69.99" y1="88.58" x2="110.86" y2="88.58" gradientUnits="userSpaceOnUse"><stop offset="0" stop-color="#ffc56a"/><stop offset="0.41" stop-color="#fff"/></linearGradient></defs><g id="Layer_2" data-name="Layer 2"><g id="잉어"><path class="cls-1" d="M260.44,60.08c1.45,3.09,2.94,7.54,1.65,11a30.81,30.81,0,0,1-2.59,6.57A8.46,8.46,0,0,1,251.69,82c-7-.31-22.21-2-32.06-10.19,3.66-11.71-2.93-24.89-2.93-24.89S232.4,34.06,249,33.73a10.38,10.38,0,0,0,1.11-.09c1.4-.22,5.65-.61,7.78,2.15a16.23,16.23,0,0,0,1.23,1.49c1.67,1.71,5.49,6.9,1.36,15.56A8.49,8.49,0,0,0,260.44,60.08Z"/><path class="cls-2" d="M137.71,102.36c-3.94.45-10.35,1.09-18.42,1.53-15.11.84-36,1-57.06-2.08,0,0-27.95-3.11-56.39-20.77A10.52,10.52,0,0,1,1.9,67.64c4.58-9.85,14.26-25.58,31.5-32.72,0,0,2.84,16.74,14.55,11.61s9.52-1.46,13.91.74S71.38,32.62,75,34.82c.91.54,1.89-.16,2.86-1.54,1.77,1.08,4.74.91,9.59-3.58,0,0,2.92-6.21,9.15-4.94,0,2.15.88,5,3.29,8.6a20.4,20.4,0,0,1,1.4,2.43c-3.86,0-7.25,1-5.79,4.15,0,0-8.27,5.44-5.14,9.7-2.24,1.37-3.9,3.28-2.18,5.68C91.88,60.44,97.73,59,102.13,59c1.41,0,3.13-1,5-2.2.68,1.25,1.4,2.29,3,2.2,2.88-.17,11.36-3,16-1.33a8.71,8.71,0,0,0,1.65.43c2.74.42,7.42-4.54,2.87-7.89l-.61-.44c1.54-1.37,3.05-2.57,4.68-2.62A2.66,2.66,0,0,0,136.9,46c1-1.52,2-4.3.1-8a11.37,11.37,0,0,1,7.76-1.76,2.93,2.93,0,0,0,1.18,0c1.93-.42,7.44-1.95,3.77-5a43.43,43.43,0,0,0-7-4.52c4.31,2,11,4.94,19,8,0,0-6.13,10.14,5.24,20.67a39.23,39.23,0,0,0-9.18.18,16.38,16.38,0,0,1-3,.3c-4.29,0-14.62.38-10.28,4.48,0,0-6.35,4.1,6.26,3.5,0,0,.68,1.54,4,2.32a16,16,0,0,0,9.54-1.1,31.41,31.41,0,0,1,11.78-3,9.52,9.52,0,0,0,1.69-.21c2.28-.54,8.09-2.07,6.59-3.39a39.66,39.66,0,0,1,6.32.63s14,.49,15.07-11.47l.11-1a70.17,70.17,0,0,0,10.81.4s6.59,13.18,2.93,24.89c0,0-14.8,8.43-32.41,16.35-10,4.49-20.85,8.81-30.46,11.35A59.58,59.58,0,0,1,142,101.81S140.49,102,137.71,102.36ZM108,100.25c7.18-7.47-1.38-17.78-3-20.77-.58-1.07-6.13-3.44-7.33-3.66C89.8,74.36,81.18,83.19,73.14,85A4,4,0,0,0,70,89.4l.18,1.29a4,4,0,0,0,2.55,3.2c10.93,4.08,26.35,6.72,31.75,7.57A4,4,0,0,0,108,100.25Z"/><path class="cls-3" d="M205.89,46.5l-.11,1c-1,12-15.07,11.47-15.07,11.47a39.66,39.66,0,0,0-6.32-.63,4.34,4.34,0,0,0-1.67-.7A98.9,98.9,0,0,0,167,55.31c-11.37-10.53-5.24-20.67-5.24-20.67,5.43,2.08,11.44,4.21,17.64,6.09A145.79,145.79,0,0,0,205.89,46.5Z"/><path class="cls-1" d="M187.42,88.58c18.66,1,0,11,0,11-4.76,13.54-30.66-.12-30.66-.12,9.61-2.54,20.49-6.86,30.46-11.35Z"/><path class="cls-4" d="M184.39,58.35c1.5,1.32-4.31,2.85-6.59,3.39a9.52,9.52,0,0,1-1.69.21,31.41,31.41,0,0,0-11.78,3,16,16,0,0,1-9.54,1.1c-3.36-.78-4-2.32-4-2.32-12.61.6-6.26-3.5-6.26-3.5-4.34-4.1,6-4.49,10.28-4.48a16.38,16.38,0,0,0,3-.3,39.23,39.23,0,0,1,9.18-.18q.66.61,1.41,1.23a9.46,9.46,0,0,0,6.79,2.1A88.15,88.15,0,0,1,184.39,58.35Z"/><path class="cls-4" d="M184.39,58.35a88.15,88.15,0,0,0-9.21.29,9.46,9.46,0,0,1-6.79-2.1q-.75-.61-1.41-1.23a98.9,98.9,0,0,1,15.74,2.34A4.34,4.34,0,0,1,184.39,58.35Z"/><path class="cls-1" d="M136.7,23.86h0a102.2,102.2,0,0,0-26-5.75c-3.71-.33-7.37-.47-10.95-.44-1.64,0-3.28,0-4.9.13.63-2,6.37-18.79,15.69-17.75A99.91,99.91,0,0,1,138,9.2s30.78,9.62,41.38,31.53c-6.2-1.88-12.21-4-17.64-6.09-8-3.06-14.67-6-19-8l0,0c-1.27-.67-2.57-1.29-3.82-1.8l-1.26-.62Z"/><path class="cls-4" d="M149.71,31.16c3.67,3.05-1.84,4.58-3.77,5a2.93,2.93,0,0,1-1.18,0A11.37,11.37,0,0,0,137,37.92c-1.21-2.34-3.61-5.06-7.94-8.08a2.69,2.69,0,0,1,.24-4.58c1.29-.7,3.41-1.25,6.91-1.38h0a25.45,25.45,0,0,1,2.68.94c.87.42,2.16,1,3.82,1.8l0,0A43.43,43.43,0,0,1,149.71,31.16Z"/><path class="cls-1" d="M138.89,24.82c1.25.51,2.55,1.13,3.82,1.8C141.05,25.85,139.76,25.24,138.89,24.82Z"/><path class="cls-1" d="M137.71,102.36c26.36,10.9.66,20,.66,20-13.55,5.49-19.05-17.9-19.05-17.9l0-.52C127.36,103.45,133.77,102.81,137.71,102.36Z"/><path class="cls-5" d="M137.63,24.2l1.26.62a25.45,25.45,0,0,0-2.68-.94l.49,0h0Z"/><path class="cls-3" d="M137,37.92c1.94,3.75.9,6.53-.1,8a2.66,2.66,0,0,1-2.15,1.16c-1.63,0-3.14,1.25-4.68,2.62-4.69-3.34-8-4.38-13.3-5.41-1-.19-7.13-7-8-7.32a22.54,22.54,0,0,0-7.39-1.23,20.4,20.4,0,0,0-1.4-2.43c-2.41-3.64-3.26-6.45-3.29-8.6,0,0,4,3.47,7-1.65,0,0,4.8,1.48,7.12-5a102.2,102.2,0,0,1,26,5.75l-.49,0h0a9.22,9.22,0,0,0-3.57-.47,5.4,5.4,0,0,1-2.12-.11c-3-.82-10.16-2.17-7.53,4.57,0,0-4.76,4.75,4,6.22a6.91,6.91,0,0,0,2.6,4.09,5.75,5.75,0,0,0,6.7.19C136.53,38.22,136.76,38.08,137,37.92Z"/><path class="cls-4" d="M137,37.92c-.24.16-.47.3-.68.45a5.75,5.75,0,0,1-6.7-.19,6.91,6.91,0,0,1-2.6-4.09c-8.79-1.47-4-6.22-4-6.22-2.63-6.74,4.56-5.39,7.53-4.57a5.4,5.4,0,0,0,2.12.11,9.22,9.22,0,0,1,3.57.47c-3.5.13-5.62.68-6.91,1.38a2.69,2.69,0,0,0-.24,4.58C133.39,32.86,135.79,35.58,137,37.92Z"/><path d="M130.68,50.19c4.55,3.35-.13,8.31-2.87,7.89a8.71,8.71,0,0,1-1.65-.43c-4.62-1.64-13.1,1.16-16,1.33-1.62.09-2.34-.95-3-2.2,4-2.57,8.8-6.14,13.27-3.66,3.95,2.2,6.85-.88,9.64-3.37Z"/><path d="M116.77,44.34c5.34,1,8.61,2.07,13.3,5.41-2.79,2.49-5.69,5.57-9.64,3.37-4.47-2.48-9.27,1.09-13.27,3.66a8.39,8.39,0,0,0-2.33-3.23c-2.83-2-10-1.16-10-1.16a8.85,8.85,0,0,1-4.41-2.75,24.43,24.43,0,0,1,5.87-2.37s9.33-2.49,5.06-11.48A22.54,22.54,0,0,1,108.72,37C109.64,37.39,115.77,44.15,116.77,44.34Z"/><path class="cls-6" d="M105.06,79.48c1.59,3,10.15,13.3,3,20.77a4,4,0,0,1-3.52,1.21c-5.4-.85-20.82-3.49-31.75-7.57a4,4,0,0,1-2.55-3.2L70,89.4A4,4,0,0,1,73.14,85c8-1.76,16.66-10.59,24.59-9.13C98.93,76,104.48,78.41,105.06,79.48Z"/><path class="cls-4" d="M110.71,18.11c-2.32,6.48-7.12,5-7.12,5-2.93,5.12-7,1.65-7,1.65a6.41,6.41,0,0,1,3.13-5.93V17.67C103.34,17.64,107,17.78,110.71,18.11Z"/><path class="cls-3" d="M104.83,53.55a8.39,8.39,0,0,1,2.33,3.23c-1.9,1.21-3.62,2.2-5,2.2-4.4,0-10.25,1.46-13.91-3.66-1.72-2.4-.06-4.31,2.18-5.68a8.85,8.85,0,0,0,4.41,2.75S102,51.58,104.83,53.55Z"/><path d="M101.33,35.79c4.27,9-5.06,11.48-5.06,11.48a24.43,24.43,0,0,0-5.87,2.37c-3.13-4.26,5.14-9.7,5.14-9.7C94.08,36.77,97.47,35.76,101.33,35.79Z"/><path class="cls-4" d="M94.86,17.8c1.62-.08,3.26-.13,4.9-.13v1.16a6.41,6.41,0,0,0-3.13,5.93c-6.23-1.27-9.15,4.94-9.15,4.94-4.85,4.49-7.82,4.66-9.59,3.58,2.93-4.17,5.7-14.45,5.7-14.45C87.23,18.34,91,18,94.86,17.8Z"/><path class="cls-4" d="M83.6,18.83s-2.77,10.28-5.7,14.45a6.51,6.51,0,0,1-2.49-4c-9.89-4-2.3-8.65-2.3-8.65C76.45,20,80,19.33,83.6,18.83Z"/><path class="cls-3" d="M77.9,33.28c-1,1.38-2,2.08-2.86,1.54-3.66-2.2-8.79,14.64-13.18,12.45S59.67,41.41,48,46.53,33.4,34.92,33.4,34.92c1-.43,2.11-.83,3.2-1.2a141.8,141.8,0,0,1,36.51-13s-7.59,4.62,2.3,8.65A6.51,6.51,0,0,0,77.9,33.28Z"/><circle class="cls-1" cx="29.65" cy="53.12" r="5.49"/><circle cx="29.65" cy="53.12" r="4.76"/><circle class="cls-1" cx="31.11" cy="50.19" r="1.46"/><ellipse class="cls-7" cx="2.75" cy="72.52" rx="2.75" ry="6.59"/><ellipse class="cls-8" cx="2.2" cy="72.52" rx="1.1" ry="4.03"/></g></g></svg>