<svg xmlns="http://www.w3.org/2000/svg" viewBox="0 0 115.15 176.32"><defs><style>.cls-1{fill:#f18683;}.cls-2{fill:#ef8885;}.cls-3{fill:#e19797;}.cls-4{fill:#a8b8b7;}.cls-5{fill:#a99ead;}.cls-6{fill:#11476a;}.cls-7{fill:#ebfafa;}</style></defs><g id="Layer_2" data-name="Layer 2"><g id="Layer_1-2" data-name="Layer 1"><path class="cls-1" d="M62.25,55.91l1.87.32a4.24,4.24,0,0,0,4.28,2l2.69-.13c5.25,2.45,8.66,6.72,10.74,11.91,1.1,2.73,2.17,2.15,3.36.57A31.34,31.34,0,0,1,98.86,60.18c2.45-1,2-2.32.48-3.72-2.16-2-4.47-4-6.59-6-6.82-6.76-7.26-15.3-6.57-24.13.09-1.06.47-2,1.64-2.19,1.45-.28,2,.57,2.45,1.84a60.13,60.13,0,0,0,5.56,13.17c-1-4.88-1.89-9.77-2.93-14.64-.67-3.17-2.74-7.17.31-9.19s6.76.49,9.13,3.07c9,9.75,12.76,21.83,5.16,36.08-3.26,6.11-4,13.17-8.65,18.77-3.66,4.44-7.44,8.53-12.52,11.08-3.52,1.77-5.11,4-4.16,7.85-3.72,4.48-4.43,10.8-3.45,15.2,1.43,6.38-4.24,10.22-3.18,15.84.18.91-1.54,1-2.52,1-6.66,0-13.32.27-20-.09-2.85-.15-7.27-1.68-6.49-4.58,1.07-4-1-7.27-.46-10.88.83-5.57-1-10.24-4.89-14.21l.18-.17c.68-3.46,2.49-7.07-1.26-10q-2-4.19-4,0l-2-.94a4,4,0,0,1,2.63-4.37c4.24-1,5.5-4.57,6.93-7.74,1.13-2.52,1.73-2.47,3.67-.84a8,8,0,0,0,10.78-.1c2.76-.61,6.14-.64,4.79-5.11-4.12-1.06-4.94-5-6.84-7.94,0-.3,0-.6,0-.89l.21-.27Z"/><path class="cls-2" d="M56.09,57.21c1.9,3,2.72,6.88,6.84,7.94a6.2,6.2,0,0,1-6.26,1.27c-1.58-.45-1.9.42-2.29,1.48-.65.34-1.58.38-1.62,1.41,0,.1.21.32.32.31,1-.06,1.05-1,1.38-1.64,1.84-.23,2.18,2,3.68,2.28a8,8,0,0,1-10.78.1c-1.94-1.63-2.54-1.68-3.67.84-1.43,3.17-2.69,6.7-6.93,7.74a4,4,0,0,0-2.63,4.37l-1.92.9a10.16,10.16,0,0,1-8-4,31.21,31.21,0,0,0,3.49,0c3.39-.41,2.85-3.33,2.93-5.39s-1.16-3-3.83-3.06c-3.77,0-2.4,2.34-2.61,4a35.23,35.23,0,0,0,0,4.48C14.27,72.49,5.54,63.74.93,51.78-2.38,43.2,3.58,27.26,11.41,22.52c4.93-3,8-1.47,8.35,4.25.13,1.83.07,3.66.08,5.5,0,1.63,0,3.26,0,6.24,2.37-3.59,2.2-6.36,2.49-9,.1-1-.07-2.25,1.06-2.58,1.5-.44,2,1,2.39,2,5.92,13.48,6,22.72-4.76,35.28-.92,1.08-2.91,1.88-2.26,3.48.58,1.42,2.64,1.17,4,1.38,4.12.63,8.16,1.37,11.91,3.29,2.38,1.21,4.08,1.32,5.22-1.94a20.9,20.9,0,0,1,6.52-9.2A3.26,3.26,0,0,0,51.06,61l1-1h0C54.25,60.39,54.41,57.73,56.09,57.21Zm-4.24,6.43a2.9,2.9,0,0,0,4-.35C54.34,62.73,53.11,61.8,51.85,63.64ZM19.32,73.78a5.39,5.39,0,0,0,.31-.75c0-.06-.28-.27-.34-.24a4.76,4.76,0,0,0-.61.5Z"/><path class="cls-3" d="M41.22,94.39c3.84,4,5.72,8.64,4.89,14.21-.55,3.61,1.53,6.89.46,10.88-.78,2.9,3.64,4.43,6.49,4.58,6.64.36,13.3.12,20,.09,1,0,2.7-.07,2.52-1-1.06-5.62,4.61-9.46,3.18-15.84-1-4.4-.27-10.72,3.45-15.2A34.23,34.23,0,0,1,91,93.3c6.35,2,6.51,1.61,10-4.37,1.15-2,.89-6.74,4.25-5.43,2.45,1-.17,4.28-1,6.54-3.38,9.45-4.76,10.08-14.71,6.64a20.56,20.56,0,0,0-4.41-.6c-1.88-.2-3.39.39-3.73,2.41-.37,2.29,1.78,2.19,3,2.51,4.47,1.17,9,2.17,13.53,3.06s6.25-2.72,8.3-5.69c1-1.43,1.21-4.37,4.1-2.5,3.07,2,.09,3.28-.73,4.73-3.75,6.68-8.83,9.44-16.39,5.89-2.2-1-5-.06-7.32-1.13-1.76-.79-4-2.24-5.41-.21-1.83,2.69,1.47,3.45,2.72,4.94-.62.57-1.12,1.25-.14,1.81.6.34,1.55.64,2-.22.13-.28-.6-1-.93-1.45,3-.43,5.66,1,8.09,2.12,6,2.69,11.58,0,17.34-.14,2.45,0,4.68-.08,5.62,3.64-8.74-1-17.35,5.3-26-1.56-1.75-1.39-5.74-.13-8.89-1.74-.47,3.58,2.19,4.35,4.14,5.42,5.47,3,11.14,5.78,12.75,12.66a20.84,20.84,0,0,1,.77,3.85c.06,1.54.68,3.81-1.74,3.94-2,.11-1.8-2-2-3.42-1.18-7.3-7.27-10.41-12.36-14.26-2.17-1.64-3.55-.48-3.91,2.26a63.46,63.46,0,0,1-1.76,7.2,13.29,13.29,0,0,0-8.34-2,93.63,93.63,0,0,1-12.31,0c-4-.33-5.88,1-5.38,5.13-2.24-1.65-1.74-4.16-1.93-6.42s-1.66-3.73-3.6-2.66c-3.7,2-7.54,4.25-8.59,9-.65,2.9-1.27,5.81-1.91,8.72-.14.63-.17,1.4-1,1.51a1.42,1.42,0,0,1-1.61-1.5c.73-5.23-1.06-11.12,3.7-15.32,2.46-2.17,4.48-4.84,7.46-6.43,1.25-.68,2.13-1.91,1.15-3.29a2.53,2.53,0,0,0-3.63-.3c-3.55,2.82-7.88,4.16-11.84,5.95-5.22,2.36-11,.23-16.48-.59-1.89-.28-.71-1.84.18-2.53a5.29,5.29,0,0,1,5.25-.58c6.32,2.5,11.54-.05,16.8-3.05a41.54,41.54,0,0,1,7.07-3.36c2-.68,3.54-1.46,2.92-3.74-.67-2.44-2.46-.75-3.72-.63-4.69.46-8.85,2.8-13,4.64-3.81,1.7-6.22,1.14-8.85-1.46-1.77-1.75-3.63-3.4-5.46-5.09a1.83,1.83,0,0,1-.38-2.65c.94-1.16,1.74-.14,2.48.45a10.38,10.38,0,0,1,1.45,1.36c6,7,12.4,2.53,18.59.6,1.85-.58,3.66-1.37,5.57-1.91,2.2-.62,1.73-2.58,1.39-4.18-.42-2-1.83-1.44-3.13-1-4.31,1.58-8.69,3-12.93,4.79-1.82.76-2.83-.09-4-1q-5.32-4.47-10.61-9c-1.1-.94-1.82-2.21-.9-3.51,1.35-1.92,2.35.14,3.15.73a47.49,47.49,0,0,1,5.15,4.69c4.23,4.19,8.65,4.56,13.92,1.65C35.29,95.72,38.1,94.3,41.22,94.39Z"/><path class="cls-2" d="M71.88,160.21c.58,2.58,2.77,1.84,4.43,2.13,4.18.7,6.9,4.06,6.27,8.07-.7,4.43-4,3.47-7.25,4.28-4.66,1.15-9.37-1.4-13.74,1.15a3.71,3.71,0,0,1-4.24-.42,3.3,3.3,0,0,0-4.07-.47c-3,1.58-6,2.27-8-1.66-1.42-2.89.48-8.25,3.62-9.71a38.55,38.55,0,0,1,5.66-1.71c2.32-2.1,5.29-2.1,7.92-1.5A23.75,23.75,0,0,0,71.88,160.21Z"/><path class="cls-2" d="M54.55,158.27c-.68-4.71-2.94-9.14-2.43-14.06l5,0c.33,1.31.66,2.63,1,3.95.22,2.49,2.15,2.07,3.72,2.08,4,0,7.92-.05,11.87-.08-.7,2.62-.18,5.5-1.64,8Z"/><path class="cls-3" d="M56.09,57.21c-1.68.52-1.84,3.18-4.08,2.88a4.13,4.13,0,0,0-1.61-4.74c-3.07-13.1-9.91-24.16-18.6-34.21-1.18-1.36-2.41-2.69-3.62-4l1-1c8.07,6.36,14,14.43,18.73,23.46a84.45,84.45,0,0,1,6,14.53c.38,1.23.81,2.14,2.21,2.23C56.12,56.61,56.1,56.91,56.09,57.21Z"/><path class="cls-3" d="M57.14,144.25l-5,0c-2.57-3-1.86-6.59-1.87-10.06l3.93.08c0,.62,0,1.24,0,1.86-1.5.21-3.25.28-2.82,2.51.34,1.76,1.93,1.57,3.23,1.58,5.15,0,10.31,0,15.46,0,1.55,0,3.77.53,3.74-2s-2.37-1.67-3.83-2l.16-1.94c2.33.54,3.85-1.23,5.72-2,.53,4.2-1,8.07-1.88,12.06Z"/><path class="cls-1" d="M54.18,134.23l-3.93-.08a2,2,0,0,1-.15-.9c-.5-4.12,1.35-5.46,5.38-5.13a93.63,93.63,0,0,0,12.31,0,13.29,13.29,0,0,1,8.34,2l-.24,2c-1.87.77-3.39,2.54-5.72,2l0,0c-3-2.74-8.84-2.8-12.08-.12Z"/><path class="cls-3" d="M68.13,51.34c-3.1-.58-2.21-3.06-1.89-4.75,2-10.48,5.34-20.51,11.22-29.64-1.8,9.82-7.91,18.57-7.42,28.94Z"/><path class="cls-1" d="M57.14,144.25l16.87,0c0,1.32,0,2.65-.07,4H58.14C57.8,146.88,57.47,145.56,57.14,144.25Z"/><path class="cls-4" d="M62.25,55.91l-5.9.14c-.13-3.38,0-6.8-1.89-9.83,2.26-.56,1.43-2.56,1.84-4,1.85,3.57,1.35,7.75,2.43,12.21,2.41-2.88,1.76-6,3.31-8.2l1.07,2.4C62.44,51,61.78,53.41,62.25,55.91Z"/><path class="cls-5" d="M54.55,158.27l17.54-.11-.21,2.05a23.75,23.75,0,0,1-9.36.16c-2.63-.6-5.6-.6-7.92,1.5C54.59,160.67,54.57,159.47,54.55,158.27Z"/><path class="cls-4" d="M89.07.28c-2.89,4.8-4.92,10.23-10,13.4C81.41,8.51,83.29,3,89.1.31Z"/><path class="cls-3" d="M32.21,84.21l1.92-.9,2,.94h4c3.75,2.9,1.94,6.51,1.26,10-.63-4.77-2-8.85-8-8.61C33,85.62,32.6,84.7,32.21,84.21Z"/><path class="cls-6" d="M50.4,55.35A4.13,4.13,0,0,1,52,60.09h0l-1,1a3.26,3.26,0,0,1-4.62.16C45.21,57.52,47.27,56.07,50.4,55.35Z"/><path class="cls-3" d="M56.3,42.25c-.41,1.41.42,3.41-1.84,4-.55-2-.12-4.25-1.47-6.18A3.09,3.09,0,0,1,53.12,36a2,2,0,0,1,1.79-.15c1.51.69,1.08,2.23,1.23,3.48C56.26,40.26,56.25,41.26,56.3,42.25Z"/><path class="cls-4" d="M58.14,148.2h15.8c-.06.67-.13,1.33-.2,2-4,0-7.92.1-11.88.08C60.29,150.27,58.36,150.69,58.14,148.2Z"/><path class="cls-7" d="M68.13,51.34,70,45.89c.18,2.67-.61,5.33,2.49,7.44,2.32,1.58-.28,3.34-1.44,4.78l-2.69.13c2.14-1.94,2.42-3.8-.26-5.5C68.13,52.27,68.13,51.81,68.13,51.34Z"/><path class="cls-4" d="M29.18,16.1l-1,1a50.15,50.15,0,0,1-9-8.82h0C23.49,9.63,27,12,29.18,16.1Z"/><path class="cls-6" d="M68.14,52.74c2.68,1.7,2.4,3.56.26,5.5a4.24,4.24,0,0,1-4.28-2A3.74,3.74,0,0,1,68.14,52.74Z"/><path class="cls-3" d="M63.11,48.66,62,46.26c.58-2.71-.91-7.74,2.49-7.37,2.91.32-1.13,4.42-.5,7C64.22,46.71,63.44,47.74,63.11,48.66Z"/><path class="cls-1" d="M84.1,110.23c.33.5,1.06,1.17.93,1.45-.4.86-1.35.56-2,.22-1-.56-.48-1.24.14-1.81A2,2,0,0,1,84.1,110.23Z"/><path class="cls-4" d="M19.17,8.29l-.38-.23.38.22Z"/><path class="cls-4" d="M89.1.31,89.25,0l-.18.28Z"/><path class="cls-6" d="M54.39,67.9c.38-1.06.7-1.93,2.28-1.48a6.2,6.2,0,0,0,6.26-1.27c1.35,4.47-2,4.5-4.79,5.11-1.5-.32-1.84-2.51-3.68-2.28Z"/><path class="cls-2" d="M40.14,84.25h-4Q38.16,80.07,40.14,84.25Z"/><path class="cls-1" d="M24.19,80.18a35.23,35.23,0,0,1,0-4.48c.21-1.64-1.16-4,2.61-4,2.67,0,3.92.86,3.83,3.06s.46,5-2.93,5.39a31.21,31.21,0,0,1-3.49,0Z"/><path class="cls-1" d="M51.85,63.64c1.26-1.84,2.49-.91,4-.35A2.9,2.9,0,0,1,51.85,63.64Z"/><path class="cls-1" d="M19.32,73.78l-.64-.49a4.76,4.76,0,0,1,.61-.5c.06,0,.35.18.34.24A5.39,5.39,0,0,1,19.32,73.78Z"/><path class="cls-1" d="M54.46,68c-.33.66-.36,1.58-1.38,1.64-.11,0-.33-.21-.32-.31,0-1,1-1.07,1.62-1.41Z"/><path class="cls-3" d="M51.06,61l1-1Z"/><path class="cls-1" d="M70,136.1c1.46.37,3.79-.5,3.83,2s-2.19,2-3.74,2c-5.15.07-10.31.05-15.46,0-1.3,0-2.89.18-3.23-1.58-.43-2.23,1.32-2.3,2.82-2.51Z"/><path class="cls-4" d="M70,136.1H54.23c0-.62,0-1.24,0-1.86l3.88-.21,12.08.12,0,0C70.12,134.81,70.06,135.45,70,136.1Z"/><path class="cls-3" d="M70.14,134.14,58.06,134C61.3,131.34,67.16,131.4,70.14,134.14Z"/></g></g></svg>