<svg xmlns="http://www.w3.org/2000/svg" viewBox="0 0 228.29 125.36"><defs><style>.cls-1{fill:#5d5d5d;}</style></defs><g id="Layer_2" data-name="Layer 2"><g id="Layer_1-2" data-name="Layer 1"><path class="cls-1" d="M19.3,28c-.23,0-.21.21.33.41l.51-.14Z"/><path class="cls-1" d="M22.7,30c.71.05,1.55,0,1.21-.4-.74.1-.85-.08-1.67.06-.57-.17-.92-.46-.79-.54-.22,0-.83-.36-1.18-.31a4.61,4.61,0,0,0,2.54,1C23,29.93,22.77,30,22.7,30Z"/><path class="cls-1" d="M79.71,35.86l-.37,0Z"/><path class="cls-1" d="M115.38,36c-.28,0-.39,0-.4.07C115.23,36.09,115.44,36.07,115.38,36Z"/><path class="cls-1" d="M121.47,36.41l-.36,0A.94.94,0,0,0,121.47,36.41Z"/><path class="cls-1" d="M79.71,35.86l1,.1C80.73,35.86,80.17,35.88,79.71,35.86Z"/><path class="cls-1" d="M30.54,31.28a3.49,3.49,0,0,0-.53,0l.48.08Z"/><path class="cls-1" d="M64,36.13h-.29l-.24.13Z"/><path class="cls-1" d="M51.89,36.15c.28,0,.38-.26.49-.38a1.22,1.22,0,0,1-.61.18S51.8,36.06,51.89,36.15Z"/><path class="cls-1" d="M32.93,33l-.34,0Z"/><path class="cls-1" d="M72.62,36.19a.22.22,0,0,0,.11.1S72.69,36.22,72.62,36.19Z"/><path class="cls-1" d="M23.6,41.2s0,0,0,0S23.53,41.13,23.6,41.2Z"/><path class="cls-1" d="M19,28.67l-.17,0a.41.41,0,0,0,0,.16A1.05,1.05,0,0,1,19,28.67Z"/><path class="cls-1" d="M132.61,36.77h-.05C132.27,36.79,132.43,36.79,132.61,36.77Z"/><path class="cls-1" d="M196.65,45.56c1.15-.17-1.6,1,.09.62C196.56,46.13,198,45.2,196.65,45.56Z"/><path class="cls-1" d="M30.83,31.38l.48.11Z"/><path class="cls-1" d="M196.74,46.18h0l.17,0Z"/><path class="cls-1" d="M158.29,36.6a.78.78,0,0,0-.26-.13S158.1,36.54,158.29,36.6Z"/><path class="cls-1" d="M139.16,36.2l.47,0Z"/><path class="cls-1" d="M168.22,36.2a2.6,2.6,0,0,0,.7,0l-.11,0A1.34,1.34,0,0,1,168.22,36.2Z"/><path class="cls-1" d="M178.56,36.2l-.19-.06-.33,0Z"/><path class="cls-1" d="M53.56,50.17a1.5,1.5,0,0,1-.48-.25C53.24,50.12,51.72,50.19,53.56,50.17Z"/><path class="cls-1" d="M30.51,31.43a.42.42,0,0,1,.32-.05l-.34-.06S30.44,31.39,30.51,31.43Z"/><path class="cls-1" d="M168.64,34l1.65,0C169.83,34,169.23,34,168.64,34Z"/><path class="cls-1" d="M127.73,50.13l-.37,0A1.35,1.35,0,0,0,127.73,50.13Z"/><path class="cls-1" d="M175.16,34a4.81,4.81,0,0,0,.93.2.84.84,0,0,0,.19-.08Z"/><path class="cls-1" d="M53.08,49.92Z"/><path class="cls-1" d="M42.09,50.51l.53.05a1.47,1.47,0,0,0,.42,0c.15,0,.2-.09.22-.15s-.1-.26.07-.37c1.87-.1.86.27,1.5.46,1.16-.1,2.06-.44,2.93-.42.06.06.23.08,0,.16,1.23-.3,3.66,0,5.09-.39a.51.51,0,0,1,.19.1c-.23-.19-.27-.38-.22-.51.7,0,1.3-.23,1.57,0a1.17,1.17,0,0,0-.67.16l.73-.1c.67.35-1,.12-1,.38a30.22,30.22,0,0,1,4.2-.31c.23.34-2.57.12-1.1.42l-1.7-.13c1.3.54-1,0,.16.54,2.24.09,2.5-.18,4.73-.08.51-.19-.16-.28.34-.47,3.17-.34,2.5.86,4.83.4a3.31,3.31,0,0,1,2.5-.42l-.57.38c2.17,0,1.24-.55,3.51-.29-.41.15-1.71.12-1.38.17,1.47.3,1-.22,2.17-.22l.23.34c2.31,0,4.85-.3,7.4-.36-.14.1-.58.21,0,.31a86.83,86.83,0,0,1,10,.25l1.19-.3c.28,0,.51.13.21.19,1.21.11.07-.18.65-.3s.91.17.47.26A41.33,41.33,0,0,1,99.67,50l-.44.09c1.75.12,2-.6,3.6-.33l-.31.06c3.81.12,8-.15,10.91.3.56-.43,3.77.19,4-.4a35.17,35.17,0,0,0,4.61.59c.82,0,1.22-.37,2.23-.43l0,.31,1.37-.32.73.36,1-.07c-.38,0-.81-.14-.75-.23a9.38,9.38,0,0,1,3.65.37l3.5-.26c-.08.12-.67.17-1.13.25,1.87-.32.34.32,2.05,0-.23-.07.13-.18.16-.24a22.45,22.45,0,0,0,4.24.11l-.28.21c2.6.05,5.48-.1,8.39-.1-1-.1-.8-.47.05-.5l.35.32c.55-.2-.9-.12.24-.37,1.08,0,.73.37.1.48l1.33-.11c.07.09-.24.15-.32.27.55-.2,2.29.33,3.07,0l.08.09c2.91,0,4.23-.11,6.6-.12.05-.28,1-.22,1.69-.45,1.74.09,3.68.31,5.78.29,1.48-.14.43-.24,1.09-.41.11.26,2.21.23,1.12.42,2.53,0,3.23-.05,6.42-.26-.35-.11-.74-.15-.54-.24.58,0,1.32.11,1.24.23l-.16,0a32,32,0,0,1,5.83.16c1,.08,2,.16,2.85.19.45,0,.88,0,1.29,0a6.41,6.41,0,0,0,1.22-.17l-.17,0c1-.16,2-.35,3-.59,1.39-.17-.8.31.25.31,3.16-.94,5.11-1,7.59-2.15a7.6,7.6,0,0,0,2.07-.48c.79-.33,1.65-.78,2.52-1.24s1.7-1.07,2.49-1.59a17.55,17.55,0,0,1,2.14-1.4l-.24,0c.47-.59.73-.52,1.18-.86-.16-.05-.7.43-.43,0a32.91,32.91,0,0,0,3.93-4.45l.85-1.25.43-.62c.07-.12.13-.18.22-.35l.28-.55q1.14-2.3,2.3-4.59l-6,.55-3.53.29c-2.24.21-1.17,1.06-4,1l.77-.42c-4.47.91-9.24,1-13.62,1.87a1.36,1.36,0,0,1,.68-.25,8.11,8.11,0,0,0-3.45.56c-.69,0-.17-.16-.61-.22-.93,0-2.36.55-2.76.34,0,0,0,0,.06-.06l.31-.07a2.29,2.29,0,0,1-.32.06l-.11,0h-.11l0,.4-.08.79,0-1.2c-.85,0-1.9,0-1.47.2-1.68-.13-3.2.12-4.53,0-.87.31-2.86-.15-3.14.29.12-.46-2.93-.37-4-.16.35-.13-.92-.14-.51-.33-1.2,0-2.31.09-2.1.33-2.22-.55-4.46.43-5.71-.26-3.58.24-6.9.4-10.12.51.12-.45,3.56,0,3.42-.52a69,69,0,0,1-7.85.47c-.78-.07.45-.2.72-.28-3.06.19-5.91,0-8.62.21a1.55,1.55,0,0,1,.57-.12c-.53,0-1.24-.07-1.18.13l.52-.05c.86.3-2.13.62-2.22.78.91-.59-2.68-.15-1.24-.89-.35,0-.8.13-.71.27-.53,0-.69-.12-.16-.28-1.92.12-1.24.33-3,.33,0-.1.36-.14.54-.25a10.73,10.73,0,0,1-3.23.3c.09-.06-.08-.14.35-.14-2.52,0-4.29.52-7.06.33.82-.43-.94-.14-1.09-.51l-1.49.11.6.18c-1.3,0-2.45.26-3.57.14l1-.15-2.44.07,1.38.14c-1.31.19.15.47-1.59.37a18.7,18.7,0,0,1-2-.23h0a7.12,7.12,0,0,1-2.27.15c-.25-.12.2-.41,0-.49-.64.31-3,.09-3.86.42.27-.08.29-.27.2-.31l-.54.25c-.6-.08-.69-.12-.59-.28-1.82,0,.58.48-1.58.27a2.34,2.34,0,0,1,.44-.09c-2.16-.11-4.18.16-6.17,0-.58-.37,1.74-.09,1.07-.41-2.87.07-5.94.45-8.71.37l.51,0c-.38.53-2.06-.27-3.47,0,.35,0,.45-.29.36-.23-1.9-.09-3.88.13-6.76.3l.35-.14c-1.12-.12-3-.07-4.16-.13-.35.13-1.05.11-.63.31-3.73-.78-7.11.42-10.42-.23.4,0,.94-.12.63-.12l-2.82.13c.22.23.37.14,1,.32a6.64,6.64,0,0,1-1.85.24c1.27-.15,0-.37-.56-.5.09.07-.09.15-.05.22-1.47-.41-.24.46-2.25.19l.1-.12a16.29,16.29,0,0,1-2.26.18c-.33-.26.81-.12.86-.34-1.14,0-2.25.51-3.28.24.48-.08,1.18-.08,1.66-.15A6.68,6.68,0,0,0,55,34.79h.09l-1.93-.14.49.09c-1.43.7-2.87.07-4.81.34,1.89-.26.33-.22.5-.51-.48-.13-1.21-.3-1-.36-.92.15-1.47-.36-2.78-.15,0-.11-1-.14-.72-.35-1.17-.08.25.2.14.31-1.85.1-4.15-1-6.79-1-2.25-.21-2.72,0-4.81-.21-.66-.3.64-.24.64-.24a13.06,13.06,0,0,0-3-.63c.23,0,0-.16-.27-.34-.84-.17-.64.22-1.71-.18a3.53,3.53,0,0,1,.92-.19c-1-.13-2-.19-3.05-.37-.23-.23.68-.1,1.06-.11a15.66,15.66,0,0,0-3.4-.48l.7.3c-.42-.11-.15-.28.17-.25,1,.08,1.38.47,1.41.59l-.74-.13c.6.75,2.93.66,4.39,1l-.71.27h1.59c.29.18.47.45-.28.36,1,.42,1,0,1.83.47.1.05.05.06,0,.06l1.06.09c-.22.05.12.32-.51.14,1.82.6,3.07.28,3.72.71H37c2.62.33.31-.24,2.31-.27l1.19,1,.31-.26c.26.06.79.16.68.27,1-.06-.15-.16.46-.27,1.25.48,3.58.37,3.81.89.5-.17-1.22-.33.19-.32.33.56,1.61.12,2.78.45-.4.24-1.51,0-.34.34.76-.38,2.32.31,3.35.27.07-.35,2.22-.11,3.9-.24-.1.12,3.18.2,4.75.33l0,.06c.3-.37,1.92-.3,3.1-.38,0,.22-.26.31-.9.41h1.11A3.78,3.78,0,0,1,65,35.91l-.28.27A39.22,39.22,0,0,1,69.62,36c.1-.26-1.51-.71.5-.88.07.14.14.37-.38.43a3.34,3.34,0,0,1,1-.06l-.8.24c.86.1.45-.2,1.14-.18,0,.2.51.14.41.3a4.09,4.09,0,0,0-.86,0,7.33,7.33,0,0,1,2,.3c-.07-.11,0-.27.57-.29,1.48,0,.51.23,1.37.34.36-.14,1.3,0,1.32-.29a1,1,0,0,1,.68.21c.77-.13,3.57,0,2.71-.35l-.19,0h.12c2.51-.29,5.21.17,7.69,0v.1c1.48-.11,3.3-.07,4.36-.28.44,0,1,.18.85.3a10.92,10.92,0,0,1,2.9,0c-1.14.17.39.15-1.17.12a10.72,10.72,0,0,0,3.39,0c-.54.25,1.11.31,1.81.24l-1-.18c.78,0,1.47,0,2.17,0l-.37.34c3,.4,5.43-.69,7.73,0,.8-.24-1.64-.17-.92-.44,1.38.05,2.83.52,3.26.52,1.9.19,1.78-.48,3.77-.36-.26-.11-.5-.43,1-.54s1.7.49.83.59c-.34,0-.5,0-.48-.07-.45,0-1,.1-.49.22l.18-.11c.69.12,2.6.1,2.15.3,1.05-.11.45-.2-.33-.26,1.78.17,2.78,0,4.62.12-.29-.06-.56-.2-.27-.2,2.69.15,1.18-.23,3-.28,1,.18-.37.43,1.47.28,1.12.13.23.32-.21.41a17.9,17.9,0,0,1,4.07.2l-.88.09a14,14,0,0,1,1.4-.05l-.5-.24c.51,0,.95,0,.94.14.53-.15-.41-.39.65-.61.69.12,2.1-.13,2.34.19-2.17-.11.24.32-1.6.37a7.11,7.11,0,0,1,1.31,0c.07,0-.08.07-.22.09,2.07.28.95-.36,3.1-.35-.27.17.5.33.85.3-.86,0-.41-.3.38-.44a10.92,10.92,0,0,0,2.22-.08l-.82-.07a6.08,6.08,0,0,1,1.93-.21c.08.14-.88.1-.53.16,1.06-.31,2.41.32,3.89.11.69.12.07.33.67.42,1.67-.23,1.81.24,3.56,0-.5-.24-.59-.18.64-.41l-2.88.16,1.85-.34c-.87,0-1.84.15-2.36.11.88-.2.79-.14.38-.34,1.19.36,2.36-.21,3.73,0l0,.59c2.06.26,3.67-.31,6.35-.16l-.86-.1c.36-.24,1.66,0,2.53-.13-.08.2.46.27.83.39-.05-.14,2,0,2.21-.38l1.2.26c2.16.11,2.47-.56,4.55-.49-.63.21.32.35-1.08.51.7,0,1.33,0,1.34-.1.4.12,1.92-.27,2.56-.08a2.09,2.09,0,0,1,1.17-.28c.09,0,0,.1,0,.1s1.22-.13.54-.35c2.14.61,6,0,7.85.48l3.72-.13H182l.64,0,.47,0c-.09.07,0,.1-.26.1,1.93,0,1.11-.67,3.29-.69,1.13.2-1.13.29-.43.34.37.62,2.59-.37,4.08-.15l-.35.08c1.13.09,2.67-.55,4.48-.71,0,0-.08.07,0,.1a33.49,33.49,0,0,1,5.26-1.13c-.52.31-.78.22-.42.44.78-.12-.27-.38,1.27-.63.52.08,1.66.07,1.84.33l-1.47.18c.8.27,1.9-.23,2.68-.26l-.08.17c2.24-.31,2.23-.7,4.65-1l-.27-.08c1.27-.54,1.14.08,2.41-.35a1,1,0,0,1,.25.36c.27-.08.88-.28,1.79-.49a11.51,11.51,0,0,1-.47,1.4,9.5,9.5,0,0,1,.1-1.13c-.48.13-.85.25-1.11.35l.79-.12a1.25,1.25,0,0,0-.12.69,1.07,1.07,0,0,1,.19-.56c.11.13.07.47-.07.95a4.48,4.48,0,0,1-.33.84c-.2.33-.41.67-.65,1-.12-.16-.34,0-.62.29s-.58.83-1,1.29-.87,1-1.29,1.43a3.19,3.19,0,0,1-1.2.81c-1.92,2.26-4.6,3.6-7.7,5,.67,0,.45.11.11.29s-.82.34-.61.58a4.52,4.52,0,0,1-1.12.44c-.81.19-1.64.29-2.45.43-.6,0,.69-.36.58-.47-1.69.5-.78,0-1.94.12.29.14-.5.48-1.5.59.48,0,.95,0,1.43-.05-2.34.88-2.17,0-4.56.67q.38-.13.75-.3a25.48,25.48,0,0,1-2.92.41l-1.67.14a5.32,5.32,0,0,0-1.32.27c-.23-.08-.54-.24,0-.29-3.15-.07-7,.53-9.44.22l.24-.15a4.75,4.75,0,0,1-1.76.13c0-.06.24-.14,0-.15a10.42,10.42,0,0,1-2.34.17l.66-.17c-3.06-.19-4.7.41-7.27.52,0-.44-2.41-.59-3.61-.66l0-.06c-3.57-.06-6.07.36-9.37.54-2.05-.48-7-.2-10.25-.47.5.08-.08.34-.67.39-.77-.09-2.14.3-2-.1h.28c-.58-.39-2.18-.29-3.42-.3l-.2.53c-3.25-.77-8.52.28-10.29-.4-.78.13-1.75.13-2.53.26l0-.29c-2.17-.07-3.26-.1-5.94,0l.55-.2c-1.52,0-1.92.82-3.31.84l-.42-.43c-2.65,0-5.32-.36-7.93,0,0-.06.12-.18.55-.2-1.25,0-4.81-.29-4.36.29,0-.37-2.73,0-4.15.13l.22-.27a8.88,8.88,0,0,1-2.93.55c-.4,0-.35-.23.18-.15-1.33-.15-1,.26-2.64.11l.6-.18a4.38,4.38,0,0,0-2,.28,5.91,5.91,0,0,1-2.8-.32,3,3,0,0,1-1.73.29c-.11-.1.18-.16.33-.18-2.29-.19-3.4.32-5,0,0-.1-.14-.14-.27-.17,1.82,0,3.28,0,3.14,0,0-.26-1.46-.3-.3-.66a20.83,20.83,0,0,1-4.62.5.76.76,0,0,1-.18-.09l.14,0a4.36,4.36,0,0,0-.9,0c-.46,0-.75-.07-1.18-.07-.17-.22-1.69-.12-2.42-.13.06.28-.89.24,0,.47-.11,0,.14,0,.63-.05a2.32,2.32,0,0,0,.31,0l0,0,1.82,0a4.41,4.41,0,0,1-2,.11c-.38.18-.79.36-1,.45-1-.39-2.93-.6-3.2-.85-2.23.16-5.26.11-6.66.64a1.33,1.33,0,0,1-1-.24,6.66,6.66,0,0,0,1-.12c-1.27.14-3.76.05-4.06.42-1.6-.16.9-.34-1.3-.28l.29-.11c-4.32-.59-7,.94-11.82.19.33,0,.5.06.57.13-1.37-.09-2.76-.11-4.15-.1a26.07,26.07,0,0,1-4-.5,19.87,19.87,0,0,1-7.49-3,7.92,7.92,0,0,0-2.37-1.09l-.09-.44c-.5-.19-1-.41-1.48-.64-1.94-1.21-2.46-3-4.63-4.81l.08.41c-.65-.78-2.07-2.48-1.76-2.48a1,1,0,0,1-.49-.55l.11-.11a22.55,22.55,0,0,1-1.46-2c-.36-.9-.16-.89-.05-1s.14-.28-.21-1.5a9.62,9.62,0,0,1-.37-1.3c0-.08-.13-.1-.07-.15s.07-.12,0-.14-.17,0-.26.11-.18.27-.27.26a.71.71,0,0,1,.38-.68c0-.25.32-.51.2-.72,0-.05-.08-.1-.23-.13a1,1,0,0,0-.68.09,1.67,1.67,0,0,0-.78.83,4.24,4.24,0,0,0-.18.57c0,.17-.05.38-.06.58a7.35,7.35,0,0,0,.69,1.84v.62a10.84,10.84,0,0,1-.49-1.49,3.09,3.09,0,0,0,.76,1.92,1.43,1.43,0,0,0,.08.78c.38.46.79.9,1.2,1.31,0,.28-.7-.48-.21.57.6.57-.05-.86.76.18.27.81,0,.71.69,1.4,0,.18-.2.07-.46-.23.6.64,1.42,1.81,1.9,2,.34.84,2,2.1,1.63,2.34a16.15,16.15,0,0,1,1.93,1.31c-.71-.28-.18.23.5.79s1.47,1.18,1.15,1.3c1.13.27,3.34,2,5.2,2.59A1.15,1.15,0,0,1,32,47c.94.52,1.17.76,1.77,1.11.28-.29,1.86.24,2.78.26,1.14.74-.89.2-.62.67,0-.32,2.29.35,1.93,0,.92.46.81.31,1.25.75.27-.44.94.09,1.81-.06a1.81,1.81,0,0,1,.88.42.48.48,0,0,0,.25.08l.3,0a4.63,4.63,0,0,0,.6,0c.35.08.22.16-.07.22s-.39,0-.52,0Zm36.73-.77h0l-.76,0Zm3.07,0H80.56c-.11-.1,0-.2.32-.19C80.71,49.59,81.43,49.65,81.89,49.73Zm-6.5-1.95c.49,0,.65,0,.72.08l-.85,0-.06,0A.49.49,0,0,1,75.39,47.78Z"/><path class="cls-1" d="M74.52,48.15l-.2,0,.29.07.17-.09Z"/><path class="cls-1" d="M79.27,35.81h.07a.39.39,0,0,1-.14,0Z"/><polygon class="cls-1" points="124.31 50.27 124.31 50.2 124.04 50.26 124.31 50.27"/><path class="cls-1" d="M62.35,34.85a.41.41,0,0,0-.22-.07A.77.77,0,0,0,62.35,34.85Z"/><path class="cls-1" d="M55,34.79l-1-.1Z"/><path class="cls-1" d="M49.49,34.46a.28.28,0,0,0-.11.11h0Z"/><path class="cls-1" d="M138.77,34.32l.22,0C139.5,34.25,139.15,34.27,138.77,34.32Z"/><path class="cls-1" d="M112.18,35c.29,0,.56-.1.86-.13C112.57,34.82,112.2,34.81,112.18,35Z"/><path class="cls-1" d="M168.46,34Z"/><path class="cls-1" d="M114.27,34.84a5.6,5.6,0,0,0-1.23,0A7.22,7.22,0,0,0,114.27,34.84Z"/><path class="cls-1" d="M25.72,30,25.47,30s0,0,0,0Z"/><path class="cls-1" d="M25.43,30l-.3,0A.76.76,0,0,0,25.43,30Z"/><path class="cls-1" d="M24.51,29.84l.62.11A1.66,1.66,0,0,0,24.51,29.84Z"/><path class="cls-1" d="M32.87,31.89l.11-.08A.15.15,0,0,0,32.87,31.89Z"/><path class="cls-1" d="M35.08,32.3a18.68,18.68,0,0,0-2-.56l-.08.07C33.35,31.74,34.55,32.38,35.08,32.3Z"/><path class="cls-1" d="M44.18,35.09l-1.87-.35c.31.16.72.37-.14.26C44.5,35.67,41.72,34.7,44.18,35.09Z"/><path class="cls-1" d="M50,35.9c-1,0,0,.16-.06.21C50.63,36.06,50.79,36,50,35.9Z"/><path class="cls-1" d="M92.53,36l-.11.25C93.21,36.26,92.43,36.19,92.53,36Z"/><polygon class="cls-1" points="100.64 34.72 99.88 34.56 99.51 34.79 100.64 34.72"/><polygon class="cls-1" points="105.43 36.54 105.09 36.57 106.4 36.48 105.43 36.54"/><path class="cls-1" d="M176.72,36.45l-.23-.32C176,36.19,175.85,36.54,176.72,36.45Z"/><path class="cls-1" d="M207.43,33.34a3.2,3.2,0,0,0,1.74-.09C208.48,33.3,207.78,33.26,207.43,33.34Z"/><polygon class="cls-1" points="132.47 47.74 133.09 47.64 131.93 47.73 132.47 47.74"/><path class="cls-1" d="M29.19,61.91c-.28.09-.12.28.65.25l.54-.34Z"/><path class="cls-1" d="M34.34,62.53c.9-.16,1.94-.45,1.36-.75-.89.32-1.11.18-2.07.56-.76,0-1.34-.1-1.21-.22-.27.08-1.19-.08-1.6.13a9,9,0,0,0,3.58.06C34.68,62.38,34.41,62.46,34.34,62.53Z"/><path class="cls-1" d="M109.22,63l-.48,0A3.2,3.2,0,0,0,109.22,63Z"/><path class="cls-1" d="M155.61,63.22c-.35,0-.5,0-.51.07C155.42,63.27,155.69,63.25,155.61,63.22Z"/><path class="cls-1" d="M163.54,63.59l-.47,0A1.56,1.56,0,0,0,163.54,63.59Z"/><path class="cls-1" d="M109.22,63l1.24.11C110.55,63,109.83,63.07,109.22,63Z"/><path class="cls-1" d="M44.67,61.73a4,4,0,0,0-.67.08l.63,0Z"/><path class="cls-1" d="M88.77,63.31h-.38a1.73,1.73,0,0,0-.31.14Z"/><path class="cls-1" d="M73.07,63.36c.36,0,.48-.27.62-.39a1.71,1.71,0,0,1-.77.19C72.91,63.22,73,63.28,73.07,63.36Z"/><path class="cls-1" d="M48.19,62.87l-.44,0Z"/><path class="cls-1" d="M100,63.37a.33.33,0,0,0,.15.1S100.09,63.4,100,63.37Z"/><path class="cls-1" d="M20.6,78.67s0,0,0,0S20.65,78.56,20.6,78.67Z"/><path class="cls-1" d="M29.26,62.61l-.09.23s.07.1.12.12Z"/><path class="cls-1" d="M178,64H178C177.59,64,177.8,64,178,64Z"/><path class="cls-1" d="M181.16,122.58c1.51.25-2.45.32-.18.6C180.77,123.07,183,122.74,181.16,122.58Z"/><path class="cls-1" d="M45.08,61.76h0Z"/><path class="cls-1" d="M181,123.18h0l.23,0Z"/><path class="cls-1" d="M203,74.35a1,1,0,0,0,0-.36S203,74.1,203,74.35Z"/><path class="cls-1" d="M186.55,63.38l.62,0A5.15,5.15,0,0,0,186.55,63.38Z"/><path class="cls-1" d="M208.61,86a5.08,5.08,0,0,0,.35.84s0-.09,0-.15A2,2,0,0,1,208.61,86Z"/><path class="cls-1" d="M214.07,98.29a2.21,2.21,0,0,0,0-.25l-.18-.39Z"/><path class="cls-1" d="M4.12,116.07a2.28,2.28,0,0,1,.49-.47C4.34,115.71,5.08,113.88,4.12,116.07Z"/><path class="cls-1" d="M44.68,61.89a.6.6,0,0,1,.4-.13l-.45,0S44.58,61.86,44.68,61.89Z"/><path class="cls-1" d="M210.86,85.6l.83,2C211.47,87,211.17,86.29,210.86,85.6Z"/><path class="cls-1" d="M90.61,124.88l-.49,0A2.25,2.25,0,0,0,90.61,124.88Z"/><path class="cls-1" d="M214.3,93.34a7.34,7.34,0,0,0,.31,1.18,1.93,1.93,0,0,0,.17.2Z"/><path class="cls-1" d="M4.61,115.6Z"/><path class="cls-1" d="M9.72,102.47c-.84,1.86-.06,1,0,1.5-.9,2.26-.71.92-1.22,1.6-.53,1.42-.69,2.62-1.16,3.65-.09,0-.2.25-.16,0-.39,1.58-1.93,4.36-2.35,6.21a.54.54,0,0,1-.18.19c.29-.2.48-.17.58-.06-.37.84-.48,1.65-.84,1.86a1.82,1.82,0,0,0,.21-.86l-.3.92c-.66.64.42-1.24.19-1.35-.66,1.75-1.28,3.85-1.95,5.12-.43.14,1.26-3.1.21-1.48l1-2c-1.17,1.33.58-1.21-.57,0A27.68,27.68,0,0,0,2,120.52l-.28.69-.45,1.08C.9,123.05.52,123.91,0,125H.4c.72-.09.69-.16.69-.23s0-.14.63-.24c3.44-.17,3.72,0,4.5.25A5.17,5.17,0,0,0,9,125a5.28,5.28,0,0,1,3.25-.43l-.73.38c2.81,0,1.6-.55,4.55-.29-.52.15-2.21.12-1.78.17,1.91.3,1.35-.22,2.82-.22l.3.34c3,0,6.3-.3,9.63-.36-.19.1-.76.21,0,.31,4.19-.17,8.94,0,13,.25l1.55-.3c.36,0,.66.14.27.19,1.58.11.09-.18.84-.3s1.19.17.62.26a68.5,68.5,0,0,1,10.84-.22l-.57.08c2.28.12,2.57-.6,4.69-.32l-.41,0c5,.12,10.42-.14,14.2.3.71-.42,4.89.19,5.21-.4a56,56,0,0,0,6,.59c1.06,0,1.58-.37,2.9-.43l0,.31,1.78-.32,1,.37,1.23-.08c-.49,0-1-.14-1-.23a15.53,15.53,0,0,1,4.74.37l4.56-.26a5.19,5.19,0,0,1-1.47.25c2.43-.32.44.32,2.67,0-.3-.07.16-.18.21-.24a36.46,36.46,0,0,0,5.51.11l-.36.21c3.38,0,7.12-.1,10.92-.1-1.36-.1-1.05-.47.06-.5l.45.32c.71-.2-1.17-.12.31-.37,1.41,0,1,.38.14.48l1.72-.11c.1.1-.3.15-.41.27.71-.2,3,.33,4,0l.1.09c3.79,0,5.51-.11,8.6-.12.06-.28,1.26-.22,2.18-.45,2.27.09,4.79.31,7.52.29,1.92-.14.56-.24,1.43-.41.14.26,2.87.24,1.45.42,3.28,0,4.19,0,8.34-.26-.45-.1-.95-.15-.69-.24.75,0,1.71.11,1.6.23l-.19,0c4.65-.38,10.75.75,14.45.21l-.2,0,3.84-.28c1.77,0-1.06.19.25.35,4.15-.43,6.56.06,10-.22,2.65.75,9.39,0,13,.43l-.21-.18c.92-.17,1.12.1,1.8.14-.1-.14-1-.16-.43-.25,7.81-.22,16.13.26,24.14.42a5.27,5.27,0,0,0,2.4-.39,3.33,3.33,0,0,1,1-.2,7,7,0,0,1,.81,0l1.65.1a13.61,13.61,0,0,0-1.53.33l.36,0,.65,0,1.31,0,2.56,0c-.8-1.76-1.6-3.53-2.41-5.29l-1.53-3.47c-1-2.31-2-4.59-3.16-6.76a2.65,2.65,0,0,1,.53.77,13.57,13.57,0,0,0-2-4.07c-.35-.84.08-.27-.06-.81-.37-1.18-1.53-2.69-1.58-3.39,0-.11.22.29.32.48-.43-.68-1.48-3.41-1.42-2.6-.77-2-1.8-3.75-2.36-5.4-.74-.9-1.37-3.46-1.92-3.61.48,0-1.21-3.63-2-4.8.32.37-.35-1.15,0-.73-.64-1.43-1.3-2.71-1.4-2.36-.68-2.86-2.76-5.13-2.79-6.9-2.11-4.16-4-8-5.81-11.82.47,0,1.92,4.22,2.28,3.86C202.45,67,201.91,66,201.4,65s-.89-1.61-1.72-3.36c-2,.05-2.7.07-4.1,0-1-.06.58-.2.93-.27-4,.18-7.68,0-11.22.2a2.73,2.73,0,0,1,.76-.12c-.7,0-1.62-.07-1.54.14l.67-.06c1.12.3-2.76.62-2.89.78,1.19-.59-3.49-.15-1.61-.89-.46,0-1,.14-.93.27-.68,0-.89-.12-.2-.27-2.5.11-1.61.33-3.87.32,0-.1.46-.14.7-.25a17.57,17.57,0,0,1-4.21.3c.12-.06-.1-.14.47-.14-3.28,0-5.59.52-9.19.33,1.06-.43-1.23-.14-1.42-.51l-1.93.11.78.18c-1.7,0-3.2.27-4.65.14l1.26-.15-3.18.07,1.8.14c-1.72.19.18.47-2.08.37.46,0-1.69,0-2.57-.22h0a13.09,13.09,0,0,1-3,.15c-.33-.12.26-.42.05-.5-.83.32-4,.09-5,.42.35-.07.37-.27.25-.31l-.69.25c-.79-.08-.9-.12-.77-.27-2.36,0,.75.47-2.06.27a5,5,0,0,1,.58-.1c-2.82-.11-5.44.16-8,0-.76-.38,2.26-.1,1.39-.41-3.73.06-7.72.45-11.33.36l.67,0c-.5.53-2.69-.26-4.51,0,.44,0,.58-.3.46-.24-2.47-.08-5,.13-8.8.3l.47-.14c-1.46-.12-3.84-.07-5.41-.13-.47.14-1.37.11-.82.31-4.85-.77-9.26.42-13.56-.23.51,0,1.23-.12.82-.12L88.53,62c.29.23.48.14,1.25.32a10.48,10.48,0,0,1-2.41.24c1.65-.15,0-.37-.72-.5.12.07-.13.15-.07.22-1.91-.41-.32.47-2.93.19l.14-.12c-1,.06-1.88.22-2.94.19-.44-.27,1-.13,1.11-.35-1.48,0-2.93.51-4.27.24.63-.07,1.54-.07,2.17-.15A11.2,11.2,0,0,0,77.14,62h.11l-2.51-.15.64.09c-1.86.7-3.78.13-6.28.58,2.43-.43.4-.25.59-.55-.64-.08-1.61-.18-1.33-.26-1.18.24-2-.2-3.64.16-.08-.1-1.26,0-1-.25-1.53.07.36.17.24.29-2.37.33-5.57-.41-9,0-2.94.19-3.48.52-6.21.68-.91-.15.76-.35.76-.35a20.57,20.57,0,0,0-4,0c.28-.08,0-.16-.43-.27-1.13,0-.75.36-2.23.22a4.71,4.71,0,0,1,1.12-.4c-1.33.09-2.63.28-4,.36-.36-.17.83-.25,1.31-.36a21.71,21.71,0,0,0-4.46.42l1,.09c-.57,0-.29-.23.12-.28,1.32-.21,1.9.1,2,.2l-1,.06c1,.57,3.92-.09,5.88-.06l-.82.42,2-.35c.43.11.72.34-.25.4,1.41.21,1.25-.14,2.46.08.13,0,.07.06-.05.08l1.37-.13c-.27.09.23.3-.61.24,2.46.24,4-.32,4.9,0l-.2,0c3.42-.15.33-.31,2.89-.67l1.73.75.34-.3c.35,0,1,0,.92.16,1.31-.21-.22-.14.54-.33,1.7.27,4.68-.14,5.07.35.61-.23-1.63-.18.19-.34.51.52,2.09-.09,3.65.15-.48.27-2,.13-.4.37.94-.46,3,.1,4.34,0,.06-.36,2.84-.15,5-.27-.14.12,4.14.2,6.18.33l-.06.06c.39-.37,2.5-.3,4-.37-.06.22-.34.3-1.17.4h1.44a6.16,6.16,0,0,1,1.73-.22l-.36.27c1.92,0,3.87-.32,6.34-.14.14-.25-2-.71.65-.88.09.14.19.37-.49.43a5.73,5.73,0,0,1,1.25-.05L96.46,63c1.13.1.59-.2,1.49-.17,0,.19.67.14.54.29a7.07,7.07,0,0,0-1.13,0,12.2,12.2,0,0,1,2.64.3c-.08-.11,0-.26.75-.29,1.92,0,.65.24,1.78.34.46-.14,1.69,0,1.72-.29a1.63,1.63,0,0,1,.88.22c1-.13,4.65,0,3.52-.35l-.25,0,.16,0h0c3.26-.29,6.77.17,10,0v.1c1.93-.11,4.3-.06,5.67-.28.58,0,1.35.18,1.11.3a20,20,0,0,1,3.77,0c-1.48.17.51.15-1.52.12a18.1,18.1,0,0,0,4.41,0c-.7.25,1.44.32,2.35.24L133,63.26c1,0,1.92,0,2.83,0l-.49.33c3.92.41,7.07-.69,10.06,0,1-.23-2.13-.16-1.2-.44,1.8.05,3.68.53,4.25.53,2.47.18,2.3-.49,4.89-.36-.33-.12-.64-.44,1.29-.55s2.22.5,1.08.59c-.43,0-.64,0-.62-.07-.59.05-1.35.1-.64.23l.24-.12c.89.12,3.38.11,2.79.3,1.37-.11.59-.19-.42-.25,2.31.17,3.61,0,6,.12-.38-.07-.73-.21-.35-.21,3.49.15,1.54-.22,3.91-.27,1.34.18-.49.43,1.9.28,1.46.12.31.31-.27.41a30.46,30.46,0,0,1,5.3.19l-1.14.1c.68-.06,1.24-.06,1.81-.06l-.65-.24c.67,0,1.24,0,1.23.14.69-.15-.53-.39.84-.6.9.12,2.73-.13,3,.18-2.82-.1.31.32-2.07.37a10.65,10.65,0,0,1,1.69,0c.1,0-.09.06-.28.08,2.7.28,1.24-.36,4-.35-.36.18.64.34,1.1.3-1.13,0-.54-.3.49-.43a19.41,19.41,0,0,0,2.89-.09l-1.07-.07A10.76,10.76,0,0,1,188,63.1c.1.14-1.14.1-.69.16,1.39-.31,3.13.32,5.07.11.89.12.08.34.87.42,2.17-.23,2.35.24,4.62.05-.32-.12-.52-.16-.43-.21s.63-.09.92-.2l-.23,0h-.36l-.93,0L195,63.6l2.41-.35c-1.13,0-2.39.15-3.07.11,1.15-.2,1-.14.49-.33a7,7,0,0,0,2.09.08L198,63a6.08,6.08,0,0,1,.85,0c0,.13.09.27.13.4l-.48.39,0,.17c0,.09.11.29.17.42.12.3.25.59.38.87.27.57.56,1.12.86,1.7a36.26,36.26,0,0,1,1.91,4l-.36-1.07a20.76,20.76,0,0,1,1.45,3c-.22,0,0,.66.08,1.15.11-.11,1,2.34,1.52,2.47l.39,1.53c1.05,2.62,1.82,2.71,2.86,5.21-.53-.65-.15.53-1-1.07.37.83.66,1.59.79,1.54.1.54,1.26,2.19,1.43,3A3.4,3.4,0,0,1,209.8,88c0,.12-.09,0-.09,0s.77,1.4.61.5c.57,2.79,3.2,7.1,3.7,9.53.87,1.77,1.89,3.92,2.63,5.55-.1-.08-.09,0-.21-.28.84,2.33,1.13,1.16,2.09,3.81.29,1.44-.76-1.29-.51-.43-.44.62,1.46,3.07,1.88,5l-.22-.4c.39,1.41,1.66,3.13,2.58,5.31,0,0-.1-.09-.1,0a25.83,25.83,0,0,1,1.64,2.81c.53,1.05,1.09,2.17,1.58,3.12-.53-.57-.45-.68-.62-.43.13.26.24.25.38.31s.34.2.75,1.05c0,0,0,0,0,.08-.81-.14-1.87-.26-2-.52h1a1.66,1.66,0,0,0-1-.14l-.2,0-.46,0a7.91,7.91,0,0,1-.83,0l.13-.16c-2.94,0-3,.44-6.15.42l.33.11c-1.73.39-1.45-.22-3.17.07l-.52-.39c-1.14.09-4,.38-6,.45,1.16-.29,3.55-.44,5-.61a30.08,30.08,0,0,0-4.43.22,7.38,7.38,0,0,1,1.48-.07,25.42,25.42,0,0,1-5.46.45c.4-.76-5.87-.19-7.5-.78-4,.28-7.91-.12-12.55-.08,1.65.6-1.35,0-1.07.63a7.72,7.72,0,0,1-1.59,0l-3.27-.37c-.78-.17,1-.13.93-.27-2.37,0-1-.26-2.56-.42.32.22-.83.31-2.18.23l1.9.28c-3.3.33-2.85-.51-6.19-.19l1.06-.19c-1.71.11-6.31,0-8,.49-.3-.07-.7-.24,0-.29-4.09-.07-9.1.53-12.28.22l.31-.14a8.68,8.68,0,0,1-2.28.13c.05-.07.3-.15,0-.16a17.35,17.35,0,0,1-3,.17l.87-.17c-4-.19-6.12.41-9.47.52,0-.44-3.13-.59-4.69-.66l.05-.06c-4.64,0-7.89.36-12.19.54-2.67-.48-9-.2-13.33-.47.66.08-.1.34-.87.39-1-.09-2.78.3-2.62-.1h.36c-.76-.4-2.83-.29-4.45-.31l-.26.53c-4.23-.77-11.07.28-13.38-.4-1,.13-2.28.13-3.29.26l0-.28c-2.83-.08-4.24-.11-7.73,0l.71-.21c-2,0-2.48.82-4.3.84l-.55-.43c-3.43,0-6.91-.36-10.31,0,.06-.06.16-.18.72-.2-1.62,0-6.26-.28-5.67.3,0-.38-3.55,0-5.41.12l.29-.27a14.43,14.43,0,0,1-3.8.55c-.52,0-.46-.22.23-.15-1.73-.15-1.34.26-3.44.11l.78-.18a7,7,0,0,0-2.61.29,9.81,9.81,0,0,1-3.64-.33,5,5,0,0,1-2.26.29c-.14-.1.24-.15.43-.18-3-.19-4.42.32-6.46,0,0-.1-.17-.14-.34-.17,2.36,0,4.26,0,4.08,0,0-.25-1.91-.3-.39-.65a36.11,36.11,0,0,1-6,.49,1.1,1.1,0,0,1-.24-.09l.19,0a7.5,7.5,0,0,0-1.18,0c-.59,0-1-.07-1.54-.07a13.27,13.27,0,0,0-3.13-.13c.08.28-1.17.24,0,.47-.15,0,.18,0,.81,0a2.25,2.25,0,0,0,.4,0l-.06,0,2.36,0a7.35,7.35,0,0,1-2.58.11c-.49.18-1,.36-1.33.45-1.3-.39-3.81-.6-4.16-.84-2.91.15-6.84.1-8.67.63A2.06,2.06,0,0,1,6.1,123a11.38,11.38,0,0,0,1.31-.12c-.42,0-.93.06-1.47.07L4.39,123a5.51,5.51,0,0,0-1.62.29H2.71c.39-.67.4-.49.44-.44s.05.07.33-.62a.75.75,0,0,0,0,.16l.29-.44.05-.09.11-.21.22-.44c.27-.59.52-1.16.74-1.73.45-1.13.82-2.24,1.21-3.36a34.89,34.89,0,0,1,3.18-7.25,2.16,2.16,0,0,1-.41.62c3.19-6.36,5.66-13.51,9-19.71A10.85,10.85,0,0,0,19,86.52l.45-.28.53-2c1-2.8,2.75-4.37,3.83-8l-.38.36c.58-1.21,1.61-3.93,1.74-3.63a1.59,1.59,0,0,1,.29-.93l.16,0,1.09-3.12c1.15-2.29.42.62,2-2.77.5-1.29,1.18-3.8.87-3.36s-.67,1.26-.83,1.24l.44-1.2c-.33-.39-.37-1.48-1.93,1.23l-.62,2.1-.49.54L26.85,65A5.66,5.66,0,0,0,26,67.3a2.06,2.06,0,0,0-.59.73l-.46,2.13c-.27.16.06-1-.61.24-.22,1,.76-.71.21.86-.61.86-.65.51-1,1.7-.18.11-.14-.16,0-.62a25.18,25.18,0,0,0-1.11,3.25c-.68.88-1.43,3.37-1.79,3.1a17.15,17.15,0,0,1-.84,2.8c.25-1.88-1.55,3.39-1.87,2.72-.11,1.42-1.78,4.53-2.51,6.81a1.79,1.79,0,0,1,.17-.59,22.41,22.41,0,0,1-1.3,2.26c.28.32-.48,2.27-.72,3.39-1,1.35,0-1.1-.56-.77.33,0-.87,2.74-.4,2.33-.72,1.06-.54,1-1.1,1.41.36.4-.4,1.1-.55,2.18-1,1.56-.61.24-1.29,2.13C9.15,104.16,9.72,102.47,9.72,102.47Zm17.27,22h0l-1,0Zm4,0H29.25c-.14-.09,0-.19.42-.19C29.45,124.35,30.39,124.4,31,124.48Zm-8.45-1.94c.63,0,.84,0,.93.07l-1.11,0-.07,0A.46.46,0,0,1,22.54,122.54Z"/><path class="cls-1" d="M21.4,122.9l-.26,0,.38.07.22-.09Z"/><path class="cls-1" d="M108.65,63h.09a.69.69,0,0,1-.18,0Z"/><polygon class="cls-1" points="86.16 125.02 86.16 124.95 85.81 125.01 86.16 125.02"/><path class="cls-1" d="M86.65,62a1,1,0,0,0-.29-.07A1.13,1.13,0,0,0,86.65,62Z"/><path class="cls-1" d="M77.14,62l-1.34-.1C76.38,61.93,76.8,62,77.14,62Z"/><path class="cls-1" d="M69.83,61.83a.35.35,0,0,0-.14.12h0Z"/><path class="cls-1" d="M186.05,61.5h.28C187,61.43,186.54,61.45,186.05,61.5Z"/><path class="cls-1" d="M151.46,62.16c.37-.06.73-.11,1.11-.14C152,62,151.48,62,151.46,62.16Z"/><path class="cls-1" d="M210.77,85.38h0l.1.22Z"/><path class="cls-1" d="M154.18,62a8.7,8.7,0,0,0-1.61,0A14.41,14.41,0,0,0,154.18,62Z"/><path class="cls-1" d="M38.15,61.7H37.8s0,0,0,0Z"/><path class="cls-1" d="M37.76,61.73l-.39,0A1,1,0,0,0,37.76,61.73Z"/><path class="cls-1" d="M36.54,61.84l.83-.07A2.62,2.62,0,0,0,36.54,61.84Z"/><path class="cls-1" d="M47.83,61.83l.11-.1C47.88,61.75,47.84,61.78,47.83,61.83Z"/><path class="cls-1" d="M50.77,61.8A23.75,23.75,0,0,0,48,61.65l-.09.08C48.4,61.58,50.1,62,50.77,61.8Z"/><path class="cls-1" d="M63,63.06,60.58,63c.43.11,1,.25-.13.28C63.56,63.59,59.81,63,63,63.06Z"/><path class="cls-1" d="M70.68,63.22c-1.32.05,0,.16-.05.22C71.47,63.34,71.67,63.31,70.68,63.22Z"/><path class="cls-1" d="M125.89,63.22l-.13.26C126.78,63.44,125.77,63.38,125.89,63.22Z"/><polygon class="cls-1" points="136.45 61.9 135.45 61.74 134.98 61.97 136.45 61.9"/><polygon class="cls-1" points="142.68 63.72 142.24 63.76 143.94 63.66 142.68 63.72"/><path class="cls-1" d="M212.87,96.2l.17-.41C212.7,95.18,212.32,95.2,212.87,96.2Z"/><path class="cls-1" d="M216.83,123a5.27,5.27,0,0,0-2.25-.11C215.48,122.93,216.38,123.05,216.83,123Z"/><polygon class="cls-1" points="96.78 122.5 97.58 122.39 96.07 122.48 96.78 122.5"/><path class="cls-1" d="M46.85,49c-.09,0-.29,0-.25,0h.33Z"/><path class="cls-1" d="M46.23,49.14a4.85,4.85,0,0,0,.75,0c-.32,0-.19,0-.57-.06,0,0,.11,0,.23,0-.08,0,.08,0-.13,0s-.27.07-.06.11Z"/><path class="cls-1" d="M45.72,51.3h0Z"/><path class="cls-1" d="M45.53,52.65l-.07,0Z"/><path class="cls-1" d="M45.17,52.88l0,0S45.14,52.87,45.17,52.88Z"/><path class="cls-1" d="M45.72,51.3l-.11,0C45.72,51.34,45.69,51.32,45.72,51.3Z"/><path class="cls-1" d="M47,49.44l-.09,0H47Z"/><path class="cls-1" d="M45.45,50.71h-.14Z"/><path class="cls-1" d="M45.4,50.26s.27,0,.39,0l-.19,0Z"/><path class="cls-1" d="M45.89,49.54l0,0Z"/><path class="cls-1" d="M45.39,51h0Z"/><path class="cls-1" d="M47.5,63.75h0Z"/><path class="cls-1" d="M46.11,64.28h0Z"/><path class="cls-1" d="M44.81,53.3h0S44.79,53.29,44.81,53.3Z"/><path class="cls-1" d="M45,57.15c.25,0,.32.07.6,0A2.36,2.36,0,0,0,45,57.15Z"/><path class="cls-1" d="M47,49.45s0,0,0,0S47,49.45,47,49.45Z"/><path class="cls-1" d="M45.62,57.16Z"/><path class="cls-1" d="M45,54.26h0Z"/><path class="cls-1" d="M45.38,53.54l0,0S45.38,53.55,45.38,53.54Z"/><path class="cls-1" d="M45.38,54.64s-.06,0,0,0h0S45.33,54.65,45.38,54.64Z"/><path class="cls-1" d="M45.38,55h0Z"/><path class="cls-1" d="M47.36,62.57l-.25,0C47.31,62.58,47.38,62.64,47.36,62.57Z"/><path class="cls-1" d="M46.87,49.44H47s0,0,0,0Z"/><path class="cls-1" d="M47.59,54.65l0,.07A.08.08,0,0,0,47.59,54.65Z"/><path class="cls-1" d="M47.32,59.77l0,0Z"/><path class="cls-1" d="M47.59,54.9a.54.54,0,0,0-.19,0h.07Z"/><path class="cls-1" d="M47.11,62.59Z"/><path class="cls-1" d="M47.78,63c0-.06-.37,0-.58,0s.27,0,.46-.05c-.09,0-.43-.08-.42-.11h.16c-.29,0,0-.13-.38-.19H46.6s-.23-.05,0-.06c0,0,.09,0,.17,0l-.11,0c.35,0,.12,0,.38,0-.12,0-.4-.12-.3-.16.34,0,.11.1.41,0l-.13.07c.54-.05,0,0,.54,0,.1-.08-.18-.09-.08-.18-.18,0-.28,0-.46,0-.34-.12.85-.09.4-.18-.23,0-.66,0-.43-.1l.38,0c0-.09-.55,0-.29-.14s.13.07.17.06c.31-.06-.22,0-.22-.09h.34c-.05-.08-.29-.18-.36-.27a1.61,1.61,0,0,0,.31,0c-.17-.13.05-.26.25-.38l-.3-.05h.19c.12,0-.18,0-.3,0s.17,0,.26,0c-.25-.08-.54-.22-.22-.31l.08,0c.12-.07-.6-.08-.32-.14H47c.13-.14-.14-.3.3-.41-.42,0,.19-.14-.4-.15a2.21,2.21,0,0,0,.59-.17s-.37-.05-.43-.09h.31l-.32,0,.37,0-.08,0a.9.9,0,0,1-.23,0c-.14-.06.22-.14.37-.14l-.26-.13a.76.76,0,0,1,.25,0c-.32-.07.32,0,0-.08a1.92,1.92,0,0,1-.24,0c.19,0,.19-.11.11-.16h.21c0-.1-.1-.21-.1-.32a1.19,1.19,0,0,1-.5,0h.33c-.21,0-.13,0-.37,0a1.2,1.2,0,0,1,.47,0l-.11,0h.27c-.2,0,.33-.08,0-.11h.09c0-.11-.1-.16-.12-.25a1.85,1.85,0,0,1-.45-.07c.09-.06.31-.13.29-.21s-.24,0-.41,0c.26,0,.24-.08.42,0,0-.09,0-.12-.26-.24a1,1,0,0,1-.24,0S47,58,47.12,58h0c-.38-.13.75-.31.21-.42h0l-.28-.11c0-.05.19,0,.35,0-.42-.12.06-.19-.22-.29.76-.08-.05-.27.43-.37h-.18c-.17,0,.1,0,.14,0-.13,0-.16,0-.25,0-.22-.22.26-.47.42-.7.05-.08-.92,0-.5-.15l.33,0c-.39-.17,0-.35-.32-.52.08,0,.18,0,.17,0,.24,0,0-.13-.18-.13,0,0,.18,0,.28,0s-.31-.09-.07-.11l.1,0c-.12,0,0-.11-.25-.08.13-.07-.13-.12,0-.17-.31,0,.15-.11-.29-.12.45,0,.36-.11.15-.15.14,0,.14,0,.33,0,0,0-.09-.09-.32-.08.54-.08-.44-.17.26-.22A2,2,0,0,1,47,54c.46,0,.05.14.52.13-.18-.11-.57-.18-.46-.29s.19,0,.27,0c-.18-.11,0-.22-.2-.32l.12,0s.07-.05-.14-.05l.06,0a3.66,3.66,0,0,1-.78-.08c.59,0,.15-.1.89-.05a.91.91,0,0,0-.28,0,.54.54,0,0,1,.28,0c-.11-.07-.33-.05-.32-.11l.25,0c-.19,0-.39-.07-.3-.12s.13,0,.13,0-.51-.16-.33-.26c.44,0,.15,0,.52-.05l-.11,0-.18,0s-.27-.09-.15-.13l.16,0-.07-.09-.14,0c-.2,0-.48,0-.37-.06s0-.05.22-.07h0c-.12,0-.24-.05-.15-.09s.41,0,.49,0c-.31,0-.08-.11-.42-.14h.32l-.25,0a.64.64,0,0,1,.27,0c0-.06-.47,0-.27-.06l.1,0c.11-.08-.16-.16,0-.23.38,0,.1.06.41,0-.07-.11-.45-.23-.36-.33l0,0c-.53,0,.26-.08,0-.13h.24c.08-.07-.13-.14-.3-.25h.14c.12,0,.07-.11.13-.16a1.37,1.37,0,0,0-.31,0c.77-.14-.42-.27.23-.39a.23.23,0,0,0,.12,0l-.13-.1a1.39,1.39,0,0,0-.32,0c-.14,0-.24,0-.24-.07a1.19,1.19,0,0,0,.5,0h-.22c.41-.06-.47,0-.19-.09h.12c-.06,0-.22-.06-.19-.09.27,0,.13,0,.35,0,0-.05-.51-.09-.24-.13.07,0,.07,0,.15.06.31,0,.23,0,.28-.07h0l.14-.07h-.08c-.7,0-.13-.1-.58-.18a1.78,1.78,0,0,0,.55,0,.78.78,0,0,1,.26,0c-.24,0,.19-.06-.16-.1.09,0,0,0,.25,0-.07-.05-.17,0-.29,0-.33-.06.4-.16,0-.26-.19-.08-.52-.1-.68-.18a1.14,1.14,0,0,1,.35,0c.14,0,.12-.08,0-.12a1.19,1.19,0,0,0,.26,0s-.35,0-.21-.07l.39,0c-.09,0-.27-.08-.36-.12a1.26,1.26,0,0,1,.37,0,.62.62,0,0,0-.42-.13l-.1,0a.85.85,0,0,1,.28,0c.21,0-.09.06-.19.06l-.06,0c-.57,0,.09.11.06.17l-.42,0,.35.06a1.29,1.29,0,0,1-.4,0c-.21,0,.14,0-.09.07h-.07l.13,0c-.09,0-.3,0-.24,0-.24.07.31.11,0,.14h0c.14.09.31,0,.67.08l-.76,0H46s0,0-.16,0c.21,0,.14,0,.33,0-.28,0,.13.14-.35.15.23,0,.18-.05.34,0-.53,0,.09.06-.15.11s-.13-.06-.37,0c.46,0-.1.09,0,.12.36,0,.15.09.27.15-.12,0-.2.12-.33.18h-.06c.36,0,.29.07.37.11a1.71,1.71,0,0,1-.4,0v0a.44.44,0,0,1,.22,0h-.28c0,.06.33.11.14.18a4.25,4.25,0,0,1,.89,0,1.88,1.88,0,0,1-.43,0s.11,0,0,0l-.23,0c-.1,0,.19,0,.17,0-.19,0-.14,0-.29,0s.08,0,0,0a.64.64,0,0,1-.3.08,1.07,1.07,0,0,1,.29,0c0,.06-.24,0-.34,0,.14,0,0,0,.29,0,0,0-.14,0-.22,0,.13,0,0,.13.35.1h0c.29.09-.17.19,0,.29h-.09c.11.05.06.12.28.16a.73.73,0,0,1-.3,0c.07,0,.18,0,0,.11s-.15,0-.13,0-.24.06,0,.12c-.25,0-.32,0-.24.07l.18,0s0,.06,0,.09l-.33,0c-.41.12.69.21,0,.29.23,0,.16-.06.44,0a5.37,5.37,0,0,1-.53.12c-.18.07.49.07.36.14a1.45,1.45,0,0,1,.55,0,1.42,1.42,0,0,1-.59,0s0,0,.06,0a.4.4,0,0,0-.22,0h.12c-.12,0-.11.1-.3.08a.3.3,0,0,0,.25,0c-.17.07,0,.11-.12.17h.21c-.15.11.22,0,.27.12-.18,0-.43,0-.28.05A.94.94,0,0,1,45,53c.23.07-.15.12-.19.16l-.1,0c.06,0,.06,0,.06.06l.24,0a.26.26,0,0,1-.15,0c.16,0,.4,0,.61,0-.12,0,.13.08-.18.09.1-.09-.32,0-.37-.06s0,0,0,.05h-.08c-.28.08.36,0,.35.11-.18,0-.34,0-.3,0s.3,0,.43,0c-.14,0,.1.06.09.08l.06,0c.18,0,.16,0,.21.08-.13,0-.09,0-.15,0,.31,0-.33.09-.12.14-.12,0-.33,0-.41,0,.23.06-.24.07,0,.13a.81.81,0,0,1,.41,0l-.17-.11.35.07s-.15-.07-.11-.09a.73.73,0,0,0,.33,0c-.36,0,.21.09,0,.14h-.59c-.26.08.3.14.15.24l.11,0c.23,0,0,.06.12.09a3.27,3.27,0,0,0-.39,0c.15,0,0,.08.38.09l-.26,0c-.1.08.57.1.5.17a1.91,1.91,0,0,1-.51,0s0,.05.1.05c-.12,0,.26.08.08.1.08,0,.29,0,.27.05h-.09a1.39,1.39,0,0,0,.35,0c-.62.08,0,.22-.49.29a.57.57,0,0,1,.15.18c-.06,0-.1,0-.08,0-.18.07.57,0,.36.12s-.17,0-.29,0c-.65,0,.09.1-.29.15h0c-.22,0,.25.1.2.17h-.1a.9.9,0,0,1,.53.2,1.67,1.67,0,0,0-.39,0s.42,0,.49.05a3.42,3.42,0,0,1-.54.07v-.06c-.36,0,0,.08-.05.1h-.16c0,.09.44.09.42.18h.11c.39.05-.21,0,.08.09l-.4,0a2.29,2.29,0,0,1,.46.17,3.44,3.44,0,0,1-.62-.14s0,.11.22.12c0,0-.13,0-.07,0,.31,0,.46.09.46.16-.77,0-.2.17-.79.22.28.11-.12.23-.08.36.6,0,0,0,.63,0,0,0,0,0,0,0l-.36.09c-.18,0-.14,0-.28,0s-.26,0-.42.08c.22,0,.32,0,.23.06l.28,0c.33.09-.51.08-.19.18l-.19,0c.11,0,0,.18.49.23a.87.87,0,0,1-.28,0c-.08.11.52.26.22.35H45s.28,0,.13.07h-.16c.05,0,.26.06.17.09l-.16,0c-.2.12.41.18.51.28a1.18,1.18,0,0,0-.66.13h-.06c-.05.13.37.23.54.35-.48.08-.2.27-.47.39a1.23,1.23,0,0,1,.39,0c-.09,0,.3.09-.1.08h0c-.4,0-.29.08-.3.13h.52c-.76.12.29.32-.4.38.13,0,.13.07.26.1h-.28c-.07.08-.11.12,0,.22l-.21,0c0,.06.82.07.84.13h-.42c0,.1-.37.2,0,.3a.56.56,0,0,1-.2,0s-.28.18.3.16c-.38,0,0,.11.13.16H45a1.61,1.61,0,0,1,.55.11s-.22,0-.15,0c-.15,0,.26,0,.11.09l-.17,0s.07,0,.28.08-.07.1-.33.1c.16,0,.36,0,.29.07h-.18c-.19.08.32.12.05.18h-.17c0-.07,0-.12,0-.12a3.24,3.24,0,0,1-.65,0c.19,0,.61.12.49.17h-.12s0,0,0,0-.07,0-.07,0c-.21,0-.12.06-.13.09a1.84,1.84,0,0,0,.47,0s0,0,0,0h0a.64.64,0,0,1,0-.07c.15,0,.27,0,.11.07l.45,0c-.39,0-.6.11-.84.12.15.09.1.2.63.25.07,0-.15,0-.24,0s0,0-.12,0c.14,0,.06.14.43.16-.17.06-.34,0-.28,0l-.12,0c-.59.17.95.27.19.45l.13,0c-.34.2.31.42-.22.63-.1,0,.13.06.31.09l-.3,0,.35.06c.25.08-.74.15-.26.25h.2s.12.12-.11.12c0,0,.21,0,.1,0h-.16l.28.1c-.12.07-.63,0-.66.1a1.92,1.92,0,0,0,.56.1s.1,0,.26,0l.08,0a5,5,0,0,0,1.27-.06l-.28-.06.22,0,0,.05c.21,0,0,0-.11-.07l.25,0L47,64a2.15,2.15,0,0,0,.47,0,4.45,4.45,0,0,1-.55,0c.21,0,.39,0,.21-.05a.81.81,0,0,1,.24,0c-.14,0-.06-.08-.3-.1.26,0-.07-.1.37-.1a1.07,1.07,0,0,1-.36-.08c.52,0,0-.11.59-.1-.47,0-.21-.14-.47-.21,0,0,.11,0,.09,0s.18-.05.27-.07a4.26,4.26,0,0,1-.72-.1,7.45,7.45,0,0,1,.82,0c-.32,0-.32-.08-.58-.07a3,3,0,0,1,.44,0c-.49,0-.09,0-.39-.06.24,0,.46,0,.31-.07A.84.84,0,0,1,47.78,63Zm-.85-1.37h0l0,0Zm0-.12a.07.07,0,0,0,0,0h-.19A.79.79,0,0,0,46.92,61.5ZM45,61.74s0,0,.07,0l0,0H45Z"/><path class="cls-1" d="M45.35,61.78h0l.06,0h-.08Z"/><path class="cls-1" d="M45.76,51.29Z"/><polygon class="cls-1" points="47.46 59.9 47.39 59.9 47.45 59.91 47.46 59.9"/><path class="cls-1" d="M46.73,50.65h0Z"/><path class="cls-1" d="M46.79,50.38l.1,0A.25.25,0,0,0,46.79,50.38Z"/><path class="cls-1" d="M46.93,50.16h0Z"/><path class="cls-1" d="M47.26,53.53h0C47.33,53.56,47.31,53.54,47.26,53.53Z"/><path class="cls-1" d="M46.6,52.53l.14,0S46.76,52.53,46.6,52.53Z"/><polygon class="cls-1" points="47.6 54.65 47.59 54.65 47.59 54.66 47.6 54.65"/><path class="cls-1" d="M46.73,52.61c.06,0,0,0,0,0S46.69,52.59,46.73,52.61Z"/><path class="cls-1" d="M47.06,49.25h0Z"/><path class="cls-1" d="M47,49.24l0,0Z"/><path class="cls-1" d="M46.92,49.2l.07,0S47,49.21,46.92,49.2Z"/><path class="cls-1" d="M46.93,49.53h0Z"/><path class="cls-1" d="M47,49.61s.21,0,.15-.08H47C47.18,49.54,46.78,49.59,47,49.61Z"/><path class="cls-1" d="M45.7,50l.08-.07c-.11,0-.26,0-.28,0C45.17,50,45.74,49.87,45.7,50Z"/><path class="cls-1" d="M45.54,50.19s-.16,0-.22,0A.33.33,0,0,0,45.54,50.19Z"/><path class="cls-1" d="M45.54,51.79h-.26S45.38,51.78,45.54,51.79Z"/><polygon class="cls-1" points="46.86 52.09 47.02 52.06 46.78 52.05 46.86 52.09"/><polygon class="cls-1" points="45.04 52.27 45 52.26 45.09 52.31 45.04 52.27"/><path class="cls-1" d="M45.13,55h.31S45,54.93,45.13,55Z"/><path class="cls-1" d="M45.45,56.12c-.16,0-.26,0-.1.06S45.49,56.13,45.45,56.12Z"/><polygon class="cls-1" points="44.94 59.59 44.83 59.57 44.92 59.62 44.94 59.59"/><path class="cls-1" d="M186.15,49c-.08,0-.28,0-.24,0h.33Z"/><path class="cls-1" d="M185.54,49.14a4.85,4.85,0,0,0,.75,0c-.32,0-.19,0-.57-.06,0,0,.11,0,.23,0-.08,0,.08,0-.13,0s-.27.07-.06.11Z"/><path class="cls-1" d="M185,51.3h0Z"/><path class="cls-1" d="M184.84,52.65l-.07,0Z"/><path class="cls-1" d="M184.48,52.88l0,0S184.45,52.87,184.48,52.88Z"/><path class="cls-1" d="M185,51.3l-.11,0C185,51.34,185,51.32,185,51.3Z"/><path class="cls-1" d="M186.34,49.44l-.09,0h.09Z"/><path class="cls-1" d="M184.76,50.71h-.14Z"/><path class="cls-1" d="M184.71,50.26s.27,0,.39,0l-.19,0Z"/><path class="cls-1" d="M185.2,49.54l0,0Z"/><path class="cls-1" d="M184.7,51h0Z"/><path class="cls-1" d="M186.81,63.75h0Z"/><path class="cls-1" d="M185.42,64.28h0Z"/><path class="cls-1" d="M184.12,53.3Z"/><path class="cls-1" d="M184.33,57.15c.25,0,.32.07.6,0A2.36,2.36,0,0,0,184.33,57.15Z"/><path class="cls-1" d="M186.3,49.45s0,0,0,0S186.31,49.45,186.3,49.45Z"/><path class="cls-1" d="M184.93,57.16Z"/><path class="cls-1" d="M184.29,54.26h0Z"/><path class="cls-1" d="M184.69,53.54l0,0S184.68,53.55,184.69,53.54Z"/><path class="cls-1" d="M184.68,54.64s-.06,0,0,0h0S184.64,54.65,184.68,54.64Z"/><path class="cls-1" d="M184.69,55h0Z"/><path class="cls-1" d="M186.67,62.57l-.25,0C186.62,62.58,186.69,62.64,186.67,62.57Z"/><path class="cls-1" d="M186.18,49.44h.12s0,0,0,0Z"/><path class="cls-1" d="M186.9,54.65l0,.07A.08.08,0,0,0,186.9,54.65Z"/><path class="cls-1" d="M186.63,59.77l0,0Z"/><path class="cls-1" d="M186.9,54.9a.54.54,0,0,0-.19,0h.07Z"/><path class="cls-1" d="M186.42,62.59Z"/><path class="cls-1" d="M187.09,63c0-.06-.37,0-.58,0s.27,0,.46-.05c-.09,0-.43-.08-.42-.11h.16c-.29,0,0-.13-.38-.19h-.42s-.23-.05,0-.06c0,0,.09,0,.17,0l-.11,0c.35,0,.12,0,.38,0-.12,0-.4-.12-.3-.16.33,0,.11.1.41,0l-.13.07c.54-.05,0,0,.54,0,.1-.08-.18-.09-.08-.18-.19,0-.28,0-.46,0-.34-.12.85-.09.4-.18-.23,0-.66,0-.43-.1l.38,0c0-.09-.55,0-.29-.14s.13.07.17.06c.3-.06-.22,0-.22-.09h.34c-.05-.08-.3-.18-.36-.27a1.61,1.61,0,0,0,.31,0c-.17-.13.05-.26.25-.38l-.3-.05h.19c.11,0-.18,0-.3,0s.17,0,.26,0c-.25-.08-.54-.22-.22-.31l.08,0c.12-.07-.6-.08-.32-.14h.05c.13-.14-.14-.3.3-.41-.42,0,.19-.14-.4-.15a2.21,2.21,0,0,0,.59-.17s-.37-.05-.43-.09h.31l-.32,0,.37,0-.08,0a.9.9,0,0,1-.23,0c-.14-.06.21-.14.37-.14l-.26-.13a.76.76,0,0,1,.25,0c-.32-.07.32,0,0-.08a1.92,1.92,0,0,1-.24,0c.18,0,.19-.11.11-.16h.21c.05-.1-.1-.21-.1-.32a1.19,1.19,0,0,1-.5,0h.33c-.21,0-.13,0-.37,0a1.2,1.2,0,0,1,.47,0l-.11,0h.27c-.2,0,.33-.08,0-.11H187c0-.11-.11-.16-.12-.25a1.85,1.85,0,0,1-.45-.07c.09-.06.31-.13.29-.21s-.24,0-.41,0c.26,0,.24-.08.42,0,0-.09,0-.12-.26-.24a1,1,0,0,1-.24,0s.11-.05.23-.05h0c-.38-.13.75-.31.21-.42h0l-.28-.11c.05-.05.19,0,.35,0-.43-.12.06-.19-.22-.29.76-.08-.05-.27.43-.37h-.18c-.17,0,.1,0,.14,0-.13,0-.16,0-.25,0-.22-.22.26-.47.42-.7,0-.08-.92,0-.5-.15l.33,0c-.39-.17,0-.35-.32-.52.08,0,.17,0,.17,0,.24,0,0-.13-.18-.13,0,0,.18,0,.28,0s-.31-.09-.07-.11l.09,0c-.11,0,0-.11-.24-.08.13-.07-.13-.12,0-.17-.31,0,.15-.11-.29-.12.45,0,.36-.11.15-.15.14,0,.14,0,.33,0,0,0-.09-.09-.32-.08.54-.08-.44-.17.26-.22a1.83,1.83,0,0,1-.52-.38c.46,0,.05.14.52.13-.18-.11-.57-.18-.46-.29s.19,0,.27,0c-.18-.11,0-.22-.2-.32l.12,0s.07-.05-.14-.05l.06,0a3.66,3.66,0,0,1-.78-.08c.58,0,.14-.1.89-.05a.91.91,0,0,0-.28,0,.54.54,0,0,1,.28,0c-.11-.07-.33-.05-.32-.11l.25,0c-.19,0-.39-.07-.3-.12s.13,0,.13,0-.51-.16-.33-.26c.44,0,.15,0,.52-.05l-.11,0-.18,0s-.27-.09-.15-.13l.16,0-.07-.09-.14,0c-.2,0-.48,0-.37-.06s0-.05.22-.07h0c-.12,0-.24-.05-.15-.09s.41,0,.49,0c-.31,0-.08-.11-.42-.14h.32l-.26,0a.72.72,0,0,1,.28,0c.05-.06-.47,0-.27-.06l.1,0c.11-.08-.16-.16,0-.23.38,0,.09.06.41,0-.07-.11-.45-.23-.36-.33l0,0c-.53,0,.26-.08,0-.13h.24c.08-.07-.13-.14-.3-.25h.13c.13,0,.07-.11.14-.16a1.42,1.42,0,0,0-.32,0c.78-.14-.41-.27.24-.39l.11,0-.12-.1a1.39,1.39,0,0,0-.32,0c-.14,0-.24,0-.24-.07a1.19,1.19,0,0,0,.5,0h-.22c.41-.06-.47,0-.19-.09h.12c-.06,0-.22-.06-.19-.09.27,0,.13,0,.35,0,0-.05-.51-.09-.24-.13.07,0,.07,0,.15.06.31,0,.23,0,.28-.07h0l.14-.07h-.08c-.7,0-.13-.1-.58-.18a1.78,1.78,0,0,0,.55,0,.78.78,0,0,1,.26,0c-.24,0,.19-.06-.16-.1.09,0,0,0,.25,0-.08-.05-.17,0-.29,0-.33-.06.4-.16-.05-.26-.19-.08-.52-.1-.68-.18a1.14,1.14,0,0,1,.35,0c.14,0,.12-.08,0-.12a1.19,1.19,0,0,0,.26,0s-.35,0-.21-.07l.39,0c-.09,0-.27-.08-.36-.12a1.26,1.26,0,0,1,.37,0,.62.62,0,0,0-.42-.13l-.1,0a.85.85,0,0,1,.28,0c.21,0-.09.06-.19.06l-.06,0c-.57,0,.09.11.06.17l-.42,0,.35.06a1.37,1.37,0,0,1-.41,0c-.2,0,.15,0-.08.07h-.07l.13,0c-.09,0-.3,0-.24,0-.24.07.31.11,0,.14h0c.14.09.31,0,.67.08l-.76,0h.31s0,0-.16,0c.21,0,.14,0,.33,0-.28,0,.13.14-.35.15.23,0,.18-.05.34,0-.53,0,.09.06-.15.11s-.13-.06-.37,0c.45,0-.1.09,0,.12.36,0,.15.09.27.15-.12,0-.2.12-.33.18h-.06c.36,0,.29.07.37.11a1.71,1.71,0,0,1-.4,0v0a.47.47,0,0,1,.22,0h-.28c0,.06.33.11.14.18a4.25,4.25,0,0,1,.89,0,1.88,1.88,0,0,1-.43,0s.11,0,0,0l-.23,0c-.1,0,.19,0,.17,0-.2,0-.14,0-.3,0s.09,0,0,0a.64.64,0,0,1-.3.08,1.07,1.07,0,0,1,.29,0c0,.06-.24,0-.34,0,.14,0,0,0,.29,0,0,0-.14,0-.22,0,.13,0,0,.13.35.1h0c.29.09-.17.19-.05.29H185c.11.05.06.12.27.16a.65.65,0,0,1-.29,0c.07,0,.18,0,0,.11s-.15,0-.13,0-.24.06,0,.12c-.25,0-.32,0-.24.07l.18,0s0,.06,0,.09l-.33,0c-.41.12.69.21,0,.29.23,0,.16-.06.43,0a4.68,4.68,0,0,1-.52.12c-.18.07.49.07.36.14a1.45,1.45,0,0,1,.55,0,1.43,1.43,0,0,1-.59,0s0,0,.06,0a.4.4,0,0,0-.22,0h.12c-.12,0-.11.1-.3.08a.3.3,0,0,0,.25,0c-.17.07,0,.11-.12.17h.21c-.15.11.22,0,.27.12-.18,0-.43,0-.28.05a.94.94,0,0,1-.41,0c.23.07-.15.12-.19.16l-.1,0c.06,0,.06,0,.06.06l.23,0a.2.2,0,0,1-.14,0c.16,0,.4,0,.61,0-.12,0,.13.08-.18.09.1-.09-.32,0-.37-.06s0,0,0,.05h-.08c-.28.08.36,0,.35.11-.18,0-.34,0-.3,0s.3,0,.43,0c-.14,0,.1.06.09.08l.06,0c.18,0,.16,0,.21.08-.13,0-.09,0-.15,0,.31,0-.33.09-.12.14-.12,0-.33,0-.41,0,.23.06-.24.07-.05.13a.82.82,0,0,1,.41,0l-.17-.11.35.07s-.15-.07-.11-.09a.73.73,0,0,0,.33,0c-.36,0,.21.09,0,.14h-.59c-.27.08.3.14.15.24l.11,0c.23,0,0,.06.12.09a3.27,3.27,0,0,0-.39,0c.15,0,0,.08.38.09l-.26,0c-.1.08.56.1.5.17a1.91,1.91,0,0,1-.51,0s0,.05.1.05c-.13,0,.26.08.08.1.08,0,.29,0,.27.05h-.09a1.39,1.39,0,0,0,.35,0c-.62.08,0,.22-.49.29a.57.57,0,0,1,.15.18c-.06,0-.1,0-.08,0-.18.07.57,0,.36.12s-.17,0-.29,0c-.65,0,.09.1-.29.15h0c-.22,0,.25.1.2.17h-.1a.9.9,0,0,1,.53.2,1.67,1.67,0,0,0-.39,0s.42,0,.49.05a3.42,3.42,0,0,1-.54.07v-.06c-.36,0,0,.08,0,.1h-.16c0,.09.44.09.42.18h.11c.39.05-.21,0,.07.09l-.39,0a2.29,2.29,0,0,1,.46.17,3.44,3.44,0,0,1-.62-.14s0,.11.22.12c0,0-.13,0-.07,0,.31,0,.46.09.46.16-.77,0-.2.17-.79.22.28.11-.12.23-.08.36.6,0,0,0,.63,0,0,0,0,0,0,0l-.36.09c-.18,0-.14,0-.28,0s-.26,0-.42.08c.22,0,.31,0,.23.06l.28,0c.33.09-.51.08-.19.18l-.19,0c.11,0,0,.18.49.23a.87.87,0,0,1-.28,0c-.08.11.52.26.22.35h-.15s.28,0,.13.07h-.16c.05,0,.26.06.17.09l-.16,0c-.2.12.4.18.51.28a1.18,1.18,0,0,0-.66.13h-.06c-.05.13.37.23.54.35-.48.08-.2.27-.47.39a1.23,1.23,0,0,1,.39,0c-.09,0,.3.09-.1.08h0c-.4,0-.29.08-.3.13h.52c-.76.12.29.32-.4.38.13,0,.13.07.26.1h-.28c-.08.08-.11.12,0,.22l-.21,0c0,.06.82.07.84.13h-.43c0,.1-.36.2,0,.3a.56.56,0,0,1-.2,0s-.28.18.3.16c-.38,0,0,.11.13.16h-.28a1.61,1.61,0,0,1,.55.11s-.22,0-.15,0c-.15,0,.26,0,.11.09l-.18,0s.08,0,.29.08-.07.1-.33.1c.16,0,.36,0,.29.07h-.18c-.19.08.32.12.05.18h-.17c0-.07,0-.12,0-.12a3.24,3.24,0,0,1-.65,0c.19,0,.61.12.49.17h-.12s0,0,0,0-.07,0-.07,0c-.22,0-.12.06-.13.09a1.84,1.84,0,0,0,.47,0s0,0,0,0h0a.64.64,0,0,1,0-.07c.14,0,.26,0,.11.07l.45,0c-.39,0-.6.11-.84.12.15.09.1.2.63.25.07,0-.15,0-.24,0s0,0-.12,0c.14,0,.06.14.43.16-.17.06-.34,0-.28,0l-.12,0c-.59.17.94.27.19.45l.13,0c-.34.2.31.42-.22.63-.11,0,.13.06.31.09l-.3,0,.35.06c.25.08-.75.15-.26.25h.2s.12.12-.11.12c0,0,.21,0,.1,0h-.16l.27.1c-.11.07-.62,0-.65.1a1.92,1.92,0,0,0,.56.1s.1,0,.26,0l.08,0a5,5,0,0,0,1.27-.06l-.29-.06.23,0v.05c.22,0,0,0-.1-.07l.25,0-.45-.06a2.15,2.15,0,0,0,.47,0,4.45,4.45,0,0,1-.55,0c.21,0,.39,0,.21-.05a.81.81,0,0,1,.24,0c-.14,0-.06-.08-.3-.1.26,0-.07-.1.37-.1a1.21,1.21,0,0,1-.37-.08c.53,0,0-.11.6-.1-.47,0-.21-.14-.47-.21,0,0,.11,0,.09,0s.18-.05.27-.07a4.26,4.26,0,0,1-.72-.1,7.45,7.45,0,0,1,.82,0c-.32,0-.32-.08-.58-.07a3,3,0,0,1,.44,0c-.49,0-.09,0-.39-.06.24,0,.46,0,.31-.07A.84.84,0,0,1,187.09,63Zm-.85-1.37h0l0,0Zm0-.12a.07.07,0,0,0,0,0H186A.79.79,0,0,0,186.23,61.5Zm-1.94.24s0,0,.07,0,0,0,0,0h-.1Z"/><path class="cls-1" d="M184.65,61.78h0l.06,0h-.09Z"/><path class="cls-1" d="M185.07,51.29Z"/><polygon class="cls-1" points="186.77 59.9 186.7 59.9 186.76 59.91 186.77 59.9"/><path class="cls-1" d="M186,50.65h0Z"/><path class="cls-1" d="M186.1,50.38l.1,0A.25.25,0,0,0,186.1,50.38Z"/><path class="cls-1" d="M186.24,50.16h0Z"/><path class="cls-1" d="M186.57,53.53h0C186.64,53.56,186.61,53.54,186.57,53.53Z"/><path class="cls-1" d="M185.91,52.53l.14,0S186.07,52.53,185.91,52.53Z"/><polygon class="cls-1" points="186.91 54.65 186.9 54.65 186.9 54.66 186.91 54.65"/><path class="cls-1" d="M186,52.61c.06,0,0,0,0,0S186,52.59,186,52.61Z"/><path class="cls-1" d="M186.37,49.25h0Z"/><path class="cls-1" d="M186.33,49.24l0,0Z"/><path class="cls-1" d="M186.23,49.2l.07,0S186.31,49.21,186.23,49.2Z"/><path class="cls-1" d="M186.24,49.53h0Z"/><path class="cls-1" d="M186.27,49.61s.21,0,.15-.08h-.08C186.49,49.54,186.09,49.59,186.27,49.61Z"/><path class="cls-1" d="M185,50l.08-.07c-.11,0-.26,0-.28,0C184.48,50,185.05,49.87,185,50Z"/><path class="cls-1" d="M184.85,50.19s-.16,0-.22,0A.33.33,0,0,0,184.85,50.19Z"/><path class="cls-1" d="M184.85,51.79h-.26S184.69,51.78,184.85,51.79Z"/><polygon class="cls-1" points="186.17 52.09 186.33 52.06 186.09 52.05 186.17 52.09"/><polygon class="cls-1" points="184.35 52.27 184.31 52.26 184.4 52.31 184.35 52.27"/><path class="cls-1" d="M184.44,55h.31C184.7,54.93,184.34,54.93,184.44,55Z"/><path class="cls-1" d="M184.76,56.12c-.16,0-.26,0-.11.06S184.8,56.13,184.76,56.12Z"/><polygon class="cls-1" points="184.25 59.59 184.14 59.57 184.23 59.62 184.25 59.59"/><path class="cls-1" d="M178,35.4c.08,0,.28,0,.24,0l-.33,0Z"/><path class="cls-1" d="M178.64,35.26a4,4,0,0,0-.75,0c.32,0,.19,0,.57.05,0,0-.11,0-.23,0,.09,0-.07,0,.14,0s.26-.05,0-.09Z"/><path class="cls-1" d="M179.16,33.34h0Z"/><path class="cls-1" d="M179.34,32.14h0Z"/><path class="cls-1" d="M179.7,31.94h0S179.73,31.94,179.7,31.94Z"/><path class="cls-1" d="M179.16,33.34l.1,0C179.15,33.3,179.18,33.32,179.16,33.34Z"/><path class="cls-1" d="M177.84,35h0Z"/><path class="cls-1" d="M179.43,33.86h.13Z"/><path class="cls-1" d="M179.48,34.27a2.94,2.94,0,0,0-.4,0l.2,0Z"/><path class="cls-1" d="M179,34.91h0Z"/><path class="cls-1" d="M179.49,33.57h0Z"/><path class="cls-1" d="M177.37,22.27h0Z"/><path class="cls-1" d="M178.77,21.8h0Z"/><path class="cls-1" d="M180.06,31.56h0S180.08,31.57,180.06,31.56Z"/><path class="cls-1" d="M179.86,28.14c-.25,0-.33-.06-.61,0A2.43,2.43,0,0,0,179.86,28.14Z"/><path class="cls-1" d="M177.88,35s0,0,0,0S177.87,35,177.88,35Z"/><path class="cls-1" d="M179.25,28.13Z"/><path class="cls-1" d="M179.89,30.7h0Z"/><path class="cls-1" d="M179.49,31.35l0,0Z"/><path class="cls-1" d="M179.5,30.37s.06,0,0,0h0S179.54,30.36,179.5,30.37Z"/><path class="cls-1" d="M179.5,30h0Z"/><path class="cls-1" d="M177.51,23.33l.25,0C177.56,23.31,177.49,23.26,177.51,23.33Z"/><path class="cls-1" d="M178,35h0Z"/><path class="cls-1" d="M177.28,30.36l0-.06A.07.07,0,0,0,177.28,30.36Z"/><path class="cls-1" d="M177.55,25.81h0Z"/><path class="cls-1" d="M177.28,30.14l.19,0h-.07Z"/><path class="cls-1" d="M177.76,23.31Z"/><path class="cls-1" d="M177.1,23c0,.05.36,0,.57,0s-.27,0-.46.05c.1,0,.44.07.42.1a.85.85,0,0,1-.16,0c.3,0,0,.12.39.17h.41s.24.05,0,.05c0,0-.09,0-.16,0l.1,0c-.34,0-.12,0-.37,0,.11.05.4.11.3.14-.34,0-.12-.08-.42,0l.13-.06c-.53,0,0,0-.53,0-.1.08.17.09.07.16.19,0,.28,0,.47,0,.34.11-.86.09-.4.17.22,0,.65,0,.42.08l-.38,0c0,.07.55,0,.29.12s-.12-.06-.17-.05c-.3.05.22,0,.22.07h-.34c0,.08.3.16.36.25a1.61,1.61,0,0,0-.31,0c.17.11,0,.23-.24.34l.29,0h-.19c-.11,0,.19,0,.3,0s-.17,0-.26,0c.25.07.54.2.23.28l-.09,0c-.12.06.6.07.33.12h-.06c-.12.13.15.27-.3.37.43,0-.19.13.4.13a2.89,2.89,0,0,0-.59.16s.37,0,.43.07h-.31l.33,0-.37,0,.08,0a.51.51,0,0,1,.22,0c.14.05-.21.12-.37.12l.26.12a.7.7,0,0,1-.24,0c.31.06-.33,0,0,.07a1.85,1.85,0,0,1,.24,0c-.18,0-.18.09-.1.14h-.22c-.05.09.1.18.1.28a1.19,1.19,0,0,1,.5,0h-.32c.2,0,.12,0,.37,0a1.1,1.1,0,0,1-.48,0l.11.05h-.27c.2,0-.33.07,0,.1h-.1c0,.1.11.15.12.22a3.82,3.82,0,0,1,.45.06c-.09.06-.31.12-.29.19a1.73,1.73,0,0,0,.41,0c-.26,0-.23.08-.42,0,0,.08.05.11.26.21a1,1,0,0,1,.24,0s-.11,0-.23,0h0c.39.12-.74.28-.21.37h0l.28.1s-.19,0-.35,0c.43.11-.06.17.22.26-.75.07.06.24-.43.33h.18c.18,0-.1,0-.14.05a1.33,1.33,0,0,1,.26,0c.21.21-.26.42-.42.63s.92,0,.49.13l-.33,0c.4.15,0,.31.32.46-.07,0-.17,0-.17,0-.24,0,0,.12.18.12a1.47,1.47,0,0,1-.27,0c-.14,0,.3.08.06.1l-.09,0c.11,0,0,.1.25.08-.14.05.12.1-.05.15.31,0-.14.09.29.1-.45,0-.36.1-.15.14a3.12,3.12,0,0,1-.33,0s.09.08.32.07c-.54.08.44.15-.25.2a2.25,2.25,0,0,1,.51.33c-.45,0-.05-.11-.52-.11.19.1.57.16.46.26s-.19,0-.27,0c.19.1,0,.2.21.29l-.13,0s-.06,0,.14,0l-.05,0a4.86,4.86,0,0,1,.78.07c-.59,0-.15.09-.89.05a1.23,1.23,0,0,0,.27,0,.69.69,0,0,1-.28,0c.11.06.33,0,.33.1l-.26,0c.2,0,.39.06.31.11s-.14,0-.14,0,.52.15.33.24c-.43,0-.14,0-.52,0l.11.05.19,0s.26.08.14.12l-.15,0,.07.09.14,0c.19,0,.47,0,.37,0s0,0-.23.07h0c.12,0,.24,0,.15.07h-.49c.31,0,.09.11.42.13a1.7,1.7,0,0,0-.32,0h.26a.71.71,0,0,1-.28,0c0,.06.48,0,.27.06l-.1,0c-.1.07.17.14,0,.21-.38,0-.09-.06-.41,0,.07.1.45.2.36.29h0c.54,0-.26.07,0,.11H178c-.09.06.13.13.29.23h-.13c-.12,0-.07.09-.13.13a.87.87,0,0,0,.31,0c-.78.12.41.23-.23.34a.25.25,0,0,0-.12,0l.12.1a2.33,2.33,0,0,0,.32,0c.14,0,.25,0,.25.06a1.37,1.37,0,0,0-.5,0,1.62,1.62,0,0,1,.22,0c-.41,0,.46,0,.19.07h-.13c.07,0,.23,0,.19.08-.27,0-.12,0-.34,0,0,0,.5.07.24.11-.08,0-.08,0-.15-.06-.32,0-.24,0-.29.07h0l-.14.06H178c.7,0,.13.09.59.16a2.24,2.24,0,0,0-.56,0,1.09,1.09,0,0,1-.26,0c.25,0-.19,0,.17.09-.1,0,0,0-.26,0,.08,0,.17,0,.29,0,.34.06-.4.14.06.23.18.08.51.09.68.16a1.35,1.35,0,0,1-.36,0c-.14,0-.11.07,0,.1a1.32,1.32,0,0,0-.27,0s.36,0,.21,0a2.56,2.56,0,0,1-.39,0c.09,0,.27.07.36.11a1.26,1.26,0,0,1-.37,0,.73.73,0,0,0,.42.12l.1,0a.85.85,0,0,1-.28,0c-.21,0,.09-.05.19-.05l.06,0c.58,0-.09-.1-.06-.15l.42,0-.34,0a1.3,1.3,0,0,1,.4,0c.2,0-.15,0,.08-.06H179l-.12,0c.09,0,.29,0,.23,0,.24-.07-.31-.11,0-.13h0c-.14-.09-.31,0-.66-.08l.75,0h-.31a.26.26,0,0,1,.16,0c-.21,0-.13,0-.33,0,.28,0-.13-.12.36-.13-.24,0-.18,0-.34,0,.52,0-.09-.06.15-.1s.12.05.36,0c-.45,0,.1-.08,0-.11-.37,0-.15-.07-.28-.13.13,0,.2-.11.34-.16h.06c-.37,0-.3-.06-.38-.1a1.88,1.88,0,0,1,.41,0v0a.8.8,0,0,1-.23,0h.28c0-.05-.32-.1-.14-.17a4.33,4.33,0,0,1-.89,0,2,2,0,0,1,.44,0s-.12,0-.06,0l.23,0c.11,0-.19,0-.17,0,.2,0,.14,0,.3,0s-.08,0,0,0a.73.73,0,0,1,.31-.07.81.81,0,0,1-.3,0s.24,0,.34,0c-.13,0,0,0-.29,0l.22,0c-.13,0,0-.12-.35-.09h0c-.3-.08.17-.17,0-.25h.1c-.12-.05-.07-.12-.28-.15a.67.67,0,0,1,.3,0c-.08,0-.19,0,0-.1s.16,0,.13,0,.24-.06,0-.11c.26,0,.32,0,.25-.06l-.18,0s0,0,0-.07h.34c.4-.1-.69-.18,0-.26-.23,0-.16.06-.43,0a3,3,0,0,1,.52-.11c.19-.07-.48-.06-.36-.13a1.7,1.7,0,0,1-.55,0,1.47,1.47,0,0,1,.6,0s0,0-.07,0a.32.32,0,0,0,.22,0h-.12c.12,0,.11-.09.31-.08a.43.43,0,0,0-.26,0c.17-.06,0-.09.12-.15h-.2c.14-.09-.23,0-.28-.1.18,0,.43,0,.28-.05a.93.93,0,0,1,.41,0c-.23-.06.15-.11.19-.14l.1,0c-.06,0-.05,0-.05-.05l-.24,0a.2.2,0,0,1,.14,0c-.16,0-.4,0-.61,0,.12,0-.13-.07.19-.08-.11.07.31,0,.36.05s0,0,0,0h.08c.29-.07-.35,0-.35-.1.18,0,.34,0,.3,0a1,1,0,0,1-.43,0c.14-.05-.1-.05-.09-.07l-.06,0c-.18,0-.15,0-.21-.06.14,0,.09,0,.16,0-.32,0,.32-.08.11-.13.12,0,.33,0,.41,0-.23-.05.25-.06.06-.12a1,1,0,0,1-.42,0l.17.1-.35-.06s.15.06.11.08a.91.91,0,0,0-.33,0c.36,0-.21-.08,0-.12h.59c.27-.07-.3-.12-.15-.21l-.1,0c-.24,0,0-.06-.13-.09a1.92,1.92,0,0,0,.39,0c-.14,0,0-.06-.38-.07l.26,0c.11-.07-.56-.08-.49-.15a3.53,3.53,0,0,1,.5,0s0,0-.1,0c.13,0-.26-.07-.07-.09-.09,0-.3,0-.28,0h.1a1.17,1.17,0,0,0-.35,0c.61-.08-.05-.21.48-.27a.34.34,0,0,1-.14-.16s.09,0,.07,0c.19-.06-.56,0-.36-.11s.17,0,.3,0c.64,0-.09-.09.29-.14h0c.22,0-.24-.09-.2-.15h.1a1,1,0,0,1-.53-.18,1.67,1.67,0,0,0,.39,0s-.41,0-.48-.05c.13,0,.26-.05.53-.06l0,.05c.35,0,0-.06,0-.09h.15c0-.08-.44-.08-.41-.16h-.12c-.39,0,.22,0-.07-.09h.39a3,3,0,0,1-.45-.15,3.66,3.66,0,0,1,.61.13s0-.1-.22-.12c0,0,.13,0,.07,0-.31,0-.46-.08-.45-.14.76,0,.19-.15.78-.19-.28-.11.13-.21.08-.33-.6.05,0,0-.63,0,0,0,0,0,0-.05l.37-.08c.18,0,.13,0,.27,0s.26,0,.42-.06c-.22,0-.31,0-.23-.06l-.28.05c-.33-.08.51-.07.19-.16l.19,0c-.11-.05,0-.16-.48-.21a2.61,2.61,0,0,1,.28,0c.07-.1-.53-.23-.22-.31h.15s-.28,0-.13-.06h.15c-.05,0-.26-.06-.17-.08l.17,0c.19-.1-.41-.16-.51-.24a1.17,1.17,0,0,0,.65-.12h.06c.06-.12-.36-.21-.54-.32.48-.07.2-.23.47-.34a1.15,1.15,0,0,1-.38,0c.08,0-.31-.07.09-.07h0c.39,0,.29-.07.3-.11h-.53c.77-.11-.28-.29.41-.35a2.13,2.13,0,0,1-.27-.08H180c.07-.07.1-.11,0-.2l.2,0c0-.05-.82-.06-.83-.11h.42c0-.09.36-.18,0-.27a.56.56,0,0,1,.2,0s.29-.16-.29-.15c.37,0,0-.09-.13-.14h.28a1.48,1.48,0,0,1-.56-.1s.23,0,.16,0c.14-.05-.27,0-.12-.09l.18,0c0-.05-.08,0-.28-.07s.07-.08.32-.09c-.15,0-.36,0-.29-.06h.19c.19-.07-.33-.11-.05-.16h.16c0,.06,0,.11,0,.1a3.46,3.46,0,0,1,.66,0c-.2,0-.62-.1-.5-.15h.12s0,0,0,0l.08,0c.21,0,.11-.06.12-.08a2.44,2.44,0,0,0-.47,0,0,0,0,0,1,.05,0h0a.08.08,0,0,1,0,.06c-.14,0-.26,0-.11-.07L179,24c.39,0,.6-.1.85-.11a.87.87,0,0,0-.64-.22c-.06,0,.16,0,.24,0a.28.28,0,0,0,.12,0c-.14-.05-.05-.13-.42-.14.16-.05.34,0,.28,0h.11c.59-.15-.94-.24-.18-.4l-.13,0c.33-.18-.32-.38.21-.56.11,0-.13,0-.31-.09h.31l-.35-.05c-.26-.08.74-.13.26-.23h-.21s-.12-.11.12-.1c0,0-.22,0-.11,0h.16L179,22c.11-.07.63,0,.66-.09a2,2,0,0,0-.57-.08.7.7,0,0,1-.26,0l-.08,0a6.31,6.31,0,0,0-1.27.05l.29.06h-.23v0c-.21,0,0,0,.1.06l-.25,0,.45.06a1.67,1.67,0,0,0-.46,0c.2,0,.41,0,.54,0-.21,0-.38,0-.2.05a.79.79,0,0,1-.25,0c.14,0,.06.08.31.09-.26,0,.06.1-.38.09a1.21,1.21,0,0,1,.37.08c-.53-.05,0,.09-.6.08.48,0,.21.13.48.19,0,0-.12,0-.09,0s-.19,0-.28.07a3.57,3.57,0,0,1,.73.09,7.61,7.61,0,0,1-.83,0c.32,0,.32.08.59.06a2.23,2.23,0,0,1-.44.05c.49,0,.08,0,.38,0-.24.05-.46,0-.31.07A1,1,0,0,1,177.1,23Zm.84,1.22h0l0,0S177.93,24.16,177.94,24.17Zm0,.1s0,0,0,0a.63.63,0,0,1,.19,0A.81.81,0,0,0,178,24.27Zm2-.21s0,0-.08,0,0,0,0,0h.11Z"/><path class="cls-1" d="M179.53,24h0Z"/><path class="cls-1" d="M179.11,33.35h0Z"/><polygon class="cls-1" points="177.41 25.69 177.48 25.69 177.42 25.68 177.41 25.69"/><path class="cls-1" d="M178.15,33.92h0Z"/><path class="cls-1" d="M178.08,34.16l-.1,0Z"/><path class="cls-1" d="M177.94,34.35h0Z"/><path class="cls-1" d="M177.61,31.36h0S177.57,31.35,177.61,31.36Z"/><path class="cls-1" d="M178.27,32.25l-.13,0S178.11,32.25,178.27,32.25Z"/><polygon class="cls-1" points="177.28 30.36 177.28 30.36 177.28 30.36 177.28 30.36"/><path class="cls-1" d="M178.14,32.18s0,0,0,0S178.19,32.19,178.14,32.18Z"/><path class="cls-1" d="M177.82,35.16h0Z"/><path class="cls-1" d="M177.85,35.18h0Z"/><path class="cls-1" d="M178,35.21l-.07,0S177.87,35.2,178,35.21Z"/><path class="cls-1" d="M178,34.92h0Z"/><path class="cls-1" d="M177.92,34.84s-.22,0-.16.07h.08C177.69,34.9,178.09,34.86,177.92,34.84Z"/><path class="cls-1" d="M179.18,34.52l-.08.07c.1,0,.25,0,.28,0C179.7,34.51,179.13,34.61,179.18,34.52Z"/><path class="cls-1" d="M179.33,34.33c.06,0,.16,0,.22,0A.33.33,0,0,0,179.33,34.33Z"/><path class="cls-1" d="M179.34,32.91h.25S179.49,32.91,179.34,32.91Z"/><polygon class="cls-1" points="178.01 32.63 177.85 32.66 178.09 32.67 178.01 32.63"/><polygon class="cls-1" points="179.84 32.47 179.87 32.49 179.78 32.44 179.84 32.47"/><path class="cls-1" d="M179.74,30.09h-.31C179.49,30.11,179.84,30.12,179.74,30.09Z"/><path class="cls-1" d="M179.42,29.06c.16,0,.26,0,.11-.06S179.38,29.05,179.42,29.06Z"/><polygon class="cls-1" points="179.94 25.97 180.04 25.99 179.96 25.95 179.94 25.97"/><path class="cls-1" d="M52.31,35.4c.09,0,.28,0,.24,0h-.33Z"/><path class="cls-1" d="M52.92,35.3a5,5,0,0,0-.74,0l.56,0s-.11,0-.23,0c.09,0-.07,0,.14,0s.26,0,.05-.06Z"/><path class="cls-1" d="M53.44,33.85h0Z"/><path class="cls-1" d="M53.62,33h0Z"/><path class="cls-1" d="M54,32.8h0S54,32.8,54,32.8Z"/><path class="cls-1" d="M53.44,33.85l.1,0C53.44,33.82,53.46,33.84,53.44,33.85Z"/><path class="cls-1" d="M52.12,35.1h0Z"/><path class="cls-1" d="M53.71,34.25Z"/><path class="cls-1" d="M53.76,34.55a3.57,3.57,0,0,0-.39,0h.39Z"/><path class="cls-1" d="M53.26,35h0Z"/><path class="cls-1" d="M53.77,34h0Z"/><path class="cls-1" d="M51.66,25.55h0Z"/><path class="cls-1" d="M53.05,25.2h0Z"/><path class="cls-1" d="M54.35,32.52h0Z"/><path class="cls-1" d="M54.14,30c-.25,0-.32,0-.6,0A3,3,0,0,0,54.14,30Z"/><path class="cls-1" d="M52.16,35.09h0S52.15,35.09,52.16,35.09Z"/><path class="cls-1" d="M53.54,30h0Z"/><path class="cls-1" d="M54.18,31.88h0Z"/><path class="cls-1" d="M53.78,32.36h0Z"/><path class="cls-1" d="M53.78,31.63s.06,0,0,0h0S53.82,31.62,53.78,31.63Z"/><path class="cls-1" d="M53.78,31.37h0Z"/><path class="cls-1" d="M51.79,26.34H52C51.84,26.33,51.77,26.3,51.79,26.34Z"/><path class="cls-1" d="M52.28,35.1h0Z"/><path class="cls-1" d="M51.56,31.62l0,0S51.56,31.6,51.56,31.62Z"/><path class="cls-1" d="M51.83,28.2h0Z"/><path class="cls-1" d="M51.56,31.45l.2,0h-.08Z"/><path class="cls-1" d="M52.05,26.33h0Z"/><path class="cls-1" d="M51.38,26.06s.36,0,.57,0-.27,0-.46,0c.1,0,.44.05.42.08h-.15c.29,0,0,.09.38.13h.41s.24,0,0,0h-.17l.1,0c-.34,0-.12,0-.37,0,.11,0,.4.08.3.11-.34,0-.11-.07-.42,0l.13,0c-.53,0,0,0-.53,0-.1.06.17.06.07.12.19,0,.28,0,.47,0s-.85.06-.4.12c.22,0,.65,0,.43.06h-.39c0,.05.55,0,.3.08s-.13,0-.18,0c-.3,0,.22,0,.22.05h-.34c0,.06.3.12.36.19a1.07,1.07,0,0,0-.31,0c.17.08,0,.17-.24.25l.29,0h-.19c-.11,0,.19,0,.3,0s-.17,0-.25,0c.25.05.53.15.22.21h-.09c-.12,0,.6.05.33.09h0c-.13.1.14.2-.3.28.42,0-.19.09.4.1a3.25,3.25,0,0,0-.6.11s.37,0,.43.06h-.31l.33,0-.37,0,.08,0,.22,0c.14,0-.21.09-.37.09l.26.09-.24,0c.31,0-.33,0,0,.05h.25c-.19,0-.19.07-.11.11h-.22c0,.07.11.14.1.21a2.16,2.16,0,0,1,.51,0h-.33c.2,0,.12,0,.37,0a1.53,1.53,0,0,1-.48,0l.12,0h-.28c.21,0-.32.05,0,.07h-.1c0,.07.11.1.13.16a4.19,4.19,0,0,1,.44,0c-.09.05-.31.1-.28.15a2.41,2.41,0,0,0,.4,0c-.26,0-.23.05-.42,0,.05.06.06.08.26.16l.24,0s-.11,0-.23,0h0c.39.09-.74.21-.21.28h0l.27.07s-.19,0-.35,0c.43.08-.06.13.23.2-.76.05,0,.18-.43.25h.17c.18,0-.1,0-.14,0,.14,0,.16,0,.26,0s-.26.31-.42.47.92,0,.49.1l-.33,0c.4.11,0,.23.33.34h-.18c-.24,0,0,.08.19.08a1.7,1.7,0,0,1-.28,0c-.14,0,.31.06.07.07h-.1c.12,0,0,.07.25.06-.13,0,.12.08,0,.11.31,0-.15.07.29.08-.46,0-.37.07-.16.1-.13,0-.14,0-.33,0,0,0,.09.06.33.05-.55.06.43.12-.26.15a2.18,2.18,0,0,1,.51.25c-.45,0,0-.09-.52-.08.19.07.58.12.47.19a1.34,1.34,0,0,1-.28,0c.19.07,0,.14.21.21H51.9s-.07,0,.13,0l-.05,0a6.54,6.54,0,0,1,.78.06c-.59,0-.15.07-.89,0a1.31,1.31,0,0,0,.27,0,.79.79,0,0,1-.28,0c.12,0,.33,0,.33.08l-.25,0c.19,0,.38.05.3.09H52.1c0,.06.52.1.33.17-.43,0-.14,0-.51,0l.11,0,.18,0s.26.07.14.09l-.15,0,.07.06.14,0c.19,0,.47,0,.37,0s0,0-.23,0h0c.12,0,.25,0,.15.05h-.49c.31,0,.09.08.42.1h-.31l.25,0h-.28s.48,0,.27,0h-.09c-.11,0,.16.1,0,.15-.37,0-.09,0-.41,0,.07.07.45.15.37.22l0,0c.53,0-.27.06,0,.09h-.23c-.09.05.13.1.3.17h-.14c-.12,0-.07.08-.13.11a1.41,1.41,0,0,0,.31,0c-.78.1.42.18-.23.27a.25.25,0,0,0-.12,0l.13.07.32,0c.13,0,.24,0,.24,0a1.65,1.65,0,0,0-.5,0h.22c-.41,0,.46,0,.19.05h-.12c.06,0,.22,0,.18.06a3.11,3.11,0,0,1-.34,0s.51,0,.24.08c-.08,0-.08,0-.15,0-.31,0-.23,0-.28,0h0l-.14.05.09,0c.69,0,.12.08.58.13a2.78,2.78,0,0,0-.55,0,1.24,1.24,0,0,1-.27,0c.25,0-.19,0,.17.07a1.61,1.61,0,0,1-.26,0c.08,0,.17,0,.3,0,.33.05-.41.11.05.18.19.05.52.06.68.12a1.35,1.35,0,0,1-.36,0c-.14,0-.11,0,0,.08a1.26,1.26,0,0,0-.27,0s.36,0,.21,0l-.39,0c.09,0,.27,0,.36.08a3.06,3.06,0,0,1-.37,0,1,1,0,0,0,.43.09l.09,0a2.55,2.55,0,0,1-.28,0c-.21,0,.09,0,.19,0l.07,0c.57,0-.1-.08-.06-.12l.41,0-.34,0a1.7,1.7,0,0,1,.4,0c.21,0-.15,0,.08,0h.07l-.12,0c.09,0,.29,0,.23,0,.24,0-.31-.07,0-.09h0a5.16,5.16,0,0,0-.66-.05l.75,0h-.3s0,0,.15,0a1.85,1.85,0,0,0-.33,0c.28,0-.13-.09.36-.1-.23,0-.18,0-.34,0,.52,0-.09,0,.15-.07s.13,0,.37,0c-.46,0,.1-.06,0-.09-.36,0-.15,0-.27-.1.12,0,.2-.08.33-.12h.06c-.37,0-.3-.05-.38-.08a2.08,2.08,0,0,1,.41,0v0a.51.51,0,0,1-.22,0h.27s-.32-.08-.14-.13a5,5,0,0,1-.88,0h.43s-.12,0-.06,0l.24,0c.1,0-.2,0-.18,0h.3s-.08,0,0,0a1,1,0,0,1,.3,0,1,1,0,0,1-.29,0s.23,0,.34,0a1,1,0,0,0-.29,0,.78.78,0,0,1,.21,0c-.13,0,0-.09-.35-.07h0c-.29-.06.17-.13,0-.19h.1c-.11,0-.07-.08-.28-.11a1,1,0,0,1,.3,0c-.08,0-.19,0,0-.07s.15,0,.12,0,.25,0,0-.09c.25,0,.31,0,.24,0l-.18,0s0,0,0,0H54c.4-.08-.69-.14,0-.2-.24,0-.17,0-.44,0a4.39,4.39,0,0,1,.52-.09c.19,0-.48,0-.36-.09a2,2,0,0,1-.54,0,2.23,2.23,0,0,1,.59,0s0,0-.07,0a.42.42,0,0,0,.22,0H53.8c.12,0,.1-.06.3,0a.44.44,0,0,0-.26,0c.17,0,0-.07.12-.12h-.2c.15-.07-.23,0-.28-.08.18,0,.43,0,.28,0a1.4,1.4,0,0,1,.41,0c-.22,0,.15-.08.2-.1l.09,0c-.05,0-.05,0-.05,0h-.24a.28.28,0,0,1,.14,0c-.15,0-.39,0-.61,0,.12,0-.13,0,.19-.06-.11.05.32,0,.37,0s0,0,0,0a.26.26,0,0,1,.09,0c.28-.05-.36,0-.35-.08a.69.69,0,0,0,.3,0,1.66,1.66,0,0,1-.44,0c.14,0-.1,0-.08,0l-.07,0a.36.36,0,0,1-.21-.05c.14,0,.1,0,.16,0-.31,0,.32-.06.11-.09.12,0,.33,0,.42,0-.23,0,.24,0,.05-.09a1.4,1.4,0,0,1-.41,0l.16.08-.34-.05s.15.05.11.06a1.29,1.29,0,0,0-.34,0c.36,0-.21-.06,0-.09h.59c.26-.06-.31-.1-.16-.16l-.1,0c-.24,0,0,0-.13-.07a2.07,2.07,0,0,0,.39,0c-.14,0,0-.05-.38-.05l.26,0c.11-.06-.56-.06-.49-.12s.35,0,.51,0c0,0,0,0-.1,0,.12,0-.27-.05-.08-.07-.09,0-.3,0-.28,0h.1a1.64,1.64,0,0,0-.35,0c.61-.05-.05-.15.48-.2-.06,0-.13-.08-.14-.12s.1,0,.08,0c.18-.05-.57,0-.37-.08s.18,0,.3,0c.65,0-.09-.07.29-.1h0c.22,0-.25-.07-.2-.12h.09a1.35,1.35,0,0,1-.53-.13,2.57,2.57,0,0,0,.39,0,4.4,4.4,0,0,1-.48,0,4.13,4.13,0,0,1,.53,0l0,0c.36,0,0-.05,0-.07h.15c0-.05-.44-.05-.41-.12h-.12c-.39,0,.22,0-.07-.06h.4a2.8,2.8,0,0,1-.46-.12c.29,0,.44.07.62.1,0,0,0-.07-.23-.09,0,0,.14,0,.08,0-.31,0-.47-.06-.46-.1.76,0,.19-.12.79-.15-.29-.07.12-.15.07-.24-.59,0,0,0-.63,0,0,0,0,0,0,0l.37-.06c.18,0,.13,0,.27,0s.26,0,.42,0c-.22,0-.31,0-.23,0l-.28,0c-.32-.06.51-.06.19-.12l.19,0c-.11,0,0-.12-.48-.15a.87.87,0,0,1,.28,0c.07-.08-.52-.18-.22-.24h.15s-.28,0-.13-.05h.16c-.06,0-.27,0-.18-.06l.17,0c.2-.08-.41-.12-.51-.18a1.5,1.5,0,0,0,.65-.09h.06c.06-.09-.36-.16-.53-.24.47-.05.2-.17.46-.26a1.55,1.55,0,0,1-.38,0c.09,0-.31-.06.1-.05h0c.39,0,.29-.05.3-.08h-.53c.77-.08-.28-.21.41-.26-.13,0-.13,0-.27-.06h.29c.07-.05.11-.08,0-.15l.2,0s-.82-.05-.83-.09h.42c0-.06.36-.13,0-.2l.2,0s.29-.12-.29-.11c.38,0,0-.07-.13-.11h.28a2,2,0,0,1-.55-.07s.22,0,.15,0c.14,0-.27,0-.12-.07l.18,0s-.07,0-.28-.05.07-.07.32-.07c-.15,0-.36,0-.29-.05h.19c.19-.05-.33-.08,0-.12h.16s0,.08,0,.08a4.56,4.56,0,0,1,.66,0c-.2,0-.62-.08-.5-.11h.12s0,0,0,0l.08,0c.21,0,.11,0,.12-.06a3.67,3.67,0,0,0-.47,0l.05,0h0a.05.05,0,0,1,0,0c-.14,0-.26,0-.1-.05l-.46,0c.39,0,.61-.08.85-.08a1,1,0,0,0-.63-.17c-.07,0,.15,0,.23,0l.12,0c-.13,0-.05-.1-.42-.1.17,0,.34,0,.28,0h.11c.59-.11-.94-.18-.18-.3l-.13,0c.33-.14-.32-.28.21-.42.11,0-.13,0-.3-.07h.3l-.35,0c-.26-.06.74-.1.26-.18h-.21s-.12-.08.12-.07c0,0-.21,0-.11,0h.16l-.27-.07c.11,0,.63,0,.66-.06a2.4,2.4,0,0,0-.57-.07.67.67,0,0,1-.25,0l-.09,0a7.19,7.19,0,0,0-1.26,0l.28.05h-.23v0c-.21,0,0,0,.1,0a1.1,1.1,0,0,0-.24,0l.44,0a2.19,2.19,0,0,0-.46,0c.21,0,.41,0,.54,0-.21,0-.38,0-.2,0h-.25c.14,0,.06,0,.31.06-.26,0,.07.08-.37.07a1.89,1.89,0,0,1,.36.06c-.53,0,0,.07-.6.06.48,0,.21.1.48.14h-.09a1.31,1.31,0,0,1-.27.05,3.85,3.85,0,0,1,.72.07c-.38,0-.46,0-.82,0,.31,0,.31.05.58,0a2.51,2.51,0,0,1-.44,0c.49,0,.08,0,.38.05-.24,0-.46,0-.31,0A1.22,1.22,0,0,1,51.38,26.06Zm.85.92h0l0,0Zm0,.07a0,0,0,0,0,0,0,.63.63,0,0,1,.19,0A.75.75,0,0,0,52.23,27.05Zm2-.16s0,0-.07,0l0,0h.11Z"/><path class="cls-1" d="M53.81,26.87h0Z"/><path class="cls-1" d="M53.39,33.86h0Z"/><polygon class="cls-1" points="51.69 28.12 51.76 28.12 51.7 28.11 51.69 28.12"/><path class="cls-1" d="M52.43,34.29h0Z"/><path class="cls-1" d="M52.37,34.47l-.1,0Z"/><path class="cls-1" d="M52.23,34.61h0Z"/><path class="cls-1" d="M51.9,32.37h0C51.83,32.35,51.85,32.36,51.9,32.37Z"/><path class="cls-1" d="M52.55,33l-.13,0S52.39,33,52.55,33Z"/><polygon class="cls-1" points="51.56 31.62 51.56 31.62 51.56 31.62 51.56 31.62"/><path class="cls-1" d="M52.42,33c-.05,0,0,0,0,0S52.47,33,52.42,33Z"/><path class="cls-1" d="M52.1,35.22h0Z"/><path class="cls-1" d="M52.13,35.23h0S52.16,35.23,52.13,35.23Z"/><path class="cls-1" d="M52.24,35.25h-.07S52.16,35.25,52.24,35.25Z"/><path class="cls-1" d="M52.23,35h0Z"/><path class="cls-1" d="M52.2,35s-.22,0-.15.05h.08C52,35,52.37,35,52.2,35Z"/><path class="cls-1" d="M53.46,34.74l-.08,0a.84.84,0,0,1,.28,0C54,34.73,53.42,34.8,53.46,34.74Z"/><path class="cls-1" d="M53.62,34.59c.05,0,.15,0,.22,0A.55.55,0,0,0,53.62,34.59Z"/><path class="cls-1" d="M53.62,33.53h.25S53.77,33.53,53.62,33.53Z"/><polygon class="cls-1" points="52.3 33.33 52.14 33.34 52.37 33.35 52.3 33.33"/><polygon class="cls-1" points="54.12 33.2 54.15 33.21 54.06 33.18 54.12 33.2"/><path class="cls-1" d="M54,31.41h-.32C53.77,31.43,54.12,31.44,54,31.41Z"/><path class="cls-1" d="M53.71,30.64c.15,0,.25,0,.1,0S53.67,30.63,53.71,30.64Z"/><polygon class="cls-1" points="54.22 28.32 54.33 28.34 54.24 28.31 54.22 28.32"/><path class="cls-1" d="M26,4.2c-.22,0-.18.23.34.37l.48-.18Z"/><path class="cls-1" d="M29.29,5.94c.67,0,1.44-.1,1.12-.49-.68.15-.8,0-1.56.18-.52-.14-.86-.41-.73-.5-.21,0-.77-.34-1.12-.24a4.14,4.14,0,0,0,2.39.85C29.56,5.86,29.35,5.89,29.29,5.94Z"/><path class="cls-1" d="M81.23,1.88l-.35,0A1.78,1.78,0,0,0,81.23,1.88Z"/><path class="cls-1" d="M114.34,2.06c-.26,0-.36,0-.37.07C114.2,2.11,114.39,2.09,114.34,2.06Z"/><path class="cls-1" d="M120,2.43l-.33,0A.77.77,0,0,0,120,2.43Z"/><path class="cls-1" d="M81.23,1.88l.88.11C82.17,1.88,81.66,1.91,81.23,1.88Z"/><path class="cls-1" d="M36.56,6.27a3,3,0,0,0-.47.06h.44A.13.13,0,0,1,36.56,6.27Z"/><path class="cls-1" d="M66.63,2.15h-.27l-.22.13Z"/><path class="cls-1" d="M55.43,2.2c.25,0,.34-.27.44-.39a1,1,0,0,1-.55.19C55.31,2.06,55.35,2.12,55.43,2.2Z"/><path class="cls-1" d="M39.07,7.35l-.32.06Z"/><path class="cls-1" d="M74.65,2.21a.24.24,0,0,0,.1.1S74.71,2.24,74.65,2.21Z"/><path class="cls-1" d="M31.41,16.8s0,0,0,0S31.35,16.74,31.41,16.8Z"/><path class="cls-1" d="M25.86,4.8l.06.17h.17Z"/><path class="cls-1" d="M130.34,2.79h-.05C130,2.81,130.17,2.81,130.34,2.79Z"/><path class="cls-1" d="M192.44,18c1.08-.13-1.49.9.1.61C192.37,18.54,193.72,17.66,192.44,18Z"/><path class="cls-1" d="M36.84,6.32c.14,0,.29,0,.44,0C37.08,6.33,36.94,6.31,36.84,6.32Z"/><path class="cls-1" d="M192.54,18.59h0l.16,0Z"/><path class="cls-1" d="M154.17,2.62a.6.6,0,0,0-.24-.12S154,2.56,154.17,2.62Z"/><path class="cls-1" d="M136.41,2.22l.44,0A2.47,2.47,0,0,0,136.41,2.22Z"/><path class="cls-1" d="M163.39,2.22a2.59,2.59,0,0,0,.65,0l-.1,0A1.05,1.05,0,0,1,163.39,2.22Z"/><path class="cls-1" d="M173,2.22l-.18-.06-.3,0Z"/><path class="cls-1" d="M59.7,24.2a1.53,1.53,0,0,1-.44-.27C59.4,24.14,58,24.16,59.7,24.2Z"/><path class="cls-1" d="M36.56,6.43a.36.36,0,0,1,.28-.11h-.31S36.49,6.4,36.56,6.43Z"/><path class="cls-1" d="M163.78,0l1.53,0C164.88,0,164.33,0,163.78,0Z"/><path class="cls-1" d="M128.59,24l-.35,0A1.16,1.16,0,0,0,128.59,24Z"/><path class="cls-1" d="M169.83,0a4.88,4.88,0,0,0,.86.19.75.75,0,0,0,.18-.07Z"/><path class="cls-1" d="M59.26,23.93Z"/><path class="cls-1" d="M49.14,24.16c1.47.09.71-.32,1-.51,1.74,0,.79.32,1.37.54,1.1,0,1.94-.35,2.75-.3.06.07.22.09,0,.16,1.16-.23,3.41.11,4.76-.22a.46.46,0,0,1,.17.1.47.47,0,0,1-.19-.51c.65,0,1.21-.2,1.45,0a1,1,0,0,0-.62.15l.68-.08c.61.36-.93.1-.94.35a26.54,26.54,0,0,1,3.91-.21c.21.34-2.39.06-1,.39l-1.58-.16c1.2.56-1-.06.14.53,2.08.15,2.33-.11,4.4,0,.47-.18-.15-.28.32-.46,3-.3,2.31.89,4.49.46A2.87,2.87,0,0,1,72.61,24l-.53.38c2,0,1.16-.54,3.26-.27-.38.15-1.58.12-1.28.17,1.37.31,1-.21,2-.21l.21.34c2.15,0,4.51-.28,6.88-.34-.13.1-.54.21,0,.31a79.16,79.16,0,0,1,9.27.23l1.1-.3c.26,0,.48.13.2.18,1.12.11.06-.18.6-.3s.84.16.44.25a36.2,36.2,0,0,1,7.74-.27l-.41.09c1.63.11,1.83-.62,3.34-.36l-.29.06c3.54.09,7.44-.23,10.14.19.51-.43,3.5.14,3.72-.46a28.75,28.75,0,0,0,4.29.54c.75,0,1.12-.39,2.06-.46l0,.3,1.27-.34.69.36.87-.09c-.35,0-.74-.13-.69-.22a8.1,8.1,0,0,1,3.39.32l3.25-.32c-.07.13-.62.18-1.05.27,1.73-.35.32.32,1.91,0-.22-.06.11-.18.15-.25a18.55,18.55,0,0,0,3.93,0l-.25.22c2.41,0,5.08-.2,7.78-.25-1-.08-.75-.45,0-.5l.32.32c.51-.21-.83-.11.22-.37,1,0,.69.35.11.47l1.22-.14c.08.1-.21.16-.28.28.5-.21,2.13.29,2.85-.08l.07.1c2.7-.06,3.93-.2,6.13-.26,0-.28.9-.24,1.55-.48,1.62,0,3.43.24,5.38.17,1.36-.17.39-.25,1-.43.11.25,2.06.18,1,.39,2.34-.1,3-.12,6-.4-.33-.1-.69-.13-.5-.23.53-.05,1.22.08,1.15.21l-.14,0a27.2,27.2,0,0,1,5.41,0,13.52,13.52,0,0,0,5-.31l-.14.05c.92-.21,1.83-.45,2.73-.71,1.27-.2-.73.34.24.31,2.88-1,4.71-1,7-2.15a10,10,0,0,0,4.26-1.58c1.61-.92,3.15-2.07,4.34-2.76l-.23,0c.43-.56.7-.47,1.12-.78-.15-.05-.67.38-.41,0a26.55,26.55,0,0,0,2.71-3l.4-.52c.17-.22.32-.45.46-.67l.83-1.36c.29-.45.55-.93.83-1.42l.41-.72L208,7a1.58,1.58,0,0,0,.13-.31c-1.41.16-2.89.35-4.32.45l-1.1.07-.64,0-1.18,0c-1.56,0-3.12,0-4.65-.09-2-.1-1.2.92-3.76.33l.75-.27a32.48,32.48,0,0,1-12-2.34,1.22,1.22,0,0,1,.64.09,8.75,8.75,0,0,0-1.59-.86,2.52,2.52,0,0,0-1.14-.42c-.46-.38,0-.23-.24-.52-.56-.55-1.68-1.08-1.78-1.55,0-.08.21.1.31.19A2.6,2.6,0,0,1,177,1.4l-.76-1L176,.13,176,.07s-.05,0-.07,0h-.16l-.48,0c-.24,0-.29.07-.07.14-.79,0-1.05,0-1.43,0l-1.08,0a11.87,11.87,0,0,1-2,0c-.81.31-2.65-.15-2.91.29.11-.45-2.72-.37-3.7-.15.33-.14-.85-.15-.47-.33-1.12,0-2.14.09-2,.32-2.06-.54-4.14.43-5.3-.26C153,.31,150,.48,147,.58c.11-.45,3.3,0,3.18-.52a59.86,59.86,0,0,1-7.29.47c-.73-.06.41-.2.66-.27-2.83.18-5.48,0-8,.2a1.42,1.42,0,0,1,.53-.12c-.49,0-1.15-.07-1.09.14l.48-.06c.79.3-2,.62-2.06.78.84-.59-2.49-.15-1.15-.89-.33,0-.74.14-.67.27-.48,0-.64-.12-.14-.27a25.79,25.79,0,0,1-2.76.32c0-.1.33-.14.49-.25a9.24,9.24,0,0,1-3,.3c.09-.06-.07-.14.33-.14-2.34,0-4,.52-6.55.33.75-.43-.88-.14-1-.51l-1.38.11.55.18a32.62,32.62,0,0,1-3.32.14l.9-.15-2.26.07,1.28.14c-1.23.19.13.47-1.48.37A14.94,14.94,0,0,1,111.37,1h0a6.73,6.73,0,0,1-2.11.15c-.23-.12.19-.42,0-.5-.59.32-2.83.09-3.58.42C106,1,106,.8,105.9.76l-.49.25c-.57-.08-.65-.12-.56-.27-1.68-.05.54.47-1.46.27.16,0,.08-.06.41-.1-2-.11-3.88.16-5.73,0-.54-.37,1.61-.09,1-.4C96.4.6,93.55,1,91,.9l.48,0c-.35.53-1.92-.26-3.22,0,.32,0,.42-.3.33-.24C86.8.61,85,.82,82.28,1l.34-.14c-1-.12-2.74-.07-3.86-.13-.34.14-1,.11-.59.31-3.46-.77-6.6.42-9.68-.23.37,0,.88-.12.59-.12L66.46.81c.21.23.34.14.89.32a5.73,5.73,0,0,1-1.71.24c1.17-.15,0-.37-.52-.5.08.07-.09.15-.05.22-1.37-.41-.23.47-2.09.19l.09-.12A15.46,15.46,0,0,1,61,1.35c-.31-.27.74-.13.79-.35-1.06,0-2.09.51-3,.24.44-.07,1.09-.07,1.54-.15A5.78,5.78,0,0,0,58.33.81h.08L56.62.67l.45.09c-1.25.65-2.44.19-4.16.51l-.26.34.25-.36c.57-.17.6-.2.4-.25s-.54-.07-.51-.21h-.07c-.24.17-.57.41-.76.52s-.28.12-.24,0c-.47.7-1.17.65-1.93,1.57-.09,0-.76.43-.72.13-.88.59.3,0,.28.17-1.27,1.14-3.57,1.41-5.69,2.46a27.31,27.31,0,0,1-4.19,1.43c-.66-.12.51-.39.5-.41a13.68,13.68,0,0,0-2.81.15c.2-.08,0-.15-.3-.28-.79,0-.54.33-1.57.14a2.77,2.77,0,0,1,.8-.36l-1.39.12c-.46,0-.94,0-1.42,0-.23-.2.61-.17.95-.23a18.22,18.22,0,0,0-3.14-.11l.66.26c-.39-.09-.15-.28.14-.26.94-.06,1.3.29,1.34.4l-.69,0a2.71,2.71,0,0,0,1.78.43c.79,0,1.66-.15,2.34-.08l-.59.38a14.15,14.15,0,0,0,1.44-.3c.3.09.52.32-.18.41,1,.16.89-.19,1.77,0,.09,0,0,0,0,.07a6.69,6.69,0,0,0,1-.2c-.18.11.2.27-.42.29a8,8,0,0,0,2.17-.33,2.83,2.83,0,0,1,1.34-.26L43,6.91c1.19-.34,1.22-.46,1.18-.55s-.17-.2.64-.64c.46.1.95.25,1.42.31l.12-.38c.24-.08.71-.25.68-.1.79-.55-.21-.07.22-.45,1.25-.24,2.92-1.64,3.39-1.41.24-.44-1.08.49-.07-.36.6.24,1.22-.91,2.18-1.43,0,.41-1,1,0,.45a1.16,1.16,0,0,1,.34-.54,2.27,2.27,0,0,1,.44,0l.6.08A5.35,5.35,0,0,0,55.32,2c0-.36,2-.15,3.6-.27-.1.12,2.95.2,4.41.33l0,.06c.29-.37,1.79-.3,2.89-.37,0,.22-.24.3-.84.4h1a3.31,3.31,0,0,1,1.24-.22l-.26.27a33.65,33.65,0,0,1,4.52-.14c.1-.25-1.4-.71.46-.88.07.14.14.37-.35.43a3,3,0,0,1,.9-.05l-.75.23c.8.1.42-.2,1.06-.17,0,.19.48.14.39.29a3.64,3.64,0,0,0-.81,0,6.44,6.44,0,0,1,1.89.3c-.06-.11,0-.27.53-.29,1.37,0,.47.24,1.27.34.33-.14,1.21,0,1.23-.29a.94.94,0,0,1,.63.22c.71-.13,3.31,0,2.51-.35l-.18,0,.12,0h0c2.32-.29,4.83.17,7.14,0v.1a39.82,39.82,0,0,0,4-.28c.41,0,1,.18.79.3a10.2,10.2,0,0,1,2.69,0c-1.06.17.37.15-1.08.12a9.21,9.21,0,0,0,3.14,0c-.5.25,1,.32,1.68.24l-1-.18c.74,0,1.38,0,2,0l-.35.33c2.8.4,5-.69,7.18,0,.74-.23-1.52-.17-.85-.44a29.43,29.43,0,0,1,3,.53c1.76.18,1.64-.49,3.49-.36-.24-.12-.46-.44.92-.55s1.59.5.77.59c-.31,0-.46,0-.44-.07-.42.05-1,.1-.46.23l.17-.12c.64.12,2.41.11,2,.3,1-.11.41-.19-.31-.26,1.66.18,2.59,0,4.29.13-.27-.07-.52-.21-.25-.21,2.49.15,1.1-.22,2.79-.28,1,.19-.35.44,1.35.29,1,.12.22.31-.19.41a15.54,15.54,0,0,1,3.78.19l-.81.09a11.93,11.93,0,0,1,1.29,0l-.46-.24c.48,0,.88.05.87.14.5-.15-.37-.39.61-.6.64.12,1.94-.13,2.16.18-2-.1.23.32-1.48.37a6.06,6.06,0,0,1,1.21,0c.08,0-.06.07-.19.09,1.92.28.88-.36,2.87-.35-.25.18.47.34.79.3-.8,0-.38-.3.35-.43a9.91,9.91,0,0,0,2.06-.09l-.76-.07a5.58,5.58,0,0,1,1.79-.21c.08.14-.81.1-.49.16,1-.31,2.24.32,3.62.11.63.12.06.34.62.42,1.55-.23,1.67.24,3.3.05-.47-.24-.55-.18.59-.41l-2.67.17,1.72-.35c-.81,0-1.71.15-2.19.11.82-.2.73-.14.35-.33,1.1.35,2.19-.21,3.46,0l0,.59c1.92.26,3.41-.3,5.9-.16l-.8-.1c.34-.23,1.54,0,2.35-.13-.08.2.43.27.77.4,0-.15,1.82,0,2-.38l1.11.26c2,.1,2.3-.57,4.23-.5-.58.21.3.35-1,.51.65,0,1.23,0,1.24-.1.37.12,1.79-.27,2.38-.08A1.89,1.89,0,0,1,165,1.93c.08,0,0,.1,0,.1s1.14-.13.5-.35c2,.62,5.56,0,7.29.48l2-.09s.12,0,.16,0l.11.13.23.29c.23.32.51.55.73.81-.1,0-.07.06-.23-.14a2,2,0,0,0,1.22.92A3.62,3.62,0,0,1,178.5,5c.36.41.11.31-.18.15s-.58-.41-.35-.16c-.08.37.49.69,1.18,1,.36.16.74.32,1.11.51a4.53,4.53,0,0,1,1,.58L181,7c.91.64,2.53.75,4.18,1.2,0,0-.1,0,0,.1,1.23,0,3.42.28,5,.37-.53.19-.75,0-.48.34.74.05-.16-.43,1.3-.34.46.19,1.5.4,1.62.68l-1.38-.1c.68.43,1.79.14,2.52.23l-.1.15c2.13,0,2.17-.34,4.44-.33l-.24-.11c1.23-.41,1.05.2,2.28-.13l.39.37,1.91-.34.29-.06.22,0,.47-.1c.33-.07.68-.14,1-.19-.52.2-1,.36-1.45.49a2.43,2.43,0,0,1-.33.09l-.49.1-.89.19L202,9.5l.48,0,.24,0,.1,0a2.89,2.89,0,0,0,.83-.26c-.23.06-.48.18-.62.13a7.63,7.63,0,0,1,2-.62l.15,0s0,.07,0,.1l-.11.23-.28.53a3,3,0,0,0-1.33,1.16,6.16,6.16,0,0,1-2.27,2.07c-1.78,2.08-4.29,3.28-7.16,4.6,1.28.07-.85.39-.44.87a3.23,3.23,0,0,1-1,.4q-1.14.24-2.28.39c-.57,0,.64-.33.53-.45-1.58.44-.73,0-1.81.11.27.14-.46.46-1.39.59.45,0,.89,0,1.34-.05-2.16.88-2,0-4.24.73l.69-.31c-1.14.36-4.31.63-5.44,1.16-.22-.06-.5-.22,0-.29-2.83,0-6.45.7-8.7.46l.21-.16a4.17,4.17,0,0,1-1.62.17c0-.06.21-.15,0-.15a9.48,9.48,0,0,1-2.16.22l.61-.18c-2.85-.13-4.36.51-6.74.67,0-.44-2.24-.54-3.36-.58l0-.07c-3.31,0-5.61.49-8.68.72-1.91-.44-6.45-.07-9.52-.28.47.07-.07.34-.61.4-.72-.08-2,.34-1.88-.07h.26c-.55-.39-2-.26-3.17-.25l-.19.53c-3-.71-7.89.41-9.55-.25-.72.14-1.62.15-2.34.3l0-.29c-2,0-3-.06-5.51,0l.5-.21c-1.4,0-1.76.84-3.06.87l-.39-.42c-2.45,0-4.94-.3-7.36.11,0-.07.11-.19.51-.21-1.15,0-4.47-.24-4,.33,0-.37-2.53,0-3.85.16l.2-.28a7.2,7.2,0,0,1-2.71.57c-.37,0-.33-.22.17-.15-1.24-.14-1,.27-2.46.13l.56-.18a3.69,3.69,0,0,0-1.87.29,5.13,5.13,0,0,1-2.59-.31A2.71,2.71,0,0,1,89,22.7c-.1-.09.17-.15.3-.18-2.12-.19-3.15.33-4.61.06,0-.1-.12-.14-.24-.17,1.68,0,3,0,2.91,0,0-.26-1.36-.3-.28-.66a18,18,0,0,1-4.28.5.76.76,0,0,1-.18-.09l.14,0a3.27,3.27,0,0,0-.84,0c-.42,0-.69-.07-1.1-.08-.15-.21-1.56-.12-2.23-.13,0,.28-.84.23,0,.47-.1,0,.13,0,.58,0l.29,0,0,0h1.68a3.67,3.67,0,0,1-1.84.1c-.35.18-.74.36-1,.45-.93-.4-2.72-.62-3-.86-2.08.14-4.88.07-6.19.58a1.14,1.14,0,0,1-.89-.25,6.09,6.09,0,0,0,.93-.11c-1.18.12-3.49,0-3.78.37-1.48-.19.84-.32-1.2-.3l.28-.11c-4-.67-6.55.82-11-.13.31.06.46.08.52.15C51.55,22,49,22,46.37,21.77l-1.92-.19a16.22,16.22,0,0,1-1.84-.38c-.6-.2-1.19-.4-1.77-.61a13.31,13.31,0,0,1-1.64-.84,11.19,11.19,0,0,0-1.27-.57c-.3-.09-.57-.13-1-.26l-.1-.4c-.49-.13-.92-.35-1.39-.52a6.91,6.91,0,0,1-2.11-2,13.43,13.43,0,0,0-2.19-2.43l.06.39c-.61-.72-1.88-2.33-1.6-2.32a.85.85,0,0,1-.45-.52l.12-.11c-.5-.59-.93-1.23-1.39-1.87-.65-1.67.64,0-.36-2.38-.44-.84-1.33-2.4-1.31-2s.2,1,.06,1.06c-.13-.28-.25-.55-.36-.83-.24,0-.53-.18-.72,0s-.28.61,0,1.75c.27.48.56.94.86,1.39v.57L25.48,7.4A2.78,2.78,0,0,0,26.3,9a1.28,1.28,0,0,0,.07.72c.37.41.76.79,1.14,1.18-.06.25-.67-.44-.22.53.56.52,0-.8.73.16.24.75-.05.68.62,1.31,0,.17-.2.06-.46-.2.59.57,1.29,1.71,1.77,1.85a4.92,4.92,0,0,0,1,1.33c.39.41.69.76.51.89.13.05.42.26.79.48a10.08,10.08,0,0,1,1,.71c-.68-.24-.17.23.46.76s1.44,1.05,1.13,1.18a11.32,11.32,0,0,1,2.26,1,15.15,15.15,0,0,0,2.8,1.1,1,1,0,0,1-.45-.09c.91.44,1.17.58,1.76.89.12-.17.56-.16,1.07-.11a10.34,10.34,0,0,0,1.57,0c1.16.59-.82.32-.51.74,0-.17.57-.12,1-.14s.93,0,.74-.18c.88.34.77.2,1.21.58.2-.47.85,0,1.63-.25,1.29.34.3.5,1.75.43C50.43,24.06,49.14,24.16,49.14,24.16Zm34-.14h0l-.7,0ZM86,24H84.79c-.1-.1,0-.2.29-.19C84.93,23.87,85.6,23.93,86,24Zm-6-2c.45,0,.6,0,.66.08l-.79,0-.05,0A.45.45,0,0,1,80,22.06Z"/><path class="cls-1" d="M79.18,22.43l-.18,0,.27.06.16-.09Z"/><path class="cls-1" d="M80.82,1.84h.06l-.12,0Z"/><polygon class="cls-1" points="125.42 24.19 125.42 24.11 125.17 24.18 125.42 24.19"/><path class="cls-1" d="M65.12.87A.53.53,0,0,0,64.91.8.66.66,0,0,0,65.12.87Z"/><path class="cls-1" d="M58.33.81l-1-.1Z"/><path class="cls-1" d="M52.89.67a.19.19,0,0,0-.1.12h0Z"/><path class="cls-1" d="M136.05.34h.21C136.73.27,136.41.29,136.05.34Z"/><path class="cls-1" d="M111.37,1a7,7,0,0,1,.8-.14C111.73.84,111.39.84,111.37,1Z"/><path class="cls-1" d="M163.62,0h0Z"/><path class="cls-1" d="M113.31.87a4.37,4.37,0,0,0-1.14,0A7.23,7.23,0,0,0,113.31.87Z"/><path class="cls-1" d="M32.08,5.77a1.55,1.55,0,0,1-.23-.06s0,0,0,0Z"/><path class="cls-1" d="M31.81,5.75l-.27,0A.63.63,0,0,0,31.81,5.75Z"/><path class="cls-1" d="M31,5.64l.57.07A1.33,1.33,0,0,0,31,5.64Z"/><path class="cls-1" d="M38.74,6.33l.07-.1A.13.13,0,0,0,38.74,6.33Z"/><path class="cls-1" d="M40.76,6.1c-.48,0-1.22,0-1.89,0l-.06.09a2.94,2.94,0,0,1,.93,0A2.71,2.71,0,0,0,40.76,6.1Z"/><path class="cls-1" d="M49.37,4.55c-.53.27-1.09.48-1.63.73.32,0,.76-.09,0,.3C50,4.85,47.26,5.58,49.37,4.55Z"/><path class="cls-1" d="M53.72,2.06c-.38,0-.29.06-.25.1l.12.07s.11,0,.09,0C54.28,2.18,54.43,2.15,53.72,2.06Z"/><path class="cls-1" d="M93.13,2.06l-.1.26C93.76,2.28,93,2.22,93.13,2.06Z"/><polygon class="cls-1" points="100.66 0.74 99.95 0.58 99.61 0.81 100.66 0.74"/><polygon class="cls-1" points="105.11 2.56 104.79 2.6 106 2.5 105.11 2.56"/><path class="cls-1" d="M171.28,2.47l-.22-.32C170.57,2.21,170.47,2.56,171.28,2.47Z"/><path class="cls-1" d="M197.8,9.48a2.68,2.68,0,0,0,1.63.07C198.78,9.55,198.13,9.44,197.8,9.48Z"/><polygon class="cls-1" points="132.96 21.54 133.53 21.42 132.45 21.53 132.96 21.54"/><path class="cls-1" d="M130.46,123.74c.09.05.28,0,.24-.12l-.33-.1Z"/><path class="cls-1" d="M131.07,122.8a.71.71,0,0,0-.74-.25c.31.16.18.2.56.38,0,.14-.11.24-.23.22.09,0-.07.22.14.29a.39.39,0,0,0,0-.65C130.93,122.73,131,122.78,131.07,122.8Z"/><path class="cls-1" d="M131.59,109.11l0,.09A.36.36,0,0,0,131.59,109.11Z"/><path class="cls-1" d="M131.77,100.63c0,.07,0,.09.07.1S131.8,100.62,131.77,100.63Z"/><path class="cls-1" d="M132.14,99.18l0,.09S132.16,99.2,132.14,99.18Z"/><path class="cls-1" d="M131.59,109.11l.1-.23C131.58,108.87,131.61,109,131.59,109.11Z"/><path class="cls-1" d="M130.27,120.91a.27.27,0,0,0,.09.12l0-.11Z"/><path class="cls-1" d="M131.86,112.85v.07l.13,0Z"/><path class="cls-1" d="M131.91,115.72c0-.07-.27-.09-.39-.11a.25.25,0,0,1,.19.14Z"/><path class="cls-1" d="M131.41,120.27l0,.08Z"/><path class="cls-1" d="M131.92,110.8l.1,0A.17.17,0,0,0,131.92,110.8Z"/><path class="cls-1" d="M98.47,120.41h0S98.46,120.44,98.47,120.41Z"/><polygon class="cls-1" points="97.07 123.74 97.06 123.69 96.9 123.68 97.07 123.74"/><path class="cls-1" d="M132.48,96.26v0C132.52,96.41,132.52,96.33,132.48,96.26Z"/><path class="cls-1" d="M110.72,85.45c.31.2-.42.38,0,.6C110.71,86,111.09,85.56,110.72,85.45Z"/><path class="cls-1" d="M130.31,120.84v-.12A.24.24,0,0,0,130.31,120.84Z"/><path class="cls-1" d="M110.76,86.05h0l0,0Z"/><path class="cls-1" d="M128.61,90.64a.39.39,0,0,0-.05.14A.24.24,0,0,0,128.61,90.64Z"/><path class="cls-1" d="M131.17,94.74l0-.12A.37.37,0,0,0,131.17,94.74Z"/><path class="cls-1" d="M126.45,89.31c0-.06,0-.1-.13-.12v0A.1.1,0,0,1,126.45,89.31Z"/><path class="cls-1" d="M124.28,87.92a.14.14,0,0,0,0,.07l.08,0Z"/><path class="cls-1" d="M98.33,112.94a1,1,0,0,1-.25.12C98.28,113,98.35,113.38,98.33,112.94Z"/><path class="cls-1" d="M130.43,120.91a.19.19,0,0,1-.12-.07l0,.08S130.41,120.93,130.43,120.91Z"/><path class="cls-1" d="M125.05,91l-.26-.25A1.25,1.25,0,0,0,125.05,91Z"/><path class="cls-1" d="M98.67,95.94V96A.05.05,0,0,0,98.67,95.94Z"/><path class="cls-1" d="M123.87,90.25a.55.55,0,0,0-.08-.28l-.07,0Z"/><path class="cls-1" d="M98.08,113.06Z"/><path class="cls-1" d="M98.74,115.63c0-.37-.36-.17-.57-.25-.11-.45.27-.21.46-.36-.1-.28-.44-.49-.42-.7.06,0,.08,0,.16,0-.3-.29,0-.87-.39-1.21a.26.26,0,0,1,.1,0,1.62,1.62,0,0,1-.51,0c0-.17-.23-.31,0-.37,0,.1.09.11.16.16l-.1-.18c.34-.16.12.24.37.24-.11-.34-.4-.74-.3-1,.34,0,.12.61.42.26l-.13.41c.53-.31,0,.24.53,0,.1-.53-.17-.6-.07-1.13-.19-.12-.28,0-.47-.08-.34-.75.86-.59.4-1.14-.22-.15-.65-.2-.42-.6l.38.14c0-.52-.55-.3-.29-.84.15.1.12.41.17.33.3-.35-.22-.25-.22-.52l.34,0c0-.55-.3-1.15-.36-1.76.1,0,.21.14.31,0a5.21,5.21,0,0,1,.24-2.38l-.29-.28c0-.07.13-.12.19,0,.11-.29-.19,0-.3-.15a.15.15,0,0,1,.26-.12,2.47,2.47,0,0,1-.23-2l.09.11c.12-.42-.6-.47-.33-.86l.06.07c.12-.9-.15-1.9.3-2.59-.43-.13.19-.9-.4-.95a2.69,2.69,0,0,1,.33-.47l.13-.22.06-.17c0-.08,0-.05.07-.08s-.36-.09-.35-.31l.29.12c-.06-.13-.12-.27-.17-.4h.4c0-.07,0-.14,0-.22a.23.23,0,0,1-.27,0,.67.67,0,0,1,.7-.53l.17-.79c.09.08.06.21.08.34-.06-.52.3.11.27-.36-.09,0-.14-.12-.19-.16.27,0,.49-.41.63-.7l.13.17a4.37,4.37,0,0,0,.53-.71,6.73,6.73,0,0,1,.59-.73c-.23.09-.46-.19-.36-.36l.29.17c-.06-.23-.23.06-.23-.3.19-.15.37.14.36.32,0-.1.08-.19.12-.29.08.06.07.14.14.24-.05-.22.59-.09.48-.46l.08.06c.45-.44.63-.67,1-1-.16-.24,0-.31,0-.59a5.23,5.23,0,0,0,1.25-.45c.2-.29,0-.25,0-.48.14.2.56,0,.42.25a4.68,4.68,0,0,0,1.17-.86c-.11-.06-.21-.07-.2-.17a.23.23,0,0,1,.35.1l0,0c.64-.64,2,0,2.43-.58l0,0,.58-.44c.3,0-.14.24.11.33.6-.61,1.13-.12,1.66-.51.28.35.66.25,1.09.18a1.58,1.58,0,0,1,1.18.06l0-.18c.15-.18.19.09.31.13,0-.14-.18-.15-.08-.26a4.89,4.89,0,0,1,2.08.1c.35.08.7.15,1,.25a10.2,10.2,0,0,0,1,.31c.49.12.44-.86,1-.35l-.24.3c1.07-.16,2,.45,3,.51-.09.05-.12.14-.21.11.11.3.71.27.79.1.14.07,0,.17,0,.29s.59,0,.59.21c0,0-.08,0-.12,0,.17,0,.54.3.55,0,.27.28.7.19.86.5.33-.16.46.46.75.12-.27.37.34.64.65.63-.15.06.07.24-.11.33.21.16.45.24.56,0,0,.69,1,.32.78,1a6.46,6.46,0,0,1,1,.6,5.44,5.44,0,0,1,.87.7c-.37.26-.53-.59-.88-.25.56.38,1.14.45,1.43,1.08,0,.18-.22,0-.32,0,.55.45.69,1.1,1.17,1.52a.27.27,0,0,1-.17-.06c.07.1.07.27.25.17l-.1-.08c.17-.31.77.14.92.11-.62.06.11.61-.7.62a.28.28,0,0,0,.31,0c0,.08-.09.1-.25.12a1.68,1.68,0,0,0,.24.08c.07,0,.12,0,.12.2-.1,0-.14-.1-.26-.11a.75.75,0,0,1,.31.75c-.06,0-.14,0-.14-.08,0,.6.52,1,.33,1.68-.43-.19-.14.22-.51.26l.11.35.18-.14c0,.31.26.58.14.85l-.15-.23.07.58.14-.33c.19.31.47,0,.37.38,0-.08,0,.31-.23.47h0c.12.15.25.31.15.54-.12.06-.41-.05-.49,0,.31.15.09.73.42.92a.41.41,0,0,0-.31,0l.25.13c-.08.14-.12.16-.28.14,0,.43.48-.14.27.37,0,0-.06,0-.09-.1-.11.51.16,1,0,1.47-.37.14-.09-.42-.41-.26a9.78,9.78,0,0,1,.36,2.07l.05-.12c.53.09-.27.49,0,.83,0-.08-.29-.11-.23-.09a4.16,4.16,0,0,0,.3,1.61l-.14-.08a5.26,5.26,0,0,0-.13,1c.13.09.11.25.31.15-.78.89.42,1.7-.23,2.48,0-.09-.12-.22-.12-.15l.13.67c.23,0,.14-.09.32-.23a.59.59,0,0,1,.24.44c-.15-.3-.37,0-.5.14.07,0,.15,0,.22,0-.41.35.46.06.19.54l-.12,0c.06.18.22.34.18.54-.26.08-.12-.19-.34-.21,0,.27.51.54.24.78-.08-.11-.08-.28-.15-.39-.31.26-.23.3-.28.49v0l-.14.46.09-.11c.69.34.12.69.58,1.14-.43-.44-.25-.07-.55-.1-.09.11-.18.29-.27.24.25.22-.19.36.17.66-.1,0,0,.24-.26.19.08.28.17-.07.3-.05.33.44-.41,1,.05,1.64.19.54.52.64.68,1.14-.16.17-.36-.14-.36-.14a.76.76,0,0,0,0,.73c-.09,0-.16,0-.27.08s.36.14.21.41a1.49,1.49,0,0,1-.39-.21c.09.24.27.48.36.73-.17.07-.26-.15-.37-.24.08.28.16.73.43.82l.09-.18c0,.1-.23,0-.28,0-.21-.25.09-.35.19-.37l.06.18c.58-.18-.09-.71-.05-1.07l.41.15-.34-.37c.11-.08.34-.13.4,0,.21-.26-.15-.23.08-.45,0,0,.06,0,.07,0l-.12-.25c.09,0,.29,0,.23.11.24-.45-.31-.73,0-.9l0,0c-.14-.63-.3-.06-.66-.53l.75-.32-.3-.06c0-.06,0-.19.15-.17-.21-.24-.13,0-.33-.1.28-.31-.13-.85.36-.92-.23-.11-.18.3-.34,0,.52-.09-.09-.38.15-.66.27.08.13.35.37.07-.46-.17.1-.55,0-.79-.36,0-.15-.52-.27-.93.12,0,.2-.75.33-1.12h.06c-.37-.08-.3-.46-.38-.74a.43.43,0,0,1,.41.21v-.26a.41.41,0,0,1-.22-.32l.27.07c0-.35-.32-.71-.14-1.16-.26,0-.71.36-.88-.12.13,0,.37,0,.43.09,0,0-.12-.15-.06-.23l.24.19c.1-.2-.2-.1-.18-.27.2,0,.14-.12.3-.1s-.08.15,0,.21a.68.68,0,0,1,.3-.48c-.11,0-.27,0-.29-.14,0-.35.23-.12.34-.33-.14-.08,0-.3-.29-.31,0-.1.13-.12.21-.16-.13-.18,0-.85-.35-.65l0,.05v0h0c-.29-.59.17-1.24,0-1.83h.1c-.11-.35-.07-.78-.28-1a.25.25,0,0,1,.3-.2c-.08-.27-.19-.3,0-.69.17.27.15-.1.12.27.09-.35.25-.43,0-.8.25.13.31-.27.24-.43l-.18.24a1.46,1.46,0,0,1,0-.51l.34.09c.4-.72-.69-1.3,0-1.84-.24-.19-.17.39-.44.22,0-.33.52-.68.52-.78.19-.45-.48-.42-.36-.89a.37.37,0,0,1-.54-.24c0-.33.49-.41.59-.2s0,.12-.07.12.1.24.22.11l-.11,0c.12-.16.1-.62.3-.51-.11-.25-.2-.11-.26.08.17-.43,0-.67.12-1.1-.06.07-.2.13-.2.06.15-.64-.23-.28-.28-.71.18-.25.43.09.28-.35.12-.27.32-.06.41,0-.22-.4.15-.74.2-1l.09.21a.81.81,0,0,1-.05-.33l-.24.12c0-.13,0-.23.14-.23-.15-.12-.39.1-.61-.15.06-.06,0-.25,0-.41s-.06-.3.09-.38c.06.19.06.28.08.32s.07,0,.12,0,.22-.14.25.25c-.06-.15,0-.33,0-.55,0,0,.08,0,.12.07-.06-.94-.49-.29-.72-.83a.23.23,0,0,0,.18-.33c.09.21-.22.22-.43.1,0-.37-.27-.29-.34-.46l0,.22c-.19,0-.24-.15-.41-.33.11-.08.19.15.2,0-.4-.07,0-.68-.4-.89,0-.21.27-.19.26-.37-.43-.22-.06-.52-.48-.78-.12.25,0,.23-.43.12.2.15.37.33.56.49l-.55-.18c.12.18.38.29.42.42-.28-.07-.22-.08-.33.11.13-.44-.48-.36-.5-.76l.48-.35c-.13-.58-.8-.55-1.15-1.13l.07.23c-.24.09-.31-.28-.52-.38.15-.12.11-.27.13-.42-.08.1-.35-.36-.66-.11l-.05-.39c-.33-.45-.81,0-1.17-.36.25-.08.15-.33.53-.24-.14-.1-.24-.23-.33-.12,0-.16-.54-.08-.56-.33-.11,0-.25.18-.39,0a.14.14,0,0,1,.06-.08c-.06.08-.32-.07-.31.21-.1-.79-1.24-.75-1.38-1.42-.37-.11-.81-.25-1.12-.38,0,0,0-.09.09,0-.35-.37-.47.36-.88,0-.14-.39.33-.07.21-.24.18-.62-.63-.14-.84-.62h.1c-.19-.3-.71,0-1.13-.18a.11.11,0,0,0,0-.09,2.68,2.68,0,0,1-1.4.2c.18-.22.22-.09.2-.36-.2,0,0,.42-.42.4-.09-.17-.33-.36-.32-.63.12,0,.24,0,.36.07-.11-.41-.47-.09-.64-.17l0-.15c-.57,0-.63.35-1.21.24l0,.12c-.36.34-.24-.25-.59,0l-.06-.41a8.2,8.2,0,0,1-1.16.39,3.16,3.16,0,0,1,1-.57c-.21,0-.73,0-.85.18.09,0,.2-.12.28-.06a1.27,1.27,0,0,1-1,.41c.1-.76-1.09-.26-1.41-.8-.74.33-1.51-.09-2.39.07.38.55-.26.06-.13.66-.19.07-.27.07-.3,0l-.66-.27c-.18-.15.17-.16.13-.3-.46,0-.23-.22-.56-.34.1.21-.1.33-.38.29l.42.22c-.57.41-.65-.4-1.21.07l.15-.24c-.29.19-1.21.3-1.37.85-.08,0-.21-.19-.08-.27-.78.21-1.49,1.07-2.15,1V87c-.12.11-.12.37-.35.32,0-.06,0-.17-.07-.14s-.24.41-.46.41l.08-.22c-.81.16-.86.93-1.34,1.35-.23-.37-.85-.19-1.12,0l0-.06a5.61,5.61,0,0,0-1.5,1.94,1.59,1.59,0,0,0-1,.62,13.63,13.63,0,0,1-1,1c.15-.05.26.23.2.37s-.08.61-.38.35l0-.06c-.4-.11-.55.3-.74.56l.41.33a1.47,1.47,0,0,0-.92,1.13c-.17.48-.25.9-.68,1a4.53,4.53,0,0,1,0,.53,1.83,1.83,0,0,0,.13.5h-.29a5.05,5.05,0,0,0,0,1.42l-.2-.13c0,.36.82.45.83.78L96,99c0,.63-.36,1.27,0,1.89-.06,0-.18,0-.2-.13,0,.29-.29,1.14.29,1-.37,0,0,.65.13,1l-.28,0c.36.28.46.29.56.69,0,.1-.23.09-.16,0-.14.32.27.25.12.63l-.18-.14c0,.32.08.3.28.47a.53.53,0,0,1-.32.67c.15,0,.36.22.29.41a.17.17,0,0,1-.19-.08c-.19.55.33.81,0,1.18a.24.24,0,0,0-.16.07,4.32,4.32,0,0,1,0-.75c-.26,0-.3.35-.66.07.2.28.62.76.5,1.1l-.09,0,0,0a.22.22,0,0,0,0,.21,1,1,0,0,0-.08.29c-.21,0-.11.4-.12.57.28,0,.24.21.47,0,0,0,0,0,0-.15s0-.06,0-.07h0l0-.43c.14.13.26.28.11.47l.45.24c-.39.24-.6.7-.85.76.16.53.11,1.25.64,1.59.06.15-.16.17-.24.23-.05-.09,0-.19-.12-.24.14.3,0,.89.42,1-.16.39-.34-.21-.28.31l-.11-.07c-.59,1,.94,1.67.18,2.81.05-.07.07-.11.13-.13-.33,1.3.32,2.68-.21,4-.11.36.13.4.31.63l-.31.07.35.38c.26.54-.74.94-.26,1.62l.21-.09c0,.25.12.78-.12.74,0,0,.22.08.11.18h-.16l.27.6c-.11.47-.63-.07-.66.61.06.26.46.72.57.63a.31.31,0,0,1,.26-.27l.08.23c.46,0,.94.22,1.27-.35L98,123l.23-.13v.33c.21-.19,0-.31-.1-.44a.39.39,0,0,0,.25-.17l-.45-.39c.18,0,.36.18.46-.08-.2-.18-.4.17-.54-.13.21-.19.38-.13.2-.36a.21.21,0,0,1,.25.11c-.14-.2-.06-.53-.31-.63.26-.2-.06-.67.38-.65a1,1,0,0,1-.37-.53c.53.33,0-.68.6-.59-.48-.25-.21-.89-.48-1.32,0,0,.12.07.09.11,0-.25.19-.32.28-.48-.4,0-.48-.41-.73-.62.38-.3.46.19.83.09-.32,0-.32-.52-.58-.42.23-.23.11-.2.43-.32-.49,0-.08-.21-.38-.4.24-.33.46-.09.31-.45C98.57,115.3,98.74,115.63,98.74,115.63Zm-.84-8.69h0l0,.18Zm0-.73a3.11,3.11,0,0,0,0,.32c-.1,0-.2,0-.19-.08S97.81,106.32,97.89,106.21Zm-2,1.54a.11.11,0,0,1,.08-.17,1,1,0,0,0,0,.21h0A.34.34,0,0,1,95.94,107.75Z"/><path class="cls-1" d="M96.31,108s0,0,0,.05l.07-.07-.09,0Z"/><path class="cls-1" d="M131.54,109.21h0l0,0Z"/><polygon class="cls-1" points="98.49 96.65 98.42 96.63 98.46 96.7 98.49 96.65"/><path class="cls-1" d="M130.58,113.24s-.05,0-.07.05Z"/><path class="cls-1" d="M130.52,115l-.1.25A1.83,1.83,0,0,0,130.52,115Z"/><path class="cls-1" d="M130.38,116.31l.12,0h0Z"/><path class="cls-1" d="M129.55,95.71l0,0C129.42,95.6,129.48,95.66,129.55,95.71Z"/><path class="cls-1" d="M130.7,101.39a1.13,1.13,0,0,1-.13-.2C130.55,101.3,130.54,101.39,130.7,101.39Z"/><polygon class="cls-1" points="125.07 91.06 125.08 91.05 125.05 91.03 125.07 91.06"/><path class="cls-1" d="M130.57,100.89a.35.35,0,0,0,0,.3A.44.44,0,0,0,130.57,100.89Z"/><path class="cls-1" d="M130.25,122.1v.06h0Z"/><path class="cls-1" d="M130.28,122.17l0,.07A.07.07,0,0,0,130.28,122.17Z"/><path class="cls-1" d="M130.39,122.39l-.07-.15C130.31,122.3,130.31,122.36,130.39,122.39Z"/><path class="cls-1" d="M130.38,120.33l-.1,0Z"/><path class="cls-1" d="M130.35,119.79c0,.13-.22.33-.15.51h.08C130.12,120.23,130.52,119.92,130.35,119.79Z"/><path class="cls-1" d="M131.61,117.55l-.08.45c.11-.08.25-.18.28,0C132.13,117.46,131.57,118.14,131.61,117.55Z"/><path class="cls-1" d="M131.77,116.15c0,.25.15,0,.22,0C131.89,116,131.86,116,131.77,116.15Z"/><path class="cls-1" d="M131.77,106.06l.25,0C132,105.9,131.92,106.09,131.77,106.06Z"/><polygon class="cls-1" points="130.44 104.14 130.29 104.32 130.52 104.4 130.44 104.14"/><polygon class="cls-1" points="132.27 103 132.3 103.08 132.21 102.77 132.27 103"/><path class="cls-1" d="M124.8,87.93l-.1.3C124.84,88.25,125,88,124.8,87.93Z"/><path class="cls-1" d="M117.47,85.87c-.06-.17-.26-.3-.41-.16C117.22,85.75,117.38,85.9,117.47,85.87Z"/><polygon class="cls-1" points="97.14 93.79 97.13 93.6 97.06 93.9 97.14 93.79"/></g></g></svg>