<svg xmlns="http://www.w3.org/2000/svg" viewBox="0 0 215.79 183.56"><defs><style>.cls-1{fill:#02406c;}.cls-2{fill:#11476a;}.cls-3{fill:#0d446a;}.cls-4{fill:#5ebbc8;}.cls-5{fill:#a6d8d2;}.cls-6{fill:#c9e7e5;}.cls-7{fill:#ebfafa;}</style></defs><g id="Layer_2" data-name="Layer 2"><g id="Layer_1-2" data-name="Layer 1"><path class="cls-1" d="M140.61,119.92l-.74.85-.36.08a7.59,7.59,0,0,0-.95-.07c-3-4-4.25-4-7,0-2.43-.85-3.87-4-7.1-3l-1.27-.14c-3.85,1.47-4.86,5-2.86,10.48.84,2.29,2.32,4.53-.08,6.76a1.37,1.37,0,0,1-.76-.35c-1.11-.7-1.75-2.62-3.33-1.89-.54.25-.41,2-.58,3-.16,3.57,1.35,4.9,4.82,3.59,2.73,2.24-2.38,3.35-.77,5.43l-.92,1c-1.62,0-2.4-.74-3.32-2.25-2.49-4-1.32-9-3.72-13.08-.91-1.55-.33-4.5-2.92-4.33-2.31.15-4.58,1.13-5.26,4.28-.72,3.35-1.23,7-4.2,9.46-2.64-1.7-4.49-1.13-5.5,1.91-1.39.44-1.14,3.43-3.08,2.5-2.13-1-.16-2.43.27-3.69.37-1.07.25-2.34.73-3.34,1.72-3.66.89-8.08,3.35-11.44,2.11-2.88,1.42-6-2-8.16-2.94,2.12-2.43,5.79-3.87,8.6-1.26,2.45-2.28,5-3.41,7.55-2.68-.48-2-2.81-2.45-4.49-.16-4-2.69-3.84-5.52-3.18-.06-1.63-.21-3.26-.17-4.89.11-3.81-2.47-4.22-4.84-3.06-2.93,1.45-6.29,3.26-5,7.73h0l-4.35-2.12a.54.54,0,0,1-.14-.51c0-.64.15-1.7-.15-1.86-4.87-2.59-1.32-4.4.4-6.65,2-2.59,4.62-5.06,3.51-8.93-.26-2.24-1.43-1-2.3-.56a51.68,51.68,0,0,1-11.27,4.89c-.09-1.93.15-4-1.92-5.2l.09-3.17c4.76,2,6.69-2.34,9.34-4.53,5.36-4.42,7.68-12,4.26-17.13-8.27-12.4-10.73-26-9.51-40.38a30.58,30.58,0,0,1,13.1-23.18c4.44-3.2,10-5.22,12.78-10.51C99.23-2,116.87-2,134.53,6c.66,3,2.24,5.15,5.32,5.78,1.46.29,2.86.33,4.05,1.48,6.87,6.61,13.42,13.3,16,23,.55,2.05.51,5.34,3.42,6.56,0,2,0,4,0,6-2.92,1.22-1.62,4.74-3.62,6.59-.93.86.55,3.48-1.42,3.72s-2.38-1.8-2.91-3.42a3.89,3.89,0,0,0-5.24-2.42c-2.16.77-5.88-.89-6.35,2.42s-1.71,7.45,1.21,10.42c2.7,2.74,5.93,2.24,9,.29a2.07,2.07,0,0,1,2.74.1,2.15,2.15,0,0,1,.12,2.74c-1.52,2.9-3.26,5.71-4.49,8.73-2.09,5.11-5.19,10.28-.9,15.8-.56,1-2.44,1.52-1.52,3.11.77,1.33,2.29.74,3.51.88h0v4c-3.87,1.86-1.24,5.34-2,8l-1,2a5.5,5.5,0,0,0-2.95,3.2,5.37,5.37,0,0,0-.88,3.75c-1.16.05-2.36,0-3.18,1.05l-1,0c-.19-.91-.09-2.12-1.46-2C140.84,117.77,140.75,119.16,140.61,119.92ZM110.93,61.3c-3.14.48-5.2,2.29-5.32,5.53-.14,3.63,2.32,5.69,5.57,5.79s5-2.52,5.09-5.62C116.33,63.71,114.09,62,110.93,61.3Z"/><path class="cls-2" d="M99.28,139.87c3-2.45,3.48-6.11,4.2-9.46.68-3.15,3-4.13,5.26-4.28,2.59-.17,2,2.78,2.92,4.33,2.4,4.08,1.23,9,3.72,13.08.92,1.51,1.7,2.24,3.32,2.25,0,2,.44,3.74,3,3.43a2,2,0,0,0,1.8-2.07c-.11-2.55-1.84-2.77-3.85-2.4-1.61-2.08,3.5-3.19.77-5.43a5.48,5.48,0,0,0-.15-4.4c2.4-2.23.92-4.47.08-6.76-2-5.44-1-9,2.86-10.48-2.2,18.45,1.57,35.2,15.11,48.57,9.33,9.22,20.51,11.83,33,6.66a18.87,18.87,0,0,1,2.09-.6c-4.59,5.34-16.13,7.86-25.36,5.78-15-3.39-24.27-13.65-31.44-26.35-4.2-7.44-6.48-15.59-8.33-24.09-3,6.26-5.39,12.6-8.92,18.37-3.18,5.19-5.27,11.2-10.68,14.8.24-1.55.84-3.19-1-4.25l2.23-4.3c1.52.69,3.1,1.26,4.32-.4a1.92,1.92,0,0,0-.29-2.64c-1.58-1.43-2.94-.41-4.27.55-.23-1.16.4-2.64-1.19-3.44-2,3.24-4,6.29-1.7,10.08-1.22.66-2.39,1.54-1.87,3.06.63,1.84,2.37,1.33,3.81,1.31-2.24,6.34-7.59,10-12.48,13.91-8.76,7-18.49,11-30.11,7.64,1.64-1.3,3.5-.79,5.24-.94,9.45-.85,16.39-6.2,22-13.15,11.52-14.16,17.13-30.87,19.94-48.67a6.69,6.69,0,0,0-.31-1.93c3.45,2.12,4.14,5.28,2,8.16-2.46,3.36-1.63,7.78-3.35,11.44-.48,1-.36,2.27-.73,3.34-.43,1.26-2.4,2.66-.27,3.69,1.94.93,1.69-2.06,3.08-2.5.8,1.48,1.66,3.1,3.69,2.53C99.76,143.66,99.65,141.75,99.28,139.87Zm28.14,15.76c-.32-.94-.84-2-2.26-1.93a2,2,0,0,0-2.13,2.21A1.91,1.91,0,0,0,125,157.8C126.33,157.91,127.13,157.26,127.42,155.63Z"/><path class="cls-2" d="M81.6,6.06c-2.77,5.29-8.34,7.31-12.78,10.51a30.58,30.58,0,0,0-13.1,23.18c-1.22,14.39,1.24,28,9.51,40.38,3.42,5.13,1.1,12.71-4.26,17.13-2.65,2.19-4.58,6.49-9.34,4.53-2.21,1-4.25,2.45-6.92,2-1.36-.22-2.68.09-3.06,1.78-1.75-.1-3.72.1-3.52,2.28.23,2.48,2.28,2.32,4.17,1.75h5.86c1.41.39.47,1,.19,1.63l-4.57.19a.87.87,0,0,0-1.36-.06L41,111.18c-1-.9-2.12-.68-3.26-.36-9.53-2.7-17.66-7.32-22.27-16.6-2.8-5.64-2.63-9.76.49-15a11.83,11.83,0,0,1,.71,2.36C17.82,95.74,28.56,104.28,43,102.41a27.1,27.1,0,0,0,13.67-5.63c9-7.14,9.19-8.59,4.53-18.81C55.6,65.63,50.54,53,53.35,39,56.6,22.9,66.73,12.37,81.6,6.06Z"/><path class="cls-2" d="M67.75,125.91c-1.28-4.47,2.08-6.28,5-7.73,2.37-1.16,4.95-.75,4.84,3.06,0,1.63.11,3.26.17,4.89s-.5,3.55,1.5,4.69,2.87-.53,4-1.51c.47,1.68-.23,4,2.45,4.49C76.92,151.1,64,163,43.91,165.27A30.43,30.43,0,0,1,28.7,163.1c15.4.26,28-5.23,37.07-17.66a52.78,52.78,0,0,0,10-25.44Zm10.46,11.52a2.29,2.29,0,0,0-2.49-1.94c-1.32,0-2.23.72-2.18,2.13a2.07,2.07,0,0,0,2.6,2.19A2.36,2.36,0,0,0,78.21,137.43Z"/><path class="cls-2" d="M67,105.83c1.11,3.87-1.55,6.34-3.51,8.93-1.72,2.25-5.27,4.06-.4,6.65.3.16.11,1.22.15,1.86-1.82-1.68-3.79-2.51-5.25.19A2.35,2.35,0,0,0,59.55,127c2.58.65,3.54-1,3.86-3.25l4.35,2.12C46.9,144,14.1,143.17,0,124.14a1.18,1.18,0,0,1,1.73.17c12.17,11.1,31.24,9.62,43.82,2.52C54.62,121.72,61.35,114.35,67,105.83ZM51.54,132.3A2.54,2.54,0,0,0,54.13,130a2.09,2.09,0,0,0-2.05-2.25c-1.62-.23-2.44.63-2.5,2.17A2.24,2.24,0,0,0,51.54,132.3Zm-6.45,1.53c-.26-1.3-1-2.11-2.33-1.88a2.11,2.11,0,0,0-2,2.33,1.82,1.82,0,0,0,2.1,1.57C44.09,135.78,45.05,135.27,45.09,133.83Z"/><path class="cls-3" d="M143.53,119.76c.82-1.05,2-1,3.18-1.05,2.8,2,4.93,2,5.71-2a9,9,0,0,0,5.25,1l5.84,4.91a51.47,51.47,0,0,0,18,9.64c2.52,3,5.94.81,8.86,1.53h4.29c2.9.8,6.53-1.94,8.82,1.81-15.24,7.79-30,4.86-44.53-2.1-4.11-2-8.21-4.23-11.43-7.66C148.64,122.2,144.74,121.86,143.53,119.76Zm13.17,7a2.25,2.25,0,0,0,2.56-1.89,2.18,2.18,0,0,0-2.09-2.73A2.11,2.11,0,0,0,154.7,124,2.26,2.26,0,0,0,156.7,126.75Zm10.39,3.7a2.21,2.21,0,0,0-2-2.38c-1.41-.29-2.15.72-2.32,1.91a2,2,0,0,0,1.91,2.38C166,132.56,166.71,131.62,167.09,130.45Z"/><path class="cls-2" d="M140.49,123.77c3.33,9.24,7.21,18.13,14.78,24.91,8.47,7.59,18.09,11.47,29.57,10.18.88-.1,1.91-.58,2.72.35-16,9.91-44.33-2.87-56.16-25.33,1.46,0,2.95.65,4.38-.13,1,1.85,2.32,3.68,4.34,1.54,1.79-1.9.55-3.51-1.58-4.43C140.13,128.75,138.72,125.82,140.49,123.77ZM145.71,142a2,2,0,0,0-2.19-2,1.82,1.82,0,0,0-1.91,1.84c-.06,1.44.87,2.07,2.18,2.08A1.82,1.82,0,0,0,145.71,142Z"/><path class="cls-2" d="M157.67,117.7a9,9,0,0,1-5.25-1l-1-1.65c.1-1.21.22-2.43-.86-3.34l1-2,3.1,0c1.43,1,2.93,1.47,4.29,0,1.58-1.69.22-3.22-.47-4.77l1.15-2.39c8.14,8.34,17.93,12.5,29.61,11,14.33-1.86,21.31-10,21.78-24.86,2.84,5.15,1.79,13.74-2.06,18.45-6.11,7.5-13.78,12.19-23.44,13.43-.27-1.44.84-3.34-1.3-4.17a1.7,1.7,0,0,0-2.08.73c-1.3,1.82.55,2.46,1.36,3.49-7.17,1.06-13.84-1-20.48-3.26-3-1.32-5.27-4.39-9.25-4.57Zm8.29-2.46a2.3,2.3,0,0,0,2.47-2.41,2.33,2.33,0,0,0-2.48-2.52,2.13,2.13,0,0,0-2.29,2.14A2.42,2.42,0,0,0,166,115.24Zm8.67-1.26c-.78.51-1.89,1-1.72,2.4a2,2,0,0,0,2.37,1.89,1.89,1.89,0,0,0,1.94-2.26C177.05,114.74,176.16,114.1,174.63,114Z"/><path class="cls-2" d="M151.53,93.77c-4.29-5.52-1.19-10.69.9-15.8,1.23-3,3-5.83,4.49-8.73a2.15,2.15,0,0,0-.12-2.74,2.07,2.07,0,0,0-2.74-.1c-3.09,1.95-6.32,2.45-9-.29-2.92-3-1.7-7-1.21-10.42S148,54,150.18,53.27a3.89,3.89,0,0,1,5.24,2.42c.53,1.62,1,3.65,2.91,3.42s.49-2.86,1.42-3.72c2-1.85.7-5.37,3.62-6.59-.34,10.8-3.82,20.81-8.9,30.09-3.06,5.59-2.67,10.3.21,15.39l4.16,7.36-3.31.11c-.14-1.59.45-3.55-2-4h0C153.59,96.06,153.25,94.58,151.53,93.77Zm2.21-37.95c-3-2.06-5.32-1.56-6.91,1.06s-1.17,5.55,1.71,7.27c2.41,1.44,4.59,1.11,5.73-2-1.85-.47-4.12.08-4.53-2.41C149.31,57,152.17,57.26,153.74,55.82Z"/><path class="cls-2" d="M163.36,42.82c-2.91-1.22-2.87-4.51-3.42-6.56-2.62-9.74-9.17-16.43-16-23-1.19-1.15-2.59-1.19-4.05-1.48-3.08-.63-4.66-2.83-5.32-5.78,15.1,6.65,25.93,16.82,28.2,34.1C162.86,41,163.83,41.74,163.36,42.82Z"/><path class="cls-3" d="M140.49,123.77c-1.77,2-.36,5-2,7.09a2.36,2.36,0,0,1-.87.17c-3.44-1.78-1.57,1.24-2,2.19a.41.41,0,0,1,.09.53c-1.43.78-2.92.1-4.38.13l0,0c.93-3.05-3.54-6-.2-9.08a7.46,7.46,0,0,1,.33.94c.25,1.12.17,2.42,1.55,2.94l.44-1.67c1.69-.28,3.37-.63,2.89-3-.42-2-1.81-2.54-3.67-2.21l-1.21-1.09c2.76-4,4-4,7,0,.29.44.6.49.95.07l.36-.08C140.08,121.77,140.28,122.77,140.49,123.77Z"/><path class="cls-2" d="M203.45,135.6c-2.29-3.75-5.92-1-8.82-1.81,7.77-1.19,15.19-3.22,21.16-8.9C215.19,128.81,209.66,133.56,203.45,135.6Z"/><path class="cls-2" d="M131.55,120.78l1.21,1.09c-.52,1-1,2-1.54,2.95-3.34,3.1,1.13,6,.2,9.08-3.54-4.83-5.12-10.51-7-16.08C127.68,116.74,129.12,119.93,131.55,120.78Z"/><path class="cls-3" d="M155.53,101.75l3.31-.11.75,1c-.39.8-.77,1.6-1.15,2.39-3.78-.43-4.35,1.71-3.82,4.75l-3.1,0c.77-2.63-1.86-6.11,2-8,.66.91,1.31.92,2,0Z"/><path class="cls-4" d="M48.35,111.23c.28-.59,1.22-1.24-.19-1.63-.85-3,.66-4.25,3.38-4.64,2.07,1.2,1.83,3.27,1.92,5.2A6.79,6.79,0,0,1,48.35,111.23Z"/><path class="cls-5" d="M157.67,117.7l-3.94-4.89c4,.18,6.22,3.25,9.25,4.57-2.77,2,1.55,3.37.53,5.23Z"/><path class="cls-2" d="M143.53,119.76c1.21,2.1,5.11,2.44,4,6.08-2.29-1.77-4.83-3.27-6.37-5.85l1.39-.25Z"/><path class="cls-4" d="M183.46,120.64c-.81-1-2.66-1.67-1.36-3.49a1.7,1.7,0,0,1,2.08-.73c2.14.83,1,2.73,1.3,4.17Z"/><path class="cls-2" d="M190.34,133.78c-2.92-.72-6.34,1.5-8.86-1.53Z"/><path class="cls-2" d="M42.42,180c.31.06.73,0,.92.22s.11.56-.36.43a2.63,2.63,0,0,1-.85-.47C41.76,179.85,41.87,179.77,42.42,180Z"/><path class="cls-3" d="M142.51,119.74l-1.39.25-.28.11-.23-.18c.14-.76.23-2.15.44-2.17C142.42,117.62,142.32,118.83,142.51,119.74Z"/><path class="cls-4" d="M37.7,110.82c1.14-.32,2.26-.54,3.26.36A3.13,3.13,0,0,1,37.7,110.82Z"/><path class="cls-4" d="M42.42,111.36a.87.87,0,0,1,1.36.06Z"/><path class="cls-6" d="M110.93,61.3c3.16.7,5.4,2.41,5.34,5.7-.06,3.1-1.8,5.72-5.09,5.62s-5.71-2.16-5.57-5.79C105.73,63.59,107.79,61.78,110.93,61.3ZM115.32,67c-.47-1.65-1.42-2.79-3.18-2.54a2.67,2.67,0,0,0,.3,5.3C114.3,69.84,115,68.54,115.32,67Z"/><path class="cls-3" d="M51.54,105c-2.72.39-4.23,1.65-3.38,4.64H42.3a3.25,3.25,0,0,0-.65-4c.38-1.69,1.7-2,3.06-1.78,2.67.44,4.71-1,6.92-2Z"/><path class="cls-4" d="M99.28,139.87c.37,1.88.48,3.79-1.81,4.44-2,.57-2.89-1.05-3.69-2.53C94.79,138.74,96.64,138.17,99.28,139.87Z"/><path class="cls-4" d="M83.29,129.31c-1.15,1-2,2.65-4,1.51s-1.43-3-1.5-4.69C80.6,125.47,83.13,125.33,83.29,129.31Z"/><path class="cls-4" d="M63.41,123.78c-.32,2.24-1.28,3.9-3.86,3.25A2.35,2.35,0,0,1,58,123.46c1.46-2.7,3.43-1.87,5.25-.19A.54.54,0,0,0,63.41,123.78Z"/><path class="cls-4" d="M151.4,115.1l1,1.65c-.78,3.94-2.91,3.92-5.71,2a5.37,5.37,0,0,1,.88-3.75Z"/><path class="cls-4" d="M120.24,134.92a5.48,5.48,0,0,1,.15,4.4c-3.47,1.31-5,0-4.82-3.59a6.15,6.15,0,0,1,3.91-1.16A1.37,1.37,0,0,0,120.24,134.92Z"/><path class="cls-4" d="M119.62,144.75c2-.37,3.74-.15,3.85,2.4a2,2,0,0,1-1.8,2.07c-2.53.31-3-1.4-3-3.43Z"/><path class="cls-3" d="M151.53,93.77c1.72.81,2.06,2.29,2,4-1.22-.14-2.74.45-3.51-.88C149.09,95.29,151,94.79,151.53,93.77Z"/><path class="cls-3" d="M151.4,115.1l-3.81-.14a5.5,5.5,0,0,1,2.95-3.2C151.62,112.67,151.5,113.89,151.4,115.1Z"/><path class="cls-2" d="M119.48,134.57a6.15,6.15,0,0,0-3.91,1.16c.17-1.06,0-2.8.58-3C117.73,132,118.37,133.87,119.48,134.57Z"/><path class="cls-3" d="M153.53,97.77c2.45.43,1.86,2.39,2,4l0,0-2-1Z"/><path class="cls-2" d="M153.54,100.78l2,1c-.65.92-1.3.91-2,0C153.53,101.45,153.53,101.12,153.54,100.78Z"/><path class="cls-2" d="M139.51,120.85c-.35.42-.66.37-.95-.07A7.59,7.59,0,0,1,139.51,120.85Z"/><path class="cls-1" d="M86.75,156.42c-2.34-3.79-.31-6.84,1.7-10.08,1.59.8,1,2.28,1.19,3.44l.24,2.49c-.74,1.43-1.48,2.87-2.23,4.3Q87.2,156.51,86.75,156.42Z"/><path class="cls-4" d="M89.88,152.27l-.24-2.49c1.33-1,2.69-2,4.27-.55a1.92,1.92,0,0,1,.29,2.64C93,153.53,91.4,153,89.88,152.27Z"/><path class="cls-4" d="M86.75,156.42q.45.09.9.15c1.85,1.06,1.25,2.7,1,4.25l0,0c-1.44,0-3.18.53-3.81-1.31C84.36,158,85.53,157.08,86.75,156.42Z"/><path class="cls-4" d="M127.42,155.63c-.29,1.63-1.09,2.28-2.47,2.17a1.91,1.91,0,0,1-1.92-1.89,2,2,0,0,1,2.13-2.21C126.58,153.65,127.1,154.69,127.42,155.63Z"/><path class="cls-4" d="M41.65,105.58a3.25,3.25,0,0,1,.65,4c-1.89.57-3.94.73-4.17-1.75C37.93,105.68,39.9,105.48,41.65,105.58Z"/><path class="cls-4" d="M78.21,137.43a2.36,2.36,0,0,1-2.07,2.38,2.07,2.07,0,0,1-2.6-2.19c-.05-1.41.86-2.09,2.18-2.13A2.29,2.29,0,0,1,78.21,137.43Z"/><path class="cls-4" d="M51.54,132.3a2.24,2.24,0,0,1-2-2.42c.06-1.54.88-2.4,2.5-2.17A2.09,2.09,0,0,1,54.13,130,2.54,2.54,0,0,1,51.54,132.3Z"/><path class="cls-4" d="M45.09,133.83c0,1.44-1,1.95-2.22,2a1.82,1.82,0,0,1-2.1-1.57,2.11,2.11,0,0,1,2-2.33C44.13,131.72,44.83,132.53,45.09,133.83Z"/><path class="cls-4" d="M156.7,126.75a2.26,2.26,0,0,1-2-2.76,2.11,2.11,0,0,1,2.47-1.86,2.18,2.18,0,0,1,2.09,2.73A2.25,2.25,0,0,1,156.7,126.75Z"/><path class="cls-4" d="M167.09,130.45c-.38,1.17-1.05,2.11-2.41,1.91a2,2,0,0,1-1.91-2.38c.17-1.19.91-2.2,2.32-1.91A2.21,2.21,0,0,1,167.09,130.45Z"/><path class="cls-4" d="M137.67,131a2.36,2.36,0,0,0,.87-.17c2.13.92,3.37,2.53,1.58,4.43-2,2.14-3.35.31-4.34-1.54a.41.41,0,0,0-.09-.53Z"/><path class="cls-4" d="M145.71,142a1.82,1.82,0,0,1-1.92,1.89c-1.31,0-2.24-.64-2.18-2.08a1.82,1.82,0,0,1,1.91-1.84A2,2,0,0,1,145.71,142Z"/><path class="cls-4" d="M166,115.24a2.42,2.42,0,0,1-2.3-2.79,2.13,2.13,0,0,1,2.29-2.14,2.33,2.33,0,0,1,2.48,2.52A2.3,2.3,0,0,1,166,115.24Z"/><path class="cls-4" d="M154.62,109.73c-.53-3,0-5.18,3.82-4.75.69,1.55,2.05,3.08.47,4.77C157.55,111.2,156.05,110.7,154.62,109.73Z"/><path class="cls-4" d="M174.63,114c1.53.12,2.42.76,2.59,2a1.89,1.89,0,0,1-1.94,2.26,2,2,0,0,1-2.37-1.89C172.74,115,173.85,114.49,174.63,114Z"/><path class="cls-7" d="M153.74,55.82c-1.57,1.44-4.43,1.2-4,3.88.41,2.49,2.68,1.94,4.53,2.41-1.14,3.15-3.32,3.48-5.73,2-2.88-1.72-3.38-4.51-1.71-7.27S150.75,53.76,153.74,55.82Z"/><path class="cls-4" d="M131.22,124.82c.51-1,1-2,1.54-2.95,1.86-.33,3.25.23,3.67,2.21.48,2.32-1.2,2.67-2.89,3l-2-1.27A7.46,7.46,0,0,0,131.22,124.82Z"/><path class="cls-2" d="M131.55,125.76l2,1.27c-.15.55-.3,1.11-.44,1.67C131.72,128.18,131.8,126.88,131.55,125.76Z"/><path class="cls-2" d="M137.67,131l-2,2.19C136.1,132.27,134.23,129.25,137.67,131Z"/><path class="cls-2" d="M115.32,67c-.37,1.52-1,2.82-2.88,2.76a2.67,2.67,0,0,1-.3-5.3C113.9,64.23,114.85,65.37,115.32,67Z"/></g></g></svg>