<svg xmlns="http://www.w3.org/2000/svg" viewBox="0 0 33.46 63.45"><defs><style>.cls-1{fill:#ef8885;}.cls-2{fill:#e19797;}.cls-3{fill:#c9e7e5;}.cls-4{fill:#11476a;}</style></defs><g id="Layer_2" data-name="Layer 2"><g id="Layer_1-2" data-name="Layer 1"><path class="cls-1" d="M23.53,49.88a2.36,2.36,0,0,0,.06-1c.23-3.06-1.12-6.55.94-9.09s1.62-4.3.58-6.69c-1.58-3.64,1-11,4.47-13.2,3.13-2.46,1.82-5.88,1.94-9-1.7-1.44-3.09-3.27-5.65-3.46-1.48-.11-2.71.22-1.82,1.63,3.39,5.42-1,6.27-4.31,7.84C16.26,20.22,11.9,22.2,9.58,27.17c-3.56,7.62,0,12.95,3.77,18.62.87,1.31,2.83,2,2.29,4.1l0,0,1.91.08c3.35.28,1,4.16,3.08,5.34C22.52,53.78,20.45,50.48,23.53,49.88Z"/><path class="cls-2" d="M19.74,16.93c3.29-1.57,7.7-2.42,4.31-7.84-.89-1.41.34-1.74,1.82-1.63,2.56.19,3.95,2,5.65,3.46C30.28,7.8,31.64,4,27.6,1.5c-3.17-2-4.13-1.66-5.35,1.87-1-1.44-.76-3.77-3.35-3.31-2.17.38-1,2.42-1.65,2.81C11.61,6.45,11.12,15.78,2.55,16c-1.38,0-2.83.41-2.5,2.27S1.93,20.44,3.5,20c4.07-1.28,8.11-2.65,12.16-4-1.23-.45-3.9.54-3.41-1.52.6-2.59.95-6.08,5.22-7.46-.73,3.57-1.28,6.28-1.83,9C17,16.32,18.62,15.59,19.74,16.93Z"/><path class="cls-2" d="M23.53,49.88c-3.08.6-1,3.9-2.92,5.4-2.06-1.18.27-5.06-3.08-5.34.65,4.3.71,8.57-3.87,10.78-3.26,1.58-6-.18-8.22-2.68C2.91,54.55,2.91,54.5,6,52.17V57.6c.69-.39,2-.88,2-1.16-.5-3.08,1-4.23,3.8-4.68,3.3-.53.37,3.62,3,3.57,1.83-1.53.35-3.69.89-5.47l0,0C12.29,48.11,9,46.22,5.05,48.47,1.26,50.63.76,54,2.29,57.43a9.83,9.83,0,0,0,15.78,3.39C21.36,58,24.58,55,23.53,49.88Z"/><path class="cls-2" d="M29.58,19.91c-3.5,2.21-6,9.56-4.47,13.2,1,2.39,1.37,4.29-.58,6.69s-.71,6-.94,9.09A16.94,16.94,0,0,0,25,45.21c.54-3.78,2-3.56,4.26-1.24.79.84,1.52,1.93,2.9,1.39s1.11-1.9,1.15-3c.1-2.32.16-4.65.13-7-.1-7.05-.43-7.3-6.59-5.26C25.79,26.18,29.55,23.53,29.58,19.91Z"/><path class="cls-3" d="M15.62,49.86c-.54,1.78.94,3.94-.89,5.47-2.58.05.35-4.1-3-3.57-2.81.45-4.3,1.6-3.8,4.68,0,.28-1.28.77-2,1.16-.2.14-.39.29-.57.44,2.23,2.5,5,4.26,8.22,2.68,4.58-2.21,4.52-6.48,3.87-10.78Z"/><path class="cls-1" d="M15.64,16c.55-2.71,1.1-5.42,1.83-9-4.27,1.38-4.62,4.87-5.22,7.46-.49,2.06,2.18,1.07,3.41,1.52Z"/><path class="cls-3" d="M6,57.6V52.17c-3.1,2.33-3.1,2.38-.57,5.87C5.62,57.89,5.81,57.74,6,57.6Z"/><path class="cls-4" d="M20.29,11.36a1.6,1.6,0,0,0,0-2.64c-1-.93-1.87-.28-2.57.6C17.72,11.09,18.46,11.91,20.29,11.36Z"/></g></g></svg>