<svg xmlns="http://www.w3.org/2000/svg" viewBox="0 0 67.3 90.78"><defs><style>.cls-1{fill:#ef8885;}.cls-2{fill:#e19797;}.cls-3{fill:#c9e7e5;}.cls-4{fill:#a99ead;}.cls-5{fill:#11476a;}</style></defs><g id="Layer_2" data-name="Layer 2"><g id="Layer_1-2" data-name="Layer 1"><path class="cls-1" d="M23.53,49.88a2.36,2.36,0,0,0,.06-1c.23-3.06-1.12-6.55.94-9.09s1.62-4.3.58-6.69c-1.58-3.64,1-11,4.47-13.2,3.13-2.46,1.82-5.88,1.94-9-1.7-1.44-3.09-3.27-5.65-3.46-1.48-.11-2.71.22-1.82,1.63,3.39,5.42-1,6.27-4.31,7.84C16.26,20.22,11.9,22.2,9.58,27.17c-3.56,7.62,0,12.95,3.77,18.62.87,1.31,2.83,2,2.29,4.1l0,0,1.91.08c3.35.28,1,4.16,3.08,5.34C22.52,53.78,20.45,50.48,23.53,49.88Z"/><path class="cls-1" d="M59.56,46.92c-.06-1.36-.13-2.71-.2-4.06-2.69-1-4.26-2.76-3.85-5.82l-.07-.14c-4.27,0-8.79-2.19-12.38,2.41-2.4,3.08-1,6.33-1.42,9.48l0,.1c2.74,4.14,2.48,7.89-1.07,11.55-1.54,1.58-3.09,2.83-1.08,6.14a8.83,8.83,0,0,1-1.87,10.28c-.29,3.28-.13,6.46,2.2,9.11l2.08-.1c-1.25-5.1.07-8.64,5.12-11.27,11.19-5.83,12-18.22,4.68-24.78-2-.23-2.56-1.51-1.75-3.13.58-1.16,1.25-2-.42-2.65-1.31-.48-2-1.11-1.16-2.54A2.84,2.84,0,0,1,51.25,40c1.33.09,2.23.73,2.23,2.12C53.49,46.26,55.9,47.35,59.56,46.92Z"/><path class="cls-2" d="M19.74,16.93c3.29-1.57,7.7-2.42,4.31-7.84-.89-1.41.34-1.74,1.82-1.63,2.56.19,3.95,2,5.65,3.46C30.28,7.8,31.64,4,27.6,1.5c-3.17-2-4.13-1.66-5.35,1.87-1-1.44-.76-3.77-3.35-3.31-2.17.38-1,2.42-1.65,2.81C11.61,6.45,11.12,15.78,2.55,16c-1.38,0-2.83.41-2.5,2.27S1.93,20.44,3.5,20c4.07-1.28,8.11-2.65,12.16-4-1.23-.45-3.9.54-3.41-1.52.6-2.59.95-6.08,5.22-7.46-.73,3.57-1.28,6.28-1.83,9C17,16.32,18.62,15.59,19.74,16.93Z"/><path class="cls-2" d="M23.53,49.88c-3.08.6-1,3.9-2.92,5.4-2.06-1.18.27-5.06-3.08-5.34.65,4.3.71,8.57-3.87,10.78-3.26,1.58-6-.18-8.22-2.68C2.91,54.55,2.91,54.5,6,52.17V57.6c.69-.39,2-.88,2-1.16-.5-3.08,1-4.23,3.8-4.68,3.3-.53.37,3.62,3,3.57,1.83-1.53.35-3.69.89-5.47l0,0C12.29,48.11,9,46.22,5.05,48.47,1.26,50.63.76,54,2.29,57.43a9.83,9.83,0,0,0,15.78,3.39C21.36,58,24.58,55,23.53,49.88Z"/><path class="cls-2" d="M29.58,19.91c-3.5,2.21-6,9.56-4.47,13.2,1,2.39,1.37,4.29-.58,6.69s-.71,6-.94,9.09A16.94,16.94,0,0,0,25,45.21c.54-3.78,2-3.56,4.26-1.24.79.84,1.52,1.93,2.9,1.39s1.11-1.9,1.15-3c.1-2.32.16-4.65.13-7-.1-7.05-.43-7.3-6.59-5.26C25.79,26.18,29.55,23.53,29.58,19.91Z"/><path class="cls-2" d="M37.65,76.86a8.83,8.83,0,0,0,1.87-10.28c-2-3.31-.46-4.56,1.08-6.14,3.55-3.66,3.81-7.41,1.07-11.55-.19,2.73.52,5.55-.69,8.37-2.19-.23-2.1-4.15-4.56-2.81-1.74.95-2.47,2.84-2.92,4.91-.55,2.52-2.21,4.74-1.81,7.55.21,1.45.69,3.12,2.24,2.38,6.11-2.92,3.54,1.91,3.8,4.12A24.92,24.92,0,0,1,37.65,76.86Z"/><path class="cls-2" d="M59.56,46.92c-3.66.43-6.07-.66-6.08-4.85,0-1.39-.9-2-2.23-2.12A2.84,2.84,0,0,0,48.4,41.5c-.83,1.43-.15,2.06,1.16,2.54,1.67.61,1,1.49.42,2.65-.81,1.62-.29,2.9,1.75,3.13.16-2.54,1.56-1.83,3.07-1.27a22.64,22.64,0,0,1,7.8,5.19c1.07,1,2.57,2.92,4.09,1,1.68-2.08-.51-3.44-1.93-4.2A45.74,45.74,0,0,1,59.56,46.92Z"/><path class="cls-2" d="M41.64,48.79c.42-3.15-1-6.4,1.42-9.48,3.59-4.6,8.11-2.39,12.38-2.41,1-3.7,1-3.94-2.13-3.51-1.47.2-1.49-.88-2.23-1.28a5.28,5.28,0,0,0-7.41,3.2c-.51,2.12-2.63,3-3.26,4.85C39.36,43.17,38.75,46.27,41.64,48.79Z"/><path class="cls-2" d="M55.51,37c-.41,3.06,1.16,4.81,3.85,5.82C59.56,39.94,57.43,38.55,55.51,37Z"/><path class="cls-3" d="M15.62,49.86c-.54,1.78.94,3.94-.89,5.47-2.58.05.35-4.1-3-3.57-2.81.45-4.3,1.6-3.8,4.68,0,.28-1.28.77-2,1.16-.2.14-.39.29-.57.44,2.23,2.5,5,4.26,8.22,2.68,4.58-2.21,4.52-6.48,3.87-10.78Z"/><path class="cls-1" d="M15.64,16c.55-2.71,1.1-5.42,1.83-9-4.27,1.38-4.62,4.87-5.22,7.46-.49,2.06,2.18,1.07,3.41,1.52Z"/><path class="cls-3" d="M6,57.6V52.17c-3.1,2.33-3.1,2.38-.57,5.87C5.62,57.89,5.81,57.74,6,57.6Z"/><path class="cls-4" d="M41.93,85.9l-2.08.1c1.88,5,6,5.09,10.33,4.55,3.89-.49,5.46-3.56,6.14-6.84S55,78.07,51.85,77.28c-2.17-.54-5.24-1.85-5.16,2.58,1.59,1,3.18-1,4.77,0,1.06.3,1.22,1.1,1.13,2l0,0c3.2.82,1.41,3,.73,4.12a5.94,5.94,0,0,1-6.81,2.63C44.85,88.23,43.44,86.85,41.93,85.9Z"/><path class="cls-2" d="M51.46,79.88c-1.59-1-3.18,1-4.77,0-1.18,2-3.43,4.4.13,5.88,3.18,1.32,5.29-.39,5.75-3.86l0,0Z"/><path class="cls-1" d="M59.56,47c-.06-1.35-.13-2.7-.2-4.06-2.69-1-4.26-2.76-3.85-5.82l-.07-.13c-4.27,0-8.79-2.2-12.38,2.4-2.4,3.08-1,6.33-1.42,9.48l0,.11c2.74,4.13,2.48,7.88-1.07,11.54-1.54,1.58-3.09,2.83-1.08,6.14a8.83,8.83,0,0,1-1.87,10.28c-.29,3.29-.13,6.46,2.2,9.11l2.08-.1c-1.25-5.1.07-8.63,5.12-11.27,11.19-5.83,12-18.21,4.68-24.78-2-.23-2.56-1.51-1.75-3.13.58-1.16,1.25-2-.42-2.65-1.31-.48-2-1.1-1.16-2.54A2.84,2.84,0,0,1,51.25,40c1.33.09,2.23.73,2.23,2.12C53.49,46.29,55.9,47.39,59.56,47Z"/><path class="cls-2" d="M37.65,76.89a8.83,8.83,0,0,0,1.87-10.28c-2-3.31-.46-4.56,1.08-6.14,3.55-3.66,3.81-7.41,1.07-11.54-.19,2.72.52,5.54-.69,8.36-2.19-.23-2.1-4.14-4.56-2.8-1.74.94-2.47,2.84-2.92,4.9-.55,2.52-2.21,4.75-1.81,7.55.21,1.46.69,3.12,2.24,2.38,6.11-2.91,3.54,1.92,3.8,4.12A24.92,24.92,0,0,1,37.65,76.89Z"/><path class="cls-2" d="M59.56,47c-3.66.44-6.07-.66-6.08-4.85,0-1.39-.9-2-2.23-2.12a2.84,2.84,0,0,0-2.85,1.55c-.83,1.44-.15,2.06,1.16,2.54,1.67.61,1,1.49.42,2.65-.81,1.62-.29,2.9,1.75,3.13.16-2.54,1.56-1.83,3.07-1.26a22.48,22.48,0,0,1,7.8,5.18c1.07,1,2.57,2.92,4.09,1,1.68-2.07-.51-3.44-1.93-4.19A45.82,45.82,0,0,1,59.56,47Z"/><path class="cls-2" d="M41.64,48.82c.42-3.15-1-6.4,1.42-9.48,3.59-4.6,8.11-2.39,12.38-2.4,1-3.71,1-3.95-2.13-3.52-1.47.2-1.49-.88-2.23-1.27a5.27,5.27,0,0,0-7.41,3.2c-.51,2.11-2.63,3-3.26,4.84C39.36,43.2,38.75,46.3,41.64,48.82Z"/><path class="cls-2" d="M55.51,37.07c-.41,3.06,1.16,4.81,3.85,5.82C59.56,40,57.43,38.59,55.51,37.07Z"/><path class="cls-3" d="M51.46,79.88l1.13,2C52.68,81,52.52,80.18,51.46,79.88Z"/><path class="cls-5" d="M52.17,44.4a1.6,1.6,0,0,0,0-2.64c-1-.93-1.87-.28-2.57.6C49.6,44.13,50.34,45,52.17,44.4Z"/><path class="cls-1" d="M23.53,49.91a2.32,2.32,0,0,0,.06-1c.23-3.07-1.12-6.56.94-9.1s1.62-4.3.58-6.69c-1.58-3.63,1-11,4.47-13.2,3.13-2.46,1.82-5.88,1.94-9-1.7-1.44-3.09-3.27-5.65-3.46-1.48-.1-2.71.22-1.82,1.63,3.39,5.43-1,6.27-4.31,7.85C16.26,20.26,11.9,22.23,9.58,27.2c-3.56,7.62,0,13,3.77,18.63.87,1.3,2.83,2,2.29,4.09l0,0,1.91.08c3.35.28,1,4.17,3.08,5.34C22.52,53.81,20.45,50.51,23.53,49.91Z"/><path class="cls-2" d="M19.74,17c3.29-1.58,7.7-2.42,4.31-7.85-.89-1.41.34-1.73,1.82-1.63,2.56.19,3.95,2,5.65,3.46-1.24-3.12.12-6.88-3.92-9.42-3.17-2-4.13-1.66-5.35,1.87C21.28,2,21.49-.36,18.9.09c-2.17.38-1,2.43-1.65,2.81C11.61,6.48,11.12,15.81,2.55,16c-1.38,0-2.83.41-2.5,2.28S1.93,20.47,3.5,20c4.07-1.27,8.11-2.65,12.16-4-1.23-.45-3.9.55-3.41-1.52.6-2.59.95-6.07,5.22-7.46-.73,3.57-1.28,6.28-1.83,9C17,16.35,18.62,15.62,19.74,17Z"/><path class="cls-2" d="M23.53,49.91c-3.08.6-1,3.9-2.92,5.4-2.06-1.17.27-5.06-3.08-5.34.65,4.3.71,8.58-3.87,10.79-3.26,1.57-6-.19-8.22-2.68-2.53-3.5-2.53-3.55.57-5.88v5.43c.69-.39,2-.88,2-1.15-.5-3.09,1-4.24,3.8-4.69,3.3-.53.37,3.62,3,3.57,1.83-1.53.35-3.68.89-5.47l0,0C12.29,48.14,9,46.25,5.05,48.5,1.26,50.67.76,54,2.29,57.47a9.83,9.83,0,0,0,15.78,3.38C21.36,58,24.58,55,23.53,49.91Z"/><path class="cls-2" d="M29.58,19.94c-3.5,2.21-6,9.57-4.47,13.2,1,2.39,1.37,4.3-.58,6.69s-.71,6-.94,9.1A17.21,17.21,0,0,0,25,45.24c.54-3.78,2-3.56,4.26-1.23.79.83,1.52,1.92,2.9,1.38s1.11-1.9,1.15-3c.1-2.32.16-4.65.13-7-.1-7-.43-7.3-6.59-5.26C25.79,26.21,29.55,23.56,29.58,19.94Z"/><path class="cls-3" d="M15.62,49.89c-.54,1.79.94,3.94-.89,5.47-2.58,0,.35-4.1-3-3.57-2.81.45-4.3,1.6-3.8,4.69,0,.27-1.28.76-2,1.15a6.26,6.26,0,0,0-.57.45c2.23,2.49,5,4.25,8.22,2.68,4.58-2.21,4.52-6.49,3.87-10.79Z"/><path class="cls-1" d="M15.64,16c.55-2.71,1.1-5.42,1.83-9-4.27,1.39-4.62,4.87-5.22,7.46-.49,2.07,2.18,1.07,3.41,1.52Z"/><path class="cls-3" d="M6,57.63V52.2c-3.1,2.33-3.1,2.38-.57,5.88A6.26,6.26,0,0,1,6,57.63Z"/><path class="cls-5" d="M20.29,11.39a1.6,1.6,0,0,0,0-2.64c-1-.93-1.87-.28-2.57.6C17.72,11.12,18.46,11.94,20.29,11.39Z"/></g></g></svg>