<svg xmlns="http://www.w3.org/2000/svg" viewBox="0 0 35.67 59.19"><defs><style>.cls-1{fill:#a99ead;}.cls-2{fill:#e19797;}.cls-3{fill:#ef8885;}.cls-4{fill:#c9e7e5;}.cls-5{fill:#11476a;}</style></defs><g id="Layer_2" data-name="Layer 2"><g id="Layer_1-2" data-name="Layer 1"><path class="cls-1" d="M10.3,54.32l-2.08.1c1.89,5,6,5.09,10.33,4.55,3.9-.49,5.47-3.56,6.14-6.84s-1.29-5.64-4.46-6.43c-2.17-.54-5.25-1.85-5.17,2.58,1.59,1,3.19-1,4.78,0,1.05.3,1.22,1.1,1.12,2v-.05c3.19.83,1.41,3,.72,4.13a5.94,5.94,0,0,1-6.81,2.63C13.22,56.65,11.81,55.26,10.3,54.32Z"/><path class="cls-2" d="M19.84,48.3c-1.59-1-3.19,1-4.78,0-1.18,2-3.43,4.4.13,5.88,3.18,1.32,5.29-.39,5.76-3.87v.05Z"/><path class="cls-3" d="M27.94,15.37l-.21-4.06c-2.68-1-4.26-2.76-3.85-5.82l-.07-.14c-4.26,0-8.79-2.19-12.38,2.41-2.4,3.08-1,6.33-1.42,9.48l0,.11c2.74,4.13,2.48,7.88-1.07,11.54C7.44,30.47,5.88,31.72,7.89,35A8.83,8.83,0,0,1,6,45.31c-.29,3.28-.13,6.46,2.2,9.11l2.08-.1c-1.25-5.1.07-8.63,5.13-11.27,11.18-5.83,11.94-18.21,4.67-24.78-2-.23-2.55-1.51-1.74-3.13.58-1.16,1.24-2-.43-2.65-1.31-.48-2-1.1-1.16-2.54A2.84,2.84,0,0,1,19.62,8.4c1.33.09,2.23.73,2.24,2.12C21.87,14.71,24.27,15.81,27.94,15.37Z"/><path class="cls-2" d="M6,45.31A8.83,8.83,0,0,0,7.89,35c-2-3.31-.45-4.56,1.08-6.14,3.55-3.66,3.81-7.41,1.07-11.54-.19,2.72.52,5.54-.68,8.36-2.2-.23-2.1-4.15-4.57-2.81-1.73,1-2.46,2.84-2.92,4.91C1.32,30.33-.34,32.55.06,35.36c.21,1.45.69,3.12,2.24,2.38,6.11-2.92,3.54,1.92,3.8,4.12A23.45,23.45,0,0,1,6,45.31Z"/><path class="cls-2" d="M27.94,15.37c-3.67.44-6.07-.66-6.08-4.85,0-1.39-.91-2-2.24-2.12A2.84,2.84,0,0,0,16.77,10c-.82,1.44-.15,2.06,1.16,2.54,1.67.61,1,1.49.43,2.65-.81,1.62-.29,2.9,1.74,3.13.17-2.54,1.56-1.83,3.07-1.27A22.64,22.64,0,0,1,31,22.19c1.08,1,2.57,2.92,4.1,1,1.67-2.07-.52-3.44-1.94-4.2A44.75,44.75,0,0,1,27.94,15.37Z"/><path class="cls-2" d="M10,17.24c.43-3.15-1-6.4,1.42-9.48C15,3.16,19.55,5.37,23.81,5.35c1-3.7,1-3.94-2.13-3.51C20.21,2,20.19,1,19.46.56a5.28,5.28,0,0,0-7.41,3.2c-.52,2.12-2.63,3-3.27,4.85C7.73,11.62,7.12,14.72,10,17.24Z"/><path class="cls-2" d="M23.88,5.49c-.41,3.06,1.17,4.81,3.85,5.82C27.93,8.39,25.8,7,23.88,5.49Z"/><path class="cls-4" d="M19.84,48.3l1.12,2C21.06,49.4,20.89,48.6,19.84,48.3Z"/><path class="cls-5" d="M20.55,12.82a1.6,1.6,0,0,0,0-2.64c-1-.93-1.88-.29-2.58.6C18,12.55,18.71,13.37,20.55,12.82Z"/></g></g></svg>