<svg xmlns="http://www.w3.org/2000/svg" viewBox="0 0 52.77 73.87"><defs><style>.cls-1{fill:#6abcc5;}.cls-2{fill:#a5ce50;}.cls-3{fill:#11476a;}.cls-4{fill:#a2ce56;}.cls-5{fill:#a8b8b7;}.cls-6{fill:#a6d8d2;}</style></defs><g id="Layer_2" data-name="Layer 2"><g id="Layer_1-2" data-name="Layer 1"><path class="cls-1" d="M9.78,63.36c-1-9.66-.34-18.62,9.33-24.21.69-.4.7-2,1-3l-.09,0A8.09,8.09,0,0,0,25.41,38c6.21,2.57,13,1,19.32,2.54,10.21,10.85,10.06,15.56,3.11,29-2.47,4.8-4,5-7.82,3.19-.72-2.68-4.1-1.33-5.21-3.42.48-.72.79-1.72,1.47-2.11,6.1-3.49,9-10.67,6.36-15.81A13.27,13.27,0,0,0,24.7,46c-7.59,3.91-9.3,10.82-8.77,18.68Z"/><path class="cls-2" d="M42.75,15.9c3.58,2.58,6.94,5.3,7.16,10.23-.34,3.83-.76,7.58-6.27,6.07.6-8.35-.67-10-9.32-12.18-3-2.92-4.44-2.6-8.33,1.83l0,0a2.5,2.5,0,0,0-3,2.49c-.92,3.92-.08,8.28-2.92,11.73l.09,0C13,28.27,17.16,17.08,28.35,14a2.72,2.72,0,0,0,1.33,0,4.1,4.1,0,0,0,1.26,0Z"/><path class="cls-3" d="M9.78,63.36l6.15,1.3.15.06,1.61.89,2.61.33c3.2.58,6.06,2.57,9.46,2.25l5.05,1.2c1.11,2.09,4.49.74,5.21,3.42-10.88,1.84-21.66-.34-32.46-1-2.47-.14-4.1-2.55-5.81-4.31A5.76,5.76,0,0,1,.08,62.4c2.2,2.65,4.27-5.93,6.66-.08C7,63,8.73,63,9.78,63.36Z"/><path class="cls-4" d="M43.64,32.2c5.51,1.51,5.93-2.24,6.27-6.07,2.44,6.3-1.17,10.44-5.17,14.45C38.38,39,31.62,40.61,25.41,38A19.89,19.89,0,0,1,25.72,26c3-1.52,5.79-5,9.53-2.79,2.4,1.43,6.12,2.44,5.8,6.37a4.8,4.8,0,0,1-4.41,4.37c-3.17.46-5.58-.56-5.18-5.6C28.58,32.48,29,34.62,32.59,36,37.4,37.91,40.68,35.57,43.64,32.2Z"/><path class="cls-5" d="M42.75,15.9,30.94,14c-.06-2.32,1.67-4.86-.64-7.35-1.95,2.66.15,5.1-.62,7.37a2.72,2.72,0,0,1-1.33,0C25.3,7,26.08,3.81,31.48,1.13,36.28-1.25,42,.26,44.4,4.51S44.44,12.27,42.75,15.9ZM38.87,5.74c-.33-3-2-3.13-4.89-2.13,1.49,2,3.31,1.79,4.85,2.16a21,21,0,0,1-1.52,2.9c-.79,1.07-2,2-1.44,3.47s1.77,1,2.84.61c1.51-.49,3-1,3.38-2.83C42.56,7.41,41,6.3,38.87,5.74Z"/><path class="cls-6" d="M20.3,65.94l-2.61-.33-1.61-.89-.15-.06C15.4,56.81,17.11,49.9,24.7,46a13.27,13.27,0,0,1,17.94,5.48c2.68,5.14-.26,12.32-6.36,15.81-.68.39-1,1.39-1.47,2.11l-5.05-1.2c0-2.31-2-3.35-3.06-5-2.46-4-1.25-7.4,2.34-9.86,2.21-1.51,4.83-.9,7,.4s1.82,3.48,1.25,5.44S35.48,62.57,33,61.56c.14-2.27,4.71-3,2-5.56a3.94,3.94,0,0,0-6,.76c-1.9,2.69-1.1,5.15,1.71,6.77,4.29,2.46,7.55.91,9.12-3.33,1.45-3.93,1.58-7.88-3.19-10.32C31,47,25.4,47.77,22.37,52.41A16.83,16.83,0,0,0,20.3,65.94Z"/><path class="cls-6" d="M25.72,26A19.89,19.89,0,0,0,25.41,38a8.09,8.09,0,0,1-5.36-1.93c2.84-3.45,2-7.81,2.92-11.73a6.72,6.72,0,0,1,1.34-.16Z"/><path class="cls-5" d="M25.72,26c-.47-.58-.94-1.16-1.42-1.73L26,21.89l0,0L34.32,20c8.65,2.16,9.92,3.83,9.32,12.18-3,3.37-6.24,5.71-11,3.83-3.62-1.41-4-3.55-1.13-7.73-.4,5,2,6.06,5.18,5.6a4.8,4.8,0,0,0,4.41-4.37c.32-3.93-3.4-4.94-5.8-6.37C31.51,20.94,28.76,24.43,25.72,26Z"/><path class="cls-4" d="M34.32,20,26,21.85C29.88,17.42,31.33,17.1,34.32,20Z"/><path class="cls-6" d="M29.68,14c.77-2.27-1.33-4.71.62-7.37,2.31,2.49.58,5,.64,7.35A4.1,4.1,0,0,1,29.68,14Z"/><path class="cls-4" d="M26,21.89,24.3,24.22a6.71,6.71,0,0,0-1.33.16A2.5,2.5,0,0,1,26,21.89Z"/><path class="cls-1" d="M20.3,65.94a16.83,16.83,0,0,1,2.07-13.53c3-4.64,8.62-5.43,14.3-2.53,4.77,2.44,4.64,6.39,3.19,10.32C38.29,64.44,35,66,30.74,63.53c-2.81-1.62-3.61-4.08-1.71-6.77A3.94,3.94,0,0,1,35,56c2.76,2.57-1.81,3.29-2,5.56,2.44,1,3.67-.35,4.27-2.41s.86-4.18-1.25-5.44-4.81-1.91-7-.4c-3.59,2.46-4.8,5.85-2.34,9.86,1,1.67,3.07,2.71,3.06,5C26.36,68.51,23.5,66.52,20.3,65.94Z"/><path class="cls-1" d="M16.08,64.72l1.61.89Z"/><path class="cls-6" d="M38.87,5.74c2.15.56,3.69,1.67,3.22,4.18-.33,1.79-1.87,2.34-3.38,2.83-1.07.35-2.33.72-2.84-.61s.65-2.4,1.44-3.47a21,21,0,0,0,1.52-2.9Z"/><path class="cls-6" d="M38.83,5.77C37.29,5.4,35.47,5.64,34,3.61c2.89-1,4.56-.91,4.89,2.13Z"/></g></g></svg>