<svg xmlns="http://www.w3.org/2000/svg" viewBox="0 0 55.86 55.55"><defs><style>.cls-1{fill:#a99ead;}</style></defs><g id="Layer_2" data-name="Layer 2"><g id="Layer_1-2" data-name="Layer 1"><path class="cls-1" d="M10,14.65c8.31,2.16,12.61-2.3,15.88-8.93,1.18-2.4,2.34-6,5.53-5.7,3.63.33,4.23,4.34,4.74,7.16,1.52,8.41,4.68,14.56,14.64,14.49,2,0,4.79,1,5.06,3.91C56.08,28,54,29.4,52.16,30,42.35,32.9,40,39.84,41.09,49.09c.24,2,1.27,5.22-1.36,6.22s-4.49-1.55-6.16-3.54c-7.16-8.49-8.62-8.69-19.84-4.31-2.69,1.06-6,3.92-8.47,1.48-2.66-2.6-.64-6.15.83-9.21,2.33-4.82,3.58-9.59-.89-14.14-2.47-2.5-6.34-5.46-4.88-8.91C2,12.69,6.85,16,10,14.65Z"/></g></g></svg>