<svg xmlns="http://www.w3.org/2000/svg" viewBox="0 0 44 46.96"><defs><style>.cls-1{fill:#6abcc5;}</style></defs><g id="Layer_2" data-name="Layer 2"><g id="Layer_1-2" data-name="Layer 1"><path class="cls-1" d="M6.32,5.82a12.37,12.37,0,0,1,3.42.52C16.1,9.1,21.23,7.43,25.41,2.2,26.6.71,27.87-.52,29.92.22c1.78.65,2,2.38,1.77,3.86-1.34,8.13,2.18,13.23,9.61,16.14,1.4.54,2.88,1.58,2.68,3.38-.23,2.15-2.18,2.89-3.88,3.19-8.55,1.51-12.25,6.57-11.73,15.12.13,2-.24,4.26-2.73,4.94s-3-1.5-4-2.88c-4.21-6.12-9.45-9.26-17-6.44A3.49,3.49,0,0,1,.46,36.44c-1.15-1.56.14-2.92.79-4.21a15.46,15.46,0,0,1,2.27-3.09c4.13-4.71,4.83-9.31.22-14.3-1.67-1.81-3.15-4.2-2.28-7C2.16,5.59,4.19,5.91,6.32,5.82Z"/></g></g></svg>