<svg xmlns="http://www.w3.org/2000/svg" viewBox="0 0 207.94 52.54"><defs><style>.cls-1{fill:#f6fcfc;}</style></defs><g id="Layer_2" data-name="Layer 2"><g id="Layer_1-2" data-name="Layer 1"><path class="cls-1" d="M0,5.68C12.56-.71,23.69.27,35.93,8.47c11.35,7.61,24.3,3.26,36.12-2,3.27-1.46,6.53-3,9.72-4.6C88-1.32,93.11-.4,98.52,4.4c9.78,8.66,27.85,9.91,39.12,3.57,1.79-1,4-1.56,5.39-2.94,9.1-8.89,18.23-3.7,26.69.47,9.72,4.81,19.25,8.17,30.12,5.05a11.12,11.12,0,0,1,3.06-.22c2.35,0,4.93-.18,5,3.19.09,2.84-1.72,3.9-4.28,4.5-9.73,2.31-19.63,2.34-28.75-1.33-12.1-4.87-23.57-5.24-35.65-.33-13.55,5.5-27.2,3.81-40.53-1.25-9.6-3.63-18.84-3.56-28.29.72C58.4,21.3,45.77,21,33.58,16.89c-11.19-3.73-22.07-6.56-33.58-2Z"/><path class="cls-1" d="M0,41.17c13.26,7.45,24.25,1.45,34.55-6.35,3.91-3,6.28-2.89,9.86.26,5.49,4.83,10.85,9.74,19.34,9.46,8.74-.28,14.65-5.73,21.21-9.86,4.72-3,7.41-2.35,11.16,1.37,11.58,11.49,20.27,12.2,32.89,1.61,6.64-5.56,11.77-5.54,17.75,0,6.47,6,14.29,7.49,22.82,6.56,2.28-.25,5.68-2,5.81,2.3.1,3.29-2.49,5-5.56,5.3-6.7.56-13.49.79-19.55-2.7-9-5.19-17.51-3.78-26.25.82-7.9,4.15-16.35,2.89-23.74-.83-8.69-4.36-16.65-4.12-25,0-8.88,4.31-17.37,4.28-26.36-.68-6.89-3.8-14.59-4.48-22,0-8.57,5.2-17.75,3.87-26.91,2Z"/></g></g></svg>