<svg xmlns="http://www.w3.org/2000/svg" viewBox="0 0 365.45 237.79"><defs><style>.cls-1{fill:#5ebbc8;}.cls-2{fill:#0d446a;}.cls-3{fill:#c9e7e5;}.cls-4{fill:#11476a;}.cls-5{fill:none;stroke:#c9e7e5;stroke-linecap:round;stroke-miterlimit:10;stroke-width:4px;}</style></defs><g id="Layer_2" data-name="Layer 2"><g id="Layer_1-2" data-name="Layer 1"><path class="cls-1" d="M361.72,85.66c-3,36.19-11.94,70.48-34.46,99.7-21.87,28.36-51.78,39.27-86.93,36.14-28.23-2.51-56-7.61-81.87-19.78-4.81-2.26-6.16,1.34-7.39,4.11a88.74,88.74,0,0,1-8.77,15.33C126.89,243,101.79,239.71,84.13,231.7c-4.13-1.87-2.17-3.78.07-5.54,14.08-11.13,28-22.51,42.4-33.2,5.51-4.08,5.71-6.09.39-10.56C96.75,157,81.08,124.48,80.62,84.9c-.08-6.65-2.52-6.91-7.27-4.05C68.09,84,62.66,87,57.49,90.17c-15.67,9.64-29.94,5.77-44.22-2.54C-4.43,77.33-4,77.81,12.09,65.22,29.64,51.5,46.78,52.44,64.59,63.9c1.19.77,2.14,2.31,4.56,1.5-4.77-8.78-9.13-17.66-8.56-28C61.4,23,68.7,11.7,78,1.46c3-3.31,5.06-.24,6.89,1.74,17.42,18.87,22.25,38.49,7.43,61.39-1.32,2-4.28,4.07-2.77,6.62s4.73,1.17,7.17,1.18q95.59.08,191.19.07c4.28,0,8.77-1,12.83,1.4-13.05,8.19-20.23,20.72-25.5,34.64A84.81,84.81,0,0,1,266,127.09c-7.62,11-19.13,15.74-32.16,12.71A82.09,82.09,0,0,1,209,129.59c-5.46-3.39-11-6.68-16.5-10,7.26,10.36,17.24,17.09,28,22.35,23.32,11.37,43.63,4.31,55.32-18.87,3.58-7.11,6.46-14.56,9.7-21.84C292.8,85,305.09,76.54,323,76.66A89.31,89.31,0,0,1,361.72,85.66ZM211.92,97.17l-.18.08c6.52-3.52,4.19-8.34,1.55-12.78-2.88-4.82-7.42-5-12-2.79-4.94,2.38-7,9.22-4.13,14.58,2.41,4.57,6,7.18,11.34,3.84l1.64-1.38ZM338,97.58c0-1.29.1-2.58,0-3.86-.22-2.37.81-6.08-2.74-6s-2.59,3.79-2.68,6.16c-.23,5.64.1,11.32-.37,16.94-1.68,20.3-4.64,40.3-15.52,58.17-9.47,15.54-23.83,25.06-39.81,32.66-1.66.78-4.72,1.34-3.67,4,1,2.42,3.73,1.29,5.45.54,16.26-7.08,30.35-16.9,40.48-31.87C334.82,151,336.26,124.26,338,97.58Zm-27.59,7.26c0-3.34.14-6.68-.05-10-.15-2.68.48-6.9-2.91-7-4.06-.08-2.52,4.22-2.59,6.73-.24,8.45.25,17-.38,25.37C303.2,136.38,298,151.3,287,164c-9.54,11-22.53,16.13-35.06,22.18-1.65.8-4.85.7-3.79,3.63.89,2.46,3.67,1.65,5.41.92,10.13-4.27,20.44-8.29,28.93-15.59C304,156.6,309.94,131.79,310.38,104.84Z"/><path class="cls-2" d="M361.72,85.66a89.31,89.31,0,0,0-38.7-9c-17.93-.12-30.22,8.36-37.44,24.55-3.24,7.28-6.12,14.73-9.7,21.84-11.69,23.18-32,30.24-55.32,18.87-10.79-5.26-20.77-12-28-22.35,5.51,3.34,11,6.63,16.5,10a82.09,82.09,0,0,0,24.84,10.21c13,3,24.54-1.7,32.16-12.71a84.81,84.81,0,0,0,9.23-18.59c5.27-13.92,12.45-26.45,25.5-34.64,20.56-6.41,40.48-4.16,60,4.31,2.11.92,4.73,1.4,4.72,4.31C365.45,84.62,363.61,85.35,361.72,85.66Z"/><path class="cls-1" d="M338,97.57c-1.7,26.69-3.14,53.41-18.87,76.67-10.13,15-24.22,24.79-40.48,31.87-1.72.75-4.48,1.88-5.45-.54-1.05-2.62,2-3.18,3.67-4,16-7.6,30.34-17.12,39.81-32.66,10.88-17.87,13.84-37.87,15.52-58.17.47-5.62.14-11.3.37-16.94.09-2.37-.88-6.12,2.68-6.16s2.52,3.67,2.74,6A38,38,0,0,1,338,97.57Z"/><path class="cls-1" d="M310.38,104.84c-.44,26.95-6.35,51.76-27.94,70.3-8.49,7.3-18.8,11.32-28.93,15.59-1.74.73-4.52,1.54-5.41-.92-1.06-2.93,2.14-2.83,3.79-3.63C264.42,180.13,277.41,175,287,164c11.06-12.7,16.25-27.62,17.5-44,.63-8.42.14-16.92.38-25.37.07-2.51-1.47-6.81,2.59-6.73,3.39.07,2.76,4.29,2.91,7C310.52,98.16,310.38,101.5,310.38,104.84Z"/><path class="cls-3" d="M208.47,100.1c-5.34,3.34-8.93.73-11.34-3.84-2.84-5.36-.81-12.2,4.13-14.58,4.61-2.22,9.15-2,12,2.79,2.64,4.44,5,9.26-1.55,12.78.42-3.54,1.2-7.28-3-9.24a5.93,5.93,0,0,0-7,1.06,5.54,5.54,0,0,0-1.58,6.24C201.57,99.15,204.32,100.88,208.47,100.1Z"/><path class="cls-4" d="M208.47,100.1c-4.15.78-6.9-.95-8.32-4.79a5.54,5.54,0,0,1,1.58-6.24,5.93,5.93,0,0,1,7-1.06c4.18,2,3.4,5.7,3,9.24l.18-.08-1.81,1.55Z"/><path class="cls-3" d="M210.11,98.72l1.81-1.55Z"/><path class="cls-5" d="M335,87.62s12,91-61,118-176-43-183-109"/><path class="cls-5" d="M306,87.62s20.77,72.31-58,97c-67,21-131-66-141-94"/><path class="cls-5" d="M81,63.62s-13-30,1-55"/><path class="cls-5" d="M67,74.62s-31-17-55,2"/><path class="cls-5" d="M141,197.62s-11,36-44,31"/></g></g></svg>